<svg width="60" height="62" fill="none" xmlns="http://www.w3.org/2000/svg"><path opacity=".1" d="M16.7 61.3c-3.267-.067-6.167-.733-8.7-2-2.467-1.333-4.4-3.433-5.8-6.3C.8 50.067.1 46.2.1 41.4v-24c0-5.867 1.533-10.2 4.6-13C7.833 1.6 11.9.2 16.9.2c4.8 0 8.7 1.4 11.7 4.2 3.067 2.8 4.6 7.133 4.6 13v23.9c0 4.933-.7 8.867-2.1 11.8-1.333 2.933-3.267 5.033-5.8 6.3-2.467 1.267-5.333 1.9-8.6 1.9Zm0-6.9c1.467 0 2.667-.567 3.6-1.7.933-1.2 1.4-2.967 1.4-5.3V14.2c0-2.333-.5-4.067-1.5-5.2-.933-1.2-2.1-1.8-3.5-1.8s-2.6.6-3.6 1.8c-.933 1.133-1.4 2.867-1.4 5.2v33.2c0 2.333.467 4.1 1.4 5.3 1 1.133 2.2 1.7 3.6 1.7ZM47.658 60V15.2h-10.1V8.6l2.8-.1c2.333-.2 4.133-.867 5.4-2 1.333-1.2 2.466-3.067 3.4-5.6h10.1V60h-11.6Z" fill="#AEC4B4"/></svg>