<svg width="73" height="62" fill="none" xmlns="http://www.w3.org/2000/svg"><path opacity=".1" d="M16.7 61.3c-3.267-.067-6.167-.733-8.7-2-2.467-1.333-4.4-3.433-5.8-6.3C.8 50.067.1 46.2.1 41.4v-24c0-5.867 1.533-10.2 4.6-13C7.833 1.6 11.9.2 16.9.2c4.8 0 8.7 1.4 11.7 4.2 3.067 2.8 4.6 7.133 4.6 13v23.9c0 4.933-.7 8.867-2.1 11.8-1.333 2.933-3.267 5.033-5.8 6.3-2.467 1.267-5.333 1.9-8.6 1.9Zm0-6.9c1.467 0 2.667-.567 3.6-1.7.933-1.2 1.4-2.967 1.4-5.3V14.2c0-2.333-.5-4.067-1.5-5.2-.933-1.2-2.1-1.8-3.5-1.8s-2.6.6-3.6 1.8c-.933 1.133-1.4 2.867-1.4 5.2v33.2c0 2.333.467 4.1 1.4 5.3 1 1.133 2.2 1.7 3.6 1.7ZM38.758 60V48c0-3.6.433-6.433 1.3-8.5.933-2.133 2.3-3.867 4.1-5.2 1.867-1.4 4.233-2.8 7.1-4.2 2.333-1.133 4.166-2.267 5.5-3.4 1.333-1.133 2.3-2.467 2.9-4 .666-1.6 1-3.633 1-6.1.066-2.467-.267-4.367-1-5.7-.733-1.333-2.034-2-3.9-2-1.8 0-3.1.8-3.9 2.4-.733 1.533-1.1 3.833-1.1 6.9v4.1h-11.6v-7.4c0-4.8 1.4-8.367 4.2-10.7 2.867-2.4 7.067-3.6 12.6-3.6 4.2 0 7.533.567 10 1.7 2.466 1.133 4.2 2.9 5.2 5.3 1.067 2.4 1.6 5.567 1.6 9.5 0 4.667-.767 8.433-2.3 11.3-1.534 2.867-4.133 5.3-7.8 7.3-1.6.8-3.1 1.6-4.5 2.4-1.4.8-2.633 1.667-3.7 2.6-1 .933-1.733 2.133-2.2 3.6-.4.867-.733 1.833-1 2.9-.267 1-.4 2.1-.4 3.3h22.1V60h-34.2Z" fill="#AEC4B4"/></svg>