<svg width="73" height="62" fill="none" xmlns="http://www.w3.org/2000/svg"><path opacity=".1" d="M16.7 61.3c-3.267-.067-6.167-.733-8.7-2-2.467-1.333-4.4-3.433-5.8-6.3C.8 50.067.1 46.2.1 41.4v-24c0-5.867 1.533-10.2 4.6-13C7.833 1.6 11.9.2 16.9.2c4.8 0 8.7 1.4 11.7 4.2 3.067 2.8 4.6 7.133 4.6 13v23.9c0 4.933-.7 8.867-2.1 11.8-1.333 2.933-3.267 5.033-5.8 6.3-2.467 1.267-5.333 1.9-8.6 1.9Zm0-6.9c1.467 0 2.667-.567 3.6-1.7.933-1.2 1.4-2.967 1.4-5.3V14.2c0-2.333-.5-4.067-1.5-5.2-.933-1.2-2.1-1.8-3.5-1.8s-2.6.6-3.6 1.8c-.933 1.133-1.4 2.867-1.4 5.2v33.2c0 2.333.467 4.1 1.4 5.3 1 1.133 2.2 1.7 3.6 1.7Zm38.658 6.3c-3.867 0-7.067-.567-9.6-1.7-2.534-1.2-4.4-2.867-5.6-5-1.2-2.2-1.8-4.833-1.8-7.9v-6.8h11.6V43c0 3 .4 5.3 1.2 6.9.8 1.6 2.133 2.433 4 2.5 1.733 0 3-.7 3.8-2.1.867-1.4 1.3-3.2 1.3-5.4v-5.7c0-2.2-.733-3.767-2.2-4.7-1.467-.933-3.633-1.433-6.5-1.5h-4.7v-6.4h4.8c1.333 0 2.533-.167 3.6-.5 1.066-.333 1.966-.8 2.7-1.4.8-.667 1.367-1.367 1.7-2.1.333-.8.5-1.633.5-2.5V16c0-1.933-.367-3.6-1.1-5-.733-1.4-2.033-2.1-3.9-2.1-1.934 0-3.267.8-4 2.4-.667 1.6-1 3.8-1 6.6v2.4h-11.7v-5.5c0-4.667 1.367-8.2 4.1-10.6 2.8-2.4 7.066-3.6 12.8-3.6 6 0 10.3 1.1 12.9 3.3 2.666 2.2 4 5.5 4 9.9v4.5c0 3.4-.867 6.133-2.6 8.2-1.667 2.067-4.133 3.3-7.4 3.7 3.267.2 5.767 1.333 7.5 3.4 1.733 2.067 2.6 4.8 2.6 8.2v4.3c0 3.333-.567 6.1-1.7 8.3-1.133 2.133-2.967 3.733-5.5 4.8-2.467 1-5.733 1.5-9.8 1.5Z" fill="#AEC4B4"/></svg>