<svg width="439" height="352" fill="none" xmlns="http://www.w3.org/2000/svg"><path d="M14.2 6.952c1.69 0 3.06-1.371 3.06-3.063A3.062 3.062 0 0 0 14.2.825a3.062 3.062 0 0 0-3.059 3.064 3.062 3.062 0 0 0 3.06 3.063Z" fill="url(#a)" fill-opacity=".3"/><path d="M49.337 6.952c1.69 0 3.06-1.371 3.06-3.063a3.062 3.062 0 0 0-3.06-3.064 3.062 3.062 0 0 0-3.06 3.064 3.062 3.062 0 0 0 3.06 3.063Z" fill="url(#b)" fill-opacity=".3"/><path d="M84.473 6.952c1.69 0 3.06-1.371 3.06-3.063a3.062 3.062 0 0 0-3.06-3.064 3.062 3.062 0 0 0-3.06 3.064 3.062 3.062 0 0 0 3.06 3.063Z" fill="url(#c)" fill-opacity=".3"/><path d="M119.61 6.952a3.062 3.062 0 0 0 3.059-3.063A3.062 3.062 0 0 0 119.61.825a3.062 3.062 0 0 0-3.06 3.064 3.062 3.062 0 0 0 3.06 3.063Z" fill="url(#d)" fill-opacity=".3"/><path d="M154.746 6.952c1.69 0 3.06-1.371 3.06-3.063a3.062 3.062 0 0 0-3.06-3.064 3.062 3.062 0 0 0-3.06 3.064 3.062 3.062 0 0 0 3.06 3.063Z" fill="url(#e)" fill-opacity=".3"/><path d="M189.882 6.952c1.69 0 3.06-1.371 3.06-3.063a3.062 3.062 0 0 0-3.06-3.064 3.062 3.062 0 0 0-3.06 3.064 3.062 3.062 0 0 0 3.06 3.063Z" fill="url(#f)" fill-opacity=".3"/><path d="M228.078 3.889a3.071 3.071 0 0 1-3.06 3.063 3.071 3.071 0 0 1-3.06-3.063 3.071 3.071 0 0 1 3.06-3.064 3.054 3.054 0 0 1 3.06 3.064Z" fill="url(#g)" fill-opacity=".3"/><path d="M260.18 6.952c1.69 0 3.06-1.371 3.06-3.063a3.062 3.062 0 0 0-3.06-3.064 3.062 3.062 0 0 0-3.06 3.064 3.062 3.062 0 0 0 3.06 3.063Z" fill="url(#h)" fill-opacity=".3"/><path d="M295.316 6.952c1.69 0 3.06-1.371 3.06-3.063a3.062 3.062 0 0 0-3.06-3.064 3.062 3.062 0 0 0-3.06 3.064 3.062 3.062 0 0 0 3.06 3.063Z" fill="url(#i)" fill-opacity=".3"/><path d="M333.512 3.889a3.07 3.07 0 0 1-3.059 3.063 3.071 3.071 0 0 1-3.06-3.063 3.071 3.071 0 0 1 3.06-3.064 3.07 3.07 0 0 1 3.059 3.064Z" fill="url(#j)" fill-opacity=".3"/><path d="M365.589 6.952c1.69 0 3.06-1.371 3.06-3.063a3.062 3.062 0 0 0-3.06-3.064 3.062 3.062 0 0 0-3.06 3.064 3.062 3.062 0 0 0 3.06 3.063Z" fill="url(#k)" fill-opacity=".3"/><path d="M400.725 6.952c1.69 0 3.06-1.371 3.06-3.063a3.062 3.062 0 0 0-3.06-3.064 3.062 3.062 0 0 0-3.06 3.064 3.062 3.062 0 0 0 3.06 3.063Z" fill="url(#l)" fill-opacity=".3"/><path d="M435.861 6.952c1.69 0 3.06-1.371 3.06-3.063a3.062 3.062 0 0 0-3.06-3.064 3.061 3.061 0 0 0-3.059 3.064 3.061 3.061 0 0 0 3.059 3.063Z" fill="url(#m)" fill-opacity=".3"/><path d="M14.2 41.37c1.69 0 3.06-1.372 3.06-3.064a3.062 3.062 0 0 0-3.06-3.064 3.062 3.062 0 0 0-3.059 3.064 3.062 3.062 0 0 0 3.06 3.064Z" fill="url(#n)" fill-opacity=".3"/><path d="M49.337 41.37c1.69 0 3.06-1.372 3.06-3.064a3.062 3.062 0 0 0-3.06-3.064 3.062 3.062 0 0 0-3.06 3.064 3.062 3.062 0 0 0 3.06 3.064Z" fill="url(#o)" fill-opacity=".3"/><path d="M84.473 41.37c1.69 0 3.06-1.372 3.06-3.064a3.062 3.062 0 0 0-3.06-3.064 3.062 3.062 0 0 0-3.06 3.064 3.062 3.062 0 0 0 3.06 3.064Z" fill="url(#p)" fill-opacity=".3"/><path d="M119.61 41.37a3.062 3.062 0 0 0 3.059-3.064 3.062 3.062 0 0 0-3.059-3.064 3.062 3.062 0 0 0-3.06 3.064 3.062 3.062 0 0 0 3.06 3.064Z" fill="url(#q)" fill-opacity=".3"/><path d="M154.746 41.37c1.69 0 3.06-1.372 3.06-3.064a3.062 3.062 0 0 0-3.06-3.064 3.062 3.062 0 0 0-3.06 3.064 3.062 3.062 0 0 0 3.06 3.064Z" fill="url(#r)" fill-opacity=".3"/><path d="M189.882 41.37c1.69 0 3.06-1.372 3.06-3.064a3.062 3.062 0 0 0-3.06-3.064 3.062 3.062 0 0 0-3.06 3.064 3.062 3.062 0 0 0 3.06 3.064Z" fill="url(#s)" fill-opacity=".3"/><path d="M228.078 38.306a3.07 3.07 0 0 1-3.06 3.064 3.07 3.07 0 0 1-3.06-3.064 3.071 3.071 0 0 1 3.06-3.064c1.709.026 3.06 1.379 3.06 3.064Z" fill="url(#t)" fill-opacity=".3"/><path d="M260.18 41.37c1.69 0 3.06-1.372 3.06-3.064a3.062 3.062 0 0 0-3.06-3.064 3.062 3.062 0 0 0-3.06 3.064 3.062 3.062 0 0 0 3.06 3.064Z" fill="url(#u)" fill-opacity=".3"/><path d="M295.316 41.37c1.69 0 3.06-1.372 3.06-3.064a3.062 3.062 0 0 0-3.06-3.064 3.062 3.062 0 0 0-3.06 3.064 3.062 3.062 0 0 0 3.06 3.064Z" fill="url(#v)" fill-opacity=".3"/><path d="M333.512 38.306a3.07 3.07 0 0 1-3.059 3.064 3.07 3.07 0 0 1-3.06-3.064 3.071 3.071 0 0 1 3.06-3.064c1.682.026 3.059 1.379 3.059 3.064Z" fill="url(#w)" fill-opacity=".3"/><path d="M365.589 41.37c1.69 0 3.06-1.372 3.06-3.064a3.062 3.062 0 0 0-3.06-3.064 3.062 3.062 0 0 0-3.06 3.064 3.062 3.062 0 0 0 3.06 3.064Z" fill="url(#x)" fill-opacity=".3"/><path d="M400.725 41.37c1.69 0 3.06-1.372 3.06-3.064a3.062 3.062 0 0 0-3.06-3.064 3.062 3.062 0 0 0-3.06 3.064 3.062 3.062 0 0 0 3.06 3.064Z" fill="url(#y)" fill-opacity=".3"/><path d="M435.861 41.37c1.69 0 3.06-1.372 3.06-3.064a3.062 3.062 0 0 0-3.06-3.064 3.061 3.061 0 0 0-3.059 3.064 3.061 3.061 0 0 0 3.059 3.064Z" fill="url(#z)" fill-opacity=".3"/><path d="M14.2 75.812c1.69 0 3.06-1.371 3.06-3.064a3.062 3.062 0 0 0-3.06-3.063 3.062 3.062 0 0 0-3.059 3.063 3.062 3.062 0 0 0 3.06 3.064Z" fill="url(#A)" fill-opacity=".3"/><path d="M49.337 75.812c1.69 0 3.06-1.371 3.06-3.064a3.062 3.062 0 0 0-3.06-3.063 3.062 3.062 0 0 0-3.06 3.063 3.062 3.062 0 0 0 3.06 3.064Z" fill="url(#B)" fill-opacity=".3"/><path d="M84.473 75.812c1.69 0 3.06-1.371 3.06-3.064a3.062 3.062 0 0 0-3.06-3.063 3.062 3.062 0 0 0-3.06 3.063 3.062 3.062 0 0 0 3.06 3.064Z" fill="url(#C)" fill-opacity=".3"/><path d="M119.61 75.812a3.062 3.062 0 0 0 3.059-3.064 3.062 3.062 0 0 0-3.059-3.063 3.062 3.062 0 0 0-3.06 3.063 3.062 3.062 0 0 0 3.06 3.064Z" fill="url(#D)" fill-opacity=".3"/><path d="M154.746 75.812c1.69 0 3.06-1.371 3.06-3.064a3.062 3.062 0 0 0-3.06-3.063 3.062 3.062 0 0 0-3.06 3.063 3.062 3.062 0 0 0 3.06 3.064Z" fill="url(#E)" fill-opacity=".3"/><path d="M189.882 75.812c1.69 0 3.06-1.371 3.06-3.064a3.062 3.062 0 0 0-3.06-3.063 3.062 3.062 0 0 0-3.06 3.063 3.062 3.062 0 0 0 3.06 3.064Z" fill="url(#F)" fill-opacity=".3"/><path d="M228.078 72.748a3.07 3.07 0 0 1-3.06 3.064 3.07 3.07 0 0 1-3.06-3.064 3.07 3.07 0 0 1 3.06-3.063 3.038 3.038 0 0 1 3.06 3.063Z" fill="url(#G)" fill-opacity=".3"/><path d="M260.18 75.812c1.69 0 3.06-1.371 3.06-3.064a3.062 3.062 0 0 0-3.06-3.063 3.062 3.062 0 0 0-3.06 3.063 3.062 3.062 0 0 0 3.06 3.064Z" fill="url(#H)" fill-opacity=".3"/><path d="M295.316 75.812c1.69 0 3.06-1.371 3.06-3.064a3.062 3.062 0 0 0-3.06-3.063 3.062 3.062 0 0 0-3.06 3.063 3.062 3.062 0 0 0 3.06 3.064Z" fill="url(#I)" fill-opacity=".3"/><path d="M333.512 72.748a3.07 3.07 0 0 1-3.059 3.064 3.07 3.07 0 0 1-3.06-3.064 3.07 3.07 0 0 1 3.06-3.063 3.054 3.054 0 0 1 3.059 3.063Z" fill="url(#J)" fill-opacity=".3"/><path d="M365.589 75.812c1.69 0 3.06-1.371 3.06-3.064a3.062 3.062 0 0 0-3.06-3.063 3.062 3.062 0 0 0-3.06 3.063 3.062 3.062 0 0 0 3.06 3.064Z" fill="url(#K)" fill-opacity=".3"/><path d="M400.725 75.812c1.69 0 3.06-1.371 3.06-3.064a3.062 3.062 0 0 0-3.06-3.063 3.062 3.062 0 0 0-3.06 3.063 3.062 3.062 0 0 0 3.06 3.064Z" fill="url(#L)" fill-opacity=".3"/><path d="M435.861 75.812c1.69 0 3.06-1.371 3.06-3.064a3.062 3.062 0 0 0-3.06-3.063 3.061 3.061 0 0 0-3.059 3.063 3.061 3.061 0 0 0 3.059 3.064Z" fill="url(#M)" fill-opacity=".3"/><path d="M14.2 110.23c1.69 0 3.06-1.372 3.06-3.064a3.062 3.062 0 0 0-3.06-3.064 3.062 3.062 0 0 0-3.059 3.064 3.062 3.062 0 0 0 3.06 3.064Z" fill="url(#N)" fill-opacity=".3"/><path d="M49.337 110.23c1.69 0 3.06-1.372 3.06-3.064a3.062 3.062 0 0 0-3.06-3.064 3.062 3.062 0 0 0-3.06 3.064 3.062 3.062 0 0 0 3.06 3.064Z" fill="url(#O)" fill-opacity=".3"/><path d="M84.473 110.23c1.69 0 3.06-1.372 3.06-3.064a3.062 3.062 0 0 0-3.06-3.064 3.062 3.062 0 0 0-3.06 3.064 3.062 3.062 0 0 0 3.06 3.064Z" fill="url(#P)" fill-opacity=".3"/><path d="M119.61 110.23a3.062 3.062 0 0 0 3.059-3.064 3.062 3.062 0 0 0-3.059-3.064 3.062 3.062 0 0 0-3.06 3.064 3.062 3.062 0 0 0 3.06 3.064Z" fill="url(#Q)" fill-opacity=".3"/><path d="M154.746 110.23c1.69 0 3.06-1.372 3.06-3.064a3.062 3.062 0 0 0-3.06-3.064 3.062 3.062 0 0 0-3.06 3.064 3.062 3.062 0 0 0 3.06 3.064Z" fill="url(#R)" fill-opacity=".3"/><path d="M189.882 110.23c1.69 0 3.06-1.372 3.06-3.064a3.062 3.062 0 0 0-3.06-3.064 3.062 3.062 0 0 0-3.06 3.064 3.062 3.062 0 0 0 3.06 3.064Z" fill="url(#S)" fill-opacity=".3"/><path d="M228.078 107.166a3.071 3.071 0 0 1-3.06 3.064 3.071 3.071 0 0 1-3.06-3.064 3.071 3.071 0 0 1 3.06-3.064 3.054 3.054 0 0 1 3.06 3.064Z" fill="url(#T)" fill-opacity=".3"/><path d="M260.18 110.23c1.69 0 3.06-1.372 3.06-3.064a3.062 3.062 0 0 0-3.06-3.064 3.062 3.062 0 0 0-3.06 3.064 3.062 3.062 0 0 0 3.06 3.064Z" fill="url(#U)" fill-opacity=".3"/><path d="M295.316 110.23c1.69 0 3.06-1.372 3.06-3.064a3.062 3.062 0 0 0-3.06-3.064 3.062 3.062 0 0 0-3.06 3.064 3.062 3.062 0 0 0 3.06 3.064Z" fill="url(#V)" fill-opacity=".3"/><path d="M333.512 107.166a3.07 3.07 0 0 1-3.059 3.064 3.071 3.071 0 0 1-3.06-3.064 3.071 3.071 0 0 1 3.06-3.064 3.07 3.07 0 0 1 3.059 3.064Z" fill="url(#W)" fill-opacity=".3"/><path d="M365.589 110.23c1.69 0 3.06-1.372 3.06-3.064a3.062 3.062 0 0 0-3.06-3.064 3.062 3.062 0 0 0-3.06 3.064 3.062 3.062 0 0 0 3.06 3.064Z" fill="url(#X)" fill-opacity=".3"/><path d="M400.725 110.23c1.69 0 3.06-1.372 3.06-3.064a3.062 3.062 0 0 0-3.06-3.064 3.062 3.062 0 0 0-3.06 3.064 3.062 3.062 0 0 0 3.06 3.064Z" fill="url(#Y)" fill-opacity=".3"/><path d="M435.861 110.23c1.69 0 3.06-1.372 3.06-3.064a3.062 3.062 0 0 0-3.06-3.064 3.061 3.061 0 0 0-3.059 3.064 3.061 3.061 0 0 0 3.059 3.064Z" fill="url(#Z)" fill-opacity=".3"/><path d="M14.2 144.647c1.69 0 3.06-1.372 3.06-3.064a3.062 3.062 0 0 0-3.06-3.064 3.062 3.062 0 0 0-3.059 3.064 3.062 3.062 0 0 0 3.06 3.064Z" fill="url(#aa)" fill-opacity=".3"/><path d="M49.337 144.647c1.69 0 3.06-1.372 3.06-3.064a3.062 3.062 0 0 0-3.06-3.064 3.062 3.062 0 0 0-3.06 3.064 3.062 3.062 0 0 0 3.06 3.064Z" fill="url(#ab)" fill-opacity=".3"/><path d="M84.473 144.647c1.69 0 3.06-1.372 3.06-3.064a3.062 3.062 0 0 0-3.06-3.064 3.062 3.062 0 0 0-3.06 3.064 3.062 3.062 0 0 0 3.06 3.064Z" fill="url(#ac)" fill-opacity=".3"/><path d="M119.61 144.647a3.062 3.062 0 0 0 3.059-3.064 3.062 3.062 0 0 0-3.059-3.064 3.062 3.062 0 0 0-3.06 3.064 3.062 3.062 0 0 0 3.06 3.064Z" fill="url(#ad)" fill-opacity=".3"/><path d="M154.746 144.647c1.69 0 3.06-1.372 3.06-3.064a3.062 3.062 0 0 0-3.06-3.064 3.062 3.062 0 0 0-3.06 3.064 3.062 3.062 0 0 0 3.06 3.064Z" fill="url(#ae)" fill-opacity=".3"/><path d="M189.882 144.647c1.69 0 3.06-1.372 3.06-3.064a3.062 3.062 0 0 0-3.06-3.064 3.062 3.062 0 0 0-3.06 3.064 3.062 3.062 0 0 0 3.06 3.064Z" fill="url(#af)" fill-opacity=".3"/><path d="M228.078 141.583a3.071 3.071 0 0 1-3.06 3.064 3.071 3.071 0 0 1-3.06-3.064 3.071 3.071 0 0 1 3.06-3.064 3.054 3.054 0 0 1 3.06 3.064Z" fill="url(#ag)" fill-opacity=".3"/><path d="M260.18 144.647c1.69 0 3.06-1.372 3.06-3.064a3.062 3.062 0 0 0-3.06-3.064 3.062 3.062 0 0 0-3.06 3.064 3.062 3.062 0 0 0 3.06 3.064Z" fill="url(#ah)" fill-opacity=".3"/><path d="M295.316 144.647c1.69 0 3.06-1.372 3.06-3.064a3.062 3.062 0 0 0-3.06-3.064 3.062 3.062 0 0 0-3.06 3.064 3.062 3.062 0 0 0 3.06 3.064Z" fill="url(#ai)" fill-opacity=".3"/><path d="M333.512 141.583a3.07 3.07 0 0 1-3.059 3.064 3.071 3.071 0 0 1-3.06-3.064 3.071 3.071 0 0 1 3.06-3.064 3.07 3.07 0 0 1 3.059 3.064Z" fill="url(#aj)" fill-opacity=".3"/><path d="M365.589 144.647c1.69 0 3.06-1.372 3.06-3.064a3.062 3.062 0 0 0-3.06-3.064 3.062 3.062 0 0 0-3.06 3.064 3.062 3.062 0 0 0 3.06 3.064Z" fill="url(#ak)" fill-opacity=".3"/><path d="M400.725 144.647c1.69 0 3.06-1.372 3.06-3.064a3.062 3.062 0 0 0-3.06-3.064 3.062 3.062 0 0 0-3.06 3.064 3.062 3.062 0 0 0 3.06 3.064Z" fill="url(#al)" fill-opacity=".3"/><path d="M435.861 144.647c1.69 0 3.06-1.372 3.06-3.064a3.062 3.062 0 0 0-3.06-3.064 3.061 3.061 0 0 0-3.059 3.064 3.061 3.061 0 0 0 3.059 3.064Z" fill="url(#am)" fill-opacity=".3"/><path d="M14.2 179.064c1.69 0 3.06-1.372 3.06-3.064a3.062 3.062 0 0 0-3.06-3.064A3.062 3.062 0 0 0 11.142 176a3.062 3.062 0 0 0 3.06 3.064Z" fill="url(#an)" fill-opacity=".3"/><path d="M49.337 179.064c1.69 0 3.06-1.372 3.06-3.064a3.062 3.062 0 0 0-3.06-3.064 3.062 3.062 0 0 0-3.06 3.064 3.062 3.062 0 0 0 3.06 3.064Z" fill="url(#ao)" fill-opacity=".3"/><path d="M84.473 179.064c1.69 0 3.06-1.372 3.06-3.064a3.062 3.062 0 0 0-3.06-3.064 3.062 3.062 0 0 0-3.06 3.064 3.062 3.062 0 0 0 3.06 3.064Z" fill="url(#ap)" fill-opacity=".3"/><path d="M119.61 179.064a3.062 3.062 0 0 0 3.059-3.064 3.062 3.062 0 0 0-3.059-3.064 3.062 3.062 0 0 0-3.06 3.064 3.062 3.062 0 0 0 3.06 3.064Z" fill="url(#aq)" fill-opacity=".3"/><path d="M154.746 179.064c1.69 0 3.06-1.372 3.06-3.064a3.062 3.062 0 0 0-3.06-3.064 3.062 3.062 0 0 0-3.06 3.064 3.062 3.062 0 0 0 3.06 3.064Z" fill="url(#ar)" fill-opacity=".3"/><path d="M189.882 179.064c1.69 0 3.06-1.372 3.06-3.064a3.062 3.062 0 0 0-3.06-3.064 3.062 3.062 0 0 0-3.06 3.064 3.062 3.062 0 0 0 3.06 3.064Z" fill="url(#as)" fill-opacity=".3"/><path d="M228.078 176a3.071 3.071 0 0 1-3.06 3.064 3.071 3.071 0 0 1-3.06-3.064 3.071 3.071 0 0 1 3.06-3.064 3.054 3.054 0 0 1 3.06 3.064Z" fill="url(#at)" fill-opacity=".3"/><path d="M260.18 179.064c1.69 0 3.06-1.372 3.06-3.064a3.062 3.062 0 0 0-3.06-3.064 3.062 3.062 0 0 0-3.06 3.064 3.062 3.062 0 0 0 3.06 3.064Z" fill="url(#au)" fill-opacity=".3"/><path d="M295.316 179.064c1.69 0 3.06-1.372 3.06-3.064a3.062 3.062 0 0 0-3.06-3.064 3.062 3.062 0 0 0-3.06 3.064 3.062 3.062 0 0 0 3.06 3.064Z" fill="url(#av)" fill-opacity=".3"/><path d="M333.512 176a3.07 3.07 0 0 1-3.059 3.064 3.071 3.071 0 0 1-3.06-3.064 3.071 3.071 0 0 1 3.06-3.064 3.07 3.07 0 0 1 3.059 3.064Z" fill="url(#aw)" fill-opacity=".3"/><path d="M365.589 179.064c1.69 0 3.06-1.372 3.06-3.064a3.062 3.062 0 0 0-3.06-3.064 3.062 3.062 0 0 0-3.06 3.064 3.062 3.062 0 0 0 3.06 3.064Z" fill="url(#ax)" fill-opacity=".3"/><path d="M400.725 179.064c1.69 0 3.06-1.372 3.06-3.064a3.062 3.062 0 0 0-3.06-3.064 3.062 3.062 0 0 0-3.06 3.064 3.062 3.062 0 0 0 3.06 3.064Z" fill="url(#ay)" fill-opacity=".3"/><path d="M435.861 179.064c1.69 0 3.06-1.372 3.06-3.064a3.062 3.062 0 0 0-3.06-3.064 3.061 3.061 0 0 0-3.059 3.064 3.061 3.061 0 0 0 3.059 3.064Z" fill="url(#az)" fill-opacity=".3"/><path d="M14.2 213.481c1.69 0 3.06-1.371 3.06-3.064a3.061 3.061 0 0 0-3.06-3.063 3.061 3.061 0 0 0-3.059 3.063 3.061 3.061 0 0 0 3.06 3.064Z" fill="url(#aA)" fill-opacity=".3"/><path d="M49.337 213.481c1.69 0 3.06-1.371 3.06-3.064a3.061 3.061 0 0 0-3.06-3.063 3.061 3.061 0 0 0-3.06 3.063 3.061 3.061 0 0 0 3.06 3.064Z" fill="url(#aB)" fill-opacity=".3"/><path d="M84.473 213.481c1.69 0 3.06-1.371 3.06-3.064a3.061 3.061 0 0 0-3.06-3.063 3.061 3.061 0 0 0-3.06 3.063 3.061 3.061 0 0 0 3.06 3.064Z" fill="url(#aC)" fill-opacity=".3"/><path d="M119.61 213.481a3.061 3.061 0 0 0 3.059-3.064 3.061 3.061 0 0 0-3.059-3.063 3.061 3.061 0 0 0-3.06 3.063 3.061 3.061 0 0 0 3.06 3.064Z" fill="url(#aD)" fill-opacity=".3"/><path d="M154.746 213.481c1.69 0 3.06-1.371 3.06-3.064a3.061 3.061 0 0 0-3.06-3.063 3.061 3.061 0 0 0-3.06 3.063 3.061 3.061 0 0 0 3.06 3.064Z" fill="url(#aE)" fill-opacity=".3"/><path d="M189.882 213.481c1.69 0 3.06-1.371 3.06-3.064a3.061 3.061 0 0 0-3.06-3.063 3.061 3.061 0 0 0-3.06 3.063 3.061 3.061 0 0 0 3.06 3.064Z" fill="url(#aF)" fill-opacity=".3"/><path d="M228.078 210.417a3.07 3.07 0 0 1-3.06 3.064 3.07 3.07 0 0 1-3.06-3.064 3.07 3.07 0 0 1 3.06-3.063c1.709.025 3.06 1.378 3.06 3.063Z" fill="url(#aG)" fill-opacity=".3"/><path d="M260.18 213.481c1.69 0 3.06-1.371 3.06-3.064a3.061 3.061 0 0 0-3.06-3.063 3.061 3.061 0 0 0-3.06 3.063 3.061 3.061 0 0 0 3.06 3.064Z" fill="url(#aH)" fill-opacity=".3"/><path d="M295.316 213.481c1.69 0 3.06-1.371 3.06-3.064a3.061 3.061 0 0 0-3.06-3.063 3.061 3.061 0 0 0-3.06 3.063 3.061 3.061 0 0 0 3.06 3.064Z" fill="url(#aI)" fill-opacity=".3"/><path d="M333.512 210.417a3.07 3.07 0 0 1-3.059 3.064 3.07 3.07 0 0 1-3.06-3.064 3.07 3.07 0 0 1 3.06-3.063c1.682.025 3.059 1.378 3.059 3.063Z" fill="url(#aJ)" fill-opacity=".3"/><path d="M365.589 213.481c1.69 0 3.06-1.371 3.06-3.064a3.061 3.061 0 0 0-3.06-3.063 3.061 3.061 0 0 0-3.06 3.063 3.061 3.061 0 0 0 3.06 3.064Z" fill="url(#aK)" fill-opacity=".3"/><path d="M400.725 213.481c1.69 0 3.06-1.371 3.06-3.064a3.061 3.061 0 0 0-3.06-3.063 3.061 3.061 0 0 0-3.06 3.063 3.061 3.061 0 0 0 3.06 3.064Z" fill="url(#aL)" fill-opacity=".3"/><path d="M435.861 213.481c1.69 0 3.06-1.371 3.06-3.064a3.06 3.06 0 1 0-6.119 0 3.06 3.06 0 0 0 3.059 3.064Z" fill="url(#aM)" fill-opacity=".3"/><path d="M14.2 247.924c1.69 0 3.06-1.372 3.06-3.064a3.062 3.062 0 0 0-3.06-3.064 3.062 3.062 0 0 0-3.059 3.064 3.062 3.062 0 0 0 3.06 3.064Z" fill="url(#aN)" fill-opacity=".3"/><path d="M49.337 247.924c1.69 0 3.06-1.372 3.06-3.064a3.062 3.062 0 0 0-3.06-3.064 3.062 3.062 0 0 0-3.06 3.064 3.062 3.062 0 0 0 3.06 3.064Z" fill="url(#aO)" fill-opacity=".3"/><path d="M84.473 247.924c1.69 0 3.06-1.372 3.06-3.064a3.062 3.062 0 0 0-3.06-3.064 3.062 3.062 0 0 0-3.06 3.064 3.062 3.062 0 0 0 3.06 3.064Z" fill="url(#aP)" fill-opacity=".3"/><path d="M119.61 247.924a3.062 3.062 0 0 0 3.059-3.064 3.062 3.062 0 0 0-3.059-3.064 3.062 3.062 0 0 0-3.06 3.064 3.062 3.062 0 0 0 3.06 3.064Z" fill="url(#aQ)" fill-opacity=".3"/><path d="M154.746 247.924c1.69 0 3.06-1.372 3.06-3.064a3.062 3.062 0 0 0-3.06-3.064 3.062 3.062 0 0 0-3.06 3.064 3.062 3.062 0 0 0 3.06 3.064Z" fill="url(#aR)" fill-opacity=".3"/><path d="M189.882 247.924c1.69 0 3.06-1.372 3.06-3.064a3.062 3.062 0 0 0-3.06-3.064 3.062 3.062 0 0 0-3.06 3.064 3.062 3.062 0 0 0 3.06 3.064Z" fill="url(#aS)" fill-opacity=".3"/><path d="M228.078 244.86a3.071 3.071 0 0 1-3.06 3.064 3.071 3.071 0 0 1-3.06-3.064 3.071 3.071 0 0 1 3.06-3.064 3.038 3.038 0 0 1 3.06 3.064Z" fill="url(#aT)" fill-opacity=".3"/><path d="M260.18 247.924c1.69 0 3.06-1.372 3.06-3.064a3.062 3.062 0 0 0-3.06-3.064 3.062 3.062 0 0 0-3.06 3.064 3.062 3.062 0 0 0 3.06 3.064Z" fill="url(#aU)" fill-opacity=".3"/><path d="M295.316 247.924c1.69 0 3.06-1.372 3.06-3.064a3.062 3.062 0 0 0-3.06-3.064 3.062 3.062 0 0 0-3.06 3.064 3.062 3.062 0 0 0 3.06 3.064Z" fill="url(#aV)" fill-opacity=".3"/><path d="M333.512 244.86a3.07 3.07 0 0 1-3.059 3.064 3.071 3.071 0 0 1-3.06-3.064 3.071 3.071 0 0 1 3.06-3.064 3.054 3.054 0 0 1 3.059 3.064Z" fill="url(#aW)" fill-opacity=".3"/><path d="M365.589 247.924c1.69 0 3.06-1.372 3.06-3.064a3.062 3.062 0 0 0-3.06-3.064 3.062 3.062 0 0 0-3.06 3.064 3.062 3.062 0 0 0 3.06 3.064Z" fill="url(#aX)" fill-opacity=".3"/><path d="M400.725 247.924c1.69 0 3.06-1.372 3.06-3.064a3.062 3.062 0 0 0-3.06-3.064 3.062 3.062 0 0 0-3.06 3.064 3.062 3.062 0 0 0 3.06 3.064Z" fill="url(#aY)" fill-opacity=".3"/><path d="M435.861 247.924c1.69 0 3.06-1.372 3.06-3.064a3.062 3.062 0 0 0-3.06-3.064 3.061 3.061 0 0 0-3.059 3.064 3.061 3.061 0 0 0 3.059 3.064Z" fill="url(#aZ)" fill-opacity=".3"/><path d="M14.2 282.341c1.69 0 3.06-1.372 3.06-3.064a3.062 3.062 0 0 0-3.06-3.064 3.062 3.062 0 0 0-3.059 3.064 3.062 3.062 0 0 0 3.06 3.064Z" fill="url(#ba)" fill-opacity=".3"/><path d="M49.337 282.341c1.69 0 3.06-1.372 3.06-3.064a3.062 3.062 0 0 0-3.06-3.064 3.062 3.062 0 0 0-3.06 3.064 3.062 3.062 0 0 0 3.06 3.064Z" fill="url(#bb)" fill-opacity=".3"/><path d="M84.473 282.341c1.69 0 3.06-1.372 3.06-3.064a3.062 3.062 0 0 0-3.06-3.064 3.062 3.062 0 0 0-3.06 3.064 3.062 3.062 0 0 0 3.06 3.064Z" fill="url(#bc)" fill-opacity=".3"/><path d="M119.61 282.341a3.062 3.062 0 0 0 3.059-3.064 3.062 3.062 0 0 0-3.059-3.064 3.062 3.062 0 0 0-3.06 3.064 3.062 3.062 0 0 0 3.06 3.064Z" fill="url(#bd)" fill-opacity=".3"/><path d="M154.746 282.341c1.69 0 3.06-1.372 3.06-3.064a3.062 3.062 0 0 0-3.06-3.064 3.062 3.062 0 0 0-3.06 3.064 3.062 3.062 0 0 0 3.06 3.064Z" fill="url(#be)" fill-opacity=".3"/><path d="M189.882 282.341c1.69 0 3.06-1.372 3.06-3.064a3.062 3.062 0 0 0-3.06-3.064 3.062 3.062 0 0 0-3.06 3.064 3.062 3.062 0 0 0 3.06 3.064Z" fill="url(#bf)" fill-opacity=".3"/><path d="M228.078 279.277a3.071 3.071 0 0 1-3.06 3.064 3.071 3.071 0 0 1-3.06-3.064 3.071 3.071 0 0 1 3.06-3.064 3.054 3.054 0 0 1 3.06 3.064Z" fill="url(#bg)" fill-opacity=".3"/><path d="M260.18 282.341c1.69 0 3.06-1.372 3.06-3.064a3.062 3.062 0 0 0-3.06-3.064 3.062 3.062 0 0 0-3.06 3.064 3.062 3.062 0 0 0 3.06 3.064Z" fill="url(#bh)" fill-opacity=".3"/><path d="M295.316 282.341c1.69 0 3.06-1.372 3.06-3.064a3.062 3.062 0 0 0-3.06-3.064 3.062 3.062 0 0 0-3.06 3.064 3.062 3.062 0 0 0 3.06 3.064Z" fill="url(#bi)" fill-opacity=".3"/><path d="M333.512 279.277a3.07 3.07 0 0 1-3.059 3.064 3.071 3.071 0 0 1-3.06-3.064 3.071 3.071 0 0 1 3.06-3.064 3.07 3.07 0 0 1 3.059 3.064Z" fill="url(#bj)" fill-opacity=".3"/><path d="M365.589 282.341c1.69 0 3.06-1.372 3.06-3.064a3.062 3.062 0 0 0-3.06-3.064 3.062 3.062 0 0 0-3.06 3.064 3.062 3.062 0 0 0 3.06 3.064Z" fill="url(#bk)" fill-opacity=".3"/><path d="M400.725 282.341c1.69 0 3.06-1.372 3.06-3.064a3.062 3.062 0 0 0-3.06-3.064 3.062 3.062 0 0 0-3.06 3.064 3.062 3.062 0 0 0 3.06 3.064Z" fill="url(#bl)" fill-opacity=".3"/><path d="M435.861 282.341c1.69 0 3.06-1.372 3.06-3.064a3.062 3.062 0 0 0-3.06-3.064 3.061 3.061 0 0 0-3.059 3.064 3.061 3.061 0 0 0 3.059 3.064Z" fill="url(#bm)" fill-opacity=".3"/><path d="M14.2 316.758c1.69 0 3.06-1.371 3.06-3.064a3.061 3.061 0 0 0-3.06-3.063 3.061 3.061 0 0 0-3.059 3.063 3.061 3.061 0 0 0 3.06 3.064Z" fill="url(#bn)" fill-opacity=".3"/><path d="M49.337 316.758c1.69 0 3.06-1.371 3.06-3.064a3.061 3.061 0 0 0-3.06-3.063 3.061 3.061 0 0 0-3.06 3.063 3.061 3.061 0 0 0 3.06 3.064Z" fill="url(#bo)" fill-opacity=".3"/><path d="M84.473 316.758c1.69 0 3.06-1.371 3.06-3.064a3.061 3.061 0 0 0-3.06-3.063 3.061 3.061 0 0 0-3.06 3.063 3.061 3.061 0 0 0 3.06 3.064Z" fill="url(#bp)" fill-opacity=".3"/><path d="M119.61 316.758a3.061 3.061 0 0 0 3.059-3.064 3.061 3.061 0 0 0-3.059-3.063 3.061 3.061 0 0 0-3.06 3.063 3.061 3.061 0 0 0 3.06 3.064Z" fill="url(#bq)" fill-opacity=".3"/><path d="M154.746 316.758c1.69 0 3.06-1.371 3.06-3.064a3.061 3.061 0 0 0-3.06-3.063 3.061 3.061 0 0 0-3.06 3.063 3.061 3.061 0 0 0 3.06 3.064Z" fill="url(#br)" fill-opacity=".3"/><path d="M189.882 316.758c1.69 0 3.06-1.371 3.06-3.064a3.061 3.061 0 0 0-3.06-3.063 3.061 3.061 0 0 0-3.06 3.063 3.061 3.061 0 0 0 3.06 3.064Z" fill="url(#bs)" fill-opacity=".3"/><path d="M228.078 313.694a3.07 3.07 0 0 1-3.06 3.064 3.07 3.07 0 0 1-3.06-3.064 3.07 3.07 0 0 1 3.06-3.063 3.054 3.054 0 0 1 3.06 3.063Z" fill="url(#bt)" fill-opacity=".3"/><path d="M260.18 316.758c1.69 0 3.06-1.371 3.06-3.064a3.061 3.061 0 0 0-3.06-3.063 3.061 3.061 0 0 0-3.06 3.063 3.061 3.061 0 0 0 3.06 3.064Z" fill="url(#bu)" fill-opacity=".3"/><path d="M295.316 316.758c1.69 0 3.06-1.371 3.06-3.064a3.061 3.061 0 0 0-3.06-3.063 3.061 3.061 0 0 0-3.06 3.063 3.061 3.061 0 0 0 3.06 3.064Z" fill="url(#bv)" fill-opacity=".3"/><path d="M333.512 313.694a3.07 3.07 0 0 1-3.059 3.064 3.07 3.07 0 0 1-3.06-3.064 3.07 3.07 0 0 1 3.06-3.063 3.07 3.07 0 0 1 3.059 3.063Z" fill="url(#bw)" fill-opacity=".3"/><path d="M365.589 316.758c1.69 0 3.06-1.371 3.06-3.064a3.061 3.061 0 0 0-3.06-3.063 3.061 3.061 0 0 0-3.06 3.063 3.061 3.061 0 0 0 3.06 3.064Z" fill="url(#bx)" fill-opacity=".3"/><path d="M400.725 316.758c1.69 0 3.06-1.371 3.06-3.064a3.061 3.061 0 0 0-3.06-3.063 3.061 3.061 0 0 0-3.06 3.063 3.061 3.061 0 0 0 3.06 3.064Z" fill="url(#by)" fill-opacity=".3"/><path d="M435.861 316.758c1.69 0 3.06-1.371 3.06-3.064a3.06 3.06 0 1 0-6.119 0 3.06 3.06 0 0 0 3.059 3.064Z" fill="url(#bz)" fill-opacity=".3"/><path d="M14.2 351.176c1.69 0 3.06-1.372 3.06-3.064a3.062 3.062 0 0 0-3.06-3.064 3.062 3.062 0 0 0-3.059 3.064 3.062 3.062 0 0 0 3.06 3.064Z" fill="url(#bA)" fill-opacity=".3"/><path d="M49.337 351.176c1.69 0 3.06-1.372 3.06-3.064a3.062 3.062 0 0 0-3.06-3.064 3.062 3.062 0 0 0-3.06 3.064 3.062 3.062 0 0 0 3.06 3.064Z" fill="url(#bB)" fill-opacity=".3"/><path d="M84.473 351.176c1.69 0 3.06-1.372 3.06-3.064a3.062 3.062 0 0 0-3.06-3.064 3.062 3.062 0 0 0-3.06 3.064 3.062 3.062 0 0 0 3.06 3.064Z" fill="url(#bC)" fill-opacity=".3"/><path d="M119.61 351.176a3.062 3.062 0 0 0 3.059-3.064 3.062 3.062 0 0 0-3.059-3.064 3.062 3.062 0 0 0-3.06 3.064 3.062 3.062 0 0 0 3.06 3.064Z" fill="url(#bD)" fill-opacity=".3"/><path d="M154.746 351.176c1.69 0 3.06-1.372 3.06-3.064a3.062 3.062 0 0 0-3.06-3.064 3.062 3.062 0 0 0-3.06 3.064 3.062 3.062 0 0 0 3.06 3.064Z" fill="url(#bE)" fill-opacity=".3"/><path d="M189.882 351.176c1.69 0 3.06-1.372 3.06-3.064a3.062 3.062 0 0 0-3.06-3.064 3.062 3.062 0 0 0-3.06 3.064 3.062 3.062 0 0 0 3.06 3.064Z" fill="url(#bF)" fill-opacity=".3"/><path d="M228.078 348.112a3.071 3.071 0 0 1-3.06 3.064 3.071 3.071 0 0 1-3.06-3.064 3.071 3.071 0 0 1 3.06-3.064 3.054 3.054 0 0 1 3.06 3.064Z" fill="url(#bG)" fill-opacity=".3"/><path d="M260.18 351.176c1.69 0 3.06-1.372 3.06-3.064a3.062 3.062 0 0 0-3.06-3.064 3.062 3.062 0 0 0-3.06 3.064 3.062 3.062 0 0 0 3.06 3.064Z" fill="url(#bH)" fill-opacity=".3"/><path d="M295.316 351.176c1.69 0 3.06-1.372 3.06-3.064a3.062 3.062 0 0 0-3.06-3.064 3.062 3.062 0 0 0-3.06 3.064 3.062 3.062 0 0 0 3.06 3.064Z" fill="url(#bI)" fill-opacity=".3"/><path d="M333.512 348.112a3.07 3.07 0 0 1-3.059 3.064 3.071 3.071 0 0 1-3.06-3.064 3.071 3.071 0 0 1 3.06-3.064 3.07 3.07 0 0 1 3.059 3.064Z" fill="url(#bJ)" fill-opacity=".3"/><path d="M365.589 351.176c1.69 0 3.06-1.372 3.06-3.064a3.062 3.062 0 0 0-3.06-3.064 3.062 3.062 0 0 0-3.06 3.064 3.062 3.062 0 0 0 3.06 3.064Z" fill="url(#bK)" fill-opacity=".3"/><path d="M400.725 351.176c1.69 0 3.06-1.372 3.06-3.064a3.062 3.062 0 0 0-3.06-3.064 3.062 3.062 0 0 0-3.06 3.064 3.062 3.062 0 0 0 3.06 3.064Z" fill="url(#bL)" fill-opacity=".3"/><path d="M435.861 351.176c1.69 0 3.06-1.372 3.06-3.064a3.062 3.062 0 0 0-3.06-3.064 3.061 3.061 0 0 0-3.059 3.064 3.061 3.061 0 0 0 3.059 3.064Z" fill="url(#bM)" fill-opacity=".3"/><defs><linearGradient id="a" x1="11.141" y1=".825" x2="17.618" y2="1.229" gradientUnits="userSpaceOnUse"><stop stop-color="#81BD92"/><stop offset="1" stop-color="#BEF8CE"/></linearGradient><linearGradient id="b" x1="46.277" y1=".825" x2="52.754" y2="1.229" gradientUnits="userSpaceOnUse"><stop stop-color="#81BD92"/><stop offset="1" stop-color="#BEF8CE"/></linearGradient><linearGradient id="c" x1="81.413" y1=".825" x2="87.89" y2="1.229" gradientUnits="userSpaceOnUse"><stop stop-color="#81BD92"/><stop offset="1" stop-color="#BEF8CE"/></linearGradient><linearGradient id="d" x1="116.55" y1=".825" x2="123.027" y2="1.229" gradientUnits="userSpaceOnUse"><stop stop-color="#81BD92"/><stop offset="1" stop-color="#BEF8CE"/></linearGradient><linearGradient id="e" x1="151.686" y1=".825" x2="158.163" y2="1.229" gradientUnits="userSpaceOnUse"><stop stop-color="#81BD92"/><stop offset="1" stop-color="#BEF8CE"/></linearGradient><linearGradient id="f" x1="186.822" y1=".825" x2="193.299" y2="1.229" gradientUnits="userSpaceOnUse"><stop stop-color="#81BD92"/><stop offset="1" stop-color="#BEF8CE"/></linearGradient><linearGradient id="g" x1="221.958" y1=".825" x2="228.435" y2="1.229" gradientUnits="userSpaceOnUse"><stop stop-color="#81BD92"/><stop offset="1" stop-color="#BEF8CE"/></linearGradient><linearGradient id="h" x1="257.12" y1=".825" x2="263.597" y2="1.229" gradientUnits="userSpaceOnUse"><stop stop-color="#81BD92"/><stop offset="1" stop-color="#BEF8CE"/></linearGradient><linearGradient id="i" x1="292.256" y1=".825" x2="298.733" y2="1.229" gradientUnits="userSpaceOnUse"><stop stop-color="#81BD92"/><stop offset="1" stop-color="#BEF8CE"/></linearGradient><linearGradient id="j" x1="327.393" y1=".825" x2="333.869" y2="1.229" gradientUnits="userSpaceOnUse"><stop stop-color="#81BD92"/><stop offset="1" stop-color="#BEF8CE"/></linearGradient><linearGradient id="k" x1="362.529" y1=".825" x2="369.006" y2="1.229" gradientUnits="userSpaceOnUse"><stop stop-color="#81BD92"/><stop offset="1" stop-color="#BEF8CE"/></linearGradient><linearGradient id="l" x1="397.665" y1=".825" x2="404.142" y2="1.229" gradientUnits="userSpaceOnUse"><stop stop-color="#81BD92"/><stop offset="1" stop-color="#BEF8CE"/></linearGradient><linearGradient id="m" x1="432.802" y1=".825" x2="439.278" y2="1.229" gradientUnits="userSpaceOnUse"><stop stop-color="#81BD92"/><stop offset="1" stop-color="#BEF8CE"/></linearGradient><linearGradient id="n" x1="11.141" y1="35.242" x2="17.618" y2="35.646" gradientUnits="userSpaceOnUse"><stop stop-color="#81BD92"/><stop offset="1" stop-color="#BEF8CE"/></linearGradient><linearGradient id="o" x1="46.277" y1="35.242" x2="52.754" y2="35.646" gradientUnits="userSpaceOnUse"><stop stop-color="#81BD92"/><stop offset="1" stop-color="#BEF8CE"/></linearGradient><linearGradient id="p" x1="81.413" y1="35.242" x2="87.89" y2="35.646" gradientUnits="userSpaceOnUse"><stop stop-color="#81BD92"/><stop offset="1" stop-color="#BEF8CE"/></linearGradient><linearGradient id="q" x1="116.55" y1="35.242" x2="123.027" y2="35.646" gradientUnits="userSpaceOnUse"><stop stop-color="#81BD92"/><stop offset="1" stop-color="#BEF8CE"/></linearGradient><linearGradient id="r" x1="151.686" y1="35.242" x2="158.163" y2="35.646" gradientUnits="userSpaceOnUse"><stop stop-color="#81BD92"/><stop offset="1" stop-color="#BEF8CE"/></linearGradient><linearGradient id="s" x1="186.822" y1="35.242" x2="193.299" y2="35.646" gradientUnits="userSpaceOnUse"><stop stop-color="#81BD92"/><stop offset="1" stop-color="#BEF8CE"/></linearGradient><linearGradient id="t" x1="221.958" y1="35.242" x2="228.435" y2="35.646" gradientUnits="userSpaceOnUse"><stop stop-color="#81BD92"/><stop offset="1" stop-color="#BEF8CE"/></linearGradient><linearGradient id="u" x1="257.12" y1="35.242" x2="263.597" y2="35.646" gradientUnits="userSpaceOnUse"><stop stop-color="#81BD92"/><stop offset="1" stop-color="#BEF8CE"/></linearGradient><linearGradient id="v" x1="292.256" y1="35.242" x2="298.733" y2="35.646" gradientUnits="userSpaceOnUse"><stop stop-color="#81BD92"/><stop offset="1" stop-color="#BEF8CE"/></linearGradient><linearGradient id="w" x1="327.393" y1="35.242" x2="333.869" y2="35.646" gradientUnits="userSpaceOnUse"><stop stop-color="#81BD92"/><stop offset="1" stop-color="#BEF8CE"/></linearGradient><linearGradient id="x" x1="362.529" y1="35.242" x2="369.006" y2="35.646" gradientUnits="userSpaceOnUse"><stop stop-color="#81BD92"/><stop offset="1" stop-color="#BEF8CE"/></linearGradient><linearGradient id="y" x1="397.665" y1="35.242" x2="404.142" y2="35.646" gradientUnits="userSpaceOnUse"><stop stop-color="#81BD92"/><stop offset="1" stop-color="#BEF8CE"/></linearGradient><linearGradient id="z" x1="432.802" y1="35.242" x2="439.278" y2="35.646" gradientUnits="userSpaceOnUse"><stop stop-color="#81BD92"/><stop offset="1" stop-color="#BEF8CE"/></linearGradient><linearGradient id="A" x1="11.141" y1="69.685" x2="17.618" y2="70.089" gradientUnits="userSpaceOnUse"><stop stop-color="#81BD92"/><stop offset="1" stop-color="#BEF8CE"/></linearGradient><linearGradient id="B" x1="46.277" y1="69.685" x2="52.754" y2="70.089" gradientUnits="userSpaceOnUse"><stop stop-color="#81BD92"/><stop offset="1" stop-color="#BEF8CE"/></linearGradient><linearGradient id="C" x1="81.413" y1="69.685" x2="87.89" y2="70.089" gradientUnits="userSpaceOnUse"><stop stop-color="#81BD92"/><stop offset="1" stop-color="#BEF8CE"/></linearGradient><linearGradient id="D" x1="116.55" y1="69.685" x2="123.027" y2="70.089" gradientUnits="userSpaceOnUse"><stop stop-color="#81BD92"/><stop offset="1" stop-color="#BEF8CE"/></linearGradient><linearGradient id="E" x1="151.686" y1="69.685" x2="158.163" y2="70.089" gradientUnits="userSpaceOnUse"><stop stop-color="#81BD92"/><stop offset="1" stop-color="#BEF8CE"/></linearGradient><linearGradient id="F" x1="186.822" y1="69.685" x2="193.299" y2="70.089" gradientUnits="userSpaceOnUse"><stop stop-color="#81BD92"/><stop offset="1" stop-color="#BEF8CE"/></linearGradient><linearGradient id="G" x1="221.958" y1="69.685" x2="228.435" y2="70.089" gradientUnits="userSpaceOnUse"><stop stop-color="#81BD92"/><stop offset="1" stop-color="#BEF8CE"/></linearGradient><linearGradient id="H" x1="257.12" y1="69.685" x2="263.597" y2="70.089" gradientUnits="userSpaceOnUse"><stop stop-color="#81BD92"/><stop offset="1" stop-color="#BEF8CE"/></linearGradient><linearGradient id="I" x1="292.256" y1="69.685" x2="298.733" y2="70.089" gradientUnits="userSpaceOnUse"><stop stop-color="#81BD92"/><stop offset="1" stop-color="#BEF8CE"/></linearGradient><linearGradient id="J" x1="327.393" y1="69.685" x2="333.869" y2="70.089" gradientUnits="userSpaceOnUse"><stop stop-color="#81BD92"/><stop offset="1" stop-color="#BEF8CE"/></linearGradient><linearGradient id="K" x1="362.529" y1="69.685" x2="369.006" y2="70.089" gradientUnits="userSpaceOnUse"><stop stop-color="#81BD92"/><stop offset="1" stop-color="#BEF8CE"/></linearGradient><linearGradient id="L" x1="397.665" y1="69.685" x2="404.142" y2="70.089" gradientUnits="userSpaceOnUse"><stop stop-color="#81BD92"/><stop offset="1" stop-color="#BEF8CE"/></linearGradient><linearGradient id="M" x1="432.802" y1="69.685" x2="439.278" y2="70.089" gradientUnits="userSpaceOnUse"><stop stop-color="#81BD92"/><stop offset="1" stop-color="#BEF8CE"/></linearGradient><linearGradient id="N" x1="11.141" y1="104.102" x2="17.618" y2="104.506" gradientUnits="userSpaceOnUse"><stop stop-color="#81BD92"/><stop offset="1" stop-color="#BEF8CE"/></linearGradient><linearGradient id="O" x1="46.277" y1="104.102" x2="52.754" y2="104.506" gradientUnits="userSpaceOnUse"><stop stop-color="#81BD92"/><stop offset="1" stop-color="#BEF8CE"/></linearGradient><linearGradient id="P" x1="81.413" y1="104.102" x2="87.89" y2="104.506" gradientUnits="userSpaceOnUse"><stop stop-color="#81BD92"/><stop offset="1" stop-color="#BEF8CE"/></linearGradient><linearGradient id="Q" x1="116.55" y1="104.102" x2="123.027" y2="104.506" gradientUnits="userSpaceOnUse"><stop stop-color="#81BD92"/><stop offset="1" stop-color="#BEF8CE"/></linearGradient><linearGradient id="R" x1="151.686" y1="104.102" x2="158.163" y2="104.506" gradientUnits="userSpaceOnUse"><stop stop-color="#81BD92"/><stop offset="1" stop-color="#BEF8CE"/></linearGradient><linearGradient id="S" x1="186.822" y1="104.102" x2="193.299" y2="104.506" gradientUnits="userSpaceOnUse"><stop stop-color="#81BD92"/><stop offset="1" stop-color="#BEF8CE"/></linearGradient><linearGradient id="T" x1="221.958" y1="104.102" x2="228.435" y2="104.506" gradientUnits="userSpaceOnUse"><stop stop-color="#81BD92"/><stop offset="1" stop-color="#BEF8CE"/></linearGradient><linearGradient id="U" x1="257.12" y1="104.102" x2="263.597" y2="104.506" gradientUnits="userSpaceOnUse"><stop stop-color="#81BD92"/><stop offset="1" stop-color="#BEF8CE"/></linearGradient><linearGradient id="V" x1="292.256" y1="104.102" x2="298.733" y2="104.506" gradientUnits="userSpaceOnUse"><stop stop-color="#81BD92"/><stop offset="1" stop-color="#BEF8CE"/></linearGradient><linearGradient id="W" x1="327.393" y1="104.102" x2="333.869" y2="104.506" gradientUnits="userSpaceOnUse"><stop stop-color="#81BD92"/><stop offset="1" stop-color="#BEF8CE"/></linearGradient><linearGradient id="X" x1="362.529" y1="104.102" x2="369.006" y2="104.506" gradientUnits="userSpaceOnUse"><stop stop-color="#81BD92"/><stop offset="1" stop-color="#BEF8CE"/></linearGradient><linearGradient id="Y" x1="397.665" y1="104.102" x2="404.142" y2="104.506" gradientUnits="userSpaceOnUse"><stop stop-color="#81BD92"/><stop offset="1" stop-color="#BEF8CE"/></linearGradient><linearGradient id="Z" x1="432.802" y1="104.102" x2="439.278" y2="104.506" gradientUnits="userSpaceOnUse"><stop stop-color="#81BD92"/><stop offset="1" stop-color="#BEF8CE"/></linearGradient><linearGradient id="aa" x1="11.141" y1="138.519" x2="17.618" y2="138.923" gradientUnits="userSpaceOnUse"><stop stop-color="#81BD92"/><stop offset="1" stop-color="#BEF8CE"/></linearGradient><linearGradient id="ab" x1="46.277" y1="138.519" x2="52.754" y2="138.923" gradientUnits="userSpaceOnUse"><stop stop-color="#81BD92"/><stop offset="1" stop-color="#BEF8CE"/></linearGradient><linearGradient id="ac" x1="81.413" y1="138.519" x2="87.89" y2="138.923" gradientUnits="userSpaceOnUse"><stop stop-color="#81BD92"/><stop offset="1" stop-color="#BEF8CE"/></linearGradient><linearGradient id="ad" x1="116.55" y1="138.519" x2="123.027" y2="138.923" gradientUnits="userSpaceOnUse"><stop stop-color="#81BD92"/><stop offset="1" stop-color="#BEF8CE"/></linearGradient><linearGradient id="ae" x1="151.686" y1="138.519" x2="158.163" y2="138.923" gradientUnits="userSpaceOnUse"><stop stop-color="#81BD92"/><stop offset="1" stop-color="#BEF8CE"/></linearGradient><linearGradient id="af" x1="186.822" y1="138.519" x2="193.299" y2="138.923" gradientUnits="userSpaceOnUse"><stop stop-color="#81BD92"/><stop offset="1" stop-color="#BEF8CE"/></linearGradient><linearGradient id="ag" x1="221.958" y1="138.519" x2="228.435" y2="138.923" gradientUnits="userSpaceOnUse"><stop stop-color="#81BD92"/><stop offset="1" stop-color="#BEF8CE"/></linearGradient><linearGradient id="ah" x1="257.12" y1="138.519" x2="263.597" y2="138.923" gradientUnits="userSpaceOnUse"><stop stop-color="#81BD92"/><stop offset="1" stop-color="#BEF8CE"/></linearGradient><linearGradient id="ai" x1="292.256" y1="138.519" x2="298.733" y2="138.923" gradientUnits="userSpaceOnUse"><stop stop-color="#81BD92"/><stop offset="1" stop-color="#BEF8CE"/></linearGradient><linearGradient id="aj" x1="327.393" y1="138.519" x2="333.869" y2="138.923" gradientUnits="userSpaceOnUse"><stop stop-color="#81BD92"/><stop offset="1" stop-color="#BEF8CE"/></linearGradient><linearGradient id="ak" x1="362.529" y1="138.519" x2="369.006" y2="138.923" gradientUnits="userSpaceOnUse"><stop stop-color="#81BD92"/><stop offset="1" stop-color="#BEF8CE"/></linearGradient><linearGradient id="al" x1="397.665" y1="138.519" x2="404.142" y2="138.923" gradientUnits="userSpaceOnUse"><stop stop-color="#81BD92"/><stop offset="1" stop-color="#BEF8CE"/></linearGradient><linearGradient id="am" x1="432.802" y1="138.519" x2="439.278" y2="138.923" gradientUnits="userSpaceOnUse"><stop stop-color="#81BD92"/><stop offset="1" stop-color="#BEF8CE"/></linearGradient><linearGradient id="an" x1="11.141" y1="172.936" x2="17.618" y2="173.341" gradientUnits="userSpaceOnUse"><stop stop-color="#81BD92"/><stop offset="1" stop-color="#BEF8CE"/></linearGradient><linearGradient id="ao" x1="46.277" y1="172.936" x2="52.754" y2="173.341" gradientUnits="userSpaceOnUse"><stop stop-color="#81BD92"/><stop offset="1" stop-color="#BEF8CE"/></linearGradient><linearGradient id="ap" x1="81.413" y1="172.936" x2="87.89" y2="173.341" gradientUnits="userSpaceOnUse"><stop stop-color="#81BD92"/><stop offset="1" stop-color="#BEF8CE"/></linearGradient><linearGradient id="aq" x1="116.55" y1="172.936" x2="123.027" y2="173.341" gradientUnits="userSpaceOnUse"><stop stop-color="#81BD92"/><stop offset="1" stop-color="#BEF8CE"/></linearGradient><linearGradient id="ar" x1="151.686" y1="172.936" x2="158.163" y2="173.341" gradientUnits="userSpaceOnUse"><stop stop-color="#81BD92"/><stop offset="1" stop-color="#BEF8CE"/></linearGradient><linearGradient id="as" x1="186.822" y1="172.936" x2="193.299" y2="173.341" gradientUnits="userSpaceOnUse"><stop stop-color="#81BD92"/><stop offset="1" stop-color="#BEF8CE"/></linearGradient><linearGradient id="at" x1="221.958" y1="172.936" x2="228.435" y2="173.341" gradientUnits="userSpaceOnUse"><stop stop-color="#81BD92"/><stop offset="1" stop-color="#BEF8CE"/></linearGradient><linearGradient id="au" x1="257.12" y1="172.936" x2="263.597" y2="173.341" gradientUnits="userSpaceOnUse"><stop stop-color="#81BD92"/><stop offset="1" stop-color="#BEF8CE"/></linearGradient><linearGradient id="av" x1="292.256" y1="172.936" x2="298.733" y2="173.341" gradientUnits="userSpaceOnUse"><stop stop-color="#81BD92"/><stop offset="1" stop-color="#BEF8CE"/></linearGradient><linearGradient id="aw" x1="327.393" y1="172.936" x2="333.869" y2="173.341" gradientUnits="userSpaceOnUse"><stop stop-color="#81BD92"/><stop offset="1" stop-color="#BEF8CE"/></linearGradient><linearGradient id="ax" x1="362.529" y1="172.936" x2="369.006" y2="173.341" gradientUnits="userSpaceOnUse"><stop stop-color="#81BD92"/><stop offset="1" stop-color="#BEF8CE"/></linearGradient><linearGradient id="ay" x1="397.665" y1="172.936" x2="404.142" y2="173.341" gradientUnits="userSpaceOnUse"><stop stop-color="#81BD92"/><stop offset="1" stop-color="#BEF8CE"/></linearGradient><linearGradient id="az" x1="432.802" y1="172.936" x2="439.278" y2="173.341" gradientUnits="userSpaceOnUse"><stop stop-color="#81BD92"/><stop offset="1" stop-color="#BEF8CE"/></linearGradient><linearGradient id="aA" x1="11.141" y1="207.354" x2="17.618" y2="207.758" gradientUnits="userSpaceOnUse"><stop stop-color="#81BD92"/><stop offset="1" stop-color="#BEF8CE"/></linearGradient><linearGradient id="aB" x1="46.277" y1="207.354" x2="52.754" y2="207.758" gradientUnits="userSpaceOnUse"><stop stop-color="#81BD92"/><stop offset="1" stop-color="#BEF8CE"/></linearGradient><linearGradient id="aC" x1="81.413" y1="207.354" x2="87.89" y2="207.758" gradientUnits="userSpaceOnUse"><stop stop-color="#81BD92"/><stop offset="1" stop-color="#BEF8CE"/></linearGradient><linearGradient id="aD" x1="116.55" y1="207.354" x2="123.027" y2="207.758" gradientUnits="userSpaceOnUse"><stop stop-color="#81BD92"/><stop offset="1" stop-color="#BEF8CE"/></linearGradient><linearGradient id="aE" x1="151.686" y1="207.354" x2="158.163" y2="207.758" gradientUnits="userSpaceOnUse"><stop stop-color="#81BD92"/><stop offset="1" stop-color="#BEF8CE"/></linearGradient><linearGradient id="aF" x1="186.822" y1="207.354" x2="193.299" y2="207.758" gradientUnits="userSpaceOnUse"><stop stop-color="#81BD92"/><stop offset="1" stop-color="#BEF8CE"/></linearGradient><linearGradient id="aG" x1="221.958" y1="207.354" x2="228.435" y2="207.758" gradientUnits="userSpaceOnUse"><stop stop-color="#81BD92"/><stop offset="1" stop-color="#BEF8CE"/></linearGradient><linearGradient id="aH" x1="257.12" y1="207.354" x2="263.597" y2="207.758" gradientUnits="userSpaceOnUse"><stop stop-color="#81BD92"/><stop offset="1" stop-color="#BEF8CE"/></linearGradient><linearGradient id="aI" x1="292.256" y1="207.354" x2="298.733" y2="207.758" gradientUnits="userSpaceOnUse"><stop stop-color="#81BD92"/><stop offset="1" stop-color="#BEF8CE"/></linearGradient><linearGradient id="aJ" x1="327.393" y1="207.354" x2="333.869" y2="207.758" gradientUnits="userSpaceOnUse"><stop stop-color="#81BD92"/><stop offset="1" stop-color="#BEF8CE"/></linearGradient><linearGradient id="aK" x1="362.529" y1="207.354" x2="369.006" y2="207.758" gradientUnits="userSpaceOnUse"><stop stop-color="#81BD92"/><stop offset="1" stop-color="#BEF8CE"/></linearGradient><linearGradient id="aL" x1="397.665" y1="207.354" x2="404.142" y2="207.758" gradientUnits="userSpaceOnUse"><stop stop-color="#81BD92"/><stop offset="1" stop-color="#BEF8CE"/></linearGradient><linearGradient id="aM" x1="432.802" y1="207.354" x2="439.278" y2="207.758" gradientUnits="userSpaceOnUse"><stop stop-color="#81BD92"/><stop offset="1" stop-color="#BEF8CE"/></linearGradient><linearGradient id="aN" x1="11.141" y1="241.796" x2="17.618" y2="242.2" gradientUnits="userSpaceOnUse"><stop stop-color="#81BD92"/><stop offset="1" stop-color="#BEF8CE"/></linearGradient><linearGradient id="aO" x1="46.277" y1="241.796" x2="52.754" y2="242.2" gradientUnits="userSpaceOnUse"><stop stop-color="#81BD92"/><stop offset="1" stop-color="#BEF8CE"/></linearGradient><linearGradient id="aP" x1="81.413" y1="241.796" x2="87.89" y2="242.2" gradientUnits="userSpaceOnUse"><stop stop-color="#81BD92"/><stop offset="1" stop-color="#BEF8CE"/></linearGradient><linearGradient id="aQ" x1="116.55" y1="241.796" x2="123.027" y2="242.2" gradientUnits="userSpaceOnUse"><stop stop-color="#81BD92"/><stop offset="1" stop-color="#BEF8CE"/></linearGradient><linearGradient id="aR" x1="151.686" y1="241.796" x2="158.163" y2="242.2" gradientUnits="userSpaceOnUse"><stop stop-color="#81BD92"/><stop offset="1" stop-color="#BEF8CE"/></linearGradient><linearGradient id="aS" x1="186.822" y1="241.796" x2="193.299" y2="242.2" gradientUnits="userSpaceOnUse"><stop stop-color="#81BD92"/><stop offset="1" stop-color="#BEF8CE"/></linearGradient><linearGradient id="aT" x1="221.958" y1="241.796" x2="228.435" y2="242.2" gradientUnits="userSpaceOnUse"><stop stop-color="#81BD92"/><stop offset="1" stop-color="#BEF8CE"/></linearGradient><linearGradient id="aU" x1="257.12" y1="241.796" x2="263.597" y2="242.2" gradientUnits="userSpaceOnUse"><stop stop-color="#81BD92"/><stop offset="1" stop-color="#BEF8CE"/></linearGradient><linearGradient id="aV" x1="292.256" y1="241.796" x2="298.733" y2="242.2" gradientUnits="userSpaceOnUse"><stop stop-color="#81BD92"/><stop offset="1" stop-color="#BEF8CE"/></linearGradient><linearGradient id="aW" x1="327.393" y1="241.796" x2="333.869" y2="242.2" gradientUnits="userSpaceOnUse"><stop stop-color="#81BD92"/><stop offset="1" stop-color="#BEF8CE"/></linearGradient><linearGradient id="aX" x1="362.529" y1="241.796" x2="369.006" y2="242.2" gradientUnits="userSpaceOnUse"><stop stop-color="#81BD92"/><stop offset="1" stop-color="#BEF8CE"/></linearGradient><linearGradient id="aY" x1="397.665" y1="241.796" x2="404.142" y2="242.2" gradientUnits="userSpaceOnUse"><stop stop-color="#81BD92"/><stop offset="1" stop-color="#BEF8CE"/></linearGradient><linearGradient id="aZ" x1="432.802" y1="241.796" x2="439.278" y2="242.2" gradientUnits="userSpaceOnUse"><stop stop-color="#81BD92"/><stop offset="1" stop-color="#BEF8CE"/></linearGradient><linearGradient id="ba" x1="11.141" y1="276.213" x2="17.618" y2="276.618" gradientUnits="userSpaceOnUse"><stop stop-color="#81BD92"/><stop offset="1" stop-color="#BEF8CE"/></linearGradient><linearGradient id="bb" x1="46.277" y1="276.213" x2="52.754" y2="276.618" gradientUnits="userSpaceOnUse"><stop stop-color="#81BD92"/><stop offset="1" stop-color="#BEF8CE"/></linearGradient><linearGradient id="bc" x1="81.413" y1="276.213" x2="87.89" y2="276.618" gradientUnits="userSpaceOnUse"><stop stop-color="#81BD92"/><stop offset="1" stop-color="#BEF8CE"/></linearGradient><linearGradient id="bd" x1="116.55" y1="276.213" x2="123.027" y2="276.618" gradientUnits="userSpaceOnUse"><stop stop-color="#81BD92"/><stop offset="1" stop-color="#BEF8CE"/></linearGradient><linearGradient id="be" x1="151.686" y1="276.213" x2="158.163" y2="276.618" gradientUnits="userSpaceOnUse"><stop stop-color="#81BD92"/><stop offset="1" stop-color="#BEF8CE"/></linearGradient><linearGradient id="bf" x1="186.822" y1="276.213" x2="193.299" y2="276.618" gradientUnits="userSpaceOnUse"><stop stop-color="#81BD92"/><stop offset="1" stop-color="#BEF8CE"/></linearGradient><linearGradient id="bg" x1="221.958" y1="276.213" x2="228.435" y2="276.618" gradientUnits="userSpaceOnUse"><stop stop-color="#81BD92"/><stop offset="1" stop-color="#BEF8CE"/></linearGradient><linearGradient id="bh" x1="257.12" y1="276.213" x2="263.597" y2="276.618" gradientUnits="userSpaceOnUse"><stop stop-color="#81BD92"/><stop offset="1" stop-color="#BEF8CE"/></linearGradient><linearGradient id="bi" x1="292.256" y1="276.213" x2="298.733" y2="276.618" gradientUnits="userSpaceOnUse"><stop stop-color="#81BD92"/><stop offset="1" stop-color="#BEF8CE"/></linearGradient><linearGradient id="bj" x1="327.393" y1="276.213" x2="333.869" y2="276.618" gradientUnits="userSpaceOnUse"><stop stop-color="#81BD92"/><stop offset="1" stop-color="#BEF8CE"/></linearGradient><linearGradient id="bk" x1="362.529" y1="276.213" x2="369.006" y2="276.618" gradientUnits="userSpaceOnUse"><stop stop-color="#81BD92"/><stop offset="1" stop-color="#BEF8CE"/></linearGradient><linearGradient id="bl" x1="397.665" y1="276.213" x2="404.142" y2="276.618" gradientUnits="userSpaceOnUse"><stop stop-color="#81BD92"/><stop offset="1" stop-color="#BEF8CE"/></linearGradient><linearGradient id="bm" x1="432.802" y1="276.213" x2="439.278" y2="276.618" gradientUnits="userSpaceOnUse"><stop stop-color="#81BD92"/><stop offset="1" stop-color="#BEF8CE"/></linearGradient><linearGradient id="bn" x1="11.141" y1="310.631" x2="17.618" y2="311.035" gradientUnits="userSpaceOnUse"><stop stop-color="#81BD92"/><stop offset="1" stop-color="#BEF8CE"/></linearGradient><linearGradient id="bo" x1="46.277" y1="310.631" x2="52.754" y2="311.035" gradientUnits="userSpaceOnUse"><stop stop-color="#81BD92"/><stop offset="1" stop-color="#BEF8CE"/></linearGradient><linearGradient id="bp" x1="81.413" y1="310.631" x2="87.89" y2="311.035" gradientUnits="userSpaceOnUse"><stop stop-color="#81BD92"/><stop offset="1" stop-color="#BEF8CE"/></linearGradient><linearGradient id="bq" x1="116.55" y1="310.631" x2="123.027" y2="311.035" gradientUnits="userSpaceOnUse"><stop stop-color="#81BD92"/><stop offset="1" stop-color="#BEF8CE"/></linearGradient><linearGradient id="br" x1="151.686" y1="310.631" x2="158.163" y2="311.035" gradientUnits="userSpaceOnUse"><stop stop-color="#81BD92"/><stop offset="1" stop-color="#BEF8CE"/></linearGradient><linearGradient id="bs" x1="186.822" y1="310.631" x2="193.299" y2="311.035" gradientUnits="userSpaceOnUse"><stop stop-color="#81BD92"/><stop offset="1" stop-color="#BEF8CE"/></linearGradient><linearGradient id="bt" x1="221.958" y1="310.631" x2="228.435" y2="311.035" gradientUnits="userSpaceOnUse"><stop stop-color="#81BD92"/><stop offset="1" stop-color="#BEF8CE"/></linearGradient><linearGradient id="bu" x1="257.12" y1="310.631" x2="263.597" y2="311.035" gradientUnits="userSpaceOnUse"><stop stop-color="#81BD92"/><stop offset="1" stop-color="#BEF8CE"/></linearGradient><linearGradient id="bv" x1="292.256" y1="310.631" x2="298.733" y2="311.035" gradientUnits="userSpaceOnUse"><stop stop-color="#81BD92"/><stop offset="1" stop-color="#BEF8CE"/></linearGradient><linearGradient id="bw" x1="327.393" y1="310.631" x2="333.869" y2="311.035" gradientUnits="userSpaceOnUse"><stop stop-color="#81BD92"/><stop offset="1" stop-color="#BEF8CE"/></linearGradient><linearGradient id="bx" x1="362.529" y1="310.631" x2="369.006" y2="311.035" gradientUnits="userSpaceOnUse"><stop stop-color="#81BD92"/><stop offset="1" stop-color="#BEF8CE"/></linearGradient><linearGradient id="by" x1="397.665" y1="310.631" x2="404.142" y2="311.035" gradientUnits="userSpaceOnUse"><stop stop-color="#81BD92"/><stop offset="1" stop-color="#BEF8CE"/></linearGradient><linearGradient id="bz" x1="432.802" y1="310.631" x2="439.278" y2="311.035" gradientUnits="userSpaceOnUse"><stop stop-color="#81BD92"/><stop offset="1" stop-color="#BEF8CE"/></linearGradient><linearGradient id="bA" x1="11.141" y1="345.048" x2="17.618" y2="345.452" gradientUnits="userSpaceOnUse"><stop stop-color="#81BD92"/><stop offset="1" stop-color="#BEF8CE"/></linearGradient><linearGradient id="bB" x1="46.277" y1="345.048" x2="52.754" y2="345.452" gradientUnits="userSpaceOnUse"><stop stop-color="#81BD92"/><stop offset="1" stop-color="#BEF8CE"/></linearGradient><linearGradient id="bC" x1="81.413" y1="345.048" x2="87.89" y2="345.452" gradientUnits="userSpaceOnUse"><stop stop-color="#81BD92"/><stop offset="1" stop-color="#BEF8CE"/></linearGradient><linearGradient id="bD" x1="116.55" y1="345.048" x2="123.027" y2="345.452" gradientUnits="userSpaceOnUse"><stop stop-color="#81BD92"/><stop offset="1" stop-color="#BEF8CE"/></linearGradient><linearGradient id="bE" x1="151.686" y1="345.048" x2="158.163" y2="345.452" gradientUnits="userSpaceOnUse"><stop stop-color="#81BD92"/><stop offset="1" stop-color="#BEF8CE"/></linearGradient><linearGradient id="bF" x1="186.822" y1="345.048" x2="193.299" y2="345.452" gradientUnits="userSpaceOnUse"><stop stop-color="#81BD92"/><stop offset="1" stop-color="#BEF8CE"/></linearGradient><linearGradient id="bG" x1="221.958" y1="345.048" x2="228.435" y2="345.452" gradientUnits="userSpaceOnUse"><stop stop-color="#81BD92"/><stop offset="1" stop-color="#BEF8CE"/></linearGradient><linearGradient id="bH" x1="257.12" y1="345.048" x2="263.597" y2="345.452" gradientUnits="userSpaceOnUse"><stop stop-color="#81BD92"/><stop offset="1" stop-color="#BEF8CE"/></linearGradient><linearGradient id="bI" x1="292.256" y1="345.048" x2="298.733" y2="345.452" gradientUnits="userSpaceOnUse"><stop stop-color="#81BD92"/><stop offset="1" stop-color="#BEF8CE"/></linearGradient><linearGradient id="bJ" x1="327.393" y1="345.048" x2="333.869" y2="345.452" gradientUnits="userSpaceOnUse"><stop stop-color="#81BD92"/><stop offset="1" stop-color="#BEF8CE"/></linearGradient><linearGradient id="bK" x1="362.529" y1="345.048" x2="369.006" y2="345.452" gradientUnits="userSpaceOnUse"><stop stop-color="#81BD92"/><stop offset="1" stop-color="#BEF8CE"/></linearGradient><linearGradient id="bL" x1="397.665" y1="345.048" x2="404.142" y2="345.452" gradientUnits="userSpaceOnUse"><stop stop-color="#81BD92"/><stop offset="1" stop-color="#BEF8CE"/></linearGradient><linearGradient id="bM" x1="432.802" y1="345.048" x2="439.278" y2="345.452" gradientUnits="userSpaceOnUse"><stop stop-color="#81BD92"/><stop offset="1" stop-color="#BEF8CE"/></linearGradient></defs></svg>