<svg width="40" height="29" fill="none" xmlns="http://www.w3.org/2000/svg"><path d="M0 1.5a1 1 0 0 1 1-1h38a1 1 0 0 1 1 1v2a1 1 0 0 1-1 1H1a1 1 0 0 1-1-1v-2Z" fill="url(#a)"/><path d="M0 13.5a1 1 0 0 1 1-1h38a1 1 0 0 1 1 1v2a1 1 0 0 1-1 1H1a1 1 0 0 1-1-1v-2Z" fill="url(#b)"/><path d="M0 25.5a1 1 0 0 1 1-1h38a1 1 0 0 1 1 1v2a1 1 0 0 1-1 1H1a1 1 0 0 1-1-1v-2Z" fill="url(#c)"/><defs><linearGradient id="a" x1="0" y1=".5" x2="42.164" y2="4.265" gradientUnits="userSpaceOnUse"><stop stop-color="#00AA30"/><stop offset="1" stop-color="#00D03A"/></linearGradient><linearGradient id="b" x1="0" y1=".5" x2="42.164" y2="4.265" gradientUnits="userSpaceOnUse"><stop stop-color="#00AA30"/><stop offset="1" stop-color="#00D03A"/></linearGradient><linearGradient id="c" x1="0" y1=".5" x2="42.164" y2="4.265" gradientUnits="userSpaceOnUse"><stop stop-color="#00AA30"/><stop offset="1" stop-color="#00D03A"/></linearGradient></defs></svg>