<svg width="612" height="351" fill="none" xmlns="http://www.w3.org/2000/svg"><path d="M3.553 6.128c1.716 0 3.108-1.372 3.108-3.064S5.269 0 3.553 0C1.836 0 .444 1.372.444 3.064s1.392 3.064 3.109 3.064Z" fill="url(#a)" fill-opacity=".3"/><path d="M39.247 6.128c1.716 0 3.108-1.372 3.108-3.064S40.963 0 39.247 0c-1.717 0-3.109 1.372-3.109 3.064s1.392 3.064 3.109 3.064Z" fill="url(#b)" fill-opacity=".3"/><path d="M74.967 6.128c1.716 0 3.108-1.372 3.108-3.064S76.683 0 74.967 0c-1.717 0-3.109 1.372-3.109 3.064s1.392 3.064 3.109 3.064Z" fill="url(#c)" fill-opacity=".3"/><path d="M110.661 6.128c1.716 0 3.108-1.372 3.108-3.064S112.377 0 110.661 0c-1.717 0-3.109 1.372-3.109 3.064s1.392 3.064 3.109 3.064Z" fill="url(#d)" fill-opacity=".3"/><path d="M146.355 6.128c1.716 0 3.108-1.372 3.108-3.064S148.071 0 146.355 0c-1.717 0-3.109 1.372-3.109 3.064s1.392 3.064 3.109 3.064Z" fill="url(#e)" fill-opacity=".3"/><path d="M182.049 6.128c1.716 0 3.108-1.372 3.108-3.064S183.765 0 182.049 0c-1.717 0-3.109 1.372-3.109 3.064s1.392 3.064 3.109 3.064Z" fill="url(#f)" fill-opacity=".3"/><path d="M220.851 3.064c0 1.685-1.399 3.064-3.109 3.064-1.709 0-3.108-1.379-3.108-3.064S216.033 0 217.742 0c1.71 0 3.109 1.379 3.109 3.064Z" fill="url(#g)" fill-opacity=".3"/><path d="M256.545 3.064c0 1.685-1.399 3.064-3.108 3.064-1.71 0-3.109-1.379-3.109-3.064S251.727 0 253.437 0c1.735 0 3.108 1.379 3.108 3.064Z" fill="url(#h)" fill-opacity=".3"/><path d="M289.156 6.128c1.717 0 3.109-1.372 3.109-3.064S290.873 0 289.156 0c-1.716 0-3.108 1.372-3.108 3.064s1.392 3.064 3.108 3.064Z" fill="url(#i)" fill-opacity=".3"/><path d="M324.85 6.128c1.717 0 3.109-1.372 3.109-3.064S326.567 0 324.85 0c-1.716 0-3.108 1.372-3.108 3.064s1.392 3.064 3.108 3.064Z" fill="url(#j)" fill-opacity=".3"/><path d="M360.544 6.128c1.717 0 3.109-1.372 3.109-3.064S362.261 0 360.544 0c-1.716 0-3.108 1.372-3.108 3.064s1.392 3.064 3.108 3.064Z" fill="url(#k)" fill-opacity=".3"/><path d="M396.238 6.128c1.717 0 3.109-1.372 3.109-3.064S397.955 0 396.238 0c-1.716 0-3.108 1.372-3.108 3.064s1.392 3.064 3.108 3.064Z" fill="url(#l)" fill-opacity=".3"/><path d="M431.932 6.128c1.717 0 3.109-1.372 3.109-3.064S433.649 0 431.932 0c-1.716 0-3.108 1.372-3.108 3.064s1.392 3.064 3.108 3.064Z" fill="url(#m)" fill-opacity=".3"/><path d="M467.626 6.128c1.717 0 3.109-1.372 3.109-3.064S469.343 0 467.626 0c-1.716 0-3.108 1.372-3.108 3.064s1.392 3.064 3.108 3.064Z" fill="url(#n)" fill-opacity=".3"/><path d="M506.428 3.064c0 1.685-1.398 3.064-3.108 3.064-1.709 0-3.108-1.379-3.108-3.064S501.611 0 503.32 0c1.736 0 3.108 1.379 3.108 3.064Z" fill="url(#o)" fill-opacity=".3"/><path d="M539.04 6.128c1.717 0 3.108-1.372 3.108-3.064S540.757 0 539.04 0s-3.108 1.372-3.108 3.064 1.391 3.064 3.108 3.064Z" fill="url(#p)" fill-opacity=".3"/><path d="M574.734 6.128c1.717 0 3.108-1.372 3.108-3.064S576.451 0 574.734 0s-3.108 1.372-3.108 3.064 1.391 3.064 3.108 3.064Z" fill="url(#q)" fill-opacity=".3"/><path d="M613.536 3.064c0 1.685-1.398 3.064-3.108 3.064-1.71 0-3.108-1.379-3.108-3.064S608.718 0 610.428 0c1.71 0 3.108 1.379 3.108 3.064Z" fill="url(#r)" fill-opacity=".3"/><path d="M646.122 6.128c1.717 0 3.108-1.372 3.108-3.064S647.839 0 646.122 0s-3.108 1.372-3.108 3.064 1.391 3.064 3.108 3.064Z" fill="url(#s)" fill-opacity=".3"/><path d="M681.816 6.128c1.717 0 3.108-1.372 3.108-3.064S683.533 0 681.816 0s-3.108 1.372-3.108 3.064 1.391 3.064 3.108 3.064Z" fill="url(#t)" fill-opacity=".3"/><path d="M717.51 6.128c1.717 0 3.108-1.372 3.108-3.064S719.227 0 717.51 0s-3.108 1.372-3.108 3.064 1.391 3.064 3.108 3.064Z" fill="url(#u)" fill-opacity=".3"/><path d="M3.553 40.545c1.716 0 3.108-1.372 3.108-3.064s-1.392-3.064-3.108-3.064c-1.717 0-3.108 1.372-3.108 3.064s1.391 3.064 3.108 3.064Z" fill="url(#v)" fill-opacity=".3"/><path d="M39.247 40.545c1.716 0 3.108-1.372 3.108-3.064s-1.392-3.064-3.108-3.064c-1.717 0-3.109 1.372-3.109 3.064s1.392 3.064 3.109 3.064Z" fill="url(#w)" fill-opacity=".3"/><path d="M74.967 40.545c1.716 0 3.108-1.372 3.108-3.064s-1.392-3.064-3.108-3.064c-1.717 0-3.109 1.372-3.109 3.064s1.392 3.064 3.109 3.064Z" fill="url(#x)" fill-opacity=".3"/><path d="M110.661 40.545c1.716 0 3.108-1.372 3.108-3.064s-1.392-3.064-3.108-3.064c-1.717 0-3.109 1.372-3.109 3.064s1.392 3.064 3.109 3.064Z" fill="url(#y)" fill-opacity=".3"/><path d="M146.355 40.545c1.716 0 3.108-1.372 3.108-3.064s-1.392-3.064-3.108-3.064c-1.717 0-3.109 1.372-3.109 3.064s1.392 3.064 3.109 3.064Z" fill="url(#z)" fill-opacity=".3"/><path d="M182.049 40.545c1.716 0 3.108-1.372 3.108-3.064s-1.392-3.064-3.108-3.064c-1.717 0-3.109 1.372-3.109 3.064s1.392 3.064 3.109 3.064Z" fill="url(#A)" fill-opacity=".3"/><path d="M220.851 37.481c0 1.685-1.399 3.064-3.109 3.064-1.709 0-3.108-1.379-3.108-3.064s1.399-3.064 3.108-3.064c1.71.026 3.109 1.379 3.109 3.064Z" fill="url(#B)" fill-opacity=".3"/><path d="M256.545 37.481c0 1.685-1.399 3.064-3.108 3.064-1.71 0-3.109-1.379-3.109-3.064s1.399-3.064 3.109-3.064c1.735.026 3.108 1.379 3.108 3.064Z" fill="url(#C)" fill-opacity=".3"/><path d="M289.156 40.545c1.717 0 3.109-1.372 3.109-3.064s-1.392-3.064-3.109-3.064c-1.716 0-3.108 1.372-3.108 3.064s1.392 3.064 3.108 3.064Z" fill="url(#D)" fill-opacity=".3"/><path d="M324.85 40.545c1.717 0 3.109-1.372 3.109-3.064s-1.392-3.064-3.109-3.064c-1.716 0-3.108 1.372-3.108 3.064s1.392 3.064 3.108 3.064Z" fill="url(#E)" fill-opacity=".3"/><path d="M360.544 40.545c1.717 0 3.109-1.372 3.109-3.064s-1.392-3.064-3.109-3.064c-1.716 0-3.108 1.372-3.108 3.064s1.392 3.064 3.108 3.064Z" fill="url(#F)" fill-opacity=".3"/><path d="M396.238 40.545c1.717 0 3.109-1.372 3.109-3.064s-1.392-3.064-3.109-3.064c-1.716 0-3.108 1.372-3.108 3.064s1.392 3.064 3.108 3.064Z" fill="url(#G)" fill-opacity=".3"/><path d="M431.932 40.545c1.717 0 3.109-1.372 3.109-3.064s-1.392-3.064-3.109-3.064c-1.716 0-3.108 1.372-3.108 3.064s1.392 3.064 3.108 3.064Z" fill="url(#H)" fill-opacity=".3"/><path d="M467.626 40.545c1.717 0 3.109-1.372 3.109-3.064s-1.392-3.064-3.109-3.064c-1.716 0-3.108 1.372-3.108 3.064s1.392 3.064 3.108 3.064Z" fill="url(#I)" fill-opacity=".3"/><path d="M506.428 37.481c0 1.685-1.398 3.064-3.108 3.064-1.709 0-3.108-1.379-3.108-3.064s1.399-3.064 3.108-3.064c1.736.026 3.108 1.379 3.108 3.064Z" fill="url(#J)" fill-opacity=".3"/><path d="M539.04 40.545c1.717 0 3.108-1.372 3.108-3.064s-1.391-3.064-3.108-3.064-3.108 1.372-3.108 3.064 1.391 3.064 3.108 3.064Z" fill="url(#K)" fill-opacity=".3"/><path d="M574.734 40.545c1.717 0 3.108-1.372 3.108-3.064s-1.391-3.064-3.108-3.064-3.108 1.372-3.108 3.064 1.391 3.064 3.108 3.064Z" fill="url(#L)" fill-opacity=".3"/><path d="M613.536 37.481c0 1.685-1.398 3.064-3.108 3.064-1.71 0-3.108-1.379-3.108-3.064s1.398-3.064 3.108-3.064c1.71.026 3.108 1.379 3.108 3.064Z" fill="url(#M)" fill-opacity=".3"/><path d="M646.122 40.545c1.717 0 3.108-1.372 3.108-3.064s-1.391-3.064-3.108-3.064-3.108 1.372-3.108 3.064 1.391 3.064 3.108 3.064Z" fill="url(#N)" fill-opacity=".3"/><path d="M681.816 40.545c1.717 0 3.108-1.372 3.108-3.064s-1.391-3.064-3.108-3.064-3.108 1.372-3.108 3.064 1.391 3.064 3.108 3.064Z" fill="url(#O)" fill-opacity=".3"/><path d="M717.51 40.545c1.717 0 3.108-1.372 3.108-3.064s-1.391-3.064-3.108-3.064-3.108 1.372-3.108 3.064 1.391 3.064 3.108 3.064Z" fill="url(#P)" fill-opacity=".3"/><path d="M3.553 74.988c1.716 0 3.108-1.372 3.108-3.064S5.27 68.86 3.553 68.86.445 70.232.445 71.924s1.391 3.064 3.108 3.064Z" fill="url(#Q)" fill-opacity=".3"/><path d="M39.247 74.988c1.716 0 3.108-1.372 3.108-3.064s-1.392-3.064-3.108-3.064c-1.717 0-3.109 1.372-3.109 3.064s1.392 3.064 3.109 3.064Z" fill="url(#R)" fill-opacity=".3"/><path d="M74.967 74.988c1.716 0 3.108-1.372 3.108-3.064s-1.392-3.064-3.108-3.064c-1.717 0-3.109 1.372-3.109 3.064s1.392 3.064 3.109 3.064Z" fill="url(#S)" fill-opacity=".3"/><path d="M110.661 74.988c1.716 0 3.108-1.372 3.108-3.064s-1.392-3.064-3.108-3.064c-1.717 0-3.109 1.372-3.109 3.064s1.392 3.064 3.109 3.064Z" fill="url(#T)" fill-opacity=".3"/><path d="M146.355 74.988c1.716 0 3.108-1.372 3.108-3.064s-1.392-3.064-3.108-3.064c-1.717 0-3.109 1.372-3.109 3.064s1.392 3.064 3.109 3.064Z" fill="url(#U)" fill-opacity=".3"/><path d="M182.049 74.988c1.716 0 3.108-1.372 3.108-3.064s-1.392-3.064-3.108-3.064c-1.717 0-3.109 1.372-3.109 3.064s1.392 3.064 3.109 3.064Z" fill="url(#V)" fill-opacity=".3"/><path d="M220.851 71.924c0 1.685-1.399 3.064-3.109 3.064-1.709 0-3.108-1.38-3.108-3.064 0-1.685 1.399-3.064 3.108-3.064 1.71 0 3.109 1.353 3.109 3.064Z" fill="url(#W)" fill-opacity=".3"/><path d="M256.545 71.924c0 1.685-1.399 3.064-3.108 3.064-1.71 0-3.109-1.38-3.109-3.064 0-1.685 1.399-3.064 3.109-3.064 1.735 0 3.108 1.353 3.108 3.064Z" fill="url(#X)" fill-opacity=".3"/><path d="M289.156 74.988c1.717 0 3.109-1.372 3.109-3.064s-1.392-3.064-3.109-3.064c-1.716 0-3.108 1.372-3.108 3.064s1.392 3.064 3.108 3.064Z" fill="url(#Y)" fill-opacity=".3"/><path d="M324.85 74.988c1.717 0 3.109-1.372 3.109-3.064s-1.392-3.064-3.109-3.064c-1.716 0-3.108 1.372-3.108 3.064s1.392 3.064 3.108 3.064Z" fill="url(#Z)" fill-opacity=".3"/><path d="M360.544 74.988c1.717 0 3.109-1.372 3.109-3.064s-1.392-3.064-3.109-3.064c-1.716 0-3.108 1.372-3.108 3.064s1.392 3.064 3.108 3.064Z" fill="url(#aa)" fill-opacity=".3"/><path d="M396.238 74.988c1.717 0 3.109-1.372 3.109-3.064s-1.392-3.064-3.109-3.064c-1.716 0-3.108 1.372-3.108 3.064s1.392 3.064 3.108 3.064Z" fill="url(#ab)" fill-opacity=".3"/><path d="M431.932 74.988c1.717 0 3.109-1.372 3.109-3.064s-1.392-3.064-3.109-3.064c-1.716 0-3.108 1.372-3.108 3.064s1.392 3.064 3.108 3.064Z" fill="url(#ac)" fill-opacity=".3"/><path d="M467.626 74.988c1.717 0 3.109-1.372 3.109-3.064s-1.392-3.064-3.109-3.064c-1.716 0-3.108 1.372-3.108 3.064s1.392 3.064 3.108 3.064Z" fill="url(#ad)" fill-opacity=".3"/><path d="M506.428 71.924c0 1.685-1.398 3.064-3.108 3.064-1.709 0-3.108-1.38-3.108-3.064 0-1.685 1.399-3.064 3.108-3.064 1.736 0 3.108 1.353 3.108 3.064Z" fill="url(#ae)" fill-opacity=".3"/><path d="M539.04 74.988c1.717 0 3.108-1.372 3.108-3.064s-1.391-3.064-3.108-3.064-3.108 1.372-3.108 3.064 1.391 3.064 3.108 3.064Z" fill="url(#af)" fill-opacity=".3"/><path d="M574.734 74.988c1.717 0 3.108-1.372 3.108-3.064s-1.391-3.064-3.108-3.064-3.108 1.372-3.108 3.064 1.391 3.064 3.108 3.064Z" fill="url(#ag)" fill-opacity=".3"/><path d="M613.536 71.924c0 1.685-1.398 3.064-3.108 3.064-1.71 0-3.108-1.38-3.108-3.064 0-1.685 1.398-3.064 3.108-3.064 1.71 0 3.108 1.353 3.108 3.064Z" fill="url(#ah)" fill-opacity=".3"/><path d="M646.122 74.988c1.717 0 3.108-1.372 3.108-3.064s-1.391-3.064-3.108-3.064-3.108 1.372-3.108 3.064 1.391 3.064 3.108 3.064Z" fill="url(#ai)" fill-opacity=".3"/><path d="M681.816 74.988c1.717 0 3.108-1.372 3.108-3.064s-1.391-3.064-3.108-3.064-3.108 1.372-3.108 3.064 1.391 3.064 3.108 3.064Z" fill="url(#aj)" fill-opacity=".3"/><path d="M717.51 74.988c1.717 0 3.108-1.372 3.108-3.064s-1.391-3.064-3.108-3.064-3.108 1.372-3.108 3.064 1.391 3.064 3.108 3.064Z" fill="url(#ak)" fill-opacity=".3"/><path d="M3.553 109.405c1.716 0 3.108-1.372 3.108-3.064s-1.392-3.064-3.108-3.064c-1.717 0-3.108 1.372-3.108 3.064s1.391 3.064 3.108 3.064Z" fill="url(#al)" fill-opacity=".3"/><path d="M39.247 109.405c1.716 0 3.108-1.372 3.108-3.064s-1.392-3.064-3.108-3.064c-1.717 0-3.109 1.372-3.109 3.064s1.392 3.064 3.109 3.064Z" fill="url(#am)" fill-opacity=".3"/><path d="M74.967 109.405c1.716 0 3.108-1.372 3.108-3.064s-1.392-3.064-3.108-3.064c-1.717 0-3.109 1.372-3.109 3.064s1.392 3.064 3.109 3.064Z" fill="url(#an)" fill-opacity=".3"/><path d="M110.661 109.405c1.716 0 3.108-1.372 3.108-3.064s-1.392-3.064-3.108-3.064c-1.717 0-3.109 1.372-3.109 3.064s1.392 3.064 3.109 3.064Z" fill="url(#ao)" fill-opacity=".3"/><path d="M146.355 109.405c1.716 0 3.108-1.372 3.108-3.064s-1.392-3.064-3.108-3.064c-1.717 0-3.109 1.372-3.109 3.064s1.392 3.064 3.109 3.064Z" fill="url(#ap)" fill-opacity=".3"/><path d="M182.049 109.405c1.716 0 3.108-1.372 3.108-3.064s-1.392-3.064-3.108-3.064c-1.717 0-3.109 1.372-3.109 3.064s1.392 3.064 3.109 3.064Z" fill="url(#aq)" fill-opacity=".3"/><path d="M220.851 106.341c0 1.685-1.399 3.064-3.109 3.064-1.709 0-3.108-1.379-3.108-3.064s1.399-3.064 3.108-3.064c1.71 0 3.109 1.379 3.109 3.064Z" fill="url(#ar)" fill-opacity=".3"/><path d="M256.545 106.341c0 1.685-1.399 3.064-3.108 3.064-1.71 0-3.109-1.379-3.109-3.064s1.399-3.064 3.109-3.064c1.735 0 3.108 1.379 3.108 3.064Z" fill="url(#as)" fill-opacity=".3"/><path d="M289.156 109.405c1.717 0 3.109-1.372 3.109-3.064s-1.392-3.064-3.109-3.064c-1.716 0-3.108 1.372-3.108 3.064s1.392 3.064 3.108 3.064Z" fill="url(#at)" fill-opacity=".3"/><path d="M324.85 109.405c1.717 0 3.109-1.372 3.109-3.064s-1.392-3.064-3.109-3.064c-1.716 0-3.108 1.372-3.108 3.064s1.392 3.064 3.108 3.064Z" fill="url(#au)" fill-opacity=".3"/><path d="M360.544 109.405c1.717 0 3.109-1.372 3.109-3.064s-1.392-3.064-3.109-3.064c-1.716 0-3.108 1.372-3.108 3.064s1.392 3.064 3.108 3.064Z" fill="url(#av)" fill-opacity=".3"/><path d="M396.238 109.405c1.717 0 3.109-1.372 3.109-3.064s-1.392-3.064-3.109-3.064c-1.716 0-3.108 1.372-3.108 3.064s1.392 3.064 3.108 3.064Z" fill="url(#aw)" fill-opacity=".3"/><path d="M431.932 109.405c1.717 0 3.109-1.372 3.109-3.064s-1.392-3.064-3.109-3.064c-1.716 0-3.108 1.372-3.108 3.064s1.392 3.064 3.108 3.064Z" fill="url(#ax)" fill-opacity=".3"/><path d="M467.626 109.405c1.717 0 3.109-1.372 3.109-3.064s-1.392-3.064-3.109-3.064c-1.716 0-3.108 1.372-3.108 3.064s1.392 3.064 3.108 3.064Z" fill="url(#ay)" fill-opacity=".3"/><path d="M506.428 106.341c0 1.685-1.398 3.064-3.108 3.064-1.709 0-3.108-1.379-3.108-3.064s1.399-3.064 3.108-3.064c1.736 0 3.108 1.379 3.108 3.064Z" fill="url(#az)" fill-opacity=".3"/><path d="M539.04 109.405c1.717 0 3.108-1.372 3.108-3.064s-1.391-3.064-3.108-3.064-3.108 1.372-3.108 3.064 1.391 3.064 3.108 3.064Z" fill="url(#aA)" fill-opacity=".3"/><path d="M574.734 109.405c1.717 0 3.108-1.372 3.108-3.064s-1.391-3.064-3.108-3.064-3.108 1.372-3.108 3.064 1.391 3.064 3.108 3.064Z" fill="url(#aB)" fill-opacity=".3"/><path d="M613.536 106.341c0 1.685-1.398 3.064-3.108 3.064-1.71 0-3.108-1.379-3.108-3.064s1.398-3.064 3.108-3.064c1.71 0 3.108 1.379 3.108 3.064Z" fill="url(#aC)" fill-opacity=".3"/><path d="M646.122 109.405c1.717 0 3.108-1.372 3.108-3.064s-1.391-3.064-3.108-3.064-3.108 1.372-3.108 3.064 1.391 3.064 3.108 3.064Z" fill="url(#aD)" fill-opacity=".3"/><path d="M681.816 109.405c1.717 0 3.108-1.372 3.108-3.064s-1.391-3.064-3.108-3.064-3.108 1.372-3.108 3.064 1.391 3.064 3.108 3.064Z" fill="url(#aE)" fill-opacity=".3"/><path d="M717.51 109.405c1.717 0 3.108-1.372 3.108-3.064s-1.391-3.064-3.108-3.064-3.108 1.372-3.108 3.064 1.391 3.064 3.108 3.064Z" fill="url(#aF)" fill-opacity=".3"/><path d="M3.553 143.822c1.716 0 3.108-1.372 3.108-3.064s-1.392-3.064-3.108-3.064c-1.717 0-3.108 1.372-3.108 3.064s1.391 3.064 3.108 3.064Z" fill="url(#aG)" fill-opacity=".3"/><path d="M39.247 143.822c1.716 0 3.108-1.372 3.108-3.064s-1.392-3.064-3.108-3.064c-1.717 0-3.109 1.372-3.109 3.064s1.392 3.064 3.109 3.064Z" fill="url(#aH)" fill-opacity=".3"/><path d="M74.967 143.822c1.716 0 3.108-1.372 3.108-3.064s-1.392-3.064-3.108-3.064c-1.717 0-3.109 1.372-3.109 3.064s1.392 3.064 3.109 3.064Z" fill="url(#aI)" fill-opacity=".3"/><path d="M110.661 143.822c1.716 0 3.108-1.372 3.108-3.064s-1.392-3.064-3.108-3.064c-1.717 0-3.109 1.372-3.109 3.064s1.392 3.064 3.109 3.064Z" fill="url(#aJ)" fill-opacity=".3"/><path d="M146.355 143.822c1.716 0 3.108-1.372 3.108-3.064s-1.392-3.064-3.108-3.064c-1.717 0-3.109 1.372-3.109 3.064s1.392 3.064 3.109 3.064Z" fill="url(#aK)" fill-opacity=".3"/><path d="M182.049 143.822c1.716 0 3.108-1.372 3.108-3.064s-1.392-3.064-3.108-3.064c-1.717 0-3.109 1.372-3.109 3.064s1.392 3.064 3.109 3.064Z" fill="url(#aL)" fill-opacity=".3"/><path d="M220.851 140.758c0 1.685-1.399 3.064-3.109 3.064-1.709 0-3.108-1.379-3.108-3.064s1.399-3.064 3.108-3.064c1.71 0 3.109 1.379 3.109 3.064Z" fill="url(#aM)" fill-opacity=".3"/><path d="M256.545 140.758c0 1.685-1.399 3.064-3.108 3.064-1.71 0-3.109-1.379-3.109-3.064s1.399-3.064 3.109-3.064c1.735 0 3.108 1.379 3.108 3.064Z" fill="url(#aN)" fill-opacity=".3"/><path d="M289.156 143.822c1.717 0 3.109-1.372 3.109-3.064s-1.392-3.064-3.109-3.064c-1.716 0-3.108 1.372-3.108 3.064s1.392 3.064 3.108 3.064Z" fill="url(#aO)" fill-opacity=".3"/><path d="M324.85 143.822c1.717 0 3.109-1.372 3.109-3.064s-1.392-3.064-3.109-3.064c-1.716 0-3.108 1.372-3.108 3.064s1.392 3.064 3.108 3.064Z" fill="url(#aP)" fill-opacity=".3"/><path d="M360.544 143.822c1.717 0 3.109-1.372 3.109-3.064s-1.392-3.064-3.109-3.064c-1.716 0-3.108 1.372-3.108 3.064s1.392 3.064 3.108 3.064Z" fill="url(#aQ)" fill-opacity=".3"/><path d="M396.238 143.822c1.717 0 3.109-1.372 3.109-3.064s-1.392-3.064-3.109-3.064c-1.716 0-3.108 1.372-3.108 3.064s1.392 3.064 3.108 3.064Z" fill="url(#aR)" fill-opacity=".3"/><path d="M431.932 143.822c1.717 0 3.109-1.372 3.109-3.064s-1.392-3.064-3.109-3.064c-1.716 0-3.108 1.372-3.108 3.064s1.392 3.064 3.108 3.064Z" fill="url(#aS)" fill-opacity=".3"/><path d="M467.626 143.822c1.717 0 3.109-1.372 3.109-3.064s-1.392-3.064-3.109-3.064c-1.716 0-3.108 1.372-3.108 3.064s1.392 3.064 3.108 3.064Z" fill="url(#aT)" fill-opacity=".3"/><path d="M506.428 140.758c0 1.685-1.398 3.064-3.108 3.064-1.709 0-3.108-1.379-3.108-3.064s1.399-3.064 3.108-3.064c1.736 0 3.108 1.379 3.108 3.064Z" fill="url(#aU)" fill-opacity=".3"/><path d="M539.04 143.822c1.717 0 3.108-1.372 3.108-3.064s-1.391-3.064-3.108-3.064-3.108 1.372-3.108 3.064 1.391 3.064 3.108 3.064Z" fill="url(#aV)" fill-opacity=".3"/><path d="M574.734 143.822c1.717 0 3.108-1.372 3.108-3.064s-1.391-3.064-3.108-3.064-3.108 1.372-3.108 3.064 1.391 3.064 3.108 3.064Z" fill="url(#aW)" fill-opacity=".3"/><path d="M613.536 140.758c0 1.685-1.398 3.064-3.108 3.064-1.71 0-3.108-1.379-3.108-3.064s1.398-3.064 3.108-3.064c1.71 0 3.108 1.379 3.108 3.064Z" fill="url(#aX)" fill-opacity=".3"/><path d="M646.122 143.822c1.717 0 3.108-1.372 3.108-3.064s-1.391-3.064-3.108-3.064-3.108 1.372-3.108 3.064 1.391 3.064 3.108 3.064Z" fill="url(#aY)" fill-opacity=".3"/><path d="M681.816 143.822c1.717 0 3.108-1.372 3.108-3.064s-1.391-3.064-3.108-3.064-3.108 1.372-3.108 3.064 1.391 3.064 3.108 3.064Z" fill="url(#aZ)" fill-opacity=".3"/><path d="M717.51 143.822c1.717 0 3.108-1.372 3.108-3.064s-1.391-3.064-3.108-3.064-3.108 1.372-3.108 3.064 1.391 3.064 3.108 3.064Z" fill="url(#ba)" fill-opacity=".3"/><path d="M3.553 178.239c1.716 0 3.108-1.372 3.108-3.064s-1.392-3.063-3.108-3.063c-1.717 0-3.108 1.371-3.108 3.063 0 1.692 1.391 3.064 3.108 3.064Z" fill="url(#bb)" fill-opacity=".3"/><path d="M39.247 178.239c1.716 0 3.108-1.372 3.108-3.064s-1.392-3.063-3.108-3.063c-1.717 0-3.109 1.371-3.109 3.063 0 1.692 1.392 3.064 3.109 3.064Z" fill="url(#bc)" fill-opacity=".3"/><path d="M74.967 178.239c1.716 0 3.108-1.372 3.108-3.064s-1.392-3.063-3.108-3.063c-1.717 0-3.109 1.371-3.109 3.063 0 1.692 1.392 3.064 3.109 3.064Z" fill="url(#bd)" fill-opacity=".3"/><path d="M110.661 178.239c1.716 0 3.108-1.372 3.108-3.064s-1.392-3.063-3.108-3.063c-1.717 0-3.109 1.371-3.109 3.063 0 1.692 1.392 3.064 3.109 3.064Z" fill="url(#be)" fill-opacity=".3"/><path d="M146.355 178.239c1.716 0 3.108-1.372 3.108-3.064s-1.392-3.063-3.108-3.063c-1.717 0-3.109 1.371-3.109 3.063 0 1.692 1.392 3.064 3.109 3.064Z" fill="url(#bf)" fill-opacity=".3"/><path d="M182.049 178.239c1.716 0 3.108-1.372 3.108-3.064s-1.392-3.063-3.108-3.063c-1.717 0-3.109 1.371-3.109 3.063 0 1.692 1.392 3.064 3.109 3.064Z" fill="url(#bg)" fill-opacity=".3"/><path d="M220.851 175.175c0 1.685-1.399 3.064-3.109 3.064-1.709 0-3.108-1.379-3.108-3.064s1.399-3.063 3.108-3.063c1.71 0 3.109 1.378 3.109 3.063Z" fill="url(#bh)" fill-opacity=".3"/><path d="M256.545 175.175c0 1.685-1.399 3.064-3.108 3.064-1.71 0-3.109-1.379-3.109-3.064s1.399-3.063 3.109-3.063c1.735 0 3.108 1.378 3.108 3.063Z" fill="url(#bi)" fill-opacity=".3"/><path d="M289.156 178.239c1.717 0 3.109-1.372 3.109-3.064s-1.392-3.063-3.109-3.063c-1.716 0-3.108 1.371-3.108 3.063 0 1.692 1.392 3.064 3.108 3.064Z" fill="url(#bj)" fill-opacity=".3"/><path d="M324.85 178.239c1.717 0 3.109-1.372 3.109-3.064s-1.392-3.063-3.109-3.063c-1.716 0-3.108 1.371-3.108 3.063 0 1.692 1.392 3.064 3.108 3.064Z" fill="url(#bk)" fill-opacity=".3"/><path d="M360.544 178.239c1.717 0 3.109-1.372 3.109-3.064s-1.392-3.063-3.109-3.063c-1.716 0-3.108 1.371-3.108 3.063 0 1.692 1.392 3.064 3.108 3.064Z" fill="url(#bl)" fill-opacity=".3"/><path d="M396.238 178.239c1.717 0 3.109-1.372 3.109-3.064s-1.392-3.063-3.109-3.063c-1.716 0-3.108 1.371-3.108 3.063 0 1.692 1.392 3.064 3.108 3.064Z" fill="url(#bm)" fill-opacity=".3"/><path d="M431.932 178.239c1.717 0 3.109-1.372 3.109-3.064s-1.392-3.063-3.109-3.063c-1.716 0-3.108 1.371-3.108 3.063 0 1.692 1.392 3.064 3.108 3.064Z" fill="url(#bn)" fill-opacity=".3"/><path d="M467.626 178.239c1.717 0 3.109-1.372 3.109-3.064s-1.392-3.063-3.109-3.063c-1.716 0-3.108 1.371-3.108 3.063 0 1.692 1.392 3.064 3.108 3.064Z" fill="url(#bo)" fill-opacity=".3"/><path d="M506.428 175.175c0 1.685-1.398 3.064-3.108 3.064-1.709 0-3.108-1.379-3.108-3.064s1.399-3.063 3.108-3.063c1.736 0 3.108 1.378 3.108 3.063Z" fill="url(#bp)" fill-opacity=".3"/><path d="M539.04 178.239c1.717 0 3.108-1.372 3.108-3.064s-1.391-3.063-3.108-3.063-3.108 1.371-3.108 3.063c0 1.692 1.391 3.064 3.108 3.064Z" fill="url(#bq)" fill-opacity=".3"/><path d="M574.734 178.239c1.717 0 3.108-1.372 3.108-3.064s-1.391-3.063-3.108-3.063-3.108 1.371-3.108 3.063c0 1.692 1.391 3.064 3.108 3.064Z" fill="url(#br)" fill-opacity=".3"/><path d="M613.536 175.175c0 1.685-1.398 3.064-3.108 3.064-1.71 0-3.108-1.379-3.108-3.064s1.398-3.063 3.108-3.063c1.71 0 3.108 1.378 3.108 3.063Z" fill="url(#bs)" fill-opacity=".3"/><path d="M646.122 178.239c1.717 0 3.108-1.372 3.108-3.064s-1.391-3.063-3.108-3.063-3.108 1.371-3.108 3.063c0 1.692 1.391 3.064 3.108 3.064Z" fill="url(#bt)" fill-opacity=".3"/><path d="M681.816 178.239c1.717 0 3.108-1.372 3.108-3.064s-1.391-3.063-3.108-3.063-3.108 1.371-3.108 3.063c0 1.692 1.391 3.064 3.108 3.064Z" fill="url(#bu)" fill-opacity=".3"/><path d="M717.51 178.239c1.717 0 3.108-1.372 3.108-3.064s-1.391-3.063-3.108-3.063-3.108 1.371-3.108 3.063c0 1.692 1.391 3.064 3.108 3.064Z" fill="url(#bv)" fill-opacity=".3"/><path d="M3.553 212.657c1.716 0 3.108-1.372 3.108-3.064s-1.392-3.064-3.108-3.064c-1.717 0-3.108 1.372-3.108 3.064s1.391 3.064 3.108 3.064Z" fill="url(#bw)" fill-opacity=".3"/><path d="M39.247 212.657c1.716 0 3.108-1.372 3.108-3.064s-1.392-3.064-3.108-3.064c-1.717 0-3.109 1.372-3.109 3.064s1.392 3.064 3.109 3.064Z" fill="url(#bx)" fill-opacity=".3"/><path d="M74.967 212.657c1.716 0 3.108-1.372 3.108-3.064s-1.392-3.064-3.108-3.064c-1.717 0-3.109 1.372-3.109 3.064s1.392 3.064 3.109 3.064Z" fill="url(#by)" fill-opacity=".3"/><path d="M110.661 212.657c1.716 0 3.108-1.372 3.108-3.064s-1.392-3.064-3.108-3.064c-1.717 0-3.109 1.372-3.109 3.064s1.392 3.064 3.109 3.064Z" fill="url(#bz)" fill-opacity=".3"/><path d="M146.355 212.657c1.716 0 3.108-1.372 3.108-3.064s-1.392-3.064-3.108-3.064c-1.717 0-3.109 1.372-3.109 3.064s1.392 3.064 3.109 3.064Z" fill="url(#bA)" fill-opacity=".3"/><path d="M182.049 212.657c1.716 0 3.108-1.372 3.108-3.064s-1.392-3.064-3.108-3.064c-1.717 0-3.109 1.372-3.109 3.064s1.392 3.064 3.109 3.064Z" fill="url(#bB)" fill-opacity=".3"/><path d="M220.851 209.593c0 1.685-1.399 3.064-3.109 3.064-1.709 0-3.108-1.379-3.108-3.064s1.399-3.064 3.108-3.064c1.71.025 3.109 1.379 3.109 3.064Z" fill="url(#bC)" fill-opacity=".3"/><path d="M256.545 209.593c0 1.685-1.399 3.064-3.108 3.064-1.71 0-3.109-1.379-3.109-3.064s1.399-3.064 3.109-3.064c1.735.025 3.108 1.379 3.108 3.064Z" fill="url(#bD)" fill-opacity=".3"/><path d="M289.156 212.657c1.717 0 3.109-1.372 3.109-3.064s-1.392-3.064-3.109-3.064c-1.716 0-3.108 1.372-3.108 3.064s1.392 3.064 3.108 3.064Z" fill="url(#bE)" fill-opacity=".3"/><path d="M324.85 212.657c1.717 0 3.109-1.372 3.109-3.064s-1.392-3.064-3.109-3.064c-1.716 0-3.108 1.372-3.108 3.064s1.392 3.064 3.108 3.064Z" fill="url(#bF)" fill-opacity=".3"/><path d="M360.544 212.657c1.717 0 3.109-1.372 3.109-3.064s-1.392-3.064-3.109-3.064c-1.716 0-3.108 1.372-3.108 3.064s1.392 3.064 3.108 3.064Z" fill="url(#bG)" fill-opacity=".3"/><path d="M396.238 212.657c1.717 0 3.109-1.372 3.109-3.064s-1.392-3.064-3.109-3.064c-1.716 0-3.108 1.372-3.108 3.064s1.392 3.064 3.108 3.064Z" fill="url(#bH)" fill-opacity=".3"/><path d="M431.932 212.657c1.717 0 3.109-1.372 3.109-3.064s-1.392-3.064-3.109-3.064c-1.716 0-3.108 1.372-3.108 3.064s1.392 3.064 3.108 3.064Z" fill="url(#bI)" fill-opacity=".3"/><path d="M467.626 212.657c1.717 0 3.109-1.372 3.109-3.064s-1.392-3.064-3.109-3.064c-1.716 0-3.108 1.372-3.108 3.064s1.392 3.064 3.108 3.064Z" fill="url(#bJ)" fill-opacity=".3"/><path d="M506.428 209.593c0 1.685-1.398 3.064-3.108 3.064-1.709 0-3.108-1.379-3.108-3.064s1.399-3.064 3.108-3.064c1.736.025 3.108 1.379 3.108 3.064Z" fill="url(#bK)" fill-opacity=".3"/><path d="M539.04 212.657c1.717 0 3.108-1.372 3.108-3.064s-1.391-3.064-3.108-3.064-3.108 1.372-3.108 3.064 1.391 3.064 3.108 3.064Z" fill="url(#bL)" fill-opacity=".3"/><path d="M574.734 212.657c1.717 0 3.108-1.372 3.108-3.064s-1.391-3.064-3.108-3.064-3.108 1.372-3.108 3.064 1.391 3.064 3.108 3.064Z" fill="url(#bM)" fill-opacity=".3"/><path d="M613.536 209.593c0 1.685-1.398 3.064-3.108 3.064-1.71 0-3.108-1.379-3.108-3.064s1.398-3.064 3.108-3.064c1.71.025 3.108 1.379 3.108 3.064Z" fill="url(#bN)" fill-opacity=".3"/><path d="M646.122 212.657c1.717 0 3.108-1.372 3.108-3.064s-1.391-3.064-3.108-3.064-3.108 1.372-3.108 3.064 1.391 3.064 3.108 3.064Z" fill="url(#bO)" fill-opacity=".3"/><path d="M681.816 212.657c1.717 0 3.108-1.372 3.108-3.064s-1.391-3.064-3.108-3.064-3.108 1.372-3.108 3.064 1.391 3.064 3.108 3.064Z" fill="url(#bP)" fill-opacity=".3"/><path d="M717.51 212.657c1.717 0 3.108-1.372 3.108-3.064s-1.391-3.064-3.108-3.064-3.108 1.372-3.108 3.064 1.391 3.064 3.108 3.064Z" fill="url(#bQ)" fill-opacity=".3"/><path d="M3.553 247.099c1.716 0 3.108-1.372 3.108-3.064s-1.392-3.064-3.108-3.064c-1.717 0-3.108 1.372-3.108 3.064s1.391 3.064 3.108 3.064Z" fill="url(#bR)" fill-opacity=".3"/><path d="M39.247 247.099c1.716 0 3.108-1.372 3.108-3.064s-1.392-3.064-3.108-3.064c-1.717 0-3.109 1.372-3.109 3.064s1.392 3.064 3.109 3.064Z" fill="url(#bS)" fill-opacity=".3"/><path d="M74.967 247.099c1.716 0 3.108-1.372 3.108-3.064s-1.392-3.064-3.108-3.064c-1.717 0-3.109 1.372-3.109 3.064s1.392 3.064 3.109 3.064Z" fill="url(#bT)" fill-opacity=".3"/><path d="M110.661 247.099c1.716 0 3.108-1.372 3.108-3.064s-1.392-3.064-3.108-3.064c-1.717 0-3.109 1.372-3.109 3.064s1.392 3.064 3.109 3.064Z" fill="url(#bU)" fill-opacity=".3"/><path d="M146.355 247.099c1.716 0 3.108-1.372 3.108-3.064s-1.392-3.064-3.108-3.064c-1.717 0-3.109 1.372-3.109 3.064s1.392 3.064 3.109 3.064Z" fill="url(#bV)" fill-opacity=".3"/><path d="M182.049 247.099c1.716 0 3.108-1.372 3.108-3.064s-1.392-3.064-3.108-3.064c-1.717 0-3.109 1.372-3.109 3.064s1.392 3.064 3.109 3.064Z" fill="url(#bW)" fill-opacity=".3"/><path d="M220.851 244.035c0 1.685-1.399 3.064-3.109 3.064-1.709 0-3.108-1.379-3.108-3.064s1.399-3.064 3.108-3.064c1.71 0 3.109 1.354 3.109 3.064Z" fill="url(#bX)" fill-opacity=".3"/><path d="M256.545 244.035c0 1.685-1.399 3.064-3.108 3.064-1.71 0-3.109-1.379-3.109-3.064s1.399-3.064 3.109-3.064c1.735 0 3.108 1.354 3.108 3.064Z" fill="url(#bY)" fill-opacity=".3"/><path d="M289.156 247.099c1.717 0 3.109-1.372 3.109-3.064s-1.392-3.064-3.109-3.064c-1.716 0-3.108 1.372-3.108 3.064s1.392 3.064 3.108 3.064Z" fill="url(#bZ)" fill-opacity=".3"/><path d="M324.85 247.099c1.717 0 3.109-1.372 3.109-3.064s-1.392-3.064-3.109-3.064c-1.716 0-3.108 1.372-3.108 3.064s1.392 3.064 3.108 3.064Z" fill="url(#ca)" fill-opacity=".3"/><path d="M360.544 247.099c1.717 0 3.109-1.372 3.109-3.064s-1.392-3.064-3.109-3.064c-1.716 0-3.108 1.372-3.108 3.064s1.392 3.064 3.108 3.064Z" fill="url(#cb)" fill-opacity=".3"/><path d="M396.238 247.099c1.717 0 3.109-1.372 3.109-3.064s-1.392-3.064-3.109-3.064c-1.716 0-3.108 1.372-3.108 3.064s1.392 3.064 3.108 3.064Z" fill="url(#cc)" fill-opacity=".3"/><path d="M431.932 247.099c1.717 0 3.109-1.372 3.109-3.064s-1.392-3.064-3.109-3.064c-1.716 0-3.108 1.372-3.108 3.064s1.392 3.064 3.108 3.064Z" fill="url(#cd)" fill-opacity=".3"/><path d="M467.626 247.099c1.717 0 3.109-1.372 3.109-3.064s-1.392-3.064-3.109-3.064c-1.716 0-3.108 1.372-3.108 3.064s1.392 3.064 3.108 3.064Z" fill="url(#ce)" fill-opacity=".3"/><path d="M506.428 244.035c0 1.685-1.398 3.064-3.108 3.064-1.709 0-3.108-1.379-3.108-3.064s1.399-3.064 3.108-3.064c1.736 0 3.108 1.354 3.108 3.064Z" fill="url(#cf)" fill-opacity=".3"/><path d="M539.04 247.099c1.717 0 3.108-1.372 3.108-3.064s-1.391-3.064-3.108-3.064-3.108 1.372-3.108 3.064 1.391 3.064 3.108 3.064Z" fill="url(#cg)" fill-opacity=".3"/><path d="M574.734 247.099c1.717 0 3.108-1.372 3.108-3.064s-1.391-3.064-3.108-3.064-3.108 1.372-3.108 3.064 1.391 3.064 3.108 3.064Z" fill="url(#ch)" fill-opacity=".3"/><path d="M613.536 244.035c0 1.685-1.398 3.064-3.108 3.064-1.71 0-3.108-1.379-3.108-3.064s1.398-3.064 3.108-3.064c1.71 0 3.108 1.354 3.108 3.064Z" fill="url(#ci)" fill-opacity=".3"/><path d="M646.122 247.099c1.717 0 3.108-1.372 3.108-3.064s-1.391-3.064-3.108-3.064-3.108 1.372-3.108 3.064 1.391 3.064 3.108 3.064Z" fill="url(#cj)" fill-opacity=".3"/><path d="M681.816 247.099c1.717 0 3.108-1.372 3.108-3.064s-1.391-3.064-3.108-3.064-3.108 1.372-3.108 3.064 1.391 3.064 3.108 3.064Z" fill="url(#ck)" fill-opacity=".3"/><path d="M717.51 247.099c1.717 0 3.108-1.372 3.108-3.064s-1.391-3.064-3.108-3.064-3.108 1.372-3.108 3.064 1.391 3.064 3.108 3.064Z" fill="url(#cl)" fill-opacity=".3"/><path d="M3.553 281.516c1.716 0 3.108-1.371 3.108-3.063 0-1.693-1.392-3.064-3.108-3.064-1.717 0-3.108 1.371-3.108 3.064 0 1.692 1.391 3.063 3.108 3.063Z" fill="url(#cm)" fill-opacity=".3"/><path d="M39.247 281.516c1.716 0 3.108-1.371 3.108-3.063 0-1.693-1.392-3.064-3.108-3.064-1.717 0-3.109 1.371-3.109 3.064 0 1.692 1.392 3.063 3.109 3.063Z" fill="url(#cn)" fill-opacity=".3"/><path d="M74.967 281.516c1.716 0 3.108-1.371 3.108-3.063 0-1.693-1.392-3.064-3.108-3.064-1.717 0-3.109 1.371-3.109 3.064 0 1.692 1.392 3.063 3.109 3.063Z" fill="url(#co)" fill-opacity=".3"/><path d="M110.661 281.516c1.716 0 3.108-1.371 3.108-3.063 0-1.693-1.392-3.064-3.108-3.064-1.717 0-3.109 1.371-3.109 3.064 0 1.692 1.392 3.063 3.109 3.063Z" fill="url(#cp)" fill-opacity=".3"/><path d="M146.355 281.516c1.716 0 3.108-1.371 3.108-3.063 0-1.693-1.392-3.064-3.108-3.064-1.717 0-3.109 1.371-3.109 3.064 0 1.692 1.392 3.063 3.109 3.063Z" fill="url(#cq)" fill-opacity=".3"/><path d="M182.049 281.516c1.716 0 3.108-1.371 3.108-3.063 0-1.693-1.392-3.064-3.108-3.064-1.717 0-3.109 1.371-3.109 3.064 0 1.692 1.392 3.063 3.109 3.063Z" fill="url(#cr)" fill-opacity=".3"/><path d="M220.851 278.453c0 1.685-1.399 3.063-3.109 3.063-1.709 0-3.108-1.378-3.108-3.063 0-1.686 1.399-3.064 3.108-3.064 1.71 0 3.109 1.378 3.109 3.064Z" fill="url(#cs)" fill-opacity=".3"/><path d="M256.545 278.453c0 1.685-1.399 3.063-3.108 3.063-1.71 0-3.109-1.378-3.109-3.063 0-1.686 1.399-3.064 3.109-3.064 1.735 0 3.108 1.378 3.108 3.064Z" fill="url(#ct)" fill-opacity=".3"/><path d="M289.156 281.516c1.717 0 3.109-1.371 3.109-3.063 0-1.693-1.392-3.064-3.109-3.064-1.716 0-3.108 1.371-3.108 3.064 0 1.692 1.392 3.063 3.108 3.063Z" fill="url(#cu)" fill-opacity=".3"/><path d="M324.85 281.516c1.717 0 3.109-1.371 3.109-3.063 0-1.693-1.392-3.064-3.109-3.064-1.716 0-3.108 1.371-3.108 3.064 0 1.692 1.392 3.063 3.108 3.063Z" fill="url(#cv)" fill-opacity=".3"/><path d="M360.544 281.516c1.717 0 3.109-1.371 3.109-3.063 0-1.693-1.392-3.064-3.109-3.064-1.716 0-3.108 1.371-3.108 3.064 0 1.692 1.392 3.063 3.108 3.063Z" fill="url(#cw)" fill-opacity=".3"/><path d="M396.238 281.516c1.717 0 3.109-1.371 3.109-3.063 0-1.693-1.392-3.064-3.109-3.064-1.716 0-3.108 1.371-3.108 3.064 0 1.692 1.392 3.063 3.108 3.063Z" fill="url(#cx)" fill-opacity=".3"/><path d="M431.932 281.516c1.717 0 3.109-1.371 3.109-3.063 0-1.693-1.392-3.064-3.109-3.064-1.716 0-3.108 1.371-3.108 3.064 0 1.692 1.392 3.063 3.108 3.063Z" fill="url(#cy)" fill-opacity=".3"/><path d="M467.626 281.516c1.717 0 3.109-1.371 3.109-3.063 0-1.693-1.392-3.064-3.109-3.064-1.716 0-3.108 1.371-3.108 3.064 0 1.692 1.392 3.063 3.108 3.063Z" fill="url(#cz)" fill-opacity=".3"/><path d="M506.428 278.453c0 1.685-1.398 3.063-3.108 3.063-1.709 0-3.108-1.378-3.108-3.063 0-1.686 1.399-3.064 3.108-3.064 1.736 0 3.108 1.378 3.108 3.064Z" fill="url(#cA)" fill-opacity=".3"/><path d="M539.04 281.516c1.717 0 3.108-1.371 3.108-3.063 0-1.693-1.391-3.064-3.108-3.064s-3.108 1.371-3.108 3.064c0 1.692 1.391 3.063 3.108 3.063Z" fill="url(#cB)" fill-opacity=".3"/><path d="M574.734 281.516c1.717 0 3.108-1.371 3.108-3.063 0-1.693-1.391-3.064-3.108-3.064s-3.108 1.371-3.108 3.064c0 1.692 1.391 3.063 3.108 3.063Z" fill="url(#cC)" fill-opacity=".3"/><path d="M613.536 278.453c0 1.685-1.398 3.063-3.108 3.063-1.71 0-3.108-1.378-3.108-3.063 0-1.686 1.398-3.064 3.108-3.064 1.71 0 3.108 1.378 3.108 3.064Z" fill="url(#cD)" fill-opacity=".3"/><path d="M646.122 281.516c1.717 0 3.108-1.371 3.108-3.063 0-1.693-1.391-3.064-3.108-3.064s-3.108 1.371-3.108 3.064c0 1.692 1.391 3.063 3.108 3.063Z" fill="url(#cE)" fill-opacity=".3"/><path d="M681.816 281.516c1.717 0 3.108-1.371 3.108-3.063 0-1.693-1.391-3.064-3.108-3.064s-3.108 1.371-3.108 3.064c0 1.692 1.391 3.063 3.108 3.063Z" fill="url(#cF)" fill-opacity=".3"/><path d="M717.51 281.516c1.717 0 3.108-1.371 3.108-3.063 0-1.693-1.391-3.064-3.108-3.064s-3.108 1.371-3.108 3.064c0 1.692 1.391 3.063 3.108 3.063Z" fill="url(#cG)" fill-opacity=".3"/><path d="M3.553 315.934c1.716 0 3.108-1.372 3.108-3.064s-1.392-3.064-3.108-3.064c-1.717 0-3.108 1.372-3.108 3.064s1.391 3.064 3.108 3.064Z" fill="url(#cH)" fill-opacity=".3"/><path d="M39.247 315.934c1.716 0 3.108-1.372 3.108-3.064s-1.392-3.064-3.108-3.064c-1.717 0-3.109 1.372-3.109 3.064s1.392 3.064 3.109 3.064Z" fill="url(#cI)" fill-opacity=".3"/><path d="M74.967 315.934c1.716 0 3.108-1.372 3.108-3.064s-1.392-3.064-3.108-3.064c-1.717 0-3.109 1.372-3.109 3.064s1.392 3.064 3.109 3.064Z" fill="url(#cJ)" fill-opacity=".3"/><path d="M110.661 315.934c1.716 0 3.108-1.372 3.108-3.064s-1.392-3.064-3.108-3.064c-1.717 0-3.109 1.372-3.109 3.064s1.392 3.064 3.109 3.064Z" fill="url(#cK)" fill-opacity=".3"/><path d="M146.355 315.934c1.716 0 3.108-1.372 3.108-3.064s-1.392-3.064-3.108-3.064c-1.717 0-3.109 1.372-3.109 3.064s1.392 3.064 3.109 3.064Z" fill="url(#cL)" fill-opacity=".3"/><path d="M182.049 315.934c1.716 0 3.108-1.372 3.108-3.064s-1.392-3.064-3.108-3.064c-1.717 0-3.109 1.372-3.109 3.064s1.392 3.064 3.109 3.064Z" fill="url(#cM)" fill-opacity=".3"/><path d="M220.851 312.87c0 1.685-1.399 3.064-3.109 3.064-1.709 0-3.108-1.379-3.108-3.064s1.399-3.064 3.108-3.064c1.71 0 3.109 1.379 3.109 3.064Z" fill="url(#cN)" fill-opacity=".3"/><path d="M256.545 312.87c0 1.685-1.399 3.064-3.108 3.064-1.71 0-3.109-1.379-3.109-3.064s1.399-3.064 3.109-3.064c1.735 0 3.108 1.379 3.108 3.064Z" fill="url(#cO)" fill-opacity=".3"/><path d="M289.156 315.934c1.717 0 3.109-1.372 3.109-3.064s-1.392-3.064-3.109-3.064c-1.716 0-3.108 1.372-3.108 3.064s1.392 3.064 3.108 3.064Z" fill="url(#cP)" fill-opacity=".3"/><path d="M324.85 315.934c1.717 0 3.109-1.372 3.109-3.064s-1.392-3.064-3.109-3.064c-1.716 0-3.108 1.372-3.108 3.064s1.392 3.064 3.108 3.064Z" fill="url(#cQ)" fill-opacity=".3"/><path d="M360.544 315.934c1.717 0 3.109-1.372 3.109-3.064s-1.392-3.064-3.109-3.064c-1.716 0-3.108 1.372-3.108 3.064s1.392 3.064 3.108 3.064Z" fill="url(#cR)" fill-opacity=".3"/><path d="M396.238 315.934c1.717 0 3.109-1.372 3.109-3.064s-1.392-3.064-3.109-3.064c-1.716 0-3.108 1.372-3.108 3.064s1.392 3.064 3.108 3.064Z" fill="url(#cS)" fill-opacity=".3"/><path d="M431.932 315.934c1.717 0 3.109-1.372 3.109-3.064s-1.392-3.064-3.109-3.064c-1.716 0-3.108 1.372-3.108 3.064s1.392 3.064 3.108 3.064Z" fill="url(#cT)" fill-opacity=".3"/><path d="M467.626 315.934c1.717 0 3.109-1.372 3.109-3.064s-1.392-3.064-3.109-3.064c-1.716 0-3.108 1.372-3.108 3.064s1.392 3.064 3.108 3.064Z" fill="url(#cU)" fill-opacity=".3"/><path d="M506.428 312.87c0 1.685-1.398 3.064-3.108 3.064-1.709 0-3.108-1.379-3.108-3.064s1.399-3.064 3.108-3.064c1.736 0 3.108 1.379 3.108 3.064Z" fill="url(#cV)" fill-opacity=".3"/><path d="M539.04 315.934c1.717 0 3.108-1.372 3.108-3.064s-1.391-3.064-3.108-3.064-3.108 1.372-3.108 3.064 1.391 3.064 3.108 3.064Z" fill="url(#cW)" fill-opacity=".3"/><path d="M574.734 315.934c1.717 0 3.108-1.372 3.108-3.064s-1.391-3.064-3.108-3.064-3.108 1.372-3.108 3.064 1.391 3.064 3.108 3.064Z" fill="url(#cX)" fill-opacity=".3"/><path d="M613.536 312.87c0 1.685-1.398 3.064-3.108 3.064-1.71 0-3.108-1.379-3.108-3.064s1.398-3.064 3.108-3.064c1.71 0 3.108 1.379 3.108 3.064Z" fill="url(#cY)" fill-opacity=".3"/><path d="M646.122 315.934c1.717 0 3.108-1.372 3.108-3.064s-1.391-3.064-3.108-3.064-3.108 1.372-3.108 3.064 1.391 3.064 3.108 3.064Z" fill="url(#cZ)" fill-opacity=".3"/><path d="M681.816 315.934c1.717 0 3.108-1.372 3.108-3.064s-1.391-3.064-3.108-3.064-3.108 1.372-3.108 3.064 1.391 3.064 3.108 3.064Z" fill="url(#da)" fill-opacity=".3"/><path d="M717.51 315.934c1.717 0 3.108-1.372 3.108-3.064s-1.391-3.064-3.108-3.064-3.108 1.372-3.108 3.064 1.391 3.064 3.108 3.064Z" fill="url(#db)" fill-opacity=".3"/><path d="M3.553 350.351c1.716 0 3.108-1.372 3.108-3.064s-1.392-3.064-3.108-3.064c-1.717 0-3.108 1.372-3.108 3.064s1.391 3.064 3.108 3.064Z" fill="url(#dc)" fill-opacity=".3"/><path d="M39.247 350.351c1.716 0 3.108-1.372 3.108-3.064s-1.392-3.064-3.108-3.064c-1.717 0-3.109 1.372-3.109 3.064s1.392 3.064 3.109 3.064Z" fill="url(#dd)" fill-opacity=".3"/><path d="M74.967 350.351c1.716 0 3.108-1.372 3.108-3.064s-1.392-3.064-3.108-3.064c-1.717 0-3.109 1.372-3.109 3.064s1.392 3.064 3.109 3.064Z" fill="url(#de)" fill-opacity=".3"/><path d="M110.661 350.351c1.716 0 3.108-1.372 3.108-3.064s-1.392-3.064-3.108-3.064c-1.717 0-3.109 1.372-3.109 3.064s1.392 3.064 3.109 3.064Z" fill="url(#df)" fill-opacity=".3"/><path d="M146.355 350.351c1.716 0 3.108-1.372 3.108-3.064s-1.392-3.064-3.108-3.064c-1.717 0-3.109 1.372-3.109 3.064s1.392 3.064 3.109 3.064Z" fill="url(#dg)" fill-opacity=".3"/><path d="M182.049 350.351c1.716 0 3.108-1.372 3.108-3.064s-1.392-3.064-3.108-3.064c-1.717 0-3.109 1.372-3.109 3.064s1.392 3.064 3.109 3.064Z" fill="url(#dh)" fill-opacity=".3"/><path d="M220.851 347.287c0 1.685-1.399 3.064-3.109 3.064-1.709 0-3.108-1.379-3.108-3.064s1.399-3.064 3.108-3.064c1.71 0 3.109 1.379 3.109 3.064Z" fill="url(#di)" fill-opacity=".3"/><path d="M256.545 347.287c0 1.685-1.399 3.064-3.108 3.064-1.71 0-3.109-1.379-3.109-3.064s1.399-3.064 3.109-3.064c1.735 0 3.108 1.379 3.108 3.064Z" fill="url(#dj)" fill-opacity=".3"/><path d="M289.156 350.351c1.717 0 3.109-1.372 3.109-3.064s-1.392-3.064-3.109-3.064c-1.716 0-3.108 1.372-3.108 3.064s1.392 3.064 3.108 3.064Z" fill="url(#dk)" fill-opacity=".3"/><path d="M324.85 350.351c1.717 0 3.109-1.372 3.109-3.064s-1.392-3.064-3.109-3.064c-1.716 0-3.108 1.372-3.108 3.064s1.392 3.064 3.108 3.064Z" fill="url(#dl)" fill-opacity=".3"/><path d="M360.544 350.351c1.717 0 3.109-1.372 3.109-3.064s-1.392-3.064-3.109-3.064c-1.716 0-3.108 1.372-3.108 3.064s1.392 3.064 3.108 3.064Z" fill="url(#dm)" fill-opacity=".3"/><path d="M396.238 350.351c1.717 0 3.109-1.372 3.109-3.064s-1.392-3.064-3.109-3.064c-1.716 0-3.108 1.372-3.108 3.064s1.392 3.064 3.108 3.064Z" fill="url(#dn)" fill-opacity=".3"/><path d="M431.932 350.351c1.717 0 3.109-1.372 3.109-3.064s-1.392-3.064-3.109-3.064c-1.716 0-3.108 1.372-3.108 3.064s1.392 3.064 3.108 3.064Z" fill="url(#do)" fill-opacity=".3"/><path d="M467.626 350.351c1.717 0 3.109-1.372 3.109-3.064s-1.392-3.064-3.109-3.064c-1.716 0-3.108 1.372-3.108 3.064s1.392 3.064 3.108 3.064Z" fill="url(#dp)" fill-opacity=".3"/><path d="M506.428 347.287c0 1.685-1.398 3.064-3.108 3.064-1.709 0-3.108-1.379-3.108-3.064s1.399-3.064 3.108-3.064c1.736 0 3.108 1.379 3.108 3.064Z" fill="url(#dq)" fill-opacity=".3"/><path d="M539.04 350.351c1.717 0 3.108-1.372 3.108-3.064s-1.391-3.064-3.108-3.064-3.108 1.372-3.108 3.064 1.391 3.064 3.108 3.064Z" fill="url(#dr)" fill-opacity=".3"/><path d="M574.734 350.351c1.717 0 3.108-1.372 3.108-3.064s-1.391-3.064-3.108-3.064-3.108 1.372-3.108 3.064 1.391 3.064 3.108 3.064Z" fill="url(#ds)" fill-opacity=".3"/><path d="M613.536 347.287c0 1.685-1.398 3.064-3.108 3.064-1.71 0-3.108-1.379-3.108-3.064s1.398-3.064 3.108-3.064c1.71 0 3.108 1.379 3.108 3.064Z" fill="url(#dt)" fill-opacity=".3"/><path d="M646.122 350.351c1.717 0 3.108-1.372 3.108-3.064s-1.391-3.064-3.108-3.064-3.108 1.372-3.108 3.064 1.391 3.064 3.108 3.064Z" fill="url(#du)" fill-opacity=".3"/><path d="M681.816 350.351c1.717 0 3.108-1.372 3.108-3.064s-1.391-3.064-3.108-3.064-3.108 1.372-3.108 3.064 1.391 3.064 3.108 3.064Z" fill="url(#dv)" fill-opacity=".3"/><path d="M717.51 350.351c1.717 0 3.108-1.372 3.108-3.064s-1.391-3.064-3.108-3.064-3.108 1.372-3.108 3.064 1.391 3.064 3.108 3.064Z" fill="url(#dw)" fill-opacity=".3"/><defs><linearGradient id="a" x1="714.402" y1="344.223" x2="720.98" y2="344.64" gradientUnits="userSpaceOnUse"><stop stop-color="#81BD92"/><stop offset="1" stop-color="#BEF8CE"/></linearGradient><linearGradient id="b" x1="714.402" y1="344.223" x2="720.98" y2="344.64" gradientUnits="userSpaceOnUse"><stop stop-color="#81BD92"/><stop offset="1" stop-color="#BEF8CE"/></linearGradient><linearGradient id="c" x1="714.402" y1="344.223" x2="720.98" y2="344.64" gradientUnits="userSpaceOnUse"><stop stop-color="#81BD92"/><stop offset="1" stop-color="#BEF8CE"/></linearGradient><linearGradient id="d" x1="714.402" y1="344.223" x2="720.98" y2="344.64" gradientUnits="userSpaceOnUse"><stop stop-color="#81BD92"/><stop offset="1" stop-color="#BEF8CE"/></linearGradient><linearGradient id="e" x1="714.402" y1="344.223" x2="720.98" y2="344.64" gradientUnits="userSpaceOnUse"><stop stop-color="#81BD92"/><stop offset="1" stop-color="#BEF8CE"/></linearGradient><linearGradient id="f" x1="714.402" y1="344.223" x2="720.98" y2="344.64" gradientUnits="userSpaceOnUse"><stop stop-color="#81BD92"/><stop offset="1" stop-color="#BEF8CE"/></linearGradient><linearGradient id="g" x1="714.402" y1="344.223" x2="720.98" y2="344.64" gradientUnits="userSpaceOnUse"><stop stop-color="#81BD92"/><stop offset="1" stop-color="#BEF8CE"/></linearGradient><linearGradient id="h" x1="714.402" y1="344.223" x2="720.98" y2="344.64" gradientUnits="userSpaceOnUse"><stop stop-color="#81BD92"/><stop offset="1" stop-color="#BEF8CE"/></linearGradient><linearGradient id="i" x1="714.402" y1="344.223" x2="720.98" y2="344.64" gradientUnits="userSpaceOnUse"><stop stop-color="#81BD92"/><stop offset="1" stop-color="#BEF8CE"/></linearGradient><linearGradient id="j" x1="714.402" y1="344.223" x2="720.98" y2="344.64" gradientUnits="userSpaceOnUse"><stop stop-color="#81BD92"/><stop offset="1" stop-color="#BEF8CE"/></linearGradient><linearGradient id="k" x1="714.402" y1="344.223" x2="720.98" y2="344.64" gradientUnits="userSpaceOnUse"><stop stop-color="#81BD92"/><stop offset="1" stop-color="#BEF8CE"/></linearGradient><linearGradient id="l" x1="714.402" y1="344.223" x2="720.98" y2="344.64" gradientUnits="userSpaceOnUse"><stop stop-color="#81BD92"/><stop offset="1" stop-color="#BEF8CE"/></linearGradient><linearGradient id="m" x1="714.402" y1="344.223" x2="720.98" y2="344.64" gradientUnits="userSpaceOnUse"><stop stop-color="#81BD92"/><stop offset="1" stop-color="#BEF8CE"/></linearGradient><linearGradient id="n" x1="714.402" y1="344.223" x2="720.98" y2="344.64" gradientUnits="userSpaceOnUse"><stop stop-color="#81BD92"/><stop offset="1" stop-color="#BEF8CE"/></linearGradient><linearGradient id="o" x1="714.402" y1="344.223" x2="720.98" y2="344.64" gradientUnits="userSpaceOnUse"><stop stop-color="#81BD92"/><stop offset="1" stop-color="#BEF8CE"/></linearGradient><linearGradient id="p" x1="714.402" y1="344.223" x2="720.98" y2="344.64" gradientUnits="userSpaceOnUse"><stop stop-color="#81BD92"/><stop offset="1" stop-color="#BEF8CE"/></linearGradient><linearGradient id="q" x1="714.402" y1="344.223" x2="720.98" y2="344.64" gradientUnits="userSpaceOnUse"><stop stop-color="#81BD92"/><stop offset="1" stop-color="#BEF8CE"/></linearGradient><linearGradient id="r" x1="714.402" y1="344.223" x2="720.98" y2="344.64" gradientUnits="userSpaceOnUse"><stop stop-color="#81BD92"/><stop offset="1" stop-color="#BEF8CE"/></linearGradient><linearGradient id="s" x1="714.402" y1="344.223" x2="720.98" y2="344.64" gradientUnits="userSpaceOnUse"><stop stop-color="#81BD92"/><stop offset="1" stop-color="#BEF8CE"/></linearGradient><linearGradient id="t" x1="714.402" y1="344.223" x2="720.98" y2="344.64" gradientUnits="userSpaceOnUse"><stop stop-color="#81BD92"/><stop offset="1" stop-color="#BEF8CE"/></linearGradient><linearGradient id="u" x1="714.402" y1="344.223" x2="720.98" y2="344.64" gradientUnits="userSpaceOnUse"><stop stop-color="#81BD92"/><stop offset="1" stop-color="#BEF8CE"/></linearGradient><linearGradient id="v" x1="714.402" y1="344.223" x2="720.98" y2="344.64" gradientUnits="userSpaceOnUse"><stop stop-color="#81BD92"/><stop offset="1" stop-color="#BEF8CE"/></linearGradient><linearGradient id="w" x1="714.402" y1="344.223" x2="720.98" y2="344.64" gradientUnits="userSpaceOnUse"><stop stop-color="#81BD92"/><stop offset="1" stop-color="#BEF8CE"/></linearGradient><linearGradient id="x" x1="714.402" y1="344.223" x2="720.98" y2="344.64" gradientUnits="userSpaceOnUse"><stop stop-color="#81BD92"/><stop offset="1" stop-color="#BEF8CE"/></linearGradient><linearGradient id="y" x1="714.402" y1="344.223" x2="720.98" y2="344.64" gradientUnits="userSpaceOnUse"><stop stop-color="#81BD92"/><stop offset="1" stop-color="#BEF8CE"/></linearGradient><linearGradient id="z" x1="714.402" y1="344.223" x2="720.98" y2="344.64" gradientUnits="userSpaceOnUse"><stop stop-color="#81BD92"/><stop offset="1" stop-color="#BEF8CE"/></linearGradient><linearGradient id="A" x1="714.402" y1="344.223" x2="720.98" y2="344.64" gradientUnits="userSpaceOnUse"><stop stop-color="#81BD92"/><stop offset="1" stop-color="#BEF8CE"/></linearGradient><linearGradient id="B" x1="714.402" y1="344.223" x2="720.98" y2="344.64" gradientUnits="userSpaceOnUse"><stop stop-color="#81BD92"/><stop offset="1" stop-color="#BEF8CE"/></linearGradient><linearGradient id="C" x1="714.402" y1="344.223" x2="720.98" y2="344.64" gradientUnits="userSpaceOnUse"><stop stop-color="#81BD92"/><stop offset="1" stop-color="#BEF8CE"/></linearGradient><linearGradient id="D" x1="714.402" y1="344.223" x2="720.98" y2="344.64" gradientUnits="userSpaceOnUse"><stop stop-color="#81BD92"/><stop offset="1" stop-color="#BEF8CE"/></linearGradient><linearGradient id="E" x1="714.402" y1="344.223" x2="720.98" y2="344.64" gradientUnits="userSpaceOnUse"><stop stop-color="#81BD92"/><stop offset="1" stop-color="#BEF8CE"/></linearGradient><linearGradient id="F" x1="714.402" y1="344.223" x2="720.98" y2="344.64" gradientUnits="userSpaceOnUse"><stop stop-color="#81BD92"/><stop offset="1" stop-color="#BEF8CE"/></linearGradient><linearGradient id="G" x1="714.402" y1="344.223" x2="720.98" y2="344.64" gradientUnits="userSpaceOnUse"><stop stop-color="#81BD92"/><stop offset="1" stop-color="#BEF8CE"/></linearGradient><linearGradient id="H" x1="714.402" y1="344.223" x2="720.98" y2="344.64" gradientUnits="userSpaceOnUse"><stop stop-color="#81BD92"/><stop offset="1" stop-color="#BEF8CE"/></linearGradient><linearGradient id="I" x1="714.402" y1="344.223" x2="720.98" y2="344.64" gradientUnits="userSpaceOnUse"><stop stop-color="#81BD92"/><stop offset="1" stop-color="#BEF8CE"/></linearGradient><linearGradient id="J" x1="714.402" y1="344.223" x2="720.98" y2="344.64" gradientUnits="userSpaceOnUse"><stop stop-color="#81BD92"/><stop offset="1" stop-color="#BEF8CE"/></linearGradient><linearGradient id="K" x1="714.402" y1="344.223" x2="720.98" y2="344.64" gradientUnits="userSpaceOnUse"><stop stop-color="#81BD92"/><stop offset="1" stop-color="#BEF8CE"/></linearGradient><linearGradient id="L" x1="714.402" y1="344.223" x2="720.98" y2="344.64" gradientUnits="userSpaceOnUse"><stop stop-color="#81BD92"/><stop offset="1" stop-color="#BEF8CE"/></linearGradient><linearGradient id="M" x1="714.402" y1="344.223" x2="720.98" y2="344.64" gradientUnits="userSpaceOnUse"><stop stop-color="#81BD92"/><stop offset="1" stop-color="#BEF8CE"/></linearGradient><linearGradient id="N" x1="714.402" y1="344.223" x2="720.98" y2="344.64" gradientUnits="userSpaceOnUse"><stop stop-color="#81BD92"/><stop offset="1" stop-color="#BEF8CE"/></linearGradient><linearGradient id="O" x1="714.402" y1="344.223" x2="720.98" y2="344.64" gradientUnits="userSpaceOnUse"><stop stop-color="#81BD92"/><stop offset="1" stop-color="#BEF8CE"/></linearGradient><linearGradient id="P" x1="714.402" y1="344.223" x2="720.98" y2="344.64" gradientUnits="userSpaceOnUse"><stop stop-color="#81BD92"/><stop offset="1" stop-color="#BEF8CE"/></linearGradient><linearGradient id="Q" x1="714.402" y1="344.223" x2="720.98" y2="344.64" gradientUnits="userSpaceOnUse"><stop stop-color="#81BD92"/><stop offset="1" stop-color="#BEF8CE"/></linearGradient><linearGradient id="R" x1="714.402" y1="344.223" x2="720.98" y2="344.64" gradientUnits="userSpaceOnUse"><stop stop-color="#81BD92"/><stop offset="1" stop-color="#BEF8CE"/></linearGradient><linearGradient id="S" x1="714.402" y1="344.223" x2="720.98" y2="344.64" gradientUnits="userSpaceOnUse"><stop stop-color="#81BD92"/><stop offset="1" stop-color="#BEF8CE"/></linearGradient><linearGradient id="T" x1="714.402" y1="344.223" x2="720.98" y2="344.64" gradientUnits="userSpaceOnUse"><stop stop-color="#81BD92"/><stop offset="1" stop-color="#BEF8CE"/></linearGradient><linearGradient id="U" x1="714.402" y1="344.223" x2="720.98" y2="344.64" gradientUnits="userSpaceOnUse"><stop stop-color="#81BD92"/><stop offset="1" stop-color="#BEF8CE"/></linearGradient><linearGradient id="V" x1="714.402" y1="344.223" x2="720.98" y2="344.64" gradientUnits="userSpaceOnUse"><stop stop-color="#81BD92"/><stop offset="1" stop-color="#BEF8CE"/></linearGradient><linearGradient id="W" x1="714.402" y1="344.223" x2="720.98" y2="344.64" gradientUnits="userSpaceOnUse"><stop stop-color="#81BD92"/><stop offset="1" stop-color="#BEF8CE"/></linearGradient><linearGradient id="X" x1="714.402" y1="344.223" x2="720.98" y2="344.64" gradientUnits="userSpaceOnUse"><stop stop-color="#81BD92"/><stop offset="1" stop-color="#BEF8CE"/></linearGradient><linearGradient id="Y" x1="714.402" y1="344.223" x2="720.98" y2="344.64" gradientUnits="userSpaceOnUse"><stop stop-color="#81BD92"/><stop offset="1" stop-color="#BEF8CE"/></linearGradient><linearGradient id="Z" x1="714.402" y1="344.223" x2="720.98" y2="344.64" gradientUnits="userSpaceOnUse"><stop stop-color="#81BD92"/><stop offset="1" stop-color="#BEF8CE"/></linearGradient><linearGradient id="aa" x1="714.402" y1="344.223" x2="720.98" y2="344.64" gradientUnits="userSpaceOnUse"><stop stop-color="#81BD92"/><stop offset="1" stop-color="#BEF8CE"/></linearGradient><linearGradient id="ab" x1="714.402" y1="344.223" x2="720.98" y2="344.64" gradientUnits="userSpaceOnUse"><stop stop-color="#81BD92"/><stop offset="1" stop-color="#BEF8CE"/></linearGradient><linearGradient id="ac" x1="714.402" y1="344.223" x2="720.98" y2="344.64" gradientUnits="userSpaceOnUse"><stop stop-color="#81BD92"/><stop offset="1" stop-color="#BEF8CE"/></linearGradient><linearGradient id="ad" x1="714.402" y1="344.223" x2="720.98" y2="344.64" gradientUnits="userSpaceOnUse"><stop stop-color="#81BD92"/><stop offset="1" stop-color="#BEF8CE"/></linearGradient><linearGradient id="ae" x1="714.402" y1="344.223" x2="720.98" y2="344.64" gradientUnits="userSpaceOnUse"><stop stop-color="#81BD92"/><stop offset="1" stop-color="#BEF8CE"/></linearGradient><linearGradient id="af" x1="714.402" y1="344.223" x2="720.98" y2="344.64" gradientUnits="userSpaceOnUse"><stop stop-color="#81BD92"/><stop offset="1" stop-color="#BEF8CE"/></linearGradient><linearGradient id="ag" x1="714.402" y1="344.223" x2="720.98" y2="344.64" gradientUnits="userSpaceOnUse"><stop stop-color="#81BD92"/><stop offset="1" stop-color="#BEF8CE"/></linearGradient><linearGradient id="ah" x1="714.402" y1="344.223" x2="720.98" y2="344.64" gradientUnits="userSpaceOnUse"><stop stop-color="#81BD92"/><stop offset="1" stop-color="#BEF8CE"/></linearGradient><linearGradient id="ai" x1="714.402" y1="344.223" x2="720.98" y2="344.64" gradientUnits="userSpaceOnUse"><stop stop-color="#81BD92"/><stop offset="1" stop-color="#BEF8CE"/></linearGradient><linearGradient id="aj" x1="714.402" y1="344.223" x2="720.98" y2="344.64" gradientUnits="userSpaceOnUse"><stop stop-color="#81BD92"/><stop offset="1" stop-color="#BEF8CE"/></linearGradient><linearGradient id="ak" x1="714.402" y1="344.223" x2="720.98" y2="344.64" gradientUnits="userSpaceOnUse"><stop stop-color="#81BD92"/><stop offset="1" stop-color="#BEF8CE"/></linearGradient><linearGradient id="al" x1="714.402" y1="344.223" x2="720.98" y2="344.64" gradientUnits="userSpaceOnUse"><stop stop-color="#81BD92"/><stop offset="1" stop-color="#BEF8CE"/></linearGradient><linearGradient id="am" x1="714.402" y1="344.223" x2="720.98" y2="344.64" gradientUnits="userSpaceOnUse"><stop stop-color="#81BD92"/><stop offset="1" stop-color="#BEF8CE"/></linearGradient><linearGradient id="an" x1="714.402" y1="344.223" x2="720.98" y2="344.64" gradientUnits="userSpaceOnUse"><stop stop-color="#81BD92"/><stop offset="1" stop-color="#BEF8CE"/></linearGradient><linearGradient id="ao" x1="714.402" y1="344.223" x2="720.98" y2="344.64" gradientUnits="userSpaceOnUse"><stop stop-color="#81BD92"/><stop offset="1" stop-color="#BEF8CE"/></linearGradient><linearGradient id="ap" x1="714.402" y1="344.223" x2="720.98" y2="344.64" gradientUnits="userSpaceOnUse"><stop stop-color="#81BD92"/><stop offset="1" stop-color="#BEF8CE"/></linearGradient><linearGradient id="aq" x1="714.402" y1="344.223" x2="720.98" y2="344.64" gradientUnits="userSpaceOnUse"><stop stop-color="#81BD92"/><stop offset="1" stop-color="#BEF8CE"/></linearGradient><linearGradient id="ar" x1="714.402" y1="344.223" x2="720.98" y2="344.64" gradientUnits="userSpaceOnUse"><stop stop-color="#81BD92"/><stop offset="1" stop-color="#BEF8CE"/></linearGradient><linearGradient id="as" x1="714.402" y1="344.223" x2="720.98" y2="344.64" gradientUnits="userSpaceOnUse"><stop stop-color="#81BD92"/><stop offset="1" stop-color="#BEF8CE"/></linearGradient><linearGradient id="at" x1="714.402" y1="344.223" x2="720.98" y2="344.64" gradientUnits="userSpaceOnUse"><stop stop-color="#81BD92"/><stop offset="1" stop-color="#BEF8CE"/></linearGradient><linearGradient id="au" x1="714.402" y1="344.223" x2="720.98" y2="344.64" gradientUnits="userSpaceOnUse"><stop stop-color="#81BD92"/><stop offset="1" stop-color="#BEF8CE"/></linearGradient><linearGradient id="av" x1="714.402" y1="344.223" x2="720.98" y2="344.64" gradientUnits="userSpaceOnUse"><stop stop-color="#81BD92"/><stop offset="1" stop-color="#BEF8CE"/></linearGradient><linearGradient id="aw" x1="714.402" y1="344.223" x2="720.98" y2="344.64" gradientUnits="userSpaceOnUse"><stop stop-color="#81BD92"/><stop offset="1" stop-color="#BEF8CE"/></linearGradient><linearGradient id="ax" x1="714.402" y1="344.223" x2="720.98" y2="344.64" gradientUnits="userSpaceOnUse"><stop stop-color="#81BD92"/><stop offset="1" stop-color="#BEF8CE"/></linearGradient><linearGradient id="ay" x1="714.402" y1="344.223" x2="720.98" y2="344.64" gradientUnits="userSpaceOnUse"><stop stop-color="#81BD92"/><stop offset="1" stop-color="#BEF8CE"/></linearGradient><linearGradient id="az" x1="714.402" y1="344.223" x2="720.98" y2="344.64" gradientUnits="userSpaceOnUse"><stop stop-color="#81BD92"/><stop offset="1" stop-color="#BEF8CE"/></linearGradient><linearGradient id="aA" x1="714.402" y1="344.223" x2="720.98" y2="344.64" gradientUnits="userSpaceOnUse"><stop stop-color="#81BD92"/><stop offset="1" stop-color="#BEF8CE"/></linearGradient><linearGradient id="aB" x1="714.402" y1="344.223" x2="720.98" y2="344.64" gradientUnits="userSpaceOnUse"><stop stop-color="#81BD92"/><stop offset="1" stop-color="#BEF8CE"/></linearGradient><linearGradient id="aC" x1="714.402" y1="344.223" x2="720.98" y2="344.64" gradientUnits="userSpaceOnUse"><stop stop-color="#81BD92"/><stop offset="1" stop-color="#BEF8CE"/></linearGradient><linearGradient id="aD" x1="714.402" y1="344.223" x2="720.98" y2="344.64" gradientUnits="userSpaceOnUse"><stop stop-color="#81BD92"/><stop offset="1" stop-color="#BEF8CE"/></linearGradient><linearGradient id="aE" x1="714.402" y1="344.223" x2="720.98" y2="344.64" gradientUnits="userSpaceOnUse"><stop stop-color="#81BD92"/><stop offset="1" stop-color="#BEF8CE"/></linearGradient><linearGradient id="aF" x1="714.402" y1="344.223" x2="720.98" y2="344.64" gradientUnits="userSpaceOnUse"><stop stop-color="#81BD92"/><stop offset="1" stop-color="#BEF8CE"/></linearGradient><linearGradient id="aG" x1="714.402" y1="344.223" x2="720.98" y2="344.64" gradientUnits="userSpaceOnUse"><stop stop-color="#81BD92"/><stop offset="1" stop-color="#BEF8CE"/></linearGradient><linearGradient id="aH" x1="714.402" y1="344.223" x2="720.98" y2="344.64" gradientUnits="userSpaceOnUse"><stop stop-color="#81BD92"/><stop offset="1" stop-color="#BEF8CE"/></linearGradient><linearGradient id="aI" x1="714.402" y1="344.223" x2="720.98" y2="344.64" gradientUnits="userSpaceOnUse"><stop stop-color="#81BD92"/><stop offset="1" stop-color="#BEF8CE"/></linearGradient><linearGradient id="aJ" x1="714.402" y1="344.223" x2="720.98" y2="344.64" gradientUnits="userSpaceOnUse"><stop stop-color="#81BD92"/><stop offset="1" stop-color="#BEF8CE"/></linearGradient><linearGradient id="aK" x1="714.402" y1="344.223" x2="720.98" y2="344.64" gradientUnits="userSpaceOnUse"><stop stop-color="#81BD92"/><stop offset="1" stop-color="#BEF8CE"/></linearGradient><linearGradient id="aL" x1="714.402" y1="344.223" x2="720.98" y2="344.64" gradientUnits="userSpaceOnUse"><stop stop-color="#81BD92"/><stop offset="1" stop-color="#BEF8CE"/></linearGradient><linearGradient id="aM" x1="714.402" y1="344.223" x2="720.98" y2="344.64" gradientUnits="userSpaceOnUse"><stop stop-color="#81BD92"/><stop offset="1" stop-color="#BEF8CE"/></linearGradient><linearGradient id="aN" x1="714.402" y1="344.223" x2="720.98" y2="344.64" gradientUnits="userSpaceOnUse"><stop stop-color="#81BD92"/><stop offset="1" stop-color="#BEF8CE"/></linearGradient><linearGradient id="aO" x1="714.402" y1="344.223" x2="720.98" y2="344.64" gradientUnits="userSpaceOnUse"><stop stop-color="#81BD92"/><stop offset="1" stop-color="#BEF8CE"/></linearGradient><linearGradient id="aP" x1="714.402" y1="344.223" x2="720.98" y2="344.64" gradientUnits="userSpaceOnUse"><stop stop-color="#81BD92"/><stop offset="1" stop-color="#BEF8CE"/></linearGradient><linearGradient id="aQ" x1="714.402" y1="344.223" x2="720.98" y2="344.64" gradientUnits="userSpaceOnUse"><stop stop-color="#81BD92"/><stop offset="1" stop-color="#BEF8CE"/></linearGradient><linearGradient id="aR" x1="714.402" y1="344.223" x2="720.98" y2="344.64" gradientUnits="userSpaceOnUse"><stop stop-color="#81BD92"/><stop offset="1" stop-color="#BEF8CE"/></linearGradient><linearGradient id="aS" x1="714.402" y1="344.223" x2="720.98" y2="344.64" gradientUnits="userSpaceOnUse"><stop stop-color="#81BD92"/><stop offset="1" stop-color="#BEF8CE"/></linearGradient><linearGradient id="aT" x1="714.402" y1="344.223" x2="720.98" y2="344.64" gradientUnits="userSpaceOnUse"><stop stop-color="#81BD92"/><stop offset="1" stop-color="#BEF8CE"/></linearGradient><linearGradient id="aU" x1="714.402" y1="344.223" x2="720.98" y2="344.64" gradientUnits="userSpaceOnUse"><stop stop-color="#81BD92"/><stop offset="1" stop-color="#BEF8CE"/></linearGradient><linearGradient id="aV" x1="714.402" y1="344.223" x2="720.98" y2="344.64" gradientUnits="userSpaceOnUse"><stop stop-color="#81BD92"/><stop offset="1" stop-color="#BEF8CE"/></linearGradient><linearGradient id="aW" x1="714.402" y1="344.223" x2="720.98" y2="344.64" gradientUnits="userSpaceOnUse"><stop stop-color="#81BD92"/><stop offset="1" stop-color="#BEF8CE"/></linearGradient><linearGradient id="aX" x1="714.402" y1="344.223" x2="720.98" y2="344.64" gradientUnits="userSpaceOnUse"><stop stop-color="#81BD92"/><stop offset="1" stop-color="#BEF8CE"/></linearGradient><linearGradient id="aY" x1="714.402" y1="344.223" x2="720.98" y2="344.64" gradientUnits="userSpaceOnUse"><stop stop-color="#81BD92"/><stop offset="1" stop-color="#BEF8CE"/></linearGradient><linearGradient id="aZ" x1="714.402" y1="344.223" x2="720.98" y2="344.64" gradientUnits="userSpaceOnUse"><stop stop-color="#81BD92"/><stop offset="1" stop-color="#BEF8CE"/></linearGradient><linearGradient id="ba" x1="714.402" y1="344.223" x2="720.98" y2="344.64" gradientUnits="userSpaceOnUse"><stop stop-color="#81BD92"/><stop offset="1" stop-color="#BEF8CE"/></linearGradient><linearGradient id="bb" x1="714.402" y1="344.223" x2="720.98" y2="344.64" gradientUnits="userSpaceOnUse"><stop stop-color="#81BD92"/><stop offset="1" stop-color="#BEF8CE"/></linearGradient><linearGradient id="bc" x1="714.402" y1="344.223" x2="720.98" y2="344.64" gradientUnits="userSpaceOnUse"><stop stop-color="#81BD92"/><stop offset="1" stop-color="#BEF8CE"/></linearGradient><linearGradient id="bd" x1="714.402" y1="344.223" x2="720.98" y2="344.64" gradientUnits="userSpaceOnUse"><stop stop-color="#81BD92"/><stop offset="1" stop-color="#BEF8CE"/></linearGradient><linearGradient id="be" x1="714.402" y1="344.223" x2="720.98" y2="344.64" gradientUnits="userSpaceOnUse"><stop stop-color="#81BD92"/><stop offset="1" stop-color="#BEF8CE"/></linearGradient><linearGradient id="bf" x1="714.402" y1="344.223" x2="720.98" y2="344.64" gradientUnits="userSpaceOnUse"><stop stop-color="#81BD92"/><stop offset="1" stop-color="#BEF8CE"/></linearGradient><linearGradient id="bg" x1="714.402" y1="344.223" x2="720.98" y2="344.64" gradientUnits="userSpaceOnUse"><stop stop-color="#81BD92"/><stop offset="1" stop-color="#BEF8CE"/></linearGradient><linearGradient id="bh" x1="714.402" y1="344.223" x2="720.98" y2="344.64" gradientUnits="userSpaceOnUse"><stop stop-color="#81BD92"/><stop offset="1" stop-color="#BEF8CE"/></linearGradient><linearGradient id="bi" x1="714.402" y1="344.223" x2="720.98" y2="344.64" gradientUnits="userSpaceOnUse"><stop stop-color="#81BD92"/><stop offset="1" stop-color="#BEF8CE"/></linearGradient><linearGradient id="bj" x1="714.402" y1="344.223" x2="720.98" y2="344.64" gradientUnits="userSpaceOnUse"><stop stop-color="#81BD92"/><stop offset="1" stop-color="#BEF8CE"/></linearGradient><linearGradient id="bk" x1="714.402" y1="344.223" x2="720.98" y2="344.64" gradientUnits="userSpaceOnUse"><stop stop-color="#81BD92"/><stop offset="1" stop-color="#BEF8CE"/></linearGradient><linearGradient id="bl" x1="714.402" y1="344.223" x2="720.98" y2="344.64" gradientUnits="userSpaceOnUse"><stop stop-color="#81BD92"/><stop offset="1" stop-color="#BEF8CE"/></linearGradient><linearGradient id="bm" x1="714.402" y1="344.223" x2="720.98" y2="344.64" gradientUnits="userSpaceOnUse"><stop stop-color="#81BD92"/><stop offset="1" stop-color="#BEF8CE"/></linearGradient><linearGradient id="bn" x1="714.402" y1="344.223" x2="720.98" y2="344.64" gradientUnits="userSpaceOnUse"><stop stop-color="#81BD92"/><stop offset="1" stop-color="#BEF8CE"/></linearGradient><linearGradient id="bo" x1="714.402" y1="344.223" x2="720.98" y2="344.64" gradientUnits="userSpaceOnUse"><stop stop-color="#81BD92"/><stop offset="1" stop-color="#BEF8CE"/></linearGradient><linearGradient id="bp" x1="714.402" y1="344.223" x2="720.98" y2="344.64" gradientUnits="userSpaceOnUse"><stop stop-color="#81BD92"/><stop offset="1" stop-color="#BEF8CE"/></linearGradient><linearGradient id="bq" x1="714.402" y1="344.223" x2="720.98" y2="344.64" gradientUnits="userSpaceOnUse"><stop stop-color="#81BD92"/><stop offset="1" stop-color="#BEF8CE"/></linearGradient><linearGradient id="br" x1="714.402" y1="344.223" x2="720.98" y2="344.64" gradientUnits="userSpaceOnUse"><stop stop-color="#81BD92"/><stop offset="1" stop-color="#BEF8CE"/></linearGradient><linearGradient id="bs" x1="714.402" y1="344.223" x2="720.98" y2="344.64" gradientUnits="userSpaceOnUse"><stop stop-color="#81BD92"/><stop offset="1" stop-color="#BEF8CE"/></linearGradient><linearGradient id="bt" x1="714.402" y1="344.223" x2="720.98" y2="344.64" gradientUnits="userSpaceOnUse"><stop stop-color="#81BD92"/><stop offset="1" stop-color="#BEF8CE"/></linearGradient><linearGradient id="bu" x1="714.402" y1="344.223" x2="720.98" y2="344.64" gradientUnits="userSpaceOnUse"><stop stop-color="#81BD92"/><stop offset="1" stop-color="#BEF8CE"/></linearGradient><linearGradient id="bv" x1="714.402" y1="344.223" x2="720.98" y2="344.64" gradientUnits="userSpaceOnUse"><stop stop-color="#81BD92"/><stop offset="1" stop-color="#BEF8CE"/></linearGradient><linearGradient id="bw" x1="714.402" y1="344.223" x2="720.98" y2="344.64" gradientUnits="userSpaceOnUse"><stop stop-color="#81BD92"/><stop offset="1" stop-color="#BEF8CE"/></linearGradient><linearGradient id="bx" x1="714.402" y1="344.223" x2="720.98" y2="344.64" gradientUnits="userSpaceOnUse"><stop stop-color="#81BD92"/><stop offset="1" stop-color="#BEF8CE"/></linearGradient><linearGradient id="by" x1="714.402" y1="344.223" x2="720.98" y2="344.64" gradientUnits="userSpaceOnUse"><stop stop-color="#81BD92"/><stop offset="1" stop-color="#BEF8CE"/></linearGradient><linearGradient id="bz" x1="714.402" y1="344.223" x2="720.98" y2="344.64" gradientUnits="userSpaceOnUse"><stop stop-color="#81BD92"/><stop offset="1" stop-color="#BEF8CE"/></linearGradient><linearGradient id="bA" x1="714.402" y1="344.223" x2="720.98" y2="344.64" gradientUnits="userSpaceOnUse"><stop stop-color="#81BD92"/><stop offset="1" stop-color="#BEF8CE"/></linearGradient><linearGradient id="bB" x1="714.402" y1="344.223" x2="720.98" y2="344.64" gradientUnits="userSpaceOnUse"><stop stop-color="#81BD92"/><stop offset="1" stop-color="#BEF8CE"/></linearGradient><linearGradient id="bC" x1="714.402" y1="344.223" x2="720.98" y2="344.64" gradientUnits="userSpaceOnUse"><stop stop-color="#81BD92"/><stop offset="1" stop-color="#BEF8CE"/></linearGradient><linearGradient id="bD" x1="714.402" y1="344.223" x2="720.98" y2="344.64" gradientUnits="userSpaceOnUse"><stop stop-color="#81BD92"/><stop offset="1" stop-color="#BEF8CE"/></linearGradient><linearGradient id="bE" x1="714.402" y1="344.223" x2="720.98" y2="344.64" gradientUnits="userSpaceOnUse"><stop stop-color="#81BD92"/><stop offset="1" stop-color="#BEF8CE"/></linearGradient><linearGradient id="bF" x1="714.402" y1="344.223" x2="720.98" y2="344.64" gradientUnits="userSpaceOnUse"><stop stop-color="#81BD92"/><stop offset="1" stop-color="#BEF8CE"/></linearGradient><linearGradient id="bG" x1="714.402" y1="344.223" x2="720.98" y2="344.64" gradientUnits="userSpaceOnUse"><stop stop-color="#81BD92"/><stop offset="1" stop-color="#BEF8CE"/></linearGradient><linearGradient id="bH" x1="714.402" y1="344.223" x2="720.98" y2="344.64" gradientUnits="userSpaceOnUse"><stop stop-color="#81BD92"/><stop offset="1" stop-color="#BEF8CE"/></linearGradient><linearGradient id="bI" x1="714.402" y1="344.223" x2="720.98" y2="344.64" gradientUnits="userSpaceOnUse"><stop stop-color="#81BD92"/><stop offset="1" stop-color="#BEF8CE"/></linearGradient><linearGradient id="bJ" x1="714.402" y1="344.223" x2="720.98" y2="344.64" gradientUnits="userSpaceOnUse"><stop stop-color="#81BD92"/><stop offset="1" stop-color="#BEF8CE"/></linearGradient><linearGradient id="bK" x1="714.402" y1="344.223" x2="720.98" y2="344.64" gradientUnits="userSpaceOnUse"><stop stop-color="#81BD92"/><stop offset="1" stop-color="#BEF8CE"/></linearGradient><linearGradient id="bL" x1="714.402" y1="344.223" x2="720.98" y2="344.64" gradientUnits="userSpaceOnUse"><stop stop-color="#81BD92"/><stop offset="1" stop-color="#BEF8CE"/></linearGradient><linearGradient id="bM" x1="714.402" y1="344.223" x2="720.98" y2="344.64" gradientUnits="userSpaceOnUse"><stop stop-color="#81BD92"/><stop offset="1" stop-color="#BEF8CE"/></linearGradient><linearGradient id="bN" x1="714.402" y1="344.223" x2="720.98" y2="344.64" gradientUnits="userSpaceOnUse"><stop stop-color="#81BD92"/><stop offset="1" stop-color="#BEF8CE"/></linearGradient><linearGradient id="bO" x1="714.402" y1="344.223" x2="720.98" y2="344.64" gradientUnits="userSpaceOnUse"><stop stop-color="#81BD92"/><stop offset="1" stop-color="#BEF8CE"/></linearGradient><linearGradient id="bP" x1="714.402" y1="344.223" x2="720.98" y2="344.64" gradientUnits="userSpaceOnUse"><stop stop-color="#81BD92"/><stop offset="1" stop-color="#BEF8CE"/></linearGradient><linearGradient id="bQ" x1="714.402" y1="344.223" x2="720.98" y2="344.64" gradientUnits="userSpaceOnUse"><stop stop-color="#81BD92"/><stop offset="1" stop-color="#BEF8CE"/></linearGradient><linearGradient id="bR" x1="714.402" y1="344.223" x2="720.98" y2="344.64" gradientUnits="userSpaceOnUse"><stop stop-color="#81BD92"/><stop offset="1" stop-color="#BEF8CE"/></linearGradient><linearGradient id="bS" x1="714.402" y1="344.223" x2="720.98" y2="344.64" gradientUnits="userSpaceOnUse"><stop stop-color="#81BD92"/><stop offset="1" stop-color="#BEF8CE"/></linearGradient><linearGradient id="bT" x1="714.402" y1="344.223" x2="720.98" y2="344.64" gradientUnits="userSpaceOnUse"><stop stop-color="#81BD92"/><stop offset="1" stop-color="#BEF8CE"/></linearGradient><linearGradient id="bU" x1="714.402" y1="344.223" x2="720.98" y2="344.64" gradientUnits="userSpaceOnUse"><stop stop-color="#81BD92"/><stop offset="1" stop-color="#BEF8CE"/></linearGradient><linearGradient id="bV" x1="714.402" y1="344.223" x2="720.98" y2="344.64" gradientUnits="userSpaceOnUse"><stop stop-color="#81BD92"/><stop offset="1" stop-color="#BEF8CE"/></linearGradient><linearGradient id="bW" x1="714.402" y1="344.223" x2="720.98" y2="344.64" gradientUnits="userSpaceOnUse"><stop stop-color="#81BD92"/><stop offset="1" stop-color="#BEF8CE"/></linearGradient><linearGradient id="bX" x1="714.402" y1="344.223" x2="720.98" y2="344.64" gradientUnits="userSpaceOnUse"><stop stop-color="#81BD92"/><stop offset="1" stop-color="#BEF8CE"/></linearGradient><linearGradient id="bY" x1="714.402" y1="344.223" x2="720.98" y2="344.64" gradientUnits="userSpaceOnUse"><stop stop-color="#81BD92"/><stop offset="1" stop-color="#BEF8CE"/></linearGradient><linearGradient id="bZ" x1="714.402" y1="344.223" x2="720.98" y2="344.64" gradientUnits="userSpaceOnUse"><stop stop-color="#81BD92"/><stop offset="1" stop-color="#BEF8CE"/></linearGradient><linearGradient id="ca" x1="714.402" y1="344.223" x2="720.98" y2="344.64" gradientUnits="userSpaceOnUse"><stop stop-color="#81BD92"/><stop offset="1" stop-color="#BEF8CE"/></linearGradient><linearGradient id="cb" x1="714.402" y1="344.223" x2="720.98" y2="344.64" gradientUnits="userSpaceOnUse"><stop stop-color="#81BD92"/><stop offset="1" stop-color="#BEF8CE"/></linearGradient><linearGradient id="cc" x1="714.402" y1="344.223" x2="720.98" y2="344.64" gradientUnits="userSpaceOnUse"><stop stop-color="#81BD92"/><stop offset="1" stop-color="#BEF8CE"/></linearGradient><linearGradient id="cd" x1="714.402" y1="344.223" x2="720.98" y2="344.64" gradientUnits="userSpaceOnUse"><stop stop-color="#81BD92"/><stop offset="1" stop-color="#BEF8CE"/></linearGradient><linearGradient id="ce" x1="714.402" y1="344.223" x2="720.98" y2="344.64" gradientUnits="userSpaceOnUse"><stop stop-color="#81BD92"/><stop offset="1" stop-color="#BEF8CE"/></linearGradient><linearGradient id="cf" x1="714.402" y1="344.223" x2="720.98" y2="344.64" gradientUnits="userSpaceOnUse"><stop stop-color="#81BD92"/><stop offset="1" stop-color="#BEF8CE"/></linearGradient><linearGradient id="cg" x1="714.402" y1="344.223" x2="720.98" y2="344.64" gradientUnits="userSpaceOnUse"><stop stop-color="#81BD92"/><stop offset="1" stop-color="#BEF8CE"/></linearGradient><linearGradient id="ch" x1="714.402" y1="344.223" x2="720.98" y2="344.64" gradientUnits="userSpaceOnUse"><stop stop-color="#81BD92"/><stop offset="1" stop-color="#BEF8CE"/></linearGradient><linearGradient id="ci" x1="714.402" y1="344.223" x2="720.98" y2="344.64" gradientUnits="userSpaceOnUse"><stop stop-color="#81BD92"/><stop offset="1" stop-color="#BEF8CE"/></linearGradient><linearGradient id="cj" x1="714.402" y1="344.223" x2="720.98" y2="344.64" gradientUnits="userSpaceOnUse"><stop stop-color="#81BD92"/><stop offset="1" stop-color="#BEF8CE"/></linearGradient><linearGradient id="ck" x1="714.402" y1="344.223" x2="720.98" y2="344.64" gradientUnits="userSpaceOnUse"><stop stop-color="#81BD92"/><stop offset="1" stop-color="#BEF8CE"/></linearGradient><linearGradient id="cl" x1="714.402" y1="344.223" x2="720.98" y2="344.64" gradientUnits="userSpaceOnUse"><stop stop-color="#81BD92"/><stop offset="1" stop-color="#BEF8CE"/></linearGradient><linearGradient id="cm" x1="714.402" y1="344.223" x2="720.98" y2="344.64" gradientUnits="userSpaceOnUse"><stop stop-color="#81BD92"/><stop offset="1" stop-color="#BEF8CE"/></linearGradient><linearGradient id="cn" x1="714.402" y1="344.223" x2="720.98" y2="344.64" gradientUnits="userSpaceOnUse"><stop stop-color="#81BD92"/><stop offset="1" stop-color="#BEF8CE"/></linearGradient><linearGradient id="co" x1="714.402" y1="344.223" x2="720.98" y2="344.64" gradientUnits="userSpaceOnUse"><stop stop-color="#81BD92"/><stop offset="1" stop-color="#BEF8CE"/></linearGradient><linearGradient id="cp" x1="714.402" y1="344.223" x2="720.98" y2="344.64" gradientUnits="userSpaceOnUse"><stop stop-color="#81BD92"/><stop offset="1" stop-color="#BEF8CE"/></linearGradient><linearGradient id="cq" x1="714.402" y1="344.223" x2="720.98" y2="344.64" gradientUnits="userSpaceOnUse"><stop stop-color="#81BD92"/><stop offset="1" stop-color="#BEF8CE"/></linearGradient><linearGradient id="cr" x1="714.402" y1="344.223" x2="720.98" y2="344.64" gradientUnits="userSpaceOnUse"><stop stop-color="#81BD92"/><stop offset="1" stop-color="#BEF8CE"/></linearGradient><linearGradient id="cs" x1="714.402" y1="344.223" x2="720.98" y2="344.64" gradientUnits="userSpaceOnUse"><stop stop-color="#81BD92"/><stop offset="1" stop-color="#BEF8CE"/></linearGradient><linearGradient id="ct" x1="714.402" y1="344.223" x2="720.98" y2="344.64" gradientUnits="userSpaceOnUse"><stop stop-color="#81BD92"/><stop offset="1" stop-color="#BEF8CE"/></linearGradient><linearGradient id="cu" x1="714.402" y1="344.223" x2="720.98" y2="344.64" gradientUnits="userSpaceOnUse"><stop stop-color="#81BD92"/><stop offset="1" stop-color="#BEF8CE"/></linearGradient><linearGradient id="cv" x1="714.402" y1="344.223" x2="720.98" y2="344.64" gradientUnits="userSpaceOnUse"><stop stop-color="#81BD92"/><stop offset="1" stop-color="#BEF8CE"/></linearGradient><linearGradient id="cw" x1="714.402" y1="344.223" x2="720.98" y2="344.64" gradientUnits="userSpaceOnUse"><stop stop-color="#81BD92"/><stop offset="1" stop-color="#BEF8CE"/></linearGradient><linearGradient id="cx" x1="714.402" y1="344.223" x2="720.98" y2="344.64" gradientUnits="userSpaceOnUse"><stop stop-color="#81BD92"/><stop offset="1" stop-color="#BEF8CE"/></linearGradient><linearGradient id="cy" x1="714.402" y1="344.223" x2="720.98" y2="344.64" gradientUnits="userSpaceOnUse"><stop stop-color="#81BD92"/><stop offset="1" stop-color="#BEF8CE"/></linearGradient><linearGradient id="cz" x1="714.402" y1="344.223" x2="720.98" y2="344.64" gradientUnits="userSpaceOnUse"><stop stop-color="#81BD92"/><stop offset="1" stop-color="#BEF8CE"/></linearGradient><linearGradient id="cA" x1="714.402" y1="344.223" x2="720.98" y2="344.64" gradientUnits="userSpaceOnUse"><stop stop-color="#81BD92"/><stop offset="1" stop-color="#BEF8CE"/></linearGradient><linearGradient id="cB" x1="714.402" y1="344.223" x2="720.98" y2="344.64" gradientUnits="userSpaceOnUse"><stop stop-color="#81BD92"/><stop offset="1" stop-color="#BEF8CE"/></linearGradient><linearGradient id="cC" x1="714.402" y1="344.223" x2="720.98" y2="344.64" gradientUnits="userSpaceOnUse"><stop stop-color="#81BD92"/><stop offset="1" stop-color="#BEF8CE"/></linearGradient><linearGradient id="cD" x1="714.402" y1="344.223" x2="720.98" y2="344.64" gradientUnits="userSpaceOnUse"><stop stop-color="#81BD92"/><stop offset="1" stop-color="#BEF8CE"/></linearGradient><linearGradient id="cE" x1="714.402" y1="344.223" x2="720.98" y2="344.64" gradientUnits="userSpaceOnUse"><stop stop-color="#81BD92"/><stop offset="1" stop-color="#BEF8CE"/></linearGradient><linearGradient id="cF" x1="714.402" y1="344.223" x2="720.98" y2="344.64" gradientUnits="userSpaceOnUse"><stop stop-color="#81BD92"/><stop offset="1" stop-color="#BEF8CE"/></linearGradient><linearGradient id="cG" x1="714.402" y1="344.223" x2="720.98" y2="344.64" gradientUnits="userSpaceOnUse"><stop stop-color="#81BD92"/><stop offset="1" stop-color="#BEF8CE"/></linearGradient><linearGradient id="cH" x1="714.402" y1="344.223" x2="720.98" y2="344.64" gradientUnits="userSpaceOnUse"><stop stop-color="#81BD92"/><stop offset="1" stop-color="#BEF8CE"/></linearGradient><linearGradient id="cI" x1="714.402" y1="344.223" x2="720.98" y2="344.64" gradientUnits="userSpaceOnUse"><stop stop-color="#81BD92"/><stop offset="1" stop-color="#BEF8CE"/></linearGradient><linearGradient id="cJ" x1="714.402" y1="344.223" x2="720.98" y2="344.64" gradientUnits="userSpaceOnUse"><stop stop-color="#81BD92"/><stop offset="1" stop-color="#BEF8CE"/></linearGradient><linearGradient id="cK" x1="714.402" y1="344.223" x2="720.98" y2="344.64" gradientUnits="userSpaceOnUse"><stop stop-color="#81BD92"/><stop offset="1" stop-color="#BEF8CE"/></linearGradient><linearGradient id="cL" x1="714.402" y1="344.223" x2="720.98" y2="344.64" gradientUnits="userSpaceOnUse"><stop stop-color="#81BD92"/><stop offset="1" stop-color="#BEF8CE"/></linearGradient><linearGradient id="cM" x1="714.402" y1="344.223" x2="720.98" y2="344.64" gradientUnits="userSpaceOnUse"><stop stop-color="#81BD92"/><stop offset="1" stop-color="#BEF8CE"/></linearGradient><linearGradient id="cN" x1="714.402" y1="344.223" x2="720.98" y2="344.64" gradientUnits="userSpaceOnUse"><stop stop-color="#81BD92"/><stop offset="1" stop-color="#BEF8CE"/></linearGradient><linearGradient id="cO" x1="714.402" y1="344.223" x2="720.98" y2="344.64" gradientUnits="userSpaceOnUse"><stop stop-color="#81BD92"/><stop offset="1" stop-color="#BEF8CE"/></linearGradient><linearGradient id="cP" x1="714.402" y1="344.223" x2="720.98" y2="344.64" gradientUnits="userSpaceOnUse"><stop stop-color="#81BD92"/><stop offset="1" stop-color="#BEF8CE"/></linearGradient><linearGradient id="cQ" x1="714.402" y1="344.223" x2="720.98" y2="344.64" gradientUnits="userSpaceOnUse"><stop stop-color="#81BD92"/><stop offset="1" stop-color="#BEF8CE"/></linearGradient><linearGradient id="cR" x1="714.402" y1="344.223" x2="720.98" y2="344.64" gradientUnits="userSpaceOnUse"><stop stop-color="#81BD92"/><stop offset="1" stop-color="#BEF8CE"/></linearGradient><linearGradient id="cS" x1="714.402" y1="344.223" x2="720.98" y2="344.64" gradientUnits="userSpaceOnUse"><stop stop-color="#81BD92"/><stop offset="1" stop-color="#BEF8CE"/></linearGradient><linearGradient id="cT" x1="714.402" y1="344.223" x2="720.98" y2="344.64" gradientUnits="userSpaceOnUse"><stop stop-color="#81BD92"/><stop offset="1" stop-color="#BEF8CE"/></linearGradient><linearGradient id="cU" x1="714.402" y1="344.223" x2="720.98" y2="344.64" gradientUnits="userSpaceOnUse"><stop stop-color="#81BD92"/><stop offset="1" stop-color="#BEF8CE"/></linearGradient><linearGradient id="cV" x1="714.402" y1="344.223" x2="720.98" y2="344.64" gradientUnits="userSpaceOnUse"><stop stop-color="#81BD92"/><stop offset="1" stop-color="#BEF8CE"/></linearGradient><linearGradient id="cW" x1="714.402" y1="344.223" x2="720.98" y2="344.64" gradientUnits="userSpaceOnUse"><stop stop-color="#81BD92"/><stop offset="1" stop-color="#BEF8CE"/></linearGradient><linearGradient id="cX" x1="714.402" y1="344.223" x2="720.98" y2="344.64" gradientUnits="userSpaceOnUse"><stop stop-color="#81BD92"/><stop offset="1" stop-color="#BEF8CE"/></linearGradient><linearGradient id="cY" x1="714.402" y1="344.223" x2="720.98" y2="344.64" gradientUnits="userSpaceOnUse"><stop stop-color="#81BD92"/><stop offset="1" stop-color="#BEF8CE"/></linearGradient><linearGradient id="cZ" x1="714.402" y1="344.223" x2="720.98" y2="344.64" gradientUnits="userSpaceOnUse"><stop stop-color="#81BD92"/><stop offset="1" stop-color="#BEF8CE"/></linearGradient><linearGradient id="da" x1="714.402" y1="344.223" x2="720.98" y2="344.64" gradientUnits="userSpaceOnUse"><stop stop-color="#81BD92"/><stop offset="1" stop-color="#BEF8CE"/></linearGradient><linearGradient id="db" x1="714.402" y1="344.223" x2="720.98" y2="344.64" gradientUnits="userSpaceOnUse"><stop stop-color="#81BD92"/><stop offset="1" stop-color="#BEF8CE"/></linearGradient><linearGradient id="dc" x1="714.402" y1="344.223" x2="720.98" y2="344.64" gradientUnits="userSpaceOnUse"><stop stop-color="#81BD92"/><stop offset="1" stop-color="#BEF8CE"/></linearGradient><linearGradient id="dd" x1="714.402" y1="344.223" x2="720.98" y2="344.64" gradientUnits="userSpaceOnUse"><stop stop-color="#81BD92"/><stop offset="1" stop-color="#BEF8CE"/></linearGradient><linearGradient id="de" x1="714.402" y1="344.223" x2="720.98" y2="344.64" gradientUnits="userSpaceOnUse"><stop stop-color="#81BD92"/><stop offset="1" stop-color="#BEF8CE"/></linearGradient><linearGradient id="df" x1="714.402" y1="344.223" x2="720.98" y2="344.64" gradientUnits="userSpaceOnUse"><stop stop-color="#81BD92"/><stop offset="1" stop-color="#BEF8CE"/></linearGradient><linearGradient id="dg" x1="714.402" y1="344.223" x2="720.98" y2="344.64" gradientUnits="userSpaceOnUse"><stop stop-color="#81BD92"/><stop offset="1" stop-color="#BEF8CE"/></linearGradient><linearGradient id="dh" x1="714.402" y1="344.223" x2="720.98" y2="344.64" gradientUnits="userSpaceOnUse"><stop stop-color="#81BD92"/><stop offset="1" stop-color="#BEF8CE"/></linearGradient><linearGradient id="di" x1="714.402" y1="344.223" x2="720.98" y2="344.64" gradientUnits="userSpaceOnUse"><stop stop-color="#81BD92"/><stop offset="1" stop-color="#BEF8CE"/></linearGradient><linearGradient id="dj" x1="714.402" y1="344.223" x2="720.98" y2="344.64" gradientUnits="userSpaceOnUse"><stop stop-color="#81BD92"/><stop offset="1" stop-color="#BEF8CE"/></linearGradient><linearGradient id="dk" x1="714.402" y1="344.223" x2="720.98" y2="344.64" gradientUnits="userSpaceOnUse"><stop stop-color="#81BD92"/><stop offset="1" stop-color="#BEF8CE"/></linearGradient><linearGradient id="dl" x1="714.402" y1="344.223" x2="720.98" y2="344.64" gradientUnits="userSpaceOnUse"><stop stop-color="#81BD92"/><stop offset="1" stop-color="#BEF8CE"/></linearGradient><linearGradient id="dm" x1="714.402" y1="344.223" x2="720.98" y2="344.64" gradientUnits="userSpaceOnUse"><stop stop-color="#81BD92"/><stop offset="1" stop-color="#BEF8CE"/></linearGradient><linearGradient id="dn" x1="714.402" y1="344.223" x2="720.98" y2="344.64" gradientUnits="userSpaceOnUse"><stop stop-color="#81BD92"/><stop offset="1" stop-color="#BEF8CE"/></linearGradient><linearGradient id="do" x1="714.402" y1="344.223" x2="720.98" y2="344.64" gradientUnits="userSpaceOnUse"><stop stop-color="#81BD92"/><stop offset="1" stop-color="#BEF8CE"/></linearGradient><linearGradient id="dp" x1="714.402" y1="344.223" x2="720.98" y2="344.64" gradientUnits="userSpaceOnUse"><stop stop-color="#81BD92"/><stop offset="1" stop-color="#BEF8CE"/></linearGradient><linearGradient id="dq" x1="714.402" y1="344.223" x2="720.98" y2="344.64" gradientUnits="userSpaceOnUse"><stop stop-color="#81BD92"/><stop offset="1" stop-color="#BEF8CE"/></linearGradient><linearGradient id="dr" x1="714.402" y1="344.223" x2="720.98" y2="344.64" gradientUnits="userSpaceOnUse"><stop stop-color="#81BD92"/><stop offset="1" stop-color="#BEF8CE"/></linearGradient><linearGradient id="ds" x1="714.402" y1="344.223" x2="720.98" y2="344.64" gradientUnits="userSpaceOnUse"><stop stop-color="#81BD92"/><stop offset="1" stop-color="#BEF8CE"/></linearGradient><linearGradient id="dt" x1="714.402" y1="344.223" x2="720.98" y2="344.64" gradientUnits="userSpaceOnUse"><stop stop-color="#81BD92"/><stop offset="1" stop-color="#BEF8CE"/></linearGradient><linearGradient id="du" x1="714.402" y1="344.223" x2="720.98" y2="344.64" gradientUnits="userSpaceOnUse"><stop stop-color="#81BD92"/><stop offset="1" stop-color="#BEF8CE"/></linearGradient><linearGradient id="dv" x1="714.402" y1="344.223" x2="720.98" y2="344.64" gradientUnits="userSpaceOnUse"><stop stop-color="#81BD92"/><stop offset="1" stop-color="#BEF8CE"/></linearGradient><linearGradient id="dw" x1="714.402" y1="344.223" x2="720.98" y2="344.64" gradientUnits="userSpaceOnUse"><stop stop-color="#81BD92"/><stop offset="1" stop-color="#BEF8CE"/></linearGradient></defs></svg>