<svg width="711" height="383" fill="none" xmlns="http://www.w3.org/2000/svg"><path d="M4.432 4.228c1.69 0 3.06-1.371 3.06-3.063A3.062 3.062 0 0 0 4.432-1.9a3.062 3.062 0 0 0-3.06 3.064 3.062 3.062 0 0 0 3.06 3.063Z" fill="url(#a)" fill-opacity=".3"/><path d="M39.568 4.228c1.69 0 3.06-1.371 3.06-3.063a3.062 3.062 0 0 0-3.06-3.064 3.062 3.062 0 0 0-3.06 3.064 3.062 3.062 0 0 0 3.06 3.063Z" fill="url(#b)" fill-opacity=".3"/><path d="M77.764 1.165a3.07 3.07 0 0 1-3.06 3.063 3.07 3.07 0 0 1-3.06-3.063 3.07 3.07 0 0 1 3.06-3.064c1.683.025 3.06 1.378 3.06 3.064Z" fill="url(#c)" fill-opacity=".3"/><path d="M109.841 4.228a3.061 3.061 0 0 0 3.059-3.063 3.061 3.061 0 0 0-3.059-3.064 3.062 3.062 0 0 0-3.06 3.064 3.062 3.062 0 0 0 3.06 3.063Z" fill="url(#d)" fill-opacity=".3"/><path d="M144.977 4.228c1.69 0 3.06-1.371 3.06-3.063a3.062 3.062 0 0 0-3.06-3.064 3.062 3.062 0 0 0-3.06 3.064 3.062 3.062 0 0 0 3.06 3.063Z" fill="url(#e)" fill-opacity=".3"/><path d="M180.113 4.228c1.69 0 3.06-1.371 3.06-3.063a3.062 3.062 0 0 0-3.06-3.064 3.062 3.062 0 0 0-3.06 3.064 3.062 3.062 0 0 0 3.06 3.063Z" fill="url(#f)" fill-opacity=".3"/><path d="M215.275 4.228c1.69 0 3.06-1.371 3.06-3.063a3.062 3.062 0 0 0-3.06-3.064 3.062 3.062 0 0 0-3.06 3.064 3.062 3.062 0 0 0 3.06 3.063Z" fill="url(#g)" fill-opacity=".3"/><path d="M250.411 4.228c1.69 0 3.06-1.371 3.06-3.063a3.062 3.062 0 0 0-3.06-3.064 3.062 3.062 0 0 0-3.06 3.064 3.062 3.062 0 0 0 3.06 3.063Z" fill="url(#h)" fill-opacity=".3"/><path d="M285.548 4.228a3.062 3.062 0 0 0 3.059-3.063 3.062 3.062 0 0 0-3.059-3.064 3.062 3.062 0 0 0-3.06 3.064 3.062 3.062 0 0 0 3.06 3.063Z" fill="url(#i)" fill-opacity=".3"/><path d="M323.743 1.165a3.07 3.07 0 0 1-3.059 3.063 3.07 3.07 0 0 1-3.06-3.063 3.07 3.07 0 0 1 3.06-3.064c1.683.025 3.059 1.378 3.059 3.064Z" fill="url(#j)" fill-opacity=".3"/><path d="M355.82 4.228c1.69 0 3.06-1.371 3.06-3.063a3.062 3.062 0 0 0-3.06-3.064 3.062 3.062 0 0 0-3.06 3.064 3.062 3.062 0 0 0 3.06 3.063Z" fill="url(#k)" fill-opacity=".3"/><path d="M390.956 4.228c1.69 0 3.06-1.371 3.06-3.063a3.062 3.062 0 0 0-3.06-3.064 3.062 3.062 0 0 0-3.06 3.064 3.062 3.062 0 0 0 3.06 3.063Z" fill="url(#l)" fill-opacity=".3"/><path d="M426.118 4.228c1.69 0 3.06-1.371 3.06-3.063a3.062 3.062 0 0 0-3.06-3.064 3.062 3.062 0 0 0-3.06 3.064 3.062 3.062 0 0 0 3.06 3.063Z" fill="url(#m)" fill-opacity=".3"/><path d="M461.254 4.228c1.69 0 3.06-1.371 3.06-3.063a3.062 3.062 0 0 0-3.06-3.064 3.062 3.062 0 0 0-3.06 3.064 3.062 3.062 0 0 0 3.06 3.063Z" fill="url(#n)" fill-opacity=".3"/><path d="M496.391 4.228a3.062 3.062 0 0 0 3.059-3.063 3.062 3.062 0 0 0-3.059-3.064 3.062 3.062 0 0 0-3.06 3.064 3.062 3.062 0 0 0 3.06 3.063Z" fill="url(#o)" fill-opacity=".3"/><path d="M531.527 4.228c1.69 0 3.06-1.371 3.06-3.063a3.062 3.062 0 0 0-3.06-3.064 3.062 3.062 0 0 0-3.06 3.064 3.062 3.062 0 0 0 3.06 3.063Z" fill="url(#p)" fill-opacity=".3"/><path d="M566.663 4.228c1.69 0 3.06-1.371 3.06-3.063a3.062 3.062 0 0 0-3.06-3.064 3.062 3.062 0 0 0-3.06 3.064 3.062 3.062 0 0 0 3.06 3.063Z" fill="url(#q)" fill-opacity=".3"/><path d="M601.799 4.228c1.69 0 3.06-1.371 3.06-3.063a3.062 3.062 0 0 0-3.06-3.064 3.061 3.061 0 0 0-3.059 3.064 3.061 3.061 0 0 0 3.059 3.063Z" fill="url(#r)" fill-opacity=".3"/><path d="M639.995 1.165a3.07 3.07 0 0 1-3.059 3.063 3.07 3.07 0 0 1-3.06-3.063 3.07 3.07 0 0 1 3.06-3.064c1.708.025 3.059 1.378 3.059 3.064Z" fill="url(#s)" fill-opacity=".3"/><path d="M672.097 4.228c1.69 0 3.06-1.371 3.06-3.063a3.062 3.062 0 0 0-3.06-3.064 3.062 3.062 0 0 0-3.06 3.064 3.062 3.062 0 0 0 3.06 3.063Z" fill="url(#t)" fill-opacity=".3"/><path d="M707.234 4.228a3.062 3.062 0 0 0 3.059-3.063 3.062 3.062 0 0 0-3.059-3.064 3.062 3.062 0 0 0-3.06 3.064 3.062 3.062 0 0 0 3.06 3.063Z" fill="url(#u)" fill-opacity=".3"/><path d="M4.432 38.671c1.69 0 3.06-1.372 3.06-3.064a3.062 3.062 0 0 0-3.06-3.063 3.062 3.062 0 0 0-3.06 3.063 3.062 3.062 0 0 0 3.06 3.064Z" fill="url(#v)" fill-opacity=".3"/><path d="M39.568 38.671c1.69 0 3.06-1.372 3.06-3.064a3.062 3.062 0 0 0-3.06-3.063 3.062 3.062 0 0 0-3.06 3.063 3.062 3.062 0 0 0 3.06 3.064Z" fill="url(#w)" fill-opacity=".3"/><path d="M77.764 35.607a3.07 3.07 0 0 1-3.06 3.064 3.07 3.07 0 0 1-3.06-3.064 3.07 3.07 0 0 1 3.06-3.063 3.054 3.054 0 0 1 3.06 3.063Z" fill="url(#x)" fill-opacity=".3"/><path d="M109.841 38.671a3.061 3.061 0 0 0 3.059-3.064 3.061 3.061 0 0 0-3.059-3.063 3.062 3.062 0 0 0-3.06 3.063 3.062 3.062 0 0 0 3.06 3.064Z" fill="url(#y)" fill-opacity=".3"/><path d="M144.977 38.671c1.69 0 3.06-1.372 3.06-3.064a3.062 3.062 0 0 0-3.06-3.063 3.062 3.062 0 0 0-3.06 3.063 3.062 3.062 0 0 0 3.06 3.064Z" fill="url(#z)" fill-opacity=".3"/><path d="M180.113 38.671c1.69 0 3.06-1.372 3.06-3.064a3.062 3.062 0 0 0-3.06-3.063 3.062 3.062 0 0 0-3.06 3.063 3.062 3.062 0 0 0 3.06 3.064Z" fill="url(#A)" fill-opacity=".3"/><path d="M215.275 38.671c1.69 0 3.06-1.372 3.06-3.064a3.062 3.062 0 0 0-3.06-3.063 3.062 3.062 0 0 0-3.06 3.063 3.062 3.062 0 0 0 3.06 3.064Z" fill="url(#B)" fill-opacity=".3"/><path d="M250.411 38.671c1.69 0 3.06-1.372 3.06-3.064a3.062 3.062 0 0 0-3.06-3.063 3.062 3.062 0 0 0-3.06 3.063 3.062 3.062 0 0 0 3.06 3.064Z" fill="url(#C)" fill-opacity=".3"/><path d="M285.548 38.671a3.062 3.062 0 0 0 3.059-3.064 3.062 3.062 0 0 0-3.059-3.063 3.062 3.062 0 0 0-3.06 3.063 3.062 3.062 0 0 0 3.06 3.064Z" fill="url(#D)" fill-opacity=".3"/><path d="M323.743 35.607a3.07 3.07 0 0 1-3.059 3.064 3.071 3.071 0 0 1-3.06-3.064 3.07 3.07 0 0 1 3.06-3.063 3.054 3.054 0 0 1 3.059 3.063Z" fill="url(#E)" fill-opacity=".3"/><path d="M355.82 38.671c1.69 0 3.06-1.372 3.06-3.064a3.062 3.062 0 0 0-3.06-3.063 3.062 3.062 0 0 0-3.06 3.063 3.062 3.062 0 0 0 3.06 3.064Z" fill="url(#F)" fill-opacity=".3"/><path d="M390.956 38.671c1.69 0 3.06-1.372 3.06-3.064a3.062 3.062 0 0 0-3.06-3.063 3.062 3.062 0 0 0-3.06 3.063 3.062 3.062 0 0 0 3.06 3.064Z" fill="url(#G)" fill-opacity=".3"/><path d="M426.118 38.671c1.69 0 3.06-1.372 3.06-3.064a3.062 3.062 0 0 0-3.06-3.063 3.062 3.062 0 0 0-3.06 3.063 3.062 3.062 0 0 0 3.06 3.064Z" fill="url(#H)" fill-opacity=".3"/><path d="M461.254 38.671c1.69 0 3.06-1.372 3.06-3.064a3.062 3.062 0 0 0-3.06-3.063 3.062 3.062 0 0 0-3.06 3.063 3.062 3.062 0 0 0 3.06 3.064Z" fill="url(#I)" fill-opacity=".3"/><path d="M496.391 38.671a3.062 3.062 0 0 0 3.059-3.064 3.062 3.062 0 0 0-3.059-3.063 3.062 3.062 0 0 0-3.06 3.063 3.062 3.062 0 0 0 3.06 3.064Z" fill="url(#J)" fill-opacity=".3"/><path d="M531.527 38.671c1.69 0 3.06-1.372 3.06-3.064a3.062 3.062 0 0 0-3.06-3.063 3.062 3.062 0 0 0-3.06 3.063 3.062 3.062 0 0 0 3.06 3.064Z" fill="url(#K)" fill-opacity=".3"/><path d="M566.663 38.671c1.69 0 3.06-1.372 3.06-3.064a3.062 3.062 0 0 0-3.06-3.063 3.062 3.062 0 0 0-3.06 3.063 3.062 3.062 0 0 0 3.06 3.064Z" fill="url(#L)" fill-opacity=".3"/><path d="M601.799 38.671c1.69 0 3.06-1.372 3.06-3.064a3.062 3.062 0 0 0-3.06-3.063 3.061 3.061 0 0 0-3.059 3.063 3.061 3.061 0 0 0 3.059 3.064Z" fill="url(#M)" fill-opacity=".3"/><path d="M639.995 35.607a3.07 3.07 0 0 1-3.059 3.064 3.071 3.071 0 0 1-3.06-3.064 3.07 3.07 0 0 1 3.06-3.063 3.038 3.038 0 0 1 3.059 3.063Z" fill="url(#N)" fill-opacity=".3"/><path d="M672.097 38.671c1.69 0 3.06-1.372 3.06-3.064a3.062 3.062 0 0 0-3.06-3.063 3.062 3.062 0 0 0-3.06 3.063 3.062 3.062 0 0 0 3.06 3.064Z" fill="url(#O)" fill-opacity=".3"/><path d="M707.234 38.671a3.062 3.062 0 0 0 3.059-3.064 3.062 3.062 0 0 0-3.059-3.063 3.062 3.062 0 0 0-3.06 3.063 3.062 3.062 0 0 0 3.06 3.064Z" fill="url(#P)" fill-opacity=".3"/><path d="M4.432 73.088c1.69 0 3.06-1.371 3.06-3.063a3.062 3.062 0 0 0-3.06-3.064 3.062 3.062 0 0 0-3.06 3.064 3.062 3.062 0 0 0 3.06 3.063Z" fill="url(#Q)" fill-opacity=".3"/><path d="M39.568 73.088c1.69 0 3.06-1.371 3.06-3.063a3.062 3.062 0 0 0-3.06-3.064 3.062 3.062 0 0 0-3.06 3.064 3.062 3.062 0 0 0 3.06 3.063Z" fill="url(#R)" fill-opacity=".3"/><path d="M77.764 70.025a3.07 3.07 0 0 1-3.06 3.063 3.07 3.07 0 0 1-3.06-3.063 3.07 3.07 0 0 1 3.06-3.064 3.07 3.07 0 0 1 3.06 3.064Z" fill="url(#S)" fill-opacity=".3"/><path d="M109.841 73.088a3.061 3.061 0 0 0 3.059-3.063 3.061 3.061 0 0 0-3.059-3.064 3.062 3.062 0 0 0-3.06 3.064 3.062 3.062 0 0 0 3.06 3.063Z" fill="url(#T)" fill-opacity=".3"/><path d="M144.977 73.088c1.69 0 3.06-1.371 3.06-3.063a3.062 3.062 0 0 0-3.06-3.064 3.062 3.062 0 0 0-3.06 3.064 3.062 3.062 0 0 0 3.06 3.063Z" fill="url(#U)" fill-opacity=".3"/><path d="M180.113 73.088c1.69 0 3.06-1.371 3.06-3.063a3.062 3.062 0 0 0-3.06-3.064 3.062 3.062 0 0 0-3.06 3.064 3.062 3.062 0 0 0 3.06 3.063Z" fill="url(#V)" fill-opacity=".3"/><path d="M215.275 73.088c1.69 0 3.06-1.371 3.06-3.063a3.062 3.062 0 0 0-3.06-3.064 3.062 3.062 0 0 0-3.06 3.064 3.062 3.062 0 0 0 3.06 3.063Z" fill="url(#W)" fill-opacity=".3"/><path d="M250.411 73.088c1.69 0 3.06-1.371 3.06-3.063a3.062 3.062 0 0 0-3.06-3.064 3.062 3.062 0 0 0-3.06 3.064 3.062 3.062 0 0 0 3.06 3.063Z" fill="url(#X)" fill-opacity=".3"/><path d="M285.548 73.088a3.062 3.062 0 0 0 3.059-3.063 3.062 3.062 0 0 0-3.059-3.064 3.062 3.062 0 0 0-3.06 3.064 3.062 3.062 0 0 0 3.06 3.063Z" fill="url(#Y)" fill-opacity=".3"/><path d="M323.743 70.025a3.07 3.07 0 0 1-3.059 3.063 3.071 3.071 0 0 1-3.06-3.063 3.07 3.07 0 0 1 3.06-3.064 3.07 3.07 0 0 1 3.059 3.064Z" fill="url(#Z)" fill-opacity=".3"/><path d="M355.82 73.088c1.69 0 3.06-1.371 3.06-3.063a3.062 3.062 0 0 0-3.06-3.064 3.062 3.062 0 0 0-3.06 3.064 3.062 3.062 0 0 0 3.06 3.063Z" fill="url(#aa)" fill-opacity=".3"/><path d="M390.956 73.088c1.69 0 3.06-1.371 3.06-3.063a3.062 3.062 0 0 0-3.06-3.064 3.062 3.062 0 0 0-3.06 3.064 3.062 3.062 0 0 0 3.06 3.063Z" fill="url(#ab)" fill-opacity=".3"/><path d="M426.118 73.088c1.69 0 3.06-1.371 3.06-3.063a3.062 3.062 0 0 0-3.06-3.064 3.062 3.062 0 0 0-3.06 3.064 3.062 3.062 0 0 0 3.06 3.063Z" fill="url(#ac)" fill-opacity=".3"/><path d="M461.254 73.088c1.69 0 3.06-1.371 3.06-3.063a3.062 3.062 0 0 0-3.06-3.064 3.062 3.062 0 0 0-3.06 3.064 3.062 3.062 0 0 0 3.06 3.063Z" fill="url(#ad)" fill-opacity=".3"/><path d="M496.391 73.088a3.062 3.062 0 0 0 3.059-3.063 3.062 3.062 0 0 0-3.059-3.064 3.062 3.062 0 0 0-3.06 3.064 3.062 3.062 0 0 0 3.06 3.063Z" fill="url(#ae)" fill-opacity=".3"/><path d="M531.527 73.088c1.69 0 3.06-1.371 3.06-3.063a3.062 3.062 0 0 0-3.06-3.064 3.062 3.062 0 0 0-3.06 3.064 3.062 3.062 0 0 0 3.06 3.063Z" fill="url(#af)" fill-opacity=".3"/><path d="M566.663 73.088c1.69 0 3.06-1.371 3.06-3.063a3.062 3.062 0 0 0-3.06-3.064 3.062 3.062 0 0 0-3.06 3.064 3.062 3.062 0 0 0 3.06 3.063Z" fill="url(#ag)" fill-opacity=".3"/><path d="M601.799 73.088c1.69 0 3.06-1.371 3.06-3.063a3.062 3.062 0 0 0-3.06-3.064 3.061 3.061 0 0 0-3.059 3.064 3.061 3.061 0 0 0 3.059 3.063Z" fill="url(#ah)" fill-opacity=".3"/><path d="M639.995 70.025a3.07 3.07 0 0 1-3.059 3.063 3.071 3.071 0 0 1-3.06-3.063 3.07 3.07 0 0 1 3.06-3.064 3.054 3.054 0 0 1 3.059 3.064Z" fill="url(#ai)" fill-opacity=".3"/><path d="M672.097 73.088c1.69 0 3.06-1.371 3.06-3.063a3.062 3.062 0 0 0-3.06-3.064 3.062 3.062 0 0 0-3.06 3.064 3.062 3.062 0 0 0 3.06 3.063Z" fill="url(#aj)" fill-opacity=".3"/><path d="M707.234 73.088a3.062 3.062 0 0 0 3.059-3.063 3.062 3.062 0 0 0-3.059-3.064 3.062 3.062 0 0 0-3.06 3.064 3.062 3.062 0 0 0 3.06 3.063Z" fill="url(#ak)" fill-opacity=".3"/><path d="M4.432 107.506c1.69 0 3.06-1.372 3.06-3.064a3.062 3.062 0 0 0-3.06-3.064 3.062 3.062 0 0 0-3.06 3.064 3.062 3.062 0 0 0 3.06 3.064Z" fill="url(#al)" fill-opacity=".3"/><path d="M39.568 107.506c1.69 0 3.06-1.372 3.06-3.064a3.062 3.062 0 0 0-3.06-3.064 3.062 3.062 0 0 0-3.06 3.064 3.062 3.062 0 0 0 3.06 3.064Z" fill="url(#am)" fill-opacity=".3"/><path d="M77.764 104.442a3.07 3.07 0 0 1-3.06 3.064 3.071 3.071 0 0 1-3.06-3.064 3.071 3.071 0 0 1 3.06-3.064 3.07 3.07 0 0 1 3.06 3.064Z" fill="url(#an)" fill-opacity=".3"/><path d="M109.841 107.506a3.061 3.061 0 0 0 3.059-3.064 3.061 3.061 0 0 0-3.059-3.064 3.062 3.062 0 0 0-3.06 3.064 3.062 3.062 0 0 0 3.06 3.064Z" fill="url(#ao)" fill-opacity=".3"/><path d="M144.977 107.506c1.69 0 3.06-1.372 3.06-3.064a3.062 3.062 0 0 0-3.06-3.064 3.062 3.062 0 0 0-3.06 3.064 3.062 3.062 0 0 0 3.06 3.064Z" fill="url(#ap)" fill-opacity=".3"/><path d="M180.113 107.506c1.69 0 3.06-1.372 3.06-3.064a3.062 3.062 0 0 0-3.06-3.064 3.062 3.062 0 0 0-3.06 3.064 3.062 3.062 0 0 0 3.06 3.064Z" fill="url(#aq)" fill-opacity=".3"/><path d="M215.275 107.506c1.69 0 3.06-1.372 3.06-3.064a3.062 3.062 0 0 0-3.06-3.064 3.062 3.062 0 0 0-3.06 3.064 3.062 3.062 0 0 0 3.06 3.064Z" fill="url(#ar)" fill-opacity=".3"/><path d="M250.411 107.506c1.69 0 3.06-1.372 3.06-3.064a3.062 3.062 0 0 0-3.06-3.064 3.062 3.062 0 0 0-3.06 3.064 3.062 3.062 0 0 0 3.06 3.064Z" fill="url(#as)" fill-opacity=".3"/><path d="M285.548 107.506a3.062 3.062 0 0 0 3.059-3.064 3.062 3.062 0 0 0-3.059-3.064 3.062 3.062 0 0 0-3.06 3.064 3.062 3.062 0 0 0 3.06 3.064Z" fill="url(#at)" fill-opacity=".3"/><path d="M323.743 104.442a3.07 3.07 0 0 1-3.059 3.064 3.071 3.071 0 0 1-3.06-3.064 3.071 3.071 0 0 1 3.06-3.064 3.07 3.07 0 0 1 3.059 3.064Z" fill="url(#au)" fill-opacity=".3"/><path d="M355.82 107.506c1.69 0 3.06-1.372 3.06-3.064a3.062 3.062 0 0 0-3.06-3.064 3.062 3.062 0 0 0-3.06 3.064 3.062 3.062 0 0 0 3.06 3.064Z" fill="url(#av)" fill-opacity=".3"/><path d="M390.956 107.506c1.69 0 3.06-1.372 3.06-3.064a3.062 3.062 0 0 0-3.06-3.064 3.062 3.062 0 0 0-3.06 3.064 3.062 3.062 0 0 0 3.06 3.064Z" fill="url(#aw)" fill-opacity=".3"/><path d="M426.118 107.506c1.69 0 3.06-1.372 3.06-3.064a3.062 3.062 0 0 0-3.06-3.064 3.062 3.062 0 0 0-3.06 3.064 3.062 3.062 0 0 0 3.06 3.064Z" fill="url(#ax)" fill-opacity=".3"/><path d="M461.254 107.506c1.69 0 3.06-1.372 3.06-3.064a3.062 3.062 0 0 0-3.06-3.064 3.062 3.062 0 0 0-3.06 3.064 3.062 3.062 0 0 0 3.06 3.064Z" fill="url(#ay)" fill-opacity=".3"/><path d="M496.391 107.506a3.062 3.062 0 0 0 3.059-3.064 3.062 3.062 0 0 0-3.059-3.064 3.062 3.062 0 0 0-3.06 3.064 3.062 3.062 0 0 0 3.06 3.064Z" fill="url(#az)" fill-opacity=".3"/><path d="M531.527 107.506c1.69 0 3.06-1.372 3.06-3.064a3.062 3.062 0 0 0-3.06-3.064 3.062 3.062 0 0 0-3.06 3.064 3.062 3.062 0 0 0 3.06 3.064Z" fill="url(#aA)" fill-opacity=".3"/><path d="M566.663 107.506c1.69 0 3.06-1.372 3.06-3.064a3.062 3.062 0 0 0-3.06-3.064 3.062 3.062 0 0 0-3.06 3.064 3.062 3.062 0 0 0 3.06 3.064Z" fill="url(#aB)" fill-opacity=".3"/><path d="M601.799 107.506c1.69 0 3.06-1.372 3.06-3.064a3.062 3.062 0 0 0-3.06-3.064 3.061 3.061 0 0 0-3.059 3.064 3.061 3.061 0 0 0 3.059 3.064Z" fill="url(#aC)" fill-opacity=".3"/><path d="M639.995 104.442a3.07 3.07 0 0 1-3.059 3.064 3.071 3.071 0 0 1-3.06-3.064 3.071 3.071 0 0 1 3.06-3.064 3.054 3.054 0 0 1 3.059 3.064Z" fill="url(#aD)" fill-opacity=".3"/><path d="M672.097 107.506c1.69 0 3.06-1.372 3.06-3.064a3.062 3.062 0 0 0-3.06-3.064 3.062 3.062 0 0 0-3.06 3.064 3.062 3.062 0 0 0 3.06 3.064Z" fill="url(#aE)" fill-opacity=".3"/><path d="M707.234 107.506a3.062 3.062 0 0 0 3.059-3.064 3.062 3.062 0 0 0-3.059-3.064 3.062 3.062 0 0 0-3.06 3.064 3.062 3.062 0 0 0 3.06 3.064Z" fill="url(#aF)" fill-opacity=".3"/><path d="M4.432 141.923c1.69 0 3.06-1.372 3.06-3.064a3.062 3.062 0 0 0-3.06-3.064 3.062 3.062 0 0 0-3.06 3.064 3.062 3.062 0 0 0 3.06 3.064Z" fill="url(#aG)" fill-opacity=".3"/><path d="M39.568 141.923c1.69 0 3.06-1.372 3.06-3.064a3.062 3.062 0 0 0-3.06-3.064 3.062 3.062 0 0 0-3.06 3.064 3.062 3.062 0 0 0 3.06 3.064Z" fill="url(#aH)" fill-opacity=".3"/><path d="M77.764 138.859a3.07 3.07 0 0 1-3.06 3.064 3.071 3.071 0 0 1-3.06-3.064 3.071 3.071 0 0 1 3.06-3.064 3.07 3.07 0 0 1 3.06 3.064Z" fill="url(#aI)" fill-opacity=".3"/><path d="M109.841 141.923a3.061 3.061 0 0 0 3.059-3.064 3.061 3.061 0 0 0-3.059-3.064 3.062 3.062 0 0 0-3.06 3.064 3.062 3.062 0 0 0 3.06 3.064Z" fill="url(#aJ)" fill-opacity=".3"/><path d="M144.977 141.923c1.69 0 3.06-1.372 3.06-3.064a3.062 3.062 0 0 0-3.06-3.064 3.062 3.062 0 0 0-3.06 3.064 3.062 3.062 0 0 0 3.06 3.064Z" fill="url(#aK)" fill-opacity=".3"/><path d="M180.113 141.923c1.69 0 3.06-1.372 3.06-3.064a3.062 3.062 0 0 0-3.06-3.064 3.062 3.062 0 0 0-3.06 3.064 3.062 3.062 0 0 0 3.06 3.064Z" fill="url(#aL)" fill-opacity=".3"/><path d="M215.275 141.923c1.69 0 3.06-1.372 3.06-3.064a3.062 3.062 0 0 0-3.06-3.064 3.062 3.062 0 0 0-3.06 3.064 3.062 3.062 0 0 0 3.06 3.064Z" fill="url(#aM)" fill-opacity=".3"/><path d="M250.411 141.923c1.69 0 3.06-1.372 3.06-3.064a3.062 3.062 0 0 0-3.06-3.064 3.062 3.062 0 0 0-3.06 3.064 3.062 3.062 0 0 0 3.06 3.064Z" fill="url(#aN)" fill-opacity=".3"/><path d="M285.548 141.923a3.062 3.062 0 0 0 3.059-3.064 3.062 3.062 0 0 0-3.059-3.064 3.062 3.062 0 0 0-3.06 3.064 3.062 3.062 0 0 0 3.06 3.064Z" fill="url(#aO)" fill-opacity=".3"/><path d="M323.743 138.859a3.07 3.07 0 0 1-3.059 3.064 3.071 3.071 0 0 1-3.06-3.064 3.071 3.071 0 0 1 3.06-3.064 3.07 3.07 0 0 1 3.059 3.064Z" fill="url(#aP)" fill-opacity=".3"/><path d="M355.82 141.923c1.69 0 3.06-1.372 3.06-3.064a3.062 3.062 0 0 0-3.06-3.064 3.062 3.062 0 0 0-3.06 3.064 3.062 3.062 0 0 0 3.06 3.064Z" fill="url(#aQ)" fill-opacity=".3"/><path d="M390.956 141.923c1.69 0 3.06-1.372 3.06-3.064a3.062 3.062 0 0 0-3.06-3.064 3.062 3.062 0 0 0-3.06 3.064 3.062 3.062 0 0 0 3.06 3.064Z" fill="url(#aR)" fill-opacity=".3"/><path d="M426.118 141.923c1.69 0 3.06-1.372 3.06-3.064a3.062 3.062 0 0 0-3.06-3.064 3.062 3.062 0 0 0-3.06 3.064 3.062 3.062 0 0 0 3.06 3.064Z" fill="url(#aS)" fill-opacity=".3"/><path d="M461.254 141.923c1.69 0 3.06-1.372 3.06-3.064a3.062 3.062 0 0 0-3.06-3.064 3.062 3.062 0 0 0-3.06 3.064 3.062 3.062 0 0 0 3.06 3.064Z" fill="url(#aT)" fill-opacity=".3"/><path d="M496.391 141.923a3.062 3.062 0 0 0 3.059-3.064 3.062 3.062 0 0 0-3.059-3.064 3.062 3.062 0 0 0-3.06 3.064 3.062 3.062 0 0 0 3.06 3.064Z" fill="url(#aU)" fill-opacity=".3"/><path d="M531.527 141.923c1.69 0 3.06-1.372 3.06-3.064a3.062 3.062 0 0 0-3.06-3.064 3.062 3.062 0 0 0-3.06 3.064 3.062 3.062 0 0 0 3.06 3.064Z" fill="url(#aV)" fill-opacity=".3"/><path d="M566.663 141.923c1.69 0 3.06-1.372 3.06-3.064a3.062 3.062 0 0 0-3.06-3.064 3.062 3.062 0 0 0-3.06 3.064 3.062 3.062 0 0 0 3.06 3.064Z" fill="url(#aW)" fill-opacity=".3"/><path d="M601.799 141.923c1.69 0 3.06-1.372 3.06-3.064a3.062 3.062 0 0 0-3.06-3.064 3.061 3.061 0 0 0-3.059 3.064 3.061 3.061 0 0 0 3.059 3.064Z" fill="url(#aX)" fill-opacity=".3"/><path d="M639.995 138.859a3.07 3.07 0 0 1-3.059 3.064 3.071 3.071 0 0 1-3.06-3.064 3.071 3.071 0 0 1 3.06-3.064 3.054 3.054 0 0 1 3.059 3.064Z" fill="url(#aY)" fill-opacity=".3"/><path d="M672.097 141.923c1.69 0 3.06-1.372 3.06-3.064a3.062 3.062 0 0 0-3.06-3.064 3.062 3.062 0 0 0-3.06 3.064 3.062 3.062 0 0 0 3.06 3.064Z" fill="url(#aZ)" fill-opacity=".3"/><path d="M707.234 141.923a3.062 3.062 0 0 0 3.059-3.064 3.062 3.062 0 0 0-3.059-3.064 3.062 3.062 0 0 0-3.06 3.064 3.062 3.062 0 0 0 3.06 3.064Z" fill="url(#ba)" fill-opacity=".3"/><path d="M4.432 176.34c1.69 0 3.06-1.372 3.06-3.064a3.062 3.062 0 0 0-3.06-3.064 3.062 3.062 0 0 0-3.06 3.064 3.062 3.062 0 0 0 3.06 3.064Z" fill="url(#bb)" fill-opacity=".3"/><path d="M39.568 176.34c1.69 0 3.06-1.372 3.06-3.064a3.062 3.062 0 0 0-3.06-3.064 3.062 3.062 0 0 0-3.06 3.064 3.062 3.062 0 0 0 3.06 3.064Z" fill="url(#bc)" fill-opacity=".3"/><path d="M77.764 173.276a3.07 3.07 0 0 1-3.06 3.064 3.071 3.071 0 0 1-3.06-3.064 3.071 3.071 0 0 1 3.06-3.064c1.683.026 3.06 1.379 3.06 3.064Z" fill="url(#bd)" fill-opacity=".3"/><path d="M109.841 176.34a3.061 3.061 0 0 0 3.059-3.064 3.061 3.061 0 0 0-3.059-3.064 3.062 3.062 0 0 0-3.06 3.064 3.062 3.062 0 0 0 3.06 3.064Z" fill="url(#be)" fill-opacity=".3"/><path d="M144.977 176.34c1.69 0 3.06-1.372 3.06-3.064a3.062 3.062 0 0 0-3.06-3.064 3.062 3.062 0 0 0-3.06 3.064 3.062 3.062 0 0 0 3.06 3.064Z" fill="url(#bf)" fill-opacity=".3"/><path d="M180.113 176.34c1.69 0 3.06-1.372 3.06-3.064a3.062 3.062 0 0 0-3.06-3.064 3.062 3.062 0 0 0-3.06 3.064 3.062 3.062 0 0 0 3.06 3.064Z" fill="url(#bg)" fill-opacity=".3"/><path d="M215.275 176.34c1.69 0 3.06-1.372 3.06-3.064a3.062 3.062 0 0 0-3.06-3.064 3.062 3.062 0 0 0-3.06 3.064 3.062 3.062 0 0 0 3.06 3.064Z" fill="url(#bh)" fill-opacity=".3"/><path d="M250.411 176.34c1.69 0 3.06-1.372 3.06-3.064a3.062 3.062 0 0 0-3.06-3.064 3.062 3.062 0 0 0-3.06 3.064 3.062 3.062 0 0 0 3.06 3.064Z" fill="url(#bi)" fill-opacity=".3"/><path d="M285.548 176.34a3.062 3.062 0 0 0 3.059-3.064 3.062 3.062 0 0 0-3.059-3.064 3.062 3.062 0 0 0-3.06 3.064 3.062 3.062 0 0 0 3.06 3.064Z" fill="url(#bj)" fill-opacity=".3"/><path d="M323.743 173.276a3.07 3.07 0 0 1-3.059 3.064 3.071 3.071 0 0 1-3.06-3.064 3.071 3.071 0 0 1 3.06-3.064c1.683.026 3.059 1.379 3.059 3.064Z" fill="url(#bk)" fill-opacity=".3"/><path d="M355.82 176.34c1.69 0 3.06-1.372 3.06-3.064a3.062 3.062 0 0 0-3.06-3.064 3.062 3.062 0 0 0-3.06 3.064 3.062 3.062 0 0 0 3.06 3.064Z" fill="url(#bl)" fill-opacity=".3"/><path d="M390.956 176.34c1.69 0 3.06-1.372 3.06-3.064a3.062 3.062 0 0 0-3.06-3.064 3.062 3.062 0 0 0-3.06 3.064 3.062 3.062 0 0 0 3.06 3.064Z" fill="url(#bm)" fill-opacity=".3"/><path d="M426.118 176.34c1.69 0 3.06-1.372 3.06-3.064a3.062 3.062 0 0 0-3.06-3.064 3.062 3.062 0 0 0-3.06 3.064 3.062 3.062 0 0 0 3.06 3.064Z" fill="url(#bn)" fill-opacity=".3"/><path d="M461.254 176.34c1.69 0 3.06-1.372 3.06-3.064a3.062 3.062 0 0 0-3.06-3.064 3.062 3.062 0 0 0-3.06 3.064 3.062 3.062 0 0 0 3.06 3.064Z" fill="url(#bo)" fill-opacity=".3"/><path d="M496.391 176.34a3.062 3.062 0 0 0 3.059-3.064 3.062 3.062 0 0 0-3.059-3.064 3.062 3.062 0 0 0-3.06 3.064 3.062 3.062 0 0 0 3.06 3.064Z" fill="url(#bp)" fill-opacity=".3"/><path d="M531.527 176.34c1.69 0 3.06-1.372 3.06-3.064a3.062 3.062 0 0 0-3.06-3.064 3.062 3.062 0 0 0-3.06 3.064 3.062 3.062 0 0 0 3.06 3.064Z" fill="url(#bq)" fill-opacity=".3"/><path d="M566.663 176.34c1.69 0 3.06-1.372 3.06-3.064a3.062 3.062 0 0 0-3.06-3.064 3.062 3.062 0 0 0-3.06 3.064 3.062 3.062 0 0 0 3.06 3.064Z" fill="url(#br)" fill-opacity=".3"/><path d="M601.799 176.34c1.69 0 3.06-1.372 3.06-3.064a3.062 3.062 0 0 0-3.06-3.064 3.061 3.061 0 0 0-3.059 3.064 3.061 3.061 0 0 0 3.059 3.064Z" fill="url(#bs)" fill-opacity=".3"/><path d="M639.995 173.276a3.07 3.07 0 0 1-3.059 3.064 3.071 3.071 0 0 1-3.06-3.064 3.071 3.071 0 0 1 3.06-3.064c1.708.026 3.059 1.379 3.059 3.064Z" fill="url(#bt)" fill-opacity=".3"/><path d="M672.097 176.34c1.69 0 3.06-1.372 3.06-3.064a3.062 3.062 0 0 0-3.06-3.064 3.062 3.062 0 0 0-3.06 3.064 3.062 3.062 0 0 0 3.06 3.064Z" fill="url(#bu)" fill-opacity=".3"/><path d="M707.234 176.34a3.062 3.062 0 0 0 3.059-3.064 3.062 3.062 0 0 0-3.059-3.064 3.062 3.062 0 0 0-3.06 3.064 3.062 3.062 0 0 0 3.06 3.064Z" fill="url(#bv)" fill-opacity=".3"/><path d="M4.432 210.783c1.69 0 3.06-1.372 3.06-3.064a3.062 3.062 0 0 0-3.06-3.064 3.062 3.062 0 0 0-3.06 3.064 3.062 3.062 0 0 0 3.06 3.064Z" fill="url(#bw)" fill-opacity=".3"/><path d="M39.568 210.783c1.69 0 3.06-1.372 3.06-3.064a3.062 3.062 0 0 0-3.06-3.064 3.062 3.062 0 0 0-3.06 3.064 3.062 3.062 0 0 0 3.06 3.064Z" fill="url(#bx)" fill-opacity=".3"/><path d="M77.764 207.719a3.07 3.07 0 0 1-3.06 3.064 3.071 3.071 0 0 1-3.06-3.064 3.071 3.071 0 0 1 3.06-3.064 3.054 3.054 0 0 1 3.06 3.064Z" fill="url(#by)" fill-opacity=".3"/><path d="M109.841 210.783a3.061 3.061 0 0 0 3.059-3.064 3.061 3.061 0 0 0-3.059-3.064 3.062 3.062 0 0 0-3.06 3.064 3.062 3.062 0 0 0 3.06 3.064Z" fill="url(#bz)" fill-opacity=".3"/><path d="M144.977 210.783c1.69 0 3.06-1.372 3.06-3.064a3.062 3.062 0 0 0-3.06-3.064 3.062 3.062 0 0 0-3.06 3.064 3.062 3.062 0 0 0 3.06 3.064Z" fill="url(#bA)" fill-opacity=".3"/><path d="M180.113 210.783c1.69 0 3.06-1.372 3.06-3.064a3.062 3.062 0 0 0-3.06-3.064 3.062 3.062 0 0 0-3.06 3.064 3.062 3.062 0 0 0 3.06 3.064Z" fill="url(#bB)" fill-opacity=".3"/><path d="M215.275 210.783c1.69 0 3.06-1.372 3.06-3.064a3.062 3.062 0 0 0-3.06-3.064 3.062 3.062 0 0 0-3.06 3.064 3.062 3.062 0 0 0 3.06 3.064Z" fill="url(#bC)" fill-opacity=".3"/><path d="M250.411 210.783c1.69 0 3.06-1.372 3.06-3.064a3.062 3.062 0 0 0-3.06-3.064 3.062 3.062 0 0 0-3.06 3.064 3.062 3.062 0 0 0 3.06 3.064Z" fill="url(#bD)" fill-opacity=".3"/><path d="M285.548 210.783a3.062 3.062 0 0 0 3.059-3.064 3.062 3.062 0 0 0-3.059-3.064 3.062 3.062 0 0 0-3.06 3.064 3.062 3.062 0 0 0 3.06 3.064Z" fill="url(#bE)" fill-opacity=".3"/><path d="M323.743 207.719a3.07 3.07 0 0 1-3.059 3.064 3.071 3.071 0 0 1-3.06-3.064 3.071 3.071 0 0 1 3.06-3.064 3.054 3.054 0 0 1 3.059 3.064Z" fill="url(#bF)" fill-opacity=".3"/><path d="M355.82 210.783c1.69 0 3.06-1.372 3.06-3.064a3.062 3.062 0 0 0-3.06-3.064 3.062 3.062 0 0 0-3.06 3.064 3.062 3.062 0 0 0 3.06 3.064Z" fill="url(#bG)" fill-opacity=".3"/><path d="M390.956 210.783c1.69 0 3.06-1.372 3.06-3.064a3.062 3.062 0 0 0-3.06-3.064 3.062 3.062 0 0 0-3.06 3.064 3.062 3.062 0 0 0 3.06 3.064Z" fill="url(#bH)" fill-opacity=".3"/><path d="M426.118 210.783c1.69 0 3.06-1.372 3.06-3.064a3.062 3.062 0 0 0-3.06-3.064 3.062 3.062 0 0 0-3.06 3.064 3.062 3.062 0 0 0 3.06 3.064Z" fill="url(#bI)" fill-opacity=".3"/><path d="M461.254 210.783c1.69 0 3.06-1.372 3.06-3.064a3.062 3.062 0 0 0-3.06-3.064 3.062 3.062 0 0 0-3.06 3.064 3.062 3.062 0 0 0 3.06 3.064Z" fill="url(#bJ)" fill-opacity=".3"/><path d="M496.391 210.783a3.062 3.062 0 0 0 3.059-3.064 3.062 3.062 0 0 0-3.059-3.064 3.062 3.062 0 0 0-3.06 3.064 3.062 3.062 0 0 0 3.06 3.064Z" fill="url(#bK)" fill-opacity=".3"/><path d="M531.527 210.783c1.69 0 3.06-1.372 3.06-3.064a3.062 3.062 0 0 0-3.06-3.064 3.062 3.062 0 0 0-3.06 3.064 3.062 3.062 0 0 0 3.06 3.064Z" fill="url(#bL)" fill-opacity=".3"/><path d="M566.663 210.783c1.69 0 3.06-1.372 3.06-3.064a3.062 3.062 0 0 0-3.06-3.064 3.062 3.062 0 0 0-3.06 3.064 3.062 3.062 0 0 0 3.06 3.064Z" fill="url(#bM)" fill-opacity=".3"/><path d="M601.799 210.783c1.69 0 3.06-1.372 3.06-3.064a3.062 3.062 0 0 0-3.06-3.064 3.061 3.061 0 0 0-3.059 3.064 3.061 3.061 0 0 0 3.059 3.064Z" fill="url(#bN)" fill-opacity=".3"/><path d="M639.995 207.719a3.07 3.07 0 0 1-3.059 3.064 3.071 3.071 0 0 1-3.06-3.064 3.071 3.071 0 0 1 3.06-3.064 3.038 3.038 0 0 1 3.059 3.064Z" fill="url(#bO)" fill-opacity=".3"/><path d="M672.097 210.783c1.69 0 3.06-1.372 3.06-3.064a3.062 3.062 0 0 0-3.06-3.064 3.062 3.062 0 0 0-3.06 3.064 3.062 3.062 0 0 0 3.06 3.064Z" fill="url(#bP)" fill-opacity=".3"/><path d="M707.234 210.783a3.062 3.062 0 0 0 3.059-3.064 3.062 3.062 0 0 0-3.059-3.064 3.062 3.062 0 0 0-3.06 3.064 3.062 3.062 0 0 0 3.06 3.064Z" fill="url(#bQ)" fill-opacity=".3"/><path d="M4.432 245.2c1.69 0 3.06-1.372 3.06-3.064a3.062 3.062 0 0 0-3.06-3.064 3.062 3.062 0 0 0-3.06 3.064 3.062 3.062 0 0 0 3.06 3.064Z" fill="url(#bR)" fill-opacity=".3"/><path d="M39.568 245.2c1.69 0 3.06-1.372 3.06-3.064a3.062 3.062 0 0 0-3.06-3.064 3.062 3.062 0 0 0-3.06 3.064 3.062 3.062 0 0 0 3.06 3.064Z" fill="url(#bS)" fill-opacity=".3"/><path d="M77.764 242.136a3.07 3.07 0 0 1-3.06 3.064 3.071 3.071 0 0 1-3.06-3.064 3.071 3.071 0 0 1 3.06-3.064 3.07 3.07 0 0 1 3.06 3.064Z" fill="url(#bT)" fill-opacity=".3"/><path d="M109.841 245.2a3.061 3.061 0 0 0 3.059-3.064 3.061 3.061 0 0 0-3.059-3.064 3.062 3.062 0 0 0-3.06 3.064 3.062 3.062 0 0 0 3.06 3.064Z" fill="url(#bU)" fill-opacity=".3"/><path d="M144.977 245.2c1.69 0 3.06-1.372 3.06-3.064a3.062 3.062 0 0 0-3.06-3.064 3.062 3.062 0 0 0-3.06 3.064 3.062 3.062 0 0 0 3.06 3.064Z" fill="url(#bV)" fill-opacity=".3"/><path d="M180.113 245.2c1.69 0 3.06-1.372 3.06-3.064a3.062 3.062 0 0 0-3.06-3.064 3.062 3.062 0 0 0-3.06 3.064 3.062 3.062 0 0 0 3.06 3.064Z" fill="url(#bW)" fill-opacity=".3"/><path d="M215.275 245.2c1.69 0 3.06-1.372 3.06-3.064a3.062 3.062 0 0 0-3.06-3.064 3.062 3.062 0 0 0-3.06 3.064 3.062 3.062 0 0 0 3.06 3.064Z" fill="url(#bX)" fill-opacity=".3"/><path d="M250.411 245.2c1.69 0 3.06-1.372 3.06-3.064a3.062 3.062 0 0 0-3.06-3.064 3.062 3.062 0 0 0-3.06 3.064 3.062 3.062 0 0 0 3.06 3.064Z" fill="url(#bY)" fill-opacity=".3"/><path d="M285.548 245.2a3.062 3.062 0 0 0 3.059-3.064 3.062 3.062 0 0 0-3.059-3.064 3.062 3.062 0 0 0-3.06 3.064 3.062 3.062 0 0 0 3.06 3.064Z" fill="url(#bZ)" fill-opacity=".3"/><path d="M323.743 242.136a3.07 3.07 0 0 1-3.059 3.064 3.071 3.071 0 0 1-3.06-3.064 3.071 3.071 0 0 1 3.06-3.064 3.07 3.07 0 0 1 3.059 3.064Z" fill="url(#ca)" fill-opacity=".3"/><path d="M355.82 245.2c1.69 0 3.06-1.372 3.06-3.064a3.062 3.062 0 0 0-3.06-3.064 3.062 3.062 0 0 0-3.06 3.064 3.062 3.062 0 0 0 3.06 3.064Z" fill="url(#cb)" fill-opacity=".3"/><path d="M390.956 245.2c1.69 0 3.06-1.372 3.06-3.064a3.062 3.062 0 0 0-3.06-3.064 3.062 3.062 0 0 0-3.06 3.064 3.062 3.062 0 0 0 3.06 3.064Z" fill="url(#cc)" fill-opacity=".3"/><path d="M426.118 245.2c1.69 0 3.06-1.372 3.06-3.064a3.062 3.062 0 0 0-3.06-3.064 3.062 3.062 0 0 0-3.06 3.064 3.062 3.062 0 0 0 3.06 3.064Z" fill="url(#cd)" fill-opacity=".3"/><path d="M461.254 245.2c1.69 0 3.06-1.372 3.06-3.064a3.062 3.062 0 0 0-3.06-3.064 3.062 3.062 0 0 0-3.06 3.064 3.062 3.062 0 0 0 3.06 3.064Z" fill="url(#ce)" fill-opacity=".3"/><path d="M496.391 245.2a3.062 3.062 0 0 0 3.059-3.064 3.062 3.062 0 0 0-3.059-3.064 3.062 3.062 0 0 0-3.06 3.064 3.062 3.062 0 0 0 3.06 3.064Z" fill="url(#cf)" fill-opacity=".3"/><path d="M531.527 245.2c1.69 0 3.06-1.372 3.06-3.064a3.062 3.062 0 0 0-3.06-3.064 3.062 3.062 0 0 0-3.06 3.064 3.062 3.062 0 0 0 3.06 3.064Z" fill="url(#cg)" fill-opacity=".3"/><path d="M566.663 245.2c1.69 0 3.06-1.372 3.06-3.064a3.062 3.062 0 0 0-3.06-3.064 3.062 3.062 0 0 0-3.06 3.064 3.062 3.062 0 0 0 3.06 3.064Z" fill="url(#ch)" fill-opacity=".3"/><path d="M601.799 245.2c1.69 0 3.06-1.372 3.06-3.064a3.062 3.062 0 0 0-3.06-3.064 3.061 3.061 0 0 0-3.059 3.064 3.061 3.061 0 0 0 3.059 3.064Z" fill="url(#ci)" fill-opacity=".3"/><path d="M639.995 242.136a3.07 3.07 0 0 1-3.059 3.064 3.071 3.071 0 0 1-3.06-3.064 3.071 3.071 0 0 1 3.06-3.064 3.054 3.054 0 0 1 3.059 3.064Z" fill="url(#cj)" fill-opacity=".3"/><path d="M672.097 245.2c1.69 0 3.06-1.372 3.06-3.064a3.062 3.062 0 0 0-3.06-3.064 3.062 3.062 0 0 0-3.06 3.064 3.062 3.062 0 0 0 3.06 3.064Z" fill="url(#ck)" fill-opacity=".3"/><path d="M707.234 245.2a3.062 3.062 0 0 0 3.059-3.064 3.062 3.062 0 0 0-3.059-3.064 3.062 3.062 0 0 0-3.06 3.064 3.062 3.062 0 0 0 3.06 3.064Z" fill="url(#cl)" fill-opacity=".3"/><path d="M4.432 279.617c1.69 0 3.06-1.372 3.06-3.064a3.062 3.062 0 0 0-3.06-3.064 3.062 3.062 0 0 0-3.06 3.064 3.062 3.062 0 0 0 3.06 3.064Z" fill="url(#cm)" fill-opacity=".3"/><path d="M39.568 279.617c1.69 0 3.06-1.372 3.06-3.064a3.062 3.062 0 0 0-3.06-3.064 3.062 3.062 0 0 0-3.06 3.064 3.062 3.062 0 0 0 3.06 3.064Z" fill="url(#cn)" fill-opacity=".3"/><path d="M77.764 276.553a3.07 3.07 0 0 1-3.06 3.064 3.071 3.071 0 0 1-3.06-3.064 3.071 3.071 0 0 1 3.06-3.064 3.07 3.07 0 0 1 3.06 3.064Z" fill="url(#co)" fill-opacity=".3"/><path d="M109.841 279.617a3.061 3.061 0 0 0 3.059-3.064 3.061 3.061 0 0 0-3.059-3.064 3.062 3.062 0 0 0-3.06 3.064 3.062 3.062 0 0 0 3.06 3.064Z" fill="url(#cp)" fill-opacity=".3"/><path d="M144.977 279.617c1.69 0 3.06-1.372 3.06-3.064a3.062 3.062 0 0 0-3.06-3.064 3.062 3.062 0 0 0-3.06 3.064 3.062 3.062 0 0 0 3.06 3.064Z" fill="url(#cq)" fill-opacity=".3"/><path d="M180.113 279.617c1.69 0 3.06-1.372 3.06-3.064a3.062 3.062 0 0 0-3.06-3.064 3.062 3.062 0 0 0-3.06 3.064 3.062 3.062 0 0 0 3.06 3.064Z" fill="url(#cr)" fill-opacity=".3"/><path d="M215.275 279.617c1.69 0 3.06-1.372 3.06-3.064a3.062 3.062 0 0 0-3.06-3.064 3.062 3.062 0 0 0-3.06 3.064 3.062 3.062 0 0 0 3.06 3.064Z" fill="url(#cs)" fill-opacity=".3"/><path d="M250.411 279.617c1.69 0 3.06-1.372 3.06-3.064a3.062 3.062 0 0 0-3.06-3.064 3.062 3.062 0 0 0-3.06 3.064 3.062 3.062 0 0 0 3.06 3.064Z" fill="url(#ct)" fill-opacity=".3"/><path d="M285.548 279.617a3.062 3.062 0 0 0 3.059-3.064 3.062 3.062 0 0 0-3.059-3.064 3.062 3.062 0 0 0-3.06 3.064 3.062 3.062 0 0 0 3.06 3.064Z" fill="url(#cu)" fill-opacity=".3"/><path d="M323.743 276.553a3.07 3.07 0 0 1-3.059 3.064 3.071 3.071 0 0 1-3.06-3.064 3.071 3.071 0 0 1 3.06-3.064 3.07 3.07 0 0 1 3.059 3.064Z" fill="url(#cv)" fill-opacity=".3"/><path d="M355.82 279.617c1.69 0 3.06-1.372 3.06-3.064a3.062 3.062 0 0 0-3.06-3.064 3.062 3.062 0 0 0-3.06 3.064 3.062 3.062 0 0 0 3.06 3.064Z" fill="url(#cw)" fill-opacity=".3"/><path d="M390.956 279.617c1.69 0 3.06-1.372 3.06-3.064a3.062 3.062 0 0 0-3.06-3.064 3.062 3.062 0 0 0-3.06 3.064 3.062 3.062 0 0 0 3.06 3.064Z" fill="url(#cx)" fill-opacity=".3"/><path d="M426.118 279.617c1.69 0 3.06-1.372 3.06-3.064a3.062 3.062 0 0 0-3.06-3.064 3.062 3.062 0 0 0-3.06 3.064 3.062 3.062 0 0 0 3.06 3.064Z" fill="url(#cy)" fill-opacity=".3"/><path d="M461.254 279.617c1.69 0 3.06-1.372 3.06-3.064a3.062 3.062 0 0 0-3.06-3.064 3.062 3.062 0 0 0-3.06 3.064 3.062 3.062 0 0 0 3.06 3.064Z" fill="url(#cz)" fill-opacity=".3"/><path d="M496.391 279.617a3.062 3.062 0 0 0 3.059-3.064 3.062 3.062 0 0 0-3.059-3.064 3.062 3.062 0 0 0-3.06 3.064 3.062 3.062 0 0 0 3.06 3.064Z" fill="url(#cA)" fill-opacity=".3"/><path d="M531.527 279.617c1.69 0 3.06-1.372 3.06-3.064a3.062 3.062 0 0 0-3.06-3.064 3.062 3.062 0 0 0-3.06 3.064 3.062 3.062 0 0 0 3.06 3.064Z" fill="url(#cB)" fill-opacity=".3"/><path d="M566.663 279.617c1.69 0 3.06-1.372 3.06-3.064a3.062 3.062 0 0 0-3.06-3.064 3.062 3.062 0 0 0-3.06 3.064 3.062 3.062 0 0 0 3.06 3.064Z" fill="url(#cC)" fill-opacity=".3"/><path d="M601.799 279.617c1.69 0 3.06-1.372 3.06-3.064a3.062 3.062 0 0 0-3.06-3.064 3.061 3.061 0 0 0-3.059 3.064 3.061 3.061 0 0 0 3.059 3.064Z" fill="url(#cD)" fill-opacity=".3"/><path d="M639.995 276.553a3.07 3.07 0 0 1-3.059 3.064 3.071 3.071 0 0 1-3.06-3.064 3.071 3.071 0 0 1 3.06-3.064 3.054 3.054 0 0 1 3.059 3.064Z" fill="url(#cE)" fill-opacity=".3"/><path d="M672.097 279.617c1.69 0 3.06-1.372 3.06-3.064a3.062 3.062 0 0 0-3.06-3.064 3.062 3.062 0 0 0-3.06 3.064 3.062 3.062 0 0 0 3.06 3.064Z" fill="url(#cF)" fill-opacity=".3"/><path d="M707.234 279.617a3.062 3.062 0 0 0 3.059-3.064 3.062 3.062 0 0 0-3.059-3.064 3.062 3.062 0 0 0-3.06 3.064 3.062 3.062 0 0 0 3.06 3.064Z" fill="url(#cG)" fill-opacity=".3"/><path d="M4.432 314.034c1.69 0 3.06-1.371 3.06-3.063a3.061 3.061 0 0 0-3.06-3.064 3.061 3.061 0 0 0-3.06 3.064 3.061 3.061 0 0 0 3.06 3.063Z" fill="url(#cH)" fill-opacity=".3"/><path d="M39.568 314.034c1.69 0 3.06-1.371 3.06-3.063a3.061 3.061 0 0 0-3.06-3.064 3.061 3.061 0 0 0-3.06 3.064 3.061 3.061 0 0 0 3.06 3.063Z" fill="url(#cI)" fill-opacity=".3"/><path d="M77.764 310.971a3.07 3.07 0 0 1-3.06 3.063 3.07 3.07 0 0 1-3.06-3.063 3.07 3.07 0 0 1 3.06-3.064 3.07 3.07 0 0 1 3.06 3.064Z" fill="url(#cJ)" fill-opacity=".3"/><path d="M109.841 314.034a3.06 3.06 0 0 0 3.059-3.063 3.06 3.06 0 1 0-6.119 0 3.061 3.061 0 0 0 3.06 3.063Z" fill="url(#cK)" fill-opacity=".3"/><path d="M144.977 314.034c1.69 0 3.06-1.371 3.06-3.063a3.061 3.061 0 0 0-3.06-3.064 3.061 3.061 0 0 0-3.06 3.064 3.061 3.061 0 0 0 3.06 3.063Z" fill="url(#cL)" fill-opacity=".3"/><path d="M180.113 314.034c1.69 0 3.06-1.371 3.06-3.063a3.061 3.061 0 0 0-3.06-3.064 3.061 3.061 0 0 0-3.06 3.064 3.061 3.061 0 0 0 3.06 3.063Z" fill="url(#cM)" fill-opacity=".3"/><path d="M215.275 314.034c1.69 0 3.06-1.371 3.06-3.063a3.061 3.061 0 0 0-3.06-3.064 3.061 3.061 0 0 0-3.06 3.064 3.061 3.061 0 0 0 3.06 3.063Z" fill="url(#cN)" fill-opacity=".3"/><path d="M250.411 314.034c1.69 0 3.06-1.371 3.06-3.063a3.061 3.061 0 0 0-3.06-3.064 3.061 3.061 0 0 0-3.06 3.064 3.061 3.061 0 0 0 3.06 3.063Z" fill="url(#cO)" fill-opacity=".3"/><path d="M285.548 314.034a3.061 3.061 0 0 0 3.059-3.063 3.061 3.061 0 0 0-3.059-3.064 3.061 3.061 0 0 0-3.06 3.064 3.061 3.061 0 0 0 3.06 3.063Z" fill="url(#cP)" fill-opacity=".3"/><path d="M323.743 310.971a3.07 3.07 0 0 1-3.059 3.063 3.07 3.07 0 0 1-3.06-3.063 3.07 3.07 0 0 1 3.06-3.064 3.07 3.07 0 0 1 3.059 3.064Z" fill="url(#cQ)" fill-opacity=".3"/><path d="M355.82 314.034c1.69 0 3.06-1.371 3.06-3.063a3.061 3.061 0 0 0-3.06-3.064 3.061 3.061 0 0 0-3.06 3.064 3.061 3.061 0 0 0 3.06 3.063Z" fill="url(#cR)" fill-opacity=".3"/><path d="M390.956 314.034c1.69 0 3.06-1.371 3.06-3.063a3.061 3.061 0 0 0-3.06-3.064 3.061 3.061 0 0 0-3.06 3.064 3.061 3.061 0 0 0 3.06 3.063Z" fill="url(#cS)" fill-opacity=".3"/><path d="M426.118 314.034c1.69 0 3.06-1.371 3.06-3.063a3.061 3.061 0 0 0-3.06-3.064 3.061 3.061 0 0 0-3.06 3.064 3.061 3.061 0 0 0 3.06 3.063Z" fill="url(#cT)" fill-opacity=".3"/><path d="M461.254 314.034c1.69 0 3.06-1.371 3.06-3.063a3.061 3.061 0 0 0-3.06-3.064 3.061 3.061 0 0 0-3.06 3.064 3.061 3.061 0 0 0 3.06 3.063Z" fill="url(#cU)" fill-opacity=".3"/><path d="M496.391 314.034a3.061 3.061 0 0 0 3.059-3.063 3.061 3.061 0 0 0-3.059-3.064 3.061 3.061 0 0 0-3.06 3.064 3.061 3.061 0 0 0 3.06 3.063Z" fill="url(#cV)" fill-opacity=".3"/><path d="M531.527 314.034c1.69 0 3.06-1.371 3.06-3.063a3.061 3.061 0 0 0-3.06-3.064 3.061 3.061 0 0 0-3.06 3.064 3.061 3.061 0 0 0 3.06 3.063Z" fill="url(#cW)" fill-opacity=".3"/><path d="M566.663 314.034c1.69 0 3.06-1.371 3.06-3.063a3.061 3.061 0 0 0-3.06-3.064 3.061 3.061 0 0 0-3.06 3.064 3.061 3.061 0 0 0 3.06 3.063Z" fill="url(#cX)" fill-opacity=".3"/><path d="M601.799 314.034c1.69 0 3.06-1.371 3.06-3.063a3.06 3.06 0 1 0-6.119 0 3.06 3.06 0 0 0 3.059 3.063Z" fill="url(#cY)" fill-opacity=".3"/><path d="M639.995 310.971a3.07 3.07 0 0 1-3.059 3.063 3.07 3.07 0 0 1-3.06-3.063 3.07 3.07 0 0 1 3.06-3.064 3.054 3.054 0 0 1 3.059 3.064Z" fill="url(#cZ)" fill-opacity=".3"/><path d="M672.097 314.034c1.69 0 3.06-1.371 3.06-3.063a3.061 3.061 0 0 0-3.06-3.064 3.061 3.061 0 0 0-3.06 3.064 3.061 3.061 0 0 0 3.06 3.063Z" fill="url(#da)" fill-opacity=".3"/><path d="M707.234 314.034a3.061 3.061 0 0 0 3.059-3.063 3.061 3.061 0 0 0-3.059-3.064 3.061 3.061 0 0 0-3.06 3.064 3.061 3.061 0 0 0 3.06 3.063Z" fill="url(#db)" fill-opacity=".3"/><path d="M7.492 345.388a3.07 3.07 0 0 1-3.06 3.064 3.071 3.071 0 0 1-3.06-3.064 3.071 3.071 0 0 1 3.06-3.064c1.683.025 3.06 1.379 3.06 3.064Z" fill="url(#dc)" fill-opacity=".3"/><path d="M42.628 345.388a3.071 3.071 0 0 1-3.06 3.064 3.071 3.071 0 0 1-3.06-3.064 3.071 3.071 0 0 1 3.06-3.064c1.683.025 3.06 1.379 3.06 3.064Z" fill="url(#dd)" fill-opacity=".3"/><path d="M77.764 345.388a3.07 3.07 0 0 1-3.06 3.064 3.071 3.071 0 0 1-3.06-3.064 3.071 3.071 0 0 1 3.06-3.064c1.683.025 3.06 1.379 3.06 3.064Z" fill="url(#de)" fill-opacity=".3"/><path d="M112.9 345.388a3.07 3.07 0 0 1-3.059 3.064 3.071 3.071 0 0 1-3.06-3.064 3.071 3.071 0 0 1 3.06-3.064c1.683.025 3.059 1.379 3.059 3.064Z" fill="url(#df)" fill-opacity=".3"/><path d="M148.037 345.388a3.071 3.071 0 0 1-3.06 3.064 3.071 3.071 0 0 1-3.06-3.064 3.071 3.071 0 0 1 3.06-3.064c1.683.025 3.06 1.379 3.06 3.064Z" fill="url(#dg)" fill-opacity=".3"/><path d="M183.173 345.388a3.071 3.071 0 0 1-3.06 3.064 3.071 3.071 0 0 1-3.06-3.064 3.071 3.071 0 0 1 3.06-3.064c1.709.025 3.06 1.379 3.06 3.064Z" fill="url(#dh)" fill-opacity=".3"/><path d="M218.309 345.388a3.071 3.071 0 0 1-3.06 3.064 3.07 3.07 0 0 1-3.059-3.064 3.07 3.07 0 0 1 3.059-3.064c1.709.025 3.06 1.379 3.06 3.064Z" fill="url(#di)" fill-opacity=".3"/><path d="M253.471 345.388a3.071 3.071 0 0 1-3.06 3.064 3.071 3.071 0 0 1-3.06-3.064 3.071 3.071 0 0 1 3.06-3.064c1.683.025 3.06 1.379 3.06 3.064Z" fill="url(#dj)" fill-opacity=".3"/><path d="M288.607 345.388a3.07 3.07 0 0 1-3.059 3.064 3.071 3.071 0 0 1-3.06-3.064 3.071 3.071 0 0 1 3.06-3.064c1.682.025 3.059 1.379 3.059 3.064Z" fill="url(#dk)" fill-opacity=".3"/><path d="M323.743 345.388a3.07 3.07 0 0 1-3.059 3.064 3.071 3.071 0 0 1-3.06-3.064 3.071 3.071 0 0 1 3.06-3.064c1.683.025 3.059 1.379 3.059 3.064Z" fill="url(#dl)" fill-opacity=".3"/><path d="M358.88 345.388a3.071 3.071 0 0 1-3.06 3.064 3.071 3.071 0 0 1-3.06-3.064 3.071 3.071 0 0 1 3.06-3.064c1.683.025 3.06 1.379 3.06 3.064Z" fill="url(#dm)" fill-opacity=".3"/><path d="M394.016 345.388a3.071 3.071 0 0 1-3.06 3.064 3.071 3.071 0 0 1-3.06-3.064 3.071 3.071 0 0 1 3.06-3.064c1.709.025 3.06 1.379 3.06 3.064Z" fill="url(#dn)" fill-opacity=".3"/><path d="M429.152 345.388a3.07 3.07 0 0 1-3.059 3.064 3.071 3.071 0 0 1-3.06-3.064 3.071 3.071 0 0 1 3.06-3.064c1.708.025 3.059 1.379 3.059 3.064Z" fill="url(#do)" fill-opacity=".3"/><path d="M464.314 345.388a3.071 3.071 0 0 1-3.06 3.064 3.071 3.071 0 0 1-3.06-3.064 3.071 3.071 0 0 1 3.06-3.064c1.683.025 3.06 1.379 3.06 3.064Z" fill="url(#dp)" fill-opacity=".3"/><path d="M499.45 345.388a3.07 3.07 0 0 1-3.059 3.064 3.071 3.071 0 0 1-3.06-3.064 3.071 3.071 0 0 1 3.06-3.064c1.682.025 3.059 1.379 3.059 3.064Z" fill="url(#dq)" fill-opacity=".3"/><path d="M534.587 345.388a3.071 3.071 0 0 1-3.06 3.064 3.071 3.071 0 0 1-3.06-3.064 3.071 3.071 0 0 1 3.06-3.064c1.683.025 3.06 1.379 3.06 3.064Z" fill="url(#dr)" fill-opacity=".3"/><path d="M569.723 345.388a3.071 3.071 0 0 1-3.06 3.064 3.071 3.071 0 0 1-3.06-3.064 3.071 3.071 0 0 1 3.06-3.064c1.683.025 3.06 1.379 3.06 3.064Z" fill="url(#ds)" fill-opacity=".3"/><path d="M604.859 345.388a3.071 3.071 0 0 1-3.06 3.064 3.07 3.07 0 0 1-3.059-3.064 3.07 3.07 0 0 1 3.059-3.064c1.709.025 3.06 1.379 3.06 3.064Z" fill="url(#dt)" fill-opacity=".3"/><path d="M639.995 345.388a3.07 3.07 0 0 1-3.059 3.064 3.071 3.071 0 0 1-3.06-3.064 3.071 3.071 0 0 1 3.06-3.064c1.708.025 3.059 1.379 3.059 3.064Z" fill="url(#du)" fill-opacity=".3"/><path d="M675.157 345.388a3.071 3.071 0 0 1-3.06 3.064 3.071 3.071 0 0 1-3.06-3.064 3.071 3.071 0 0 1 3.06-3.064c1.683.025 3.06 1.379 3.06 3.064Z" fill="url(#dv)" fill-opacity=".3"/><path d="M710.293 345.388a3.07 3.07 0 0 1-3.059 3.064 3.071 3.071 0 0 1-3.06-3.064 3.071 3.071 0 0 1 3.06-3.064c1.682.025 3.059 1.379 3.059 3.064Z" fill="url(#dw)" fill-opacity=".3"/><path d="M4.432 382.894c1.69 0 3.06-1.372 3.06-3.064a3.061 3.061 0 0 0-3.06-3.063 3.061 3.061 0 0 0-3.06 3.063 3.062 3.062 0 0 0 3.06 3.064Z" fill="url(#dx)" fill-opacity=".3"/><path d="M39.568 382.894c1.69 0 3.06-1.372 3.06-3.064a3.061 3.061 0 0 0-3.06-3.063 3.061 3.061 0 0 0-3.06 3.063 3.062 3.062 0 0 0 3.06 3.064Z" fill="url(#dy)" fill-opacity=".3"/><path d="M77.764 379.83a3.07 3.07 0 0 1-3.06 3.064 3.071 3.071 0 0 1-3.06-3.064 3.07 3.07 0 0 1 3.06-3.063 3.054 3.054 0 0 1 3.06 3.063Z" fill="url(#dz)" fill-opacity=".3"/><path d="M109.841 382.894a3.061 3.061 0 0 0 3.059-3.064 3.06 3.06 0 1 0-6.119 0 3.062 3.062 0 0 0 3.06 3.064Z" fill="url(#dA)" fill-opacity=".3"/><path d="M144.977 382.894c1.69 0 3.06-1.372 3.06-3.064a3.061 3.061 0 0 0-3.06-3.063 3.061 3.061 0 0 0-3.06 3.063 3.062 3.062 0 0 0 3.06 3.064Z" fill="url(#dB)" fill-opacity=".3"/><path d="M180.113 382.894c1.69 0 3.06-1.372 3.06-3.064a3.061 3.061 0 0 0-3.06-3.063 3.061 3.061 0 0 0-3.06 3.063 3.062 3.062 0 0 0 3.06 3.064Z" fill="url(#dC)" fill-opacity=".3"/><path d="M215.275 382.894c1.69 0 3.06-1.372 3.06-3.064a3.061 3.061 0 0 0-3.06-3.063 3.061 3.061 0 0 0-3.06 3.063 3.062 3.062 0 0 0 3.06 3.064Z" fill="url(#dD)" fill-opacity=".3"/><path d="M250.411 382.894c1.69 0 3.06-1.372 3.06-3.064a3.061 3.061 0 0 0-3.06-3.063 3.061 3.061 0 0 0-3.06 3.063 3.062 3.062 0 0 0 3.06 3.064Z" fill="url(#dE)" fill-opacity=".3"/><path d="M285.548 382.894a3.062 3.062 0 0 0 3.059-3.064 3.061 3.061 0 0 0-3.059-3.063 3.061 3.061 0 0 0-3.06 3.063 3.062 3.062 0 0 0 3.06 3.064Z" fill="url(#dF)" fill-opacity=".3"/><path d="M323.743 379.83a3.07 3.07 0 0 1-3.059 3.064 3.071 3.071 0 0 1-3.06-3.064 3.07 3.07 0 0 1 3.06-3.063 3.053 3.053 0 0 1 3.059 3.063Z" fill="url(#dG)" fill-opacity=".3"/><path d="M355.82 382.894c1.69 0 3.06-1.372 3.06-3.064a3.061 3.061 0 0 0-3.06-3.063 3.061 3.061 0 0 0-3.06 3.063 3.062 3.062 0 0 0 3.06 3.064Z" fill="url(#dH)" fill-opacity=".3"/><path d="M390.956 382.894c1.69 0 3.06-1.372 3.06-3.064a3.061 3.061 0 0 0-3.06-3.063 3.061 3.061 0 0 0-3.06 3.063 3.062 3.062 0 0 0 3.06 3.064Z" fill="url(#dI)" fill-opacity=".3"/><path d="M426.118 382.894c1.69 0 3.06-1.372 3.06-3.064a3.061 3.061 0 0 0-3.06-3.063 3.061 3.061 0 0 0-3.06 3.063 3.062 3.062 0 0 0 3.06 3.064Z" fill="url(#dJ)" fill-opacity=".3"/><path d="M461.254 382.894c1.69 0 3.06-1.372 3.06-3.064a3.061 3.061 0 0 0-3.06-3.063 3.061 3.061 0 0 0-3.06 3.063 3.062 3.062 0 0 0 3.06 3.064Z" fill="url(#dK)" fill-opacity=".3"/><path d="M496.391 382.894a3.062 3.062 0 0 0 3.059-3.064 3.061 3.061 0 0 0-3.059-3.063 3.061 3.061 0 0 0-3.06 3.063 3.062 3.062 0 0 0 3.06 3.064Z" fill="url(#dL)" fill-opacity=".3"/><path d="M531.527 382.894c1.69 0 3.06-1.372 3.06-3.064a3.061 3.061 0 0 0-3.06-3.063 3.061 3.061 0 0 0-3.06 3.063 3.062 3.062 0 0 0 3.06 3.064Z" fill="url(#dM)" fill-opacity=".3"/><path d="M566.663 382.894c1.69 0 3.06-1.372 3.06-3.064a3.061 3.061 0 0 0-3.06-3.063 3.061 3.061 0 0 0-3.06 3.063 3.062 3.062 0 0 0 3.06 3.064Z" fill="url(#dN)" fill-opacity=".3"/><path d="M601.799 382.894c1.69 0 3.06-1.372 3.06-3.064a3.06 3.06 0 1 0-6.119 0 3.061 3.061 0 0 0 3.059 3.064Z" fill="url(#dO)" fill-opacity=".3"/><path d="M639.995 379.83a3.07 3.07 0 0 1-3.059 3.064 3.071 3.071 0 0 1-3.06-3.064 3.07 3.07 0 0 1 3.06-3.063 3.038 3.038 0 0 1 3.059 3.063Z" fill="url(#dP)" fill-opacity=".3"/><path d="M672.097 382.894c1.69 0 3.06-1.372 3.06-3.064a3.061 3.061 0 0 0-3.06-3.063 3.061 3.061 0 0 0-3.06 3.063 3.062 3.062 0 0 0 3.06 3.064Z" fill="url(#dQ)" fill-opacity=".3"/><path d="M707.234 382.894a3.062 3.062 0 0 0 3.059-3.064 3.061 3.061 0 0 0-3.059-3.063 3.061 3.061 0 0 0-3.06 3.063 3.062 3.062 0 0 0 3.06 3.064Z" fill="url(#dR)" fill-opacity=".3"/><defs><linearGradient id="a" x1="1.372" y1="-1.899" x2="7.849" y2="-1.495" gradientUnits="userSpaceOnUse"><stop stop-color="#81BD92"/><stop offset="1" stop-color="#BEF8CE"/></linearGradient><linearGradient id="b" x1="36.508" y1="-1.899" x2="42.985" y2="-1.495" gradientUnits="userSpaceOnUse"><stop stop-color="#81BD92"/><stop offset="1" stop-color="#BEF8CE"/></linearGradient><linearGradient id="c" x1="71.645" y1="-1.899" x2="78.121" y2="-1.495" gradientUnits="userSpaceOnUse"><stop stop-color="#81BD92"/><stop offset="1" stop-color="#BEF8CE"/></linearGradient><linearGradient id="d" x1="106.781" y1="-1.899" x2="113.258" y2="-1.495" gradientUnits="userSpaceOnUse"><stop stop-color="#81BD92"/><stop offset="1" stop-color="#BEF8CE"/></linearGradient><linearGradient id="e" x1="141.917" y1="-1.899" x2="148.394" y2="-1.495" gradientUnits="userSpaceOnUse"><stop stop-color="#81BD92"/><stop offset="1" stop-color="#BEF8CE"/></linearGradient><linearGradient id="f" x1="177.053" y1="-1.899" x2="183.53" y2="-1.495" gradientUnits="userSpaceOnUse"><stop stop-color="#81BD92"/><stop offset="1" stop-color="#BEF8CE"/></linearGradient><linearGradient id="g" x1="212.215" y1="-1.899" x2="218.692" y2="-1.495" gradientUnits="userSpaceOnUse"><stop stop-color="#81BD92"/><stop offset="1" stop-color="#BEF8CE"/></linearGradient><linearGradient id="h" x1="247.351" y1="-1.899" x2="253.828" y2="-1.495" gradientUnits="userSpaceOnUse"><stop stop-color="#81BD92"/><stop offset="1" stop-color="#BEF8CE"/></linearGradient><linearGradient id="i" x1="282.488" y1="-1.899" x2="288.964" y2="-1.495" gradientUnits="userSpaceOnUse"><stop stop-color="#81BD92"/><stop offset="1" stop-color="#BEF8CE"/></linearGradient><linearGradient id="j" x1="317.624" y1="-1.899" x2="324.101" y2="-1.495" gradientUnits="userSpaceOnUse"><stop stop-color="#81BD92"/><stop offset="1" stop-color="#BEF8CE"/></linearGradient><linearGradient id="k" x1="352.76" y1="-1.899" x2="359.237" y2="-1.495" gradientUnits="userSpaceOnUse"><stop stop-color="#81BD92"/><stop offset="1" stop-color="#BEF8CE"/></linearGradient><linearGradient id="l" x1="387.896" y1="-1.899" x2="394.373" y2="-1.495" gradientUnits="userSpaceOnUse"><stop stop-color="#81BD92"/><stop offset="1" stop-color="#BEF8CE"/></linearGradient><linearGradient id="m" x1="423.058" y1="-1.899" x2="429.535" y2="-1.495" gradientUnits="userSpaceOnUse"><stop stop-color="#81BD92"/><stop offset="1" stop-color="#BEF8CE"/></linearGradient><linearGradient id="n" x1="458.194" y1="-1.899" x2="464.671" y2="-1.495" gradientUnits="userSpaceOnUse"><stop stop-color="#81BD92"/><stop offset="1" stop-color="#BEF8CE"/></linearGradient><linearGradient id="o" x1="493.331" y1="-1.899" x2="499.807" y2="-1.495" gradientUnits="userSpaceOnUse"><stop stop-color="#81BD92"/><stop offset="1" stop-color="#BEF8CE"/></linearGradient><linearGradient id="p" x1="528.467" y1="-1.899" x2="534.944" y2="-1.495" gradientUnits="userSpaceOnUse"><stop stop-color="#81BD92"/><stop offset="1" stop-color="#BEF8CE"/></linearGradient><linearGradient id="q" x1="563.603" y1="-1.899" x2="570.08" y2="-1.495" gradientUnits="userSpaceOnUse"><stop stop-color="#81BD92"/><stop offset="1" stop-color="#BEF8CE"/></linearGradient><linearGradient id="r" x1="598.74" y1="-1.899" x2="605.216" y2="-1.495" gradientUnits="userSpaceOnUse"><stop stop-color="#81BD92"/><stop offset="1" stop-color="#BEF8CE"/></linearGradient><linearGradient id="s" x1="633.876" y1="-1.899" x2="640.352" y2="-1.495" gradientUnits="userSpaceOnUse"><stop stop-color="#81BD92"/><stop offset="1" stop-color="#BEF8CE"/></linearGradient><linearGradient id="t" x1="669.037" y1="-1.899" x2="675.514" y2="-1.495" gradientUnits="userSpaceOnUse"><stop stop-color="#81BD92"/><stop offset="1" stop-color="#BEF8CE"/></linearGradient><linearGradient id="u" x1="704.174" y1="-1.899" x2="710.65" y2="-1.495" gradientUnits="userSpaceOnUse"><stop stop-color="#81BD92"/><stop offset="1" stop-color="#BEF8CE"/></linearGradient><linearGradient id="v" x1="1.372" y1="32.544" x2="7.849" y2="32.948" gradientUnits="userSpaceOnUse"><stop stop-color="#81BD92"/><stop offset="1" stop-color="#BEF8CE"/></linearGradient><linearGradient id="w" x1="36.508" y1="32.544" x2="42.985" y2="32.948" gradientUnits="userSpaceOnUse"><stop stop-color="#81BD92"/><stop offset="1" stop-color="#BEF8CE"/></linearGradient><linearGradient id="x" x1="71.645" y1="32.544" x2="78.121" y2="32.948" gradientUnits="userSpaceOnUse"><stop stop-color="#81BD92"/><stop offset="1" stop-color="#BEF8CE"/></linearGradient><linearGradient id="y" x1="106.781" y1="32.544" x2="113.258" y2="32.948" gradientUnits="userSpaceOnUse"><stop stop-color="#81BD92"/><stop offset="1" stop-color="#BEF8CE"/></linearGradient><linearGradient id="z" x1="141.917" y1="32.544" x2="148.394" y2="32.948" gradientUnits="userSpaceOnUse"><stop stop-color="#81BD92"/><stop offset="1" stop-color="#BEF8CE"/></linearGradient><linearGradient id="A" x1="177.053" y1="32.544" x2="183.53" y2="32.948" gradientUnits="userSpaceOnUse"><stop stop-color="#81BD92"/><stop offset="1" stop-color="#BEF8CE"/></linearGradient><linearGradient id="B" x1="212.215" y1="32.544" x2="218.692" y2="32.948" gradientUnits="userSpaceOnUse"><stop stop-color="#81BD92"/><stop offset="1" stop-color="#BEF8CE"/></linearGradient><linearGradient id="C" x1="247.351" y1="32.544" x2="253.828" y2="32.948" gradientUnits="userSpaceOnUse"><stop stop-color="#81BD92"/><stop offset="1" stop-color="#BEF8CE"/></linearGradient><linearGradient id="D" x1="282.488" y1="32.544" x2="288.964" y2="32.948" gradientUnits="userSpaceOnUse"><stop stop-color="#81BD92"/><stop offset="1" stop-color="#BEF8CE"/></linearGradient><linearGradient id="E" x1="317.624" y1="32.544" x2="324.101" y2="32.948" gradientUnits="userSpaceOnUse"><stop stop-color="#81BD92"/><stop offset="1" stop-color="#BEF8CE"/></linearGradient><linearGradient id="F" x1="352.76" y1="32.544" x2="359.237" y2="32.948" gradientUnits="userSpaceOnUse"><stop stop-color="#81BD92"/><stop offset="1" stop-color="#BEF8CE"/></linearGradient><linearGradient id="G" x1="387.896" y1="32.544" x2="394.373" y2="32.948" gradientUnits="userSpaceOnUse"><stop stop-color="#81BD92"/><stop offset="1" stop-color="#BEF8CE"/></linearGradient><linearGradient id="H" x1="423.058" y1="32.544" x2="429.535" y2="32.948" gradientUnits="userSpaceOnUse"><stop stop-color="#81BD92"/><stop offset="1" stop-color="#BEF8CE"/></linearGradient><linearGradient id="I" x1="458.194" y1="32.544" x2="464.671" y2="32.948" gradientUnits="userSpaceOnUse"><stop stop-color="#81BD92"/><stop offset="1" stop-color="#BEF8CE"/></linearGradient><linearGradient id="J" x1="493.331" y1="32.544" x2="499.807" y2="32.948" gradientUnits="userSpaceOnUse"><stop stop-color="#81BD92"/><stop offset="1" stop-color="#BEF8CE"/></linearGradient><linearGradient id="K" x1="528.467" y1="32.544" x2="534.944" y2="32.948" gradientUnits="userSpaceOnUse"><stop stop-color="#81BD92"/><stop offset="1" stop-color="#BEF8CE"/></linearGradient><linearGradient id="L" x1="563.603" y1="32.544" x2="570.08" y2="32.948" gradientUnits="userSpaceOnUse"><stop stop-color="#81BD92"/><stop offset="1" stop-color="#BEF8CE"/></linearGradient><linearGradient id="M" x1="598.74" y1="32.544" x2="605.216" y2="32.948" gradientUnits="userSpaceOnUse"><stop stop-color="#81BD92"/><stop offset="1" stop-color="#BEF8CE"/></linearGradient><linearGradient id="N" x1="633.876" y1="32.544" x2="640.352" y2="32.948" gradientUnits="userSpaceOnUse"><stop stop-color="#81BD92"/><stop offset="1" stop-color="#BEF8CE"/></linearGradient><linearGradient id="O" x1="669.037" y1="32.544" x2="675.514" y2="32.948" gradientUnits="userSpaceOnUse"><stop stop-color="#81BD92"/><stop offset="1" stop-color="#BEF8CE"/></linearGradient><linearGradient id="P" x1="704.174" y1="32.544" x2="710.65" y2="32.948" gradientUnits="userSpaceOnUse"><stop stop-color="#81BD92"/><stop offset="1" stop-color="#BEF8CE"/></linearGradient><linearGradient id="Q" x1="1.372" y1="66.961" x2="7.849" y2="67.365" gradientUnits="userSpaceOnUse"><stop stop-color="#81BD92"/><stop offset="1" stop-color="#BEF8CE"/></linearGradient><linearGradient id="R" x1="36.508" y1="66.961" x2="42.985" y2="67.365" gradientUnits="userSpaceOnUse"><stop stop-color="#81BD92"/><stop offset="1" stop-color="#BEF8CE"/></linearGradient><linearGradient id="S" x1="71.645" y1="66.961" x2="78.121" y2="67.365" gradientUnits="userSpaceOnUse"><stop stop-color="#81BD92"/><stop offset="1" stop-color="#BEF8CE"/></linearGradient><linearGradient id="T" x1="106.781" y1="66.961" x2="113.258" y2="67.365" gradientUnits="userSpaceOnUse"><stop stop-color="#81BD92"/><stop offset="1" stop-color="#BEF8CE"/></linearGradient><linearGradient id="U" x1="141.917" y1="66.961" x2="148.394" y2="67.365" gradientUnits="userSpaceOnUse"><stop stop-color="#81BD92"/><stop offset="1" stop-color="#BEF8CE"/></linearGradient><linearGradient id="V" x1="177.053" y1="66.961" x2="183.53" y2="67.365" gradientUnits="userSpaceOnUse"><stop stop-color="#81BD92"/><stop offset="1" stop-color="#BEF8CE"/></linearGradient><linearGradient id="W" x1="212.215" y1="66.961" x2="218.692" y2="67.365" gradientUnits="userSpaceOnUse"><stop stop-color="#81BD92"/><stop offset="1" stop-color="#BEF8CE"/></linearGradient><linearGradient id="X" x1="247.351" y1="66.961" x2="253.828" y2="67.365" gradientUnits="userSpaceOnUse"><stop stop-color="#81BD92"/><stop offset="1" stop-color="#BEF8CE"/></linearGradient><linearGradient id="Y" x1="282.488" y1="66.961" x2="288.964" y2="67.365" gradientUnits="userSpaceOnUse"><stop stop-color="#81BD92"/><stop offset="1" stop-color="#BEF8CE"/></linearGradient><linearGradient id="Z" x1="317.624" y1="66.961" x2="324.101" y2="67.365" gradientUnits="userSpaceOnUse"><stop stop-color="#81BD92"/><stop offset="1" stop-color="#BEF8CE"/></linearGradient><linearGradient id="aa" x1="352.76" y1="66.961" x2="359.237" y2="67.365" gradientUnits="userSpaceOnUse"><stop stop-color="#81BD92"/><stop offset="1" stop-color="#BEF8CE"/></linearGradient><linearGradient id="ab" x1="387.896" y1="66.961" x2="394.373" y2="67.365" gradientUnits="userSpaceOnUse"><stop stop-color="#81BD92"/><stop offset="1" stop-color="#BEF8CE"/></linearGradient><linearGradient id="ac" x1="423.058" y1="66.961" x2="429.535" y2="67.365" gradientUnits="userSpaceOnUse"><stop stop-color="#81BD92"/><stop offset="1" stop-color="#BEF8CE"/></linearGradient><linearGradient id="ad" x1="458.194" y1="66.961" x2="464.671" y2="67.365" gradientUnits="userSpaceOnUse"><stop stop-color="#81BD92"/><stop offset="1" stop-color="#BEF8CE"/></linearGradient><linearGradient id="ae" x1="493.331" y1="66.961" x2="499.807" y2="67.365" gradientUnits="userSpaceOnUse"><stop stop-color="#81BD92"/><stop offset="1" stop-color="#BEF8CE"/></linearGradient><linearGradient id="af" x1="528.467" y1="66.961" x2="534.944" y2="67.365" gradientUnits="userSpaceOnUse"><stop stop-color="#81BD92"/><stop offset="1" stop-color="#BEF8CE"/></linearGradient><linearGradient id="ag" x1="563.603" y1="66.961" x2="570.08" y2="67.365" gradientUnits="userSpaceOnUse"><stop stop-color="#81BD92"/><stop offset="1" stop-color="#BEF8CE"/></linearGradient><linearGradient id="ah" x1="598.74" y1="66.961" x2="605.216" y2="67.365" gradientUnits="userSpaceOnUse"><stop stop-color="#81BD92"/><stop offset="1" stop-color="#BEF8CE"/></linearGradient><linearGradient id="ai" x1="633.876" y1="66.961" x2="640.352" y2="67.365" gradientUnits="userSpaceOnUse"><stop stop-color="#81BD92"/><stop offset="1" stop-color="#BEF8CE"/></linearGradient><linearGradient id="aj" x1="669.037" y1="66.961" x2="675.514" y2="67.365" gradientUnits="userSpaceOnUse"><stop stop-color="#81BD92"/><stop offset="1" stop-color="#BEF8CE"/></linearGradient><linearGradient id="ak" x1="704.174" y1="66.961" x2="710.65" y2="67.365" gradientUnits="userSpaceOnUse"><stop stop-color="#81BD92"/><stop offset="1" stop-color="#BEF8CE"/></linearGradient><linearGradient id="al" x1="1.372" y1="101.378" x2="7.849" y2="101.782" gradientUnits="userSpaceOnUse"><stop stop-color="#81BD92"/><stop offset="1" stop-color="#BEF8CE"/></linearGradient><linearGradient id="am" x1="36.508" y1="101.378" x2="42.985" y2="101.782" gradientUnits="userSpaceOnUse"><stop stop-color="#81BD92"/><stop offset="1" stop-color="#BEF8CE"/></linearGradient><linearGradient id="an" x1="71.645" y1="101.378" x2="78.121" y2="101.782" gradientUnits="userSpaceOnUse"><stop stop-color="#81BD92"/><stop offset="1" stop-color="#BEF8CE"/></linearGradient><linearGradient id="ao" x1="106.781" y1="101.378" x2="113.258" y2="101.782" gradientUnits="userSpaceOnUse"><stop stop-color="#81BD92"/><stop offset="1" stop-color="#BEF8CE"/></linearGradient><linearGradient id="ap" x1="141.917" y1="101.378" x2="148.394" y2="101.782" gradientUnits="userSpaceOnUse"><stop stop-color="#81BD92"/><stop offset="1" stop-color="#BEF8CE"/></linearGradient><linearGradient id="aq" x1="177.053" y1="101.378" x2="183.53" y2="101.782" gradientUnits="userSpaceOnUse"><stop stop-color="#81BD92"/><stop offset="1" stop-color="#BEF8CE"/></linearGradient><linearGradient id="ar" x1="212.215" y1="101.378" x2="218.692" y2="101.782" gradientUnits="userSpaceOnUse"><stop stop-color="#81BD92"/><stop offset="1" stop-color="#BEF8CE"/></linearGradient><linearGradient id="as" x1="247.351" y1="101.378" x2="253.828" y2="101.782" gradientUnits="userSpaceOnUse"><stop stop-color="#81BD92"/><stop offset="1" stop-color="#BEF8CE"/></linearGradient><linearGradient id="at" x1="282.488" y1="101.378" x2="288.964" y2="101.782" gradientUnits="userSpaceOnUse"><stop stop-color="#81BD92"/><stop offset="1" stop-color="#BEF8CE"/></linearGradient><linearGradient id="au" x1="317.624" y1="101.378" x2="324.101" y2="101.782" gradientUnits="userSpaceOnUse"><stop stop-color="#81BD92"/><stop offset="1" stop-color="#BEF8CE"/></linearGradient><linearGradient id="av" x1="352.76" y1="101.378" x2="359.237" y2="101.782" gradientUnits="userSpaceOnUse"><stop stop-color="#81BD92"/><stop offset="1" stop-color="#BEF8CE"/></linearGradient><linearGradient id="aw" x1="387.896" y1="101.378" x2="394.373" y2="101.782" gradientUnits="userSpaceOnUse"><stop stop-color="#81BD92"/><stop offset="1" stop-color="#BEF8CE"/></linearGradient><linearGradient id="ax" x1="423.058" y1="101.378" x2="429.535" y2="101.782" gradientUnits="userSpaceOnUse"><stop stop-color="#81BD92"/><stop offset="1" stop-color="#BEF8CE"/></linearGradient><linearGradient id="ay" x1="458.194" y1="101.378" x2="464.671" y2="101.782" gradientUnits="userSpaceOnUse"><stop stop-color="#81BD92"/><stop offset="1" stop-color="#BEF8CE"/></linearGradient><linearGradient id="az" x1="493.331" y1="101.378" x2="499.807" y2="101.782" gradientUnits="userSpaceOnUse"><stop stop-color="#81BD92"/><stop offset="1" stop-color="#BEF8CE"/></linearGradient><linearGradient id="aA" x1="528.467" y1="101.378" x2="534.944" y2="101.782" gradientUnits="userSpaceOnUse"><stop stop-color="#81BD92"/><stop offset="1" stop-color="#BEF8CE"/></linearGradient><linearGradient id="aB" x1="563.603" y1="101.378" x2="570.08" y2="101.782" gradientUnits="userSpaceOnUse"><stop stop-color="#81BD92"/><stop offset="1" stop-color="#BEF8CE"/></linearGradient><linearGradient id="aC" x1="598.74" y1="101.378" x2="605.216" y2="101.782" gradientUnits="userSpaceOnUse"><stop stop-color="#81BD92"/><stop offset="1" stop-color="#BEF8CE"/></linearGradient><linearGradient id="aD" x1="633.876" y1="101.378" x2="640.352" y2="101.782" gradientUnits="userSpaceOnUse"><stop stop-color="#81BD92"/><stop offset="1" stop-color="#BEF8CE"/></linearGradient><linearGradient id="aE" x1="669.037" y1="101.378" x2="675.514" y2="101.782" gradientUnits="userSpaceOnUse"><stop stop-color="#81BD92"/><stop offset="1" stop-color="#BEF8CE"/></linearGradient><linearGradient id="aF" x1="704.174" y1="101.378" x2="710.65" y2="101.782" gradientUnits="userSpaceOnUse"><stop stop-color="#81BD92"/><stop offset="1" stop-color="#BEF8CE"/></linearGradient><linearGradient id="aG" x1="1.372" y1="135.795" x2="7.849" y2="136.199" gradientUnits="userSpaceOnUse"><stop stop-color="#81BD92"/><stop offset="1" stop-color="#BEF8CE"/></linearGradient><linearGradient id="aH" x1="36.508" y1="135.795" x2="42.985" y2="136.199" gradientUnits="userSpaceOnUse"><stop stop-color="#81BD92"/><stop offset="1" stop-color="#BEF8CE"/></linearGradient><linearGradient id="aI" x1="71.645" y1="135.795" x2="78.121" y2="136.199" gradientUnits="userSpaceOnUse"><stop stop-color="#81BD92"/><stop offset="1" stop-color="#BEF8CE"/></linearGradient><linearGradient id="aJ" x1="106.781" y1="135.795" x2="113.258" y2="136.199" gradientUnits="userSpaceOnUse"><stop stop-color="#81BD92"/><stop offset="1" stop-color="#BEF8CE"/></linearGradient><linearGradient id="aK" x1="141.917" y1="135.795" x2="148.394" y2="136.199" gradientUnits="userSpaceOnUse"><stop stop-color="#81BD92"/><stop offset="1" stop-color="#BEF8CE"/></linearGradient><linearGradient id="aL" x1="177.053" y1="135.795" x2="183.53" y2="136.199" gradientUnits="userSpaceOnUse"><stop stop-color="#81BD92"/><stop offset="1" stop-color="#BEF8CE"/></linearGradient><linearGradient id="aM" x1="212.215" y1="135.795" x2="218.692" y2="136.199" gradientUnits="userSpaceOnUse"><stop stop-color="#81BD92"/><stop offset="1" stop-color="#BEF8CE"/></linearGradient><linearGradient id="aN" x1="247.351" y1="135.795" x2="253.828" y2="136.199" gradientUnits="userSpaceOnUse"><stop stop-color="#81BD92"/><stop offset="1" stop-color="#BEF8CE"/></linearGradient><linearGradient id="aO" x1="282.488" y1="135.795" x2="288.964" y2="136.199" gradientUnits="userSpaceOnUse"><stop stop-color="#81BD92"/><stop offset="1" stop-color="#BEF8CE"/></linearGradient><linearGradient id="aP" x1="317.624" y1="135.795" x2="324.101" y2="136.199" gradientUnits="userSpaceOnUse"><stop stop-color="#81BD92"/><stop offset="1" stop-color="#BEF8CE"/></linearGradient><linearGradient id="aQ" x1="352.76" y1="135.795" x2="359.237" y2="136.199" gradientUnits="userSpaceOnUse"><stop stop-color="#81BD92"/><stop offset="1" stop-color="#BEF8CE"/></linearGradient><linearGradient id="aR" x1="387.896" y1="135.795" x2="394.373" y2="136.199" gradientUnits="userSpaceOnUse"><stop stop-color="#81BD92"/><stop offset="1" stop-color="#BEF8CE"/></linearGradient><linearGradient id="aS" x1="423.058" y1="135.795" x2="429.535" y2="136.199" gradientUnits="userSpaceOnUse"><stop stop-color="#81BD92"/><stop offset="1" stop-color="#BEF8CE"/></linearGradient><linearGradient id="aT" x1="458.194" y1="135.795" x2="464.671" y2="136.199" gradientUnits="userSpaceOnUse"><stop stop-color="#81BD92"/><stop offset="1" stop-color="#BEF8CE"/></linearGradient><linearGradient id="aU" x1="493.331" y1="135.795" x2="499.807" y2="136.199" gradientUnits="userSpaceOnUse"><stop stop-color="#81BD92"/><stop offset="1" stop-color="#BEF8CE"/></linearGradient><linearGradient id="aV" x1="528.467" y1="135.795" x2="534.944" y2="136.199" gradientUnits="userSpaceOnUse"><stop stop-color="#81BD92"/><stop offset="1" stop-color="#BEF8CE"/></linearGradient><linearGradient id="aW" x1="563.603" y1="135.795" x2="570.08" y2="136.199" gradientUnits="userSpaceOnUse"><stop stop-color="#81BD92"/><stop offset="1" stop-color="#BEF8CE"/></linearGradient><linearGradient id="aX" x1="598.74" y1="135.795" x2="605.216" y2="136.199" gradientUnits="userSpaceOnUse"><stop stop-color="#81BD92"/><stop offset="1" stop-color="#BEF8CE"/></linearGradient><linearGradient id="aY" x1="633.876" y1="135.795" x2="640.352" y2="136.199" gradientUnits="userSpaceOnUse"><stop stop-color="#81BD92"/><stop offset="1" stop-color="#BEF8CE"/></linearGradient><linearGradient id="aZ" x1="669.037" y1="135.795" x2="675.514" y2="136.199" gradientUnits="userSpaceOnUse"><stop stop-color="#81BD92"/><stop offset="1" stop-color="#BEF8CE"/></linearGradient><linearGradient id="ba" x1="704.174" y1="135.795" x2="710.65" y2="136.199" gradientUnits="userSpaceOnUse"><stop stop-color="#81BD92"/><stop offset="1" stop-color="#BEF8CE"/></linearGradient><linearGradient id="bb" x1="1.372" y1="170.212" x2="7.849" y2="170.617" gradientUnits="userSpaceOnUse"><stop stop-color="#81BD92"/><stop offset="1" stop-color="#BEF8CE"/></linearGradient><linearGradient id="bc" x1="36.508" y1="170.212" x2="42.985" y2="170.617" gradientUnits="userSpaceOnUse"><stop stop-color="#81BD92"/><stop offset="1" stop-color="#BEF8CE"/></linearGradient><linearGradient id="bd" x1="71.645" y1="170.212" x2="78.121" y2="170.617" gradientUnits="userSpaceOnUse"><stop stop-color="#81BD92"/><stop offset="1" stop-color="#BEF8CE"/></linearGradient><linearGradient id="be" x1="106.781" y1="170.212" x2="113.258" y2="170.617" gradientUnits="userSpaceOnUse"><stop stop-color="#81BD92"/><stop offset="1" stop-color="#BEF8CE"/></linearGradient><linearGradient id="bf" x1="141.917" y1="170.212" x2="148.394" y2="170.617" gradientUnits="userSpaceOnUse"><stop stop-color="#81BD92"/><stop offset="1" stop-color="#BEF8CE"/></linearGradient><linearGradient id="bg" x1="177.053" y1="170.212" x2="183.53" y2="170.617" gradientUnits="userSpaceOnUse"><stop stop-color="#81BD92"/><stop offset="1" stop-color="#BEF8CE"/></linearGradient><linearGradient id="bh" x1="212.215" y1="170.212" x2="218.692" y2="170.617" gradientUnits="userSpaceOnUse"><stop stop-color="#81BD92"/><stop offset="1" stop-color="#BEF8CE"/></linearGradient><linearGradient id="bi" x1="247.351" y1="170.212" x2="253.828" y2="170.617" gradientUnits="userSpaceOnUse"><stop stop-color="#81BD92"/><stop offset="1" stop-color="#BEF8CE"/></linearGradient><linearGradient id="bj" x1="282.488" y1="170.212" x2="288.964" y2="170.617" gradientUnits="userSpaceOnUse"><stop stop-color="#81BD92"/><stop offset="1" stop-color="#BEF8CE"/></linearGradient><linearGradient id="bk" x1="317.624" y1="170.212" x2="324.101" y2="170.617" gradientUnits="userSpaceOnUse"><stop stop-color="#81BD92"/><stop offset="1" stop-color="#BEF8CE"/></linearGradient><linearGradient id="bl" x1="352.76" y1="170.212" x2="359.237" y2="170.617" gradientUnits="userSpaceOnUse"><stop stop-color="#81BD92"/><stop offset="1" stop-color="#BEF8CE"/></linearGradient><linearGradient id="bm" x1="387.896" y1="170.212" x2="394.373" y2="170.617" gradientUnits="userSpaceOnUse"><stop stop-color="#81BD92"/><stop offset="1" stop-color="#BEF8CE"/></linearGradient><linearGradient id="bn" x1="423.058" y1="170.212" x2="429.535" y2="170.617" gradientUnits="userSpaceOnUse"><stop stop-color="#81BD92"/><stop offset="1" stop-color="#BEF8CE"/></linearGradient><linearGradient id="bo" x1="458.194" y1="170.212" x2="464.671" y2="170.617" gradientUnits="userSpaceOnUse"><stop stop-color="#81BD92"/><stop offset="1" stop-color="#BEF8CE"/></linearGradient><linearGradient id="bp" x1="493.331" y1="170.212" x2="499.807" y2="170.617" gradientUnits="userSpaceOnUse"><stop stop-color="#81BD92"/><stop offset="1" stop-color="#BEF8CE"/></linearGradient><linearGradient id="bq" x1="528.467" y1="170.212" x2="534.944" y2="170.617" gradientUnits="userSpaceOnUse"><stop stop-color="#81BD92"/><stop offset="1" stop-color="#BEF8CE"/></linearGradient><linearGradient id="br" x1="563.603" y1="170.212" x2="570.08" y2="170.617" gradientUnits="userSpaceOnUse"><stop stop-color="#81BD92"/><stop offset="1" stop-color="#BEF8CE"/></linearGradient><linearGradient id="bs" x1="598.74" y1="170.212" x2="605.216" y2="170.617" gradientUnits="userSpaceOnUse"><stop stop-color="#81BD92"/><stop offset="1" stop-color="#BEF8CE"/></linearGradient><linearGradient id="bt" x1="633.876" y1="170.212" x2="640.352" y2="170.617" gradientUnits="userSpaceOnUse"><stop stop-color="#81BD92"/><stop offset="1" stop-color="#BEF8CE"/></linearGradient><linearGradient id="bu" x1="669.037" y1="170.212" x2="675.514" y2="170.617" gradientUnits="userSpaceOnUse"><stop stop-color="#81BD92"/><stop offset="1" stop-color="#BEF8CE"/></linearGradient><linearGradient id="bv" x1="704.174" y1="170.212" x2="710.65" y2="170.617" gradientUnits="userSpaceOnUse"><stop stop-color="#81BD92"/><stop offset="1" stop-color="#BEF8CE"/></linearGradient><linearGradient id="bw" x1="1.372" y1="204.655" x2="7.849" y2="205.059" gradientUnits="userSpaceOnUse"><stop stop-color="#81BD92"/><stop offset="1" stop-color="#BEF8CE"/></linearGradient><linearGradient id="bx" x1="36.508" y1="204.655" x2="42.985" y2="205.059" gradientUnits="userSpaceOnUse"><stop stop-color="#81BD92"/><stop offset="1" stop-color="#BEF8CE"/></linearGradient><linearGradient id="by" x1="71.645" y1="204.655" x2="78.121" y2="205.059" gradientUnits="userSpaceOnUse"><stop stop-color="#81BD92"/><stop offset="1" stop-color="#BEF8CE"/></linearGradient><linearGradient id="bz" x1="106.781" y1="204.655" x2="113.258" y2="205.059" gradientUnits="userSpaceOnUse"><stop stop-color="#81BD92"/><stop offset="1" stop-color="#BEF8CE"/></linearGradient><linearGradient id="bA" x1="141.917" y1="204.655" x2="148.394" y2="205.059" gradientUnits="userSpaceOnUse"><stop stop-color="#81BD92"/><stop offset="1" stop-color="#BEF8CE"/></linearGradient><linearGradient id="bB" x1="177.053" y1="204.655" x2="183.53" y2="205.059" gradientUnits="userSpaceOnUse"><stop stop-color="#81BD92"/><stop offset="1" stop-color="#BEF8CE"/></linearGradient><linearGradient id="bC" x1="212.215" y1="204.655" x2="218.692" y2="205.059" gradientUnits="userSpaceOnUse"><stop stop-color="#81BD92"/><stop offset="1" stop-color="#BEF8CE"/></linearGradient><linearGradient id="bD" x1="247.351" y1="204.655" x2="253.828" y2="205.059" gradientUnits="userSpaceOnUse"><stop stop-color="#81BD92"/><stop offset="1" stop-color="#BEF8CE"/></linearGradient><linearGradient id="bE" x1="282.488" y1="204.655" x2="288.964" y2="205.059" gradientUnits="userSpaceOnUse"><stop stop-color="#81BD92"/><stop offset="1" stop-color="#BEF8CE"/></linearGradient><linearGradient id="bF" x1="317.624" y1="204.655" x2="324.101" y2="205.059" gradientUnits="userSpaceOnUse"><stop stop-color="#81BD92"/><stop offset="1" stop-color="#BEF8CE"/></linearGradient><linearGradient id="bG" x1="352.76" y1="204.655" x2="359.237" y2="205.059" gradientUnits="userSpaceOnUse"><stop stop-color="#81BD92"/><stop offset="1" stop-color="#BEF8CE"/></linearGradient><linearGradient id="bH" x1="387.896" y1="204.655" x2="394.373" y2="205.059" gradientUnits="userSpaceOnUse"><stop stop-color="#81BD92"/><stop offset="1" stop-color="#BEF8CE"/></linearGradient><linearGradient id="bI" x1="423.058" y1="204.655" x2="429.535" y2="205.059" gradientUnits="userSpaceOnUse"><stop stop-color="#81BD92"/><stop offset="1" stop-color="#BEF8CE"/></linearGradient><linearGradient id="bJ" x1="458.194" y1="204.655" x2="464.671" y2="205.059" gradientUnits="userSpaceOnUse"><stop stop-color="#81BD92"/><stop offset="1" stop-color="#BEF8CE"/></linearGradient><linearGradient id="bK" x1="493.331" y1="204.655" x2="499.807" y2="205.059" gradientUnits="userSpaceOnUse"><stop stop-color="#81BD92"/><stop offset="1" stop-color="#BEF8CE"/></linearGradient><linearGradient id="bL" x1="528.467" y1="204.655" x2="534.944" y2="205.059" gradientUnits="userSpaceOnUse"><stop stop-color="#81BD92"/><stop offset="1" stop-color="#BEF8CE"/></linearGradient><linearGradient id="bM" x1="563.603" y1="204.655" x2="570.08" y2="205.059" gradientUnits="userSpaceOnUse"><stop stop-color="#81BD92"/><stop offset="1" stop-color="#BEF8CE"/></linearGradient><linearGradient id="bN" x1="598.74" y1="204.655" x2="605.216" y2="205.059" gradientUnits="userSpaceOnUse"><stop stop-color="#81BD92"/><stop offset="1" stop-color="#BEF8CE"/></linearGradient><linearGradient id="bO" x1="633.876" y1="204.655" x2="640.352" y2="205.059" gradientUnits="userSpaceOnUse"><stop stop-color="#81BD92"/><stop offset="1" stop-color="#BEF8CE"/></linearGradient><linearGradient id="bP" x1="669.037" y1="204.655" x2="675.514" y2="205.059" gradientUnits="userSpaceOnUse"><stop stop-color="#81BD92"/><stop offset="1" stop-color="#BEF8CE"/></linearGradient><linearGradient id="bQ" x1="704.174" y1="204.655" x2="710.65" y2="205.059" gradientUnits="userSpaceOnUse"><stop stop-color="#81BD92"/><stop offset="1" stop-color="#BEF8CE"/></linearGradient><linearGradient id="bR" x1="1.372" y1="239.072" x2="7.849" y2="239.477" gradientUnits="userSpaceOnUse"><stop stop-color="#81BD92"/><stop offset="1" stop-color="#BEF8CE"/></linearGradient><linearGradient id="bS" x1="36.508" y1="239.072" x2="42.985" y2="239.477" gradientUnits="userSpaceOnUse"><stop stop-color="#81BD92"/><stop offset="1" stop-color="#BEF8CE"/></linearGradient><linearGradient id="bT" x1="71.645" y1="239.072" x2="78.121" y2="239.477" gradientUnits="userSpaceOnUse"><stop stop-color="#81BD92"/><stop offset="1" stop-color="#BEF8CE"/></linearGradient><linearGradient id="bU" x1="106.781" y1="239.072" x2="113.258" y2="239.477" gradientUnits="userSpaceOnUse"><stop stop-color="#81BD92"/><stop offset="1" stop-color="#BEF8CE"/></linearGradient><linearGradient id="bV" x1="141.917" y1="239.072" x2="148.394" y2="239.477" gradientUnits="userSpaceOnUse"><stop stop-color="#81BD92"/><stop offset="1" stop-color="#BEF8CE"/></linearGradient><linearGradient id="bW" x1="177.053" y1="239.072" x2="183.53" y2="239.477" gradientUnits="userSpaceOnUse"><stop stop-color="#81BD92"/><stop offset="1" stop-color="#BEF8CE"/></linearGradient><linearGradient id="bX" x1="212.215" y1="239.072" x2="218.692" y2="239.477" gradientUnits="userSpaceOnUse"><stop stop-color="#81BD92"/><stop offset="1" stop-color="#BEF8CE"/></linearGradient><linearGradient id="bY" x1="247.351" y1="239.072" x2="253.828" y2="239.477" gradientUnits="userSpaceOnUse"><stop stop-color="#81BD92"/><stop offset="1" stop-color="#BEF8CE"/></linearGradient><linearGradient id="bZ" x1="282.488" y1="239.072" x2="288.964" y2="239.477" gradientUnits="userSpaceOnUse"><stop stop-color="#81BD92"/><stop offset="1" stop-color="#BEF8CE"/></linearGradient><linearGradient id="ca" x1="317.624" y1="239.072" x2="324.101" y2="239.477" gradientUnits="userSpaceOnUse"><stop stop-color="#81BD92"/><stop offset="1" stop-color="#BEF8CE"/></linearGradient><linearGradient id="cb" x1="352.76" y1="239.072" x2="359.237" y2="239.477" gradientUnits="userSpaceOnUse"><stop stop-color="#81BD92"/><stop offset="1" stop-color="#BEF8CE"/></linearGradient><linearGradient id="cc" x1="387.896" y1="239.072" x2="394.373" y2="239.477" gradientUnits="userSpaceOnUse"><stop stop-color="#81BD92"/><stop offset="1" stop-color="#BEF8CE"/></linearGradient><linearGradient id="cd" x1="423.058" y1="239.072" x2="429.535" y2="239.477" gradientUnits="userSpaceOnUse"><stop stop-color="#81BD92"/><stop offset="1" stop-color="#BEF8CE"/></linearGradient><linearGradient id="ce" x1="458.194" y1="239.072" x2="464.671" y2="239.477" gradientUnits="userSpaceOnUse"><stop stop-color="#81BD92"/><stop offset="1" stop-color="#BEF8CE"/></linearGradient><linearGradient id="cf" x1="493.331" y1="239.072" x2="499.807" y2="239.477" gradientUnits="userSpaceOnUse"><stop stop-color="#81BD92"/><stop offset="1" stop-color="#BEF8CE"/></linearGradient><linearGradient id="cg" x1="528.467" y1="239.072" x2="534.944" y2="239.477" gradientUnits="userSpaceOnUse"><stop stop-color="#81BD92"/><stop offset="1" stop-color="#BEF8CE"/></linearGradient><linearGradient id="ch" x1="563.603" y1="239.072" x2="570.08" y2="239.477" gradientUnits="userSpaceOnUse"><stop stop-color="#81BD92"/><stop offset="1" stop-color="#BEF8CE"/></linearGradient><linearGradient id="ci" x1="598.74" y1="239.072" x2="605.216" y2="239.477" gradientUnits="userSpaceOnUse"><stop stop-color="#81BD92"/><stop offset="1" stop-color="#BEF8CE"/></linearGradient><linearGradient id="cj" x1="633.876" y1="239.072" x2="640.352" y2="239.477" gradientUnits="userSpaceOnUse"><stop stop-color="#81BD92"/><stop offset="1" stop-color="#BEF8CE"/></linearGradient><linearGradient id="ck" x1="669.037" y1="239.072" x2="675.514" y2="239.477" gradientUnits="userSpaceOnUse"><stop stop-color="#81BD92"/><stop offset="1" stop-color="#BEF8CE"/></linearGradient><linearGradient id="cl" x1="704.174" y1="239.072" x2="710.65" y2="239.477" gradientUnits="userSpaceOnUse"><stop stop-color="#81BD92"/><stop offset="1" stop-color="#BEF8CE"/></linearGradient><linearGradient id="cm" x1="1.372" y1="273.489" x2="7.849" y2="273.894" gradientUnits="userSpaceOnUse"><stop stop-color="#81BD92"/><stop offset="1" stop-color="#BEF8CE"/></linearGradient><linearGradient id="cn" x1="36.508" y1="273.489" x2="42.985" y2="273.894" gradientUnits="userSpaceOnUse"><stop stop-color="#81BD92"/><stop offset="1" stop-color="#BEF8CE"/></linearGradient><linearGradient id="co" x1="71.645" y1="273.489" x2="78.121" y2="273.894" gradientUnits="userSpaceOnUse"><stop stop-color="#81BD92"/><stop offset="1" stop-color="#BEF8CE"/></linearGradient><linearGradient id="cp" x1="106.781" y1="273.489" x2="113.258" y2="273.894" gradientUnits="userSpaceOnUse"><stop stop-color="#81BD92"/><stop offset="1" stop-color="#BEF8CE"/></linearGradient><linearGradient id="cq" x1="141.917" y1="273.489" x2="148.394" y2="273.894" gradientUnits="userSpaceOnUse"><stop stop-color="#81BD92"/><stop offset="1" stop-color="#BEF8CE"/></linearGradient><linearGradient id="cr" x1="177.053" y1="273.489" x2="183.53" y2="273.894" gradientUnits="userSpaceOnUse"><stop stop-color="#81BD92"/><stop offset="1" stop-color="#BEF8CE"/></linearGradient><linearGradient id="cs" x1="212.215" y1="273.489" x2="218.692" y2="273.894" gradientUnits="userSpaceOnUse"><stop stop-color="#81BD92"/><stop offset="1" stop-color="#BEF8CE"/></linearGradient><linearGradient id="ct" x1="247.351" y1="273.489" x2="253.828" y2="273.894" gradientUnits="userSpaceOnUse"><stop stop-color="#81BD92"/><stop offset="1" stop-color="#BEF8CE"/></linearGradient><linearGradient id="cu" x1="282.488" y1="273.489" x2="288.964" y2="273.894" gradientUnits="userSpaceOnUse"><stop stop-color="#81BD92"/><stop offset="1" stop-color="#BEF8CE"/></linearGradient><linearGradient id="cv" x1="317.624" y1="273.489" x2="324.101" y2="273.894" gradientUnits="userSpaceOnUse"><stop stop-color="#81BD92"/><stop offset="1" stop-color="#BEF8CE"/></linearGradient><linearGradient id="cw" x1="352.76" y1="273.489" x2="359.237" y2="273.894" gradientUnits="userSpaceOnUse"><stop stop-color="#81BD92"/><stop offset="1" stop-color="#BEF8CE"/></linearGradient><linearGradient id="cx" x1="387.896" y1="273.489" x2="394.373" y2="273.894" gradientUnits="userSpaceOnUse"><stop stop-color="#81BD92"/><stop offset="1" stop-color="#BEF8CE"/></linearGradient><linearGradient id="cy" x1="423.058" y1="273.489" x2="429.535" y2="273.894" gradientUnits="userSpaceOnUse"><stop stop-color="#81BD92"/><stop offset="1" stop-color="#BEF8CE"/></linearGradient><linearGradient id="cz" x1="458.194" y1="273.489" x2="464.671" y2="273.894" gradientUnits="userSpaceOnUse"><stop stop-color="#81BD92"/><stop offset="1" stop-color="#BEF8CE"/></linearGradient><linearGradient id="cA" x1="493.331" y1="273.489" x2="499.807" y2="273.894" gradientUnits="userSpaceOnUse"><stop stop-color="#81BD92"/><stop offset="1" stop-color="#BEF8CE"/></linearGradient><linearGradient id="cB" x1="528.467" y1="273.489" x2="534.944" y2="273.894" gradientUnits="userSpaceOnUse"><stop stop-color="#81BD92"/><stop offset="1" stop-color="#BEF8CE"/></linearGradient><linearGradient id="cC" x1="563.603" y1="273.489" x2="570.08" y2="273.894" gradientUnits="userSpaceOnUse"><stop stop-color="#81BD92"/><stop offset="1" stop-color="#BEF8CE"/></linearGradient><linearGradient id="cD" x1="598.74" y1="273.489" x2="605.216" y2="273.894" gradientUnits="userSpaceOnUse"><stop stop-color="#81BD92"/><stop offset="1" stop-color="#BEF8CE"/></linearGradient><linearGradient id="cE" x1="633.876" y1="273.489" x2="640.352" y2="273.894" gradientUnits="userSpaceOnUse"><stop stop-color="#81BD92"/><stop offset="1" stop-color="#BEF8CE"/></linearGradient><linearGradient id="cF" x1="669.037" y1="273.489" x2="675.514" y2="273.894" gradientUnits="userSpaceOnUse"><stop stop-color="#81BD92"/><stop offset="1" stop-color="#BEF8CE"/></linearGradient><linearGradient id="cG" x1="704.174" y1="273.489" x2="710.65" y2="273.894" gradientUnits="userSpaceOnUse"><stop stop-color="#81BD92"/><stop offset="1" stop-color="#BEF8CE"/></linearGradient><linearGradient id="cH" x1="1.372" y1="307.907" x2="7.849" y2="308.311" gradientUnits="userSpaceOnUse"><stop stop-color="#81BD92"/><stop offset="1" stop-color="#BEF8CE"/></linearGradient><linearGradient id="cI" x1="36.508" y1="307.907" x2="42.985" y2="308.311" gradientUnits="userSpaceOnUse"><stop stop-color="#81BD92"/><stop offset="1" stop-color="#BEF8CE"/></linearGradient><linearGradient id="cJ" x1="71.645" y1="307.907" x2="78.121" y2="308.311" gradientUnits="userSpaceOnUse"><stop stop-color="#81BD92"/><stop offset="1" stop-color="#BEF8CE"/></linearGradient><linearGradient id="cK" x1="106.781" y1="307.907" x2="113.258" y2="308.311" gradientUnits="userSpaceOnUse"><stop stop-color="#81BD92"/><stop offset="1" stop-color="#BEF8CE"/></linearGradient><linearGradient id="cL" x1="141.917" y1="307.907" x2="148.394" y2="308.311" gradientUnits="userSpaceOnUse"><stop stop-color="#81BD92"/><stop offset="1" stop-color="#BEF8CE"/></linearGradient><linearGradient id="cM" x1="177.053" y1="307.907" x2="183.53" y2="308.311" gradientUnits="userSpaceOnUse"><stop stop-color="#81BD92"/><stop offset="1" stop-color="#BEF8CE"/></linearGradient><linearGradient id="cN" x1="212.215" y1="307.907" x2="218.692" y2="308.311" gradientUnits="userSpaceOnUse"><stop stop-color="#81BD92"/><stop offset="1" stop-color="#BEF8CE"/></linearGradient><linearGradient id="cO" x1="247.351" y1="307.907" x2="253.828" y2="308.311" gradientUnits="userSpaceOnUse"><stop stop-color="#81BD92"/><stop offset="1" stop-color="#BEF8CE"/></linearGradient><linearGradient id="cP" x1="282.488" y1="307.907" x2="288.964" y2="308.311" gradientUnits="userSpaceOnUse"><stop stop-color="#81BD92"/><stop offset="1" stop-color="#BEF8CE"/></linearGradient><linearGradient id="cQ" x1="317.624" y1="307.907" x2="324.101" y2="308.311" gradientUnits="userSpaceOnUse"><stop stop-color="#81BD92"/><stop offset="1" stop-color="#BEF8CE"/></linearGradient><linearGradient id="cR" x1="352.76" y1="307.907" x2="359.237" y2="308.311" gradientUnits="userSpaceOnUse"><stop stop-color="#81BD92"/><stop offset="1" stop-color="#BEF8CE"/></linearGradient><linearGradient id="cS" x1="387.896" y1="307.907" x2="394.373" y2="308.311" gradientUnits="userSpaceOnUse"><stop stop-color="#81BD92"/><stop offset="1" stop-color="#BEF8CE"/></linearGradient><linearGradient id="cT" x1="423.058" y1="307.907" x2="429.535" y2="308.311" gradientUnits="userSpaceOnUse"><stop stop-color="#81BD92"/><stop offset="1" stop-color="#BEF8CE"/></linearGradient><linearGradient id="cU" x1="458.194" y1="307.907" x2="464.671" y2="308.311" gradientUnits="userSpaceOnUse"><stop stop-color="#81BD92"/><stop offset="1" stop-color="#BEF8CE"/></linearGradient><linearGradient id="cV" x1="493.331" y1="307.907" x2="499.807" y2="308.311" gradientUnits="userSpaceOnUse"><stop stop-color="#81BD92"/><stop offset="1" stop-color="#BEF8CE"/></linearGradient><linearGradient id="cW" x1="528.467" y1="307.907" x2="534.944" y2="308.311" gradientUnits="userSpaceOnUse"><stop stop-color="#81BD92"/><stop offset="1" stop-color="#BEF8CE"/></linearGradient><linearGradient id="cX" x1="563.603" y1="307.907" x2="570.08" y2="308.311" gradientUnits="userSpaceOnUse"><stop stop-color="#81BD92"/><stop offset="1" stop-color="#BEF8CE"/></linearGradient><linearGradient id="cY" x1="598.74" y1="307.907" x2="605.216" y2="308.311" gradientUnits="userSpaceOnUse"><stop stop-color="#81BD92"/><stop offset="1" stop-color="#BEF8CE"/></linearGradient><linearGradient id="cZ" x1="633.876" y1="307.907" x2="640.352" y2="308.311" gradientUnits="userSpaceOnUse"><stop stop-color="#81BD92"/><stop offset="1" stop-color="#BEF8CE"/></linearGradient><linearGradient id="da" x1="669.037" y1="307.907" x2="675.514" y2="308.311" gradientUnits="userSpaceOnUse"><stop stop-color="#81BD92"/><stop offset="1" stop-color="#BEF8CE"/></linearGradient><linearGradient id="db" x1="704.174" y1="307.907" x2="710.65" y2="308.311" gradientUnits="userSpaceOnUse"><stop stop-color="#81BD92"/><stop offset="1" stop-color="#BEF8CE"/></linearGradient><linearGradient id="dc" x1="1.372" y1="342.324" x2="7.849" y2="342.728" gradientUnits="userSpaceOnUse"><stop stop-color="#81BD92"/><stop offset="1" stop-color="#BEF8CE"/></linearGradient><linearGradient id="dd" x1="36.508" y1="342.324" x2="42.985" y2="342.728" gradientUnits="userSpaceOnUse"><stop stop-color="#81BD92"/><stop offset="1" stop-color="#BEF8CE"/></linearGradient><linearGradient id="de" x1="71.645" y1="342.324" x2="78.121" y2="342.728" gradientUnits="userSpaceOnUse"><stop stop-color="#81BD92"/><stop offset="1" stop-color="#BEF8CE"/></linearGradient><linearGradient id="df" x1="106.781" y1="342.324" x2="113.258" y2="342.728" gradientUnits="userSpaceOnUse"><stop stop-color="#81BD92"/><stop offset="1" stop-color="#BEF8CE"/></linearGradient><linearGradient id="dg" x1="141.917" y1="342.324" x2="148.394" y2="342.728" gradientUnits="userSpaceOnUse"><stop stop-color="#81BD92"/><stop offset="1" stop-color="#BEF8CE"/></linearGradient><linearGradient id="dh" x1="177.053" y1="342.324" x2="183.53" y2="342.728" gradientUnits="userSpaceOnUse"><stop stop-color="#81BD92"/><stop offset="1" stop-color="#BEF8CE"/></linearGradient><linearGradient id="di" x1="212.19" y1="342.324" x2="218.667" y2="342.728" gradientUnits="userSpaceOnUse"><stop stop-color="#81BD92"/><stop offset="1" stop-color="#BEF8CE"/></linearGradient><linearGradient id="dj" x1="247.351" y1="342.324" x2="253.828" y2="342.728" gradientUnits="userSpaceOnUse"><stop stop-color="#81BD92"/><stop offset="1" stop-color="#BEF8CE"/></linearGradient><linearGradient id="dk" x1="282.488" y1="342.324" x2="288.964" y2="342.728" gradientUnits="userSpaceOnUse"><stop stop-color="#81BD92"/><stop offset="1" stop-color="#BEF8CE"/></linearGradient><linearGradient id="dl" x1="317.624" y1="342.324" x2="324.101" y2="342.728" gradientUnits="userSpaceOnUse"><stop stop-color="#81BD92"/><stop offset="1" stop-color="#BEF8CE"/></linearGradient><linearGradient id="dm" x1="352.76" y1="342.324" x2="359.237" y2="342.728" gradientUnits="userSpaceOnUse"><stop stop-color="#81BD92"/><stop offset="1" stop-color="#BEF8CE"/></linearGradient><linearGradient id="dn" x1="387.896" y1="342.324" x2="394.373" y2="342.728" gradientUnits="userSpaceOnUse"><stop stop-color="#81BD92"/><stop offset="1" stop-color="#BEF8CE"/></linearGradient><linearGradient id="do" x1="423.033" y1="342.324" x2="429.51" y2="342.728" gradientUnits="userSpaceOnUse"><stop stop-color="#81BD92"/><stop offset="1" stop-color="#BEF8CE"/></linearGradient><linearGradient id="dp" x1="458.194" y1="342.324" x2="464.671" y2="342.728" gradientUnits="userSpaceOnUse"><stop stop-color="#81BD92"/><stop offset="1" stop-color="#BEF8CE"/></linearGradient><linearGradient id="dq" x1="493.331" y1="342.324" x2="499.807" y2="342.728" gradientUnits="userSpaceOnUse"><stop stop-color="#81BD92"/><stop offset="1" stop-color="#BEF8CE"/></linearGradient><linearGradient id="dr" x1="528.467" y1="342.324" x2="534.944" y2="342.728" gradientUnits="userSpaceOnUse"><stop stop-color="#81BD92"/><stop offset="1" stop-color="#BEF8CE"/></linearGradient><linearGradient id="ds" x1="563.603" y1="342.324" x2="570.08" y2="342.728" gradientUnits="userSpaceOnUse"><stop stop-color="#81BD92"/><stop offset="1" stop-color="#BEF8CE"/></linearGradient><linearGradient id="dt" x1="598.74" y1="342.324" x2="605.216" y2="342.728" gradientUnits="userSpaceOnUse"><stop stop-color="#81BD92"/><stop offset="1" stop-color="#BEF8CE"/></linearGradient><linearGradient id="du" x1="633.876" y1="342.324" x2="640.352" y2="342.728" gradientUnits="userSpaceOnUse"><stop stop-color="#81BD92"/><stop offset="1" stop-color="#BEF8CE"/></linearGradient><linearGradient id="dv" x1="669.037" y1="342.324" x2="675.514" y2="342.728" gradientUnits="userSpaceOnUse"><stop stop-color="#81BD92"/><stop offset="1" stop-color="#BEF8CE"/></linearGradient><linearGradient id="dw" x1="704.174" y1="342.324" x2="710.65" y2="342.728" gradientUnits="userSpaceOnUse"><stop stop-color="#81BD92"/><stop offset="1" stop-color="#BEF8CE"/></linearGradient><linearGradient id="dx" x1="1.372" y1="376.767" x2="7.849" y2="377.171" gradientUnits="userSpaceOnUse"><stop stop-color="#81BD92"/><stop offset="1" stop-color="#BEF8CE"/></linearGradient><linearGradient id="dy" x1="36.508" y1="376.767" x2="42.985" y2="377.171" gradientUnits="userSpaceOnUse"><stop stop-color="#81BD92"/><stop offset="1" stop-color="#BEF8CE"/></linearGradient><linearGradient id="dz" x1="71.645" y1="376.767" x2="78.121" y2="377.171" gradientUnits="userSpaceOnUse"><stop stop-color="#81BD92"/><stop offset="1" stop-color="#BEF8CE"/></linearGradient><linearGradient id="dA" x1="106.781" y1="376.767" x2="113.258" y2="377.171" gradientUnits="userSpaceOnUse"><stop stop-color="#81BD92"/><stop offset="1" stop-color="#BEF8CE"/></linearGradient><linearGradient id="dB" x1="141.917" y1="376.767" x2="148.394" y2="377.171" gradientUnits="userSpaceOnUse"><stop stop-color="#81BD92"/><stop offset="1" stop-color="#BEF8CE"/></linearGradient><linearGradient id="dC" x1="177.053" y1="376.767" x2="183.53" y2="377.171" gradientUnits="userSpaceOnUse"><stop stop-color="#81BD92"/><stop offset="1" stop-color="#BEF8CE"/></linearGradient><linearGradient id="dD" x1="212.215" y1="376.767" x2="218.692" y2="377.171" gradientUnits="userSpaceOnUse"><stop stop-color="#81BD92"/><stop offset="1" stop-color="#BEF8CE"/></linearGradient><linearGradient id="dE" x1="247.351" y1="376.767" x2="253.828" y2="377.171" gradientUnits="userSpaceOnUse"><stop stop-color="#81BD92"/><stop offset="1" stop-color="#BEF8CE"/></linearGradient><linearGradient id="dF" x1="282.488" y1="376.767" x2="288.964" y2="377.171" gradientUnits="userSpaceOnUse"><stop stop-color="#81BD92"/><stop offset="1" stop-color="#BEF8CE"/></linearGradient><linearGradient id="dG" x1="317.624" y1="376.767" x2="324.101" y2="377.171" gradientUnits="userSpaceOnUse"><stop stop-color="#81BD92"/><stop offset="1" stop-color="#BEF8CE"/></linearGradient><linearGradient id="dH" x1="352.76" y1="376.767" x2="359.237" y2="377.171" gradientUnits="userSpaceOnUse"><stop stop-color="#81BD92"/><stop offset="1" stop-color="#BEF8CE"/></linearGradient><linearGradient id="dI" x1="387.896" y1="376.767" x2="394.373" y2="377.171" gradientUnits="userSpaceOnUse"><stop stop-color="#81BD92"/><stop offset="1" stop-color="#BEF8CE"/></linearGradient><linearGradient id="dJ" x1="423.058" y1="376.767" x2="429.535" y2="377.171" gradientUnits="userSpaceOnUse"><stop stop-color="#81BD92"/><stop offset="1" stop-color="#BEF8CE"/></linearGradient><linearGradient id="dK" x1="458.194" y1="376.767" x2="464.671" y2="377.171" gradientUnits="userSpaceOnUse"><stop stop-color="#81BD92"/><stop offset="1" stop-color="#BEF8CE"/></linearGradient><linearGradient id="dL" x1="493.331" y1="376.767" x2="499.807" y2="377.171" gradientUnits="userSpaceOnUse"><stop stop-color="#81BD92"/><stop offset="1" stop-color="#BEF8CE"/></linearGradient><linearGradient id="dM" x1="528.467" y1="376.767" x2="534.944" y2="377.171" gradientUnits="userSpaceOnUse"><stop stop-color="#81BD92"/><stop offset="1" stop-color="#BEF8CE"/></linearGradient><linearGradient id="dN" x1="563.603" y1="376.767" x2="570.08" y2="377.171" gradientUnits="userSpaceOnUse"><stop stop-color="#81BD92"/><stop offset="1" stop-color="#BEF8CE"/></linearGradient><linearGradient id="dO" x1="598.74" y1="376.767" x2="605.216" y2="377.171" gradientUnits="userSpaceOnUse"><stop stop-color="#81BD92"/><stop offset="1" stop-color="#BEF8CE"/></linearGradient><linearGradient id="dP" x1="633.876" y1="376.767" x2="640.352" y2="377.171" gradientUnits="userSpaceOnUse"><stop stop-color="#81BD92"/><stop offset="1" stop-color="#BEF8CE"/></linearGradient><linearGradient id="dQ" x1="669.037" y1="376.767" x2="675.514" y2="377.171" gradientUnits="userSpaceOnUse"><stop stop-color="#81BD92"/><stop offset="1" stop-color="#BEF8CE"/></linearGradient><linearGradient id="dR" x1="704.174" y1="376.767" x2="710.65" y2="377.171" gradientUnits="userSpaceOnUse"><stop stop-color="#81BD92"/><stop offset="1" stop-color="#BEF8CE"/></linearGradient></defs></svg>