<svg width="468" height="282" fill="none" xmlns="http://www.w3.org/2000/svg"><path d="M8.069 6.232c1.69 0 3.06-1.372 3.06-3.064A3.062 3.062 0 0 0 8.068.104a3.062 3.062 0 0 0-3.06 3.064 3.062 3.062 0 0 0 3.06 3.064Z" fill="url(#a)" fill-opacity=".3"/><path d="M46.265 3.168a3.07 3.07 0 0 1-3.06 3.064 3.07 3.07 0 0 1-3.06-3.064 3.07 3.07 0 0 1 3.06-3.064 3.07 3.07 0 0 1 3.06 3.064Z" fill="url(#b)" fill-opacity=".3"/><path d="M78.341 6.232c1.69 0 3.06-1.372 3.06-3.064A3.062 3.062 0 0 0 78.34.104a3.062 3.062 0 0 0-3.06 3.064 3.062 3.062 0 0 0 3.06 3.064Z" fill="url(#c)" fill-opacity=".3"/><path d="M113.477 6.232c1.69 0 3.06-1.372 3.06-3.064a3.062 3.062 0 0 0-3.06-3.064 3.061 3.061 0 0 0-3.059 3.064 3.061 3.061 0 0 0 3.059 3.064Z" fill="url(#d)" fill-opacity=".3"/><path d="M148.614 6.232a3.062 3.062 0 0 0 3.059-3.064 3.062 3.062 0 0 0-3.059-3.064 3.062 3.062 0 0 0-3.06 3.064 3.062 3.062 0 0 0 3.06 3.064Z" fill="url(#e)" fill-opacity=".3"/><path d="M183.775 6.232c1.69 0 3.06-1.372 3.06-3.064a3.062 3.062 0 0 0-3.06-3.064 3.061 3.061 0 0 0-3.059 3.064 3.061 3.061 0 0 0 3.059 3.064Z" fill="url(#f)" fill-opacity=".3"/><path d="M218.912 6.232a3.062 3.062 0 0 0 3.059-3.064 3.062 3.062 0 0 0-3.059-3.064 3.062 3.062 0 0 0-3.06 3.064 3.062 3.062 0 0 0 3.06 3.064Z" fill="url(#g)" fill-opacity=".3"/><path d="M254.048 6.232c1.69 0 3.06-1.372 3.06-3.064a3.062 3.062 0 0 0-3.06-3.064 3.062 3.062 0 0 0-3.06 3.064 3.062 3.062 0 0 0 3.06 3.064Z" fill="url(#h)" fill-opacity=".3"/><path d="M289.184 6.232c1.69 0 3.06-1.372 3.06-3.064a3.062 3.062 0 0 0-3.06-3.064 3.062 3.062 0 0 0-3.06 3.064 3.062 3.062 0 0 0 3.06 3.064Z" fill="url(#i)" fill-opacity=".3"/><path d="M324.32 6.232c1.69 0 3.06-1.372 3.06-3.064a3.062 3.062 0 0 0-3.06-3.064 3.061 3.061 0 0 0-3.059 3.064 3.061 3.061 0 0 0 3.059 3.064Z" fill="url(#j)" fill-opacity=".3"/><path d="M359.457 6.232a3.062 3.062 0 0 0 3.059-3.064 3.062 3.062 0 0 0-3.059-3.064 3.062 3.062 0 0 0-3.06 3.064 3.062 3.062 0 0 0 3.06 3.064Z" fill="url(#k)" fill-opacity=".3"/><path d="M397.653 3.168a3.071 3.071 0 0 1-3.06 3.064 3.071 3.071 0 0 1-3.06-3.064 3.071 3.071 0 0 1 3.06-3.064 3.055 3.055 0 0 1 3.06 3.064Z" fill="url(#l)" fill-opacity=".3"/><path d="M429.755 6.232a3.062 3.062 0 0 0 3.059-3.064 3.062 3.062 0 0 0-3.059-3.064 3.062 3.062 0 0 0-3.06 3.064 3.062 3.062 0 0 0 3.06 3.064Z" fill="url(#m)" fill-opacity=".3"/><path d="M464.891 6.232c1.69 0 3.06-1.372 3.06-3.064a3.062 3.062 0 0 0-3.06-3.064 3.062 3.062 0 0 0-3.06 3.064 3.062 3.062 0 0 0 3.06 3.064Z" fill="url(#n)" fill-opacity=".3"/><path d="M8.069 40.649c1.69 0 3.06-1.372 3.06-3.064a3.062 3.062 0 0 0-3.06-3.064 3.062 3.062 0 0 0-3.06 3.064 3.062 3.062 0 0 0 3.06 3.064Z" fill="url(#o)" fill-opacity=".3"/><path d="M46.265 37.585a3.07 3.07 0 0 1-3.06 3.064 3.07 3.07 0 0 1-3.06-3.064 3.07 3.07 0 0 1 3.06-3.064c1.683.026 3.06 1.379 3.06 3.064Z" fill="url(#p)" fill-opacity=".3"/><path d="M78.341 40.649c1.69 0 3.06-1.372 3.06-3.064a3.062 3.062 0 0 0-3.06-3.064 3.062 3.062 0 0 0-3.06 3.064 3.062 3.062 0 0 0 3.06 3.064Z" fill="url(#q)" fill-opacity=".3"/><path d="M113.477 40.649c1.69 0 3.06-1.372 3.06-3.064a3.062 3.062 0 0 0-3.06-3.064 3.061 3.061 0 0 0-3.059 3.064 3.061 3.061 0 0 0 3.059 3.064Z" fill="url(#r)" fill-opacity=".3"/><path d="M148.614 40.649a3.062 3.062 0 0 0 3.059-3.064 3.062 3.062 0 0 0-3.059-3.064 3.062 3.062 0 0 0-3.06 3.064 3.062 3.062 0 0 0 3.06 3.064Z" fill="url(#s)" fill-opacity=".3"/><path d="M183.775 40.649c1.69 0 3.06-1.372 3.06-3.064a3.062 3.062 0 0 0-3.06-3.064 3.061 3.061 0 0 0-3.059 3.064 3.061 3.061 0 0 0 3.059 3.064Z" fill="url(#t)" fill-opacity=".3"/><path d="M218.912 40.649a3.062 3.062 0 0 0 3.059-3.064 3.062 3.062 0 0 0-3.059-3.064 3.062 3.062 0 0 0-3.06 3.064 3.062 3.062 0 0 0 3.06 3.064Z" fill="url(#u)" fill-opacity=".3"/><path d="M254.048 40.649c1.69 0 3.06-1.372 3.06-3.064a3.062 3.062 0 0 0-3.06-3.064 3.062 3.062 0 0 0-3.06 3.064 3.062 3.062 0 0 0 3.06 3.064Z" fill="url(#v)" fill-opacity=".3"/><path d="M289.184 40.649c1.69 0 3.06-1.372 3.06-3.064a3.062 3.062 0 0 0-3.06-3.064 3.062 3.062 0 0 0-3.06 3.064 3.062 3.062 0 0 0 3.06 3.064Z" fill="url(#w)" fill-opacity=".3"/><path d="M324.32 40.649c1.69 0 3.06-1.372 3.06-3.064a3.062 3.062 0 0 0-3.06-3.064 3.061 3.061 0 0 0-3.059 3.064 3.061 3.061 0 0 0 3.059 3.064Z" fill="url(#x)" fill-opacity=".3"/><path d="M359.457 40.649a3.062 3.062 0 0 0 3.059-3.064 3.062 3.062 0 0 0-3.059-3.064 3.062 3.062 0 0 0-3.06 3.064 3.062 3.062 0 0 0 3.06 3.064Z" fill="url(#y)" fill-opacity=".3"/><path d="M397.653 37.585a3.07 3.07 0 0 1-3.06 3.064 3.07 3.07 0 0 1-3.06-3.064 3.07 3.07 0 0 1 3.06-3.064c1.708.026 3.06 1.379 3.06 3.064Z" fill="url(#z)" fill-opacity=".3"/><path d="M429.755 40.649a3.062 3.062 0 0 0 3.059-3.064 3.062 3.062 0 0 0-3.059-3.064 3.062 3.062 0 0 0-3.06 3.064 3.062 3.062 0 0 0 3.06 3.064Z" fill="url(#A)" fill-opacity=".3"/><path d="M464.891 40.649c1.69 0 3.06-1.372 3.06-3.064a3.062 3.062 0 0 0-3.06-3.064 3.062 3.062 0 0 0-3.06 3.064 3.062 3.062 0 0 0 3.06 3.064Z" fill="url(#B)" fill-opacity=".3"/><path d="M8.069 75.092c1.69 0 3.06-1.372 3.06-3.064a3.062 3.062 0 0 0-3.06-3.064 3.062 3.062 0 0 0-3.06 3.064 3.062 3.062 0 0 0 3.06 3.064Z" fill="url(#C)" fill-opacity=".3"/><path d="M46.265 72.028a3.07 3.07 0 0 1-3.06 3.064 3.07 3.07 0 0 1-3.06-3.064 3.07 3.07 0 0 1 3.06-3.064 3.054 3.054 0 0 1 3.06 3.064Z" fill="url(#D)" fill-opacity=".3"/><path d="M78.341 75.092c1.69 0 3.06-1.372 3.06-3.064a3.062 3.062 0 0 0-3.06-3.064 3.062 3.062 0 0 0-3.06 3.064 3.062 3.062 0 0 0 3.06 3.064Z" fill="url(#E)" fill-opacity=".3"/><path d="M113.477 75.092c1.69 0 3.06-1.372 3.06-3.064a3.062 3.062 0 0 0-3.06-3.064 3.061 3.061 0 0 0-3.059 3.064 3.061 3.061 0 0 0 3.059 3.064Z" fill="url(#F)" fill-opacity=".3"/><path d="M148.614 75.092a3.062 3.062 0 0 0 3.059-3.064 3.062 3.062 0 0 0-3.059-3.064 3.062 3.062 0 0 0-3.06 3.064 3.062 3.062 0 0 0 3.06 3.064Z" fill="url(#G)" fill-opacity=".3"/><path d="M183.775 75.092c1.69 0 3.06-1.372 3.06-3.064a3.062 3.062 0 0 0-3.06-3.064 3.061 3.061 0 0 0-3.059 3.064 3.061 3.061 0 0 0 3.059 3.064Z" fill="url(#H)" fill-opacity=".3"/><path d="M218.912 75.092a3.062 3.062 0 0 0 3.059-3.064 3.062 3.062 0 0 0-3.059-3.064 3.062 3.062 0 0 0-3.06 3.064 3.062 3.062 0 0 0 3.06 3.064Z" fill="url(#I)" fill-opacity=".3"/><path d="M254.048 75.092c1.69 0 3.06-1.372 3.06-3.064a3.062 3.062 0 0 0-3.06-3.064 3.062 3.062 0 0 0-3.06 3.064 3.062 3.062 0 0 0 3.06 3.064Z" fill="url(#J)" fill-opacity=".3"/><path d="M289.184 75.092c1.69 0 3.06-1.372 3.06-3.064a3.062 3.062 0 0 0-3.06-3.064 3.062 3.062 0 0 0-3.06 3.064 3.062 3.062 0 0 0 3.06 3.064Z" fill="url(#K)" fill-opacity=".3"/><path d="M324.32 75.092c1.69 0 3.06-1.372 3.06-3.064a3.062 3.062 0 0 0-3.06-3.064 3.061 3.061 0 0 0-3.059 3.064 3.061 3.061 0 0 0 3.059 3.064Z" fill="url(#L)" fill-opacity=".3"/><path d="M359.457 75.092a3.062 3.062 0 0 0 3.059-3.064 3.062 3.062 0 0 0-3.059-3.064 3.062 3.062 0 0 0-3.06 3.064 3.062 3.062 0 0 0 3.06 3.064Z" fill="url(#M)" fill-opacity=".3"/><path d="M397.653 72.028a3.07 3.07 0 0 1-3.06 3.064 3.07 3.07 0 0 1-3.06-3.064 3.07 3.07 0 0 1 3.06-3.064 3.039 3.039 0 0 1 3.06 3.064Z" fill="url(#N)" fill-opacity=".3"/><path d="M429.755 75.092a3.062 3.062 0 0 0 3.059-3.064 3.062 3.062 0 0 0-3.059-3.064 3.062 3.062 0 0 0-3.06 3.064 3.062 3.062 0 0 0 3.06 3.064Z" fill="url(#O)" fill-opacity=".3"/><path d="M464.891 75.092c1.69 0 3.06-1.372 3.06-3.064a3.062 3.062 0 0 0-3.06-3.064 3.062 3.062 0 0 0-3.06 3.064 3.062 3.062 0 0 0 3.06 3.064Z" fill="url(#P)" fill-opacity=".3"/><path d="M8.069 109.509c1.69 0 3.06-1.372 3.06-3.064a3.062 3.062 0 0 0-3.06-3.064 3.062 3.062 0 0 0-3.06 3.064 3.062 3.062 0 0 0 3.06 3.064Z" fill="url(#Q)" fill-opacity=".3"/><path d="M46.265 106.445a3.071 3.071 0 0 1-3.06 3.064 3.071 3.071 0 0 1-3.06-3.064 3.071 3.071 0 0 1 3.06-3.064 3.071 3.071 0 0 1 3.06 3.064Z" fill="url(#R)" fill-opacity=".3"/><path d="M78.341 109.509c1.69 0 3.06-1.372 3.06-3.064a3.062 3.062 0 0 0-3.06-3.064 3.062 3.062 0 0 0-3.06 3.064 3.062 3.062 0 0 0 3.06 3.064Z" fill="url(#S)" fill-opacity=".3"/><path d="M113.477 109.509c1.69 0 3.06-1.372 3.06-3.064a3.062 3.062 0 0 0-3.06-3.064 3.061 3.061 0 0 0-3.059 3.064 3.061 3.061 0 0 0 3.059 3.064Z" fill="url(#T)" fill-opacity=".3"/><path d="M148.614 109.509a3.062 3.062 0 0 0 3.059-3.064 3.062 3.062 0 0 0-3.059-3.064 3.062 3.062 0 0 0-3.06 3.064 3.062 3.062 0 0 0 3.06 3.064Z" fill="url(#U)" fill-opacity=".3"/><path d="M183.775 109.509c1.69 0 3.06-1.372 3.06-3.064a3.062 3.062 0 0 0-3.06-3.064 3.061 3.061 0 0 0-3.059 3.064 3.061 3.061 0 0 0 3.059 3.064Z" fill="url(#V)" fill-opacity=".3"/><path d="M218.912 109.509a3.062 3.062 0 0 0 3.059-3.064 3.062 3.062 0 0 0-3.059-3.064 3.062 3.062 0 0 0-3.06 3.064 3.062 3.062 0 0 0 3.06 3.064Z" fill="url(#W)" fill-opacity=".3"/><path d="M254.048 109.509c1.69 0 3.06-1.372 3.06-3.064a3.062 3.062 0 0 0-3.06-3.064 3.062 3.062 0 0 0-3.06 3.064 3.062 3.062 0 0 0 3.06 3.064Z" fill="url(#X)" fill-opacity=".3"/><path d="M289.184 109.509c1.69 0 3.06-1.372 3.06-3.064a3.062 3.062 0 0 0-3.06-3.064 3.062 3.062 0 0 0-3.06 3.064 3.062 3.062 0 0 0 3.06 3.064Z" fill="url(#Y)" fill-opacity=".3"/><path d="M324.32 109.509c1.69 0 3.06-1.372 3.06-3.064a3.062 3.062 0 0 0-3.06-3.064 3.061 3.061 0 0 0-3.059 3.064 3.061 3.061 0 0 0 3.059 3.064Z" fill="url(#Z)" fill-opacity=".3"/><path d="M359.457 109.509a3.062 3.062 0 0 0 3.059-3.064 3.062 3.062 0 0 0-3.059-3.064 3.062 3.062 0 0 0-3.06 3.064 3.062 3.062 0 0 0 3.06 3.064Z" fill="url(#aa)" fill-opacity=".3"/><path d="M397.653 106.445a3.071 3.071 0 0 1-3.06 3.064 3.071 3.071 0 0 1-3.06-3.064 3.071 3.071 0 0 1 3.06-3.064 3.055 3.055 0 0 1 3.06 3.064Z" fill="url(#ab)" fill-opacity=".3"/><path d="M429.755 109.509a3.062 3.062 0 0 0 3.059-3.064 3.062 3.062 0 0 0-3.059-3.064 3.062 3.062 0 0 0-3.06 3.064 3.062 3.062 0 0 0 3.06 3.064Z" fill="url(#ac)" fill-opacity=".3"/><path d="M464.891 109.509c1.69 0 3.06-1.372 3.06-3.064a3.062 3.062 0 0 0-3.06-3.064 3.062 3.062 0 0 0-3.06 3.064 3.062 3.062 0 0 0 3.06 3.064Z" fill="url(#ad)" fill-opacity=".3"/><path d="M8.069 143.926c1.69 0 3.06-1.372 3.06-3.064a3.062 3.062 0 0 0-3.06-3.064 3.062 3.062 0 0 0-3.06 3.064 3.062 3.062 0 0 0 3.06 3.064Z" fill="url(#ae)" fill-opacity=".3"/><path d="M46.265 140.862a3.071 3.071 0 0 1-3.06 3.064 3.071 3.071 0 0 1-3.06-3.064 3.071 3.071 0 0 1 3.06-3.064 3.071 3.071 0 0 1 3.06 3.064Z" fill="url(#af)" fill-opacity=".3"/><path d="M78.341 143.926c1.69 0 3.06-1.372 3.06-3.064a3.062 3.062 0 0 0-3.06-3.064 3.062 3.062 0 0 0-3.06 3.064 3.062 3.062 0 0 0 3.06 3.064Z" fill="url(#ag)" fill-opacity=".3"/><path d="M113.477 143.926c1.69 0 3.06-1.372 3.06-3.064a3.062 3.062 0 0 0-3.06-3.064 3.061 3.061 0 0 0-3.059 3.064 3.061 3.061 0 0 0 3.059 3.064Z" fill="url(#ah)" fill-opacity=".3"/><path d="M148.614 143.926a3.062 3.062 0 0 0 3.059-3.064 3.062 3.062 0 0 0-3.059-3.064 3.062 3.062 0 0 0-3.06 3.064 3.062 3.062 0 0 0 3.06 3.064Z" fill="url(#ai)" fill-opacity=".3"/><path d="M183.775 143.926c1.69 0 3.06-1.372 3.06-3.064a3.062 3.062 0 0 0-3.06-3.064 3.061 3.061 0 0 0-3.059 3.064 3.061 3.061 0 0 0 3.059 3.064Z" fill="url(#aj)" fill-opacity=".3"/><path d="M218.912 143.926a3.062 3.062 0 0 0 3.059-3.064 3.062 3.062 0 0 0-3.059-3.064 3.062 3.062 0 0 0-3.06 3.064 3.062 3.062 0 0 0 3.06 3.064Z" fill="url(#ak)" fill-opacity=".3"/><path d="M254.048 143.926c1.69 0 3.06-1.372 3.06-3.064a3.062 3.062 0 0 0-3.06-3.064 3.062 3.062 0 0 0-3.06 3.064 3.062 3.062 0 0 0 3.06 3.064Z" fill="url(#al)" fill-opacity=".3"/><path d="M289.184 143.926c1.69 0 3.06-1.372 3.06-3.064a3.062 3.062 0 0 0-3.06-3.064 3.062 3.062 0 0 0-3.06 3.064 3.062 3.062 0 0 0 3.06 3.064Z" fill="url(#am)" fill-opacity=".3"/><path d="M324.32 143.926c1.69 0 3.06-1.372 3.06-3.064a3.062 3.062 0 0 0-3.06-3.064 3.061 3.061 0 0 0-3.059 3.064 3.061 3.061 0 0 0 3.059 3.064Z" fill="url(#an)" fill-opacity=".3"/><path d="M359.457 143.926a3.062 3.062 0 0 0 3.059-3.064 3.062 3.062 0 0 0-3.059-3.064 3.062 3.062 0 0 0-3.06 3.064 3.062 3.062 0 0 0 3.06 3.064Z" fill="url(#ao)" fill-opacity=".3"/><path d="M397.653 140.862a3.071 3.071 0 0 1-3.06 3.064 3.071 3.071 0 0 1-3.06-3.064 3.071 3.071 0 0 1 3.06-3.064 3.055 3.055 0 0 1 3.06 3.064Z" fill="url(#ap)" fill-opacity=".3"/><path d="M429.755 143.926a3.062 3.062 0 0 0 3.059-3.064 3.062 3.062 0 0 0-3.059-3.064 3.062 3.062 0 0 0-3.06 3.064 3.062 3.062 0 0 0 3.06 3.064Z" fill="url(#aq)" fill-opacity=".3"/><path d="M464.891 143.926c1.69 0 3.06-1.372 3.06-3.064a3.062 3.062 0 0 0-3.06-3.064 3.062 3.062 0 0 0-3.06 3.064 3.062 3.062 0 0 0 3.06 3.064Z" fill="url(#ar)" fill-opacity=".3"/><path d="M8.069 178.343c1.69 0 3.06-1.372 3.06-3.064a3.061 3.061 0 0 0-3.06-3.063 3.061 3.061 0 0 0-3.06 3.063 3.062 3.062 0 0 0 3.06 3.064Z" fill="url(#as)" fill-opacity=".3"/><path d="M46.265 175.279a3.071 3.071 0 0 1-3.06 3.064 3.071 3.071 0 0 1-3.06-3.064 3.07 3.07 0 0 1 3.06-3.063 3.07 3.07 0 0 1 3.06 3.063Z" fill="url(#at)" fill-opacity=".3"/><path d="M78.341 178.343c1.69 0 3.06-1.372 3.06-3.064a3.061 3.061 0 0 0-3.06-3.063 3.061 3.061 0 0 0-3.06 3.063 3.062 3.062 0 0 0 3.06 3.064Z" fill="url(#au)" fill-opacity=".3"/><path d="M113.477 178.343c1.69 0 3.06-1.372 3.06-3.064a3.06 3.06 0 1 0-6.119 0 3.061 3.061 0 0 0 3.059 3.064Z" fill="url(#av)" fill-opacity=".3"/><path d="M148.614 178.343a3.062 3.062 0 0 0 3.059-3.064 3.061 3.061 0 0 0-3.059-3.063 3.061 3.061 0 0 0-3.06 3.063 3.062 3.062 0 0 0 3.06 3.064Z" fill="url(#aw)" fill-opacity=".3"/><path d="M183.775 178.343c1.69 0 3.06-1.372 3.06-3.064a3.06 3.06 0 1 0-6.119 0 3.061 3.061 0 0 0 3.059 3.064Z" fill="url(#ax)" fill-opacity=".3"/><path d="M218.912 178.343a3.062 3.062 0 0 0 3.059-3.064 3.061 3.061 0 0 0-3.059-3.063 3.061 3.061 0 0 0-3.06 3.063 3.062 3.062 0 0 0 3.06 3.064Z" fill="url(#ay)" fill-opacity=".3"/><path d="M254.048 178.343c1.69 0 3.06-1.372 3.06-3.064a3.061 3.061 0 0 0-3.06-3.063 3.061 3.061 0 0 0-3.06 3.063 3.062 3.062 0 0 0 3.06 3.064Z" fill="url(#az)" fill-opacity=".3"/><path d="M289.184 178.343c1.69 0 3.06-1.372 3.06-3.064a3.061 3.061 0 0 0-3.06-3.063 3.061 3.061 0 0 0-3.06 3.063 3.062 3.062 0 0 0 3.06 3.064Z" fill="url(#aA)" fill-opacity=".3"/><path d="M324.32 178.343c1.69 0 3.06-1.372 3.06-3.064a3.06 3.06 0 1 0-6.119 0 3.061 3.061 0 0 0 3.059 3.064Z" fill="url(#aB)" fill-opacity=".3"/><path d="M359.457 178.343a3.062 3.062 0 0 0 3.059-3.064 3.061 3.061 0 0 0-3.059-3.063 3.061 3.061 0 0 0-3.06 3.063 3.062 3.062 0 0 0 3.06 3.064Z" fill="url(#aC)" fill-opacity=".3"/><path d="M397.653 175.279a3.071 3.071 0 0 1-3.06 3.064 3.071 3.071 0 0 1-3.06-3.064 3.07 3.07 0 0 1 3.06-3.063 3.054 3.054 0 0 1 3.06 3.063Z" fill="url(#aD)" fill-opacity=".3"/><path d="M429.755 178.343a3.062 3.062 0 0 0 3.059-3.064 3.061 3.061 0 0 0-3.059-3.063 3.061 3.061 0 0 0-3.06 3.063 3.062 3.062 0 0 0 3.06 3.064Z" fill="url(#aE)" fill-opacity=".3"/><path d="M464.891 178.343c1.69 0 3.06-1.372 3.06-3.064a3.061 3.061 0 0 0-3.06-3.063 3.061 3.061 0 0 0-3.06 3.063 3.062 3.062 0 0 0 3.06 3.064Z" fill="url(#aF)" fill-opacity=".3"/><path d="M8.069 212.761c1.69 0 3.06-1.372 3.06-3.064a3.062 3.062 0 0 0-3.06-3.064 3.062 3.062 0 0 0-3.06 3.064 3.062 3.062 0 0 0 3.06 3.064Z" fill="url(#aG)" fill-opacity=".3"/><path d="M46.265 209.697a3.071 3.071 0 0 1-3.06 3.064 3.071 3.071 0 0 1-3.06-3.064 3.071 3.071 0 0 1 3.06-3.064c1.683.025 3.06 1.379 3.06 3.064Z" fill="url(#aH)" fill-opacity=".3"/><path d="M78.341 212.761c1.69 0 3.06-1.372 3.06-3.064a3.062 3.062 0 0 0-3.06-3.064 3.062 3.062 0 0 0-3.06 3.064 3.062 3.062 0 0 0 3.06 3.064Z" fill="url(#aI)" fill-opacity=".3"/><path d="M113.477 212.761c1.69 0 3.06-1.372 3.06-3.064a3.062 3.062 0 0 0-3.06-3.064 3.061 3.061 0 0 0-3.059 3.064 3.061 3.061 0 0 0 3.059 3.064Z" fill="url(#aJ)" fill-opacity=".3"/><path d="M148.614 212.761a3.062 3.062 0 0 0 3.059-3.064 3.062 3.062 0 0 0-3.059-3.064 3.062 3.062 0 0 0-3.06 3.064 3.062 3.062 0 0 0 3.06 3.064Z" fill="url(#aK)" fill-opacity=".3"/><path d="M183.775 212.761c1.69 0 3.06-1.372 3.06-3.064a3.062 3.062 0 0 0-3.06-3.064 3.061 3.061 0 0 0-3.059 3.064 3.061 3.061 0 0 0 3.059 3.064Z" fill="url(#aL)" fill-opacity=".3"/><path d="M218.912 212.761a3.062 3.062 0 0 0 3.059-3.064 3.062 3.062 0 0 0-3.059-3.064 3.062 3.062 0 0 0-3.06 3.064 3.062 3.062 0 0 0 3.06 3.064Z" fill="url(#aM)" fill-opacity=".3"/><path d="M254.048 212.761c1.69 0 3.06-1.372 3.06-3.064a3.062 3.062 0 0 0-3.06-3.064 3.062 3.062 0 0 0-3.06 3.064 3.062 3.062 0 0 0 3.06 3.064Z" fill="url(#aN)" fill-opacity=".3"/><path d="M289.184 212.761c1.69 0 3.06-1.372 3.06-3.064a3.062 3.062 0 0 0-3.06-3.064 3.062 3.062 0 0 0-3.06 3.064 3.062 3.062 0 0 0 3.06 3.064Z" fill="url(#aO)" fill-opacity=".3"/><path d="M324.32 212.761c1.69 0 3.06-1.372 3.06-3.064a3.062 3.062 0 0 0-3.06-3.064 3.061 3.061 0 0 0-3.059 3.064 3.061 3.061 0 0 0 3.059 3.064Z" fill="url(#aP)" fill-opacity=".3"/><path d="M359.457 212.761a3.062 3.062 0 0 0 3.059-3.064 3.062 3.062 0 0 0-3.059-3.064 3.062 3.062 0 0 0-3.06 3.064 3.062 3.062 0 0 0 3.06 3.064Z" fill="url(#aQ)" fill-opacity=".3"/><path d="M397.653 209.697a3.071 3.071 0 0 1-3.06 3.064 3.071 3.071 0 0 1-3.06-3.064 3.071 3.071 0 0 1 3.06-3.064c1.708.025 3.06 1.379 3.06 3.064Z" fill="url(#aR)" fill-opacity=".3"/><path d="M429.755 212.761a3.062 3.062 0 0 0 3.059-3.064 3.062 3.062 0 0 0-3.059-3.064 3.062 3.062 0 0 0-3.06 3.064 3.062 3.062 0 0 0 3.06 3.064Z" fill="url(#aS)" fill-opacity=".3"/><path d="M464.891 212.761c1.69 0 3.06-1.372 3.06-3.064a3.062 3.062 0 0 0-3.06-3.064 3.062 3.062 0 0 0-3.06 3.064 3.062 3.062 0 0 0 3.06 3.064Z" fill="url(#aT)" fill-opacity=".3"/><path d="M11.128 244.139a3.071 3.071 0 0 1-3.06 3.064 3.071 3.071 0 0 1-3.06-3.064 3.071 3.071 0 0 1 3.06-3.064 3.055 3.055 0 0 1 3.06 3.064Z" fill="url(#aU)" fill-opacity=".3"/><path d="M46.265 244.139a3.071 3.071 0 0 1-3.06 3.064 3.071 3.071 0 0 1-3.06-3.064 3.071 3.071 0 0 1 3.06-3.064 3.055 3.055 0 0 1 3.06 3.064Z" fill="url(#aV)" fill-opacity=".3"/><path d="M81.4 244.139a3.071 3.071 0 0 1-3.059 3.064 3.071 3.071 0 0 1-3.06-3.064 3.071 3.071 0 0 1 3.06-3.064 3.055 3.055 0 0 1 3.06 3.064Z" fill="url(#aW)" fill-opacity=".3"/><path d="M116.537 244.139a3.071 3.071 0 0 1-3.06 3.064 3.07 3.07 0 0 1-3.059-3.064 3.07 3.07 0 0 1 3.059-3.064 3.055 3.055 0 0 1 3.06 3.064Z" fill="url(#aX)" fill-opacity=".3"/><path d="M151.673 244.139a3.07 3.07 0 0 1-3.059 3.064 3.071 3.071 0 0 1-3.06-3.064 3.071 3.071 0 0 1 3.06-3.064 3.039 3.039 0 0 1 3.059 3.064Z" fill="url(#aY)" fill-opacity=".3"/><path d="M186.81 244.139a3.071 3.071 0 0 1-3.06 3.064 3.071 3.071 0 0 1-3.06-3.064 3.071 3.071 0 0 1 3.06-3.064 3.04 3.04 0 0 1 3.06 3.064Z" fill="url(#aZ)" fill-opacity=".3"/><path d="M221.971 244.139a3.07 3.07 0 0 1-3.059 3.064 3.071 3.071 0 0 1-3.06-3.064 3.071 3.071 0 0 1 3.06-3.064 3.055 3.055 0 0 1 3.059 3.064Z" fill="url(#ba)" fill-opacity=".3"/><path d="M257.108 244.139a3.071 3.071 0 0 1-3.06 3.064 3.071 3.071 0 0 1-3.06-3.064 3.071 3.071 0 0 1 3.06-3.064 3.055 3.055 0 0 1 3.06 3.064Z" fill="url(#bb)" fill-opacity=".3"/><path d="M292.244 244.139a3.071 3.071 0 0 1-3.06 3.064 3.071 3.071 0 0 1-3.06-3.064 3.071 3.071 0 0 1 3.06-3.064 3.055 3.055 0 0 1 3.06 3.064Z" fill="url(#bc)" fill-opacity=".3"/><path d="M327.38 244.139a3.071 3.071 0 0 1-3.06 3.064 3.07 3.07 0 0 1-3.059-3.064 3.07 3.07 0 0 1 3.059-3.064 3.055 3.055 0 0 1 3.06 3.064Z" fill="url(#bd)" fill-opacity=".3"/><path d="M362.516 244.139a3.07 3.07 0 0 1-3.059 3.064 3.071 3.071 0 0 1-3.06-3.064 3.071 3.071 0 0 1 3.06-3.064 3.039 3.039 0 0 1 3.059 3.064Z" fill="url(#be)" fill-opacity=".3"/><path d="M397.653 244.139a3.071 3.071 0 0 1-3.06 3.064 3.071 3.071 0 0 1-3.06-3.064 3.071 3.071 0 0 1 3.06-3.064 3.04 3.04 0 0 1 3.06 3.064Z" fill="url(#bf)" fill-opacity=".3"/><path d="M432.814 244.139a3.07 3.07 0 0 1-3.059 3.064 3.071 3.071 0 0 1-3.06-3.064 3.071 3.071 0 0 1 3.06-3.064 3.055 3.055 0 0 1 3.059 3.064Z" fill="url(#bg)" fill-opacity=".3"/><path d="M467.951 244.139a3.071 3.071 0 0 1-3.06 3.064 3.071 3.071 0 0 1-3.06-3.064 3.071 3.071 0 0 1 3.06-3.064 3.055 3.055 0 0 1 3.06 3.064Z" fill="url(#bh)" fill-opacity=".3"/><path d="M8.069 281.62c1.69 0 3.06-1.371 3.06-3.064a3.061 3.061 0 0 0-3.06-3.063 3.061 3.061 0 0 0-3.06 3.063 3.061 3.061 0 0 0 3.06 3.064Z" fill="url(#bi)" fill-opacity=".3"/><path d="M46.265 278.556a3.07 3.07 0 0 1-3.06 3.064 3.07 3.07 0 0 1-3.06-3.064 3.07 3.07 0 0 1 3.06-3.063 3.07 3.07 0 0 1 3.06 3.063Z" fill="url(#bj)" fill-opacity=".3"/><path d="M78.341 281.62c1.69 0 3.06-1.371 3.06-3.064a3.061 3.061 0 0 0-3.06-3.063 3.061 3.061 0 0 0-3.06 3.063 3.061 3.061 0 0 0 3.06 3.064Z" fill="url(#bk)" fill-opacity=".3"/><path d="M113.477 281.62c1.69 0 3.06-1.371 3.06-3.064a3.06 3.06 0 1 0-6.119 0 3.06 3.06 0 0 0 3.059 3.064Z" fill="url(#bl)" fill-opacity=".3"/><path d="M148.614 281.62a3.061 3.061 0 0 0 3.059-3.064 3.061 3.061 0 0 0-3.059-3.063 3.061 3.061 0 0 0-3.06 3.063 3.061 3.061 0 0 0 3.06 3.064Z" fill="url(#bm)" fill-opacity=".3"/><path d="M183.775 281.62c1.69 0 3.06-1.371 3.06-3.064a3.06 3.06 0 1 0-6.119 0 3.06 3.06 0 0 0 3.059 3.064Z" fill="url(#bn)" fill-opacity=".3"/><path d="M218.912 281.62a3.061 3.061 0 0 0 3.059-3.064 3.061 3.061 0 0 0-3.059-3.063 3.061 3.061 0 0 0-3.06 3.063 3.061 3.061 0 0 0 3.06 3.064Z" fill="url(#bo)" fill-opacity=".3"/><path d="M254.048 281.62c1.69 0 3.06-1.371 3.06-3.064a3.061 3.061 0 0 0-3.06-3.063 3.061 3.061 0 0 0-3.06 3.063 3.061 3.061 0 0 0 3.06 3.064Z" fill="url(#bp)" fill-opacity=".3"/><path d="M289.184 281.62c1.69 0 3.06-1.371 3.06-3.064a3.061 3.061 0 0 0-3.06-3.063 3.061 3.061 0 0 0-3.06 3.063 3.061 3.061 0 0 0 3.06 3.064Z" fill="url(#bq)" fill-opacity=".3"/><path d="M324.32 281.62c1.69 0 3.06-1.371 3.06-3.064a3.06 3.06 0 1 0-6.119 0 3.06 3.06 0 0 0 3.059 3.064Z" fill="url(#br)" fill-opacity=".3"/><path d="M359.457 281.62a3.061 3.061 0 0 0 3.059-3.064 3.061 3.061 0 0 0-3.059-3.063 3.061 3.061 0 0 0-3.06 3.063 3.061 3.061 0 0 0 3.06 3.064Z" fill="url(#bs)" fill-opacity=".3"/><path d="M397.653 278.556a3.07 3.07 0 0 1-3.06 3.064 3.07 3.07 0 0 1-3.06-3.064 3.07 3.07 0 0 1 3.06-3.063 3.054 3.054 0 0 1 3.06 3.063Z" fill="url(#bt)" fill-opacity=".3"/><path d="M429.755 281.62a3.061 3.061 0 0 0 3.059-3.064 3.061 3.061 0 0 0-3.059-3.063 3.061 3.061 0 0 0-3.06 3.063 3.061 3.061 0 0 0 3.06 3.064Z" fill="url(#bu)" fill-opacity=".3"/><path d="M464.891 281.62c1.69 0 3.06-1.371 3.06-3.064a3.061 3.061 0 0 0-3.06-3.063 3.061 3.061 0 0 0-3.06 3.063 3.061 3.061 0 0 0 3.06 3.064Z" fill="url(#bv)" fill-opacity=".3"/><defs><linearGradient id="a" x1="5.009" y1=".104" x2="11.486" y2=".508" gradientUnits="userSpaceOnUse"><stop stop-color="#81BD92"/><stop offset="1" stop-color="#BEF8CE"/></linearGradient><linearGradient id="b" x1="40.145" y1=".104" x2="46.622" y2=".508" gradientUnits="userSpaceOnUse"><stop stop-color="#81BD92"/><stop offset="1" stop-color="#BEF8CE"/></linearGradient><linearGradient id="c" x1="75.281" y1=".104" x2="81.758" y2=".508" gradientUnits="userSpaceOnUse"><stop stop-color="#81BD92"/><stop offset="1" stop-color="#BEF8CE"/></linearGradient><linearGradient id="d" x1="110.418" y1=".104" x2="116.894" y2=".508" gradientUnits="userSpaceOnUse"><stop stop-color="#81BD92"/><stop offset="1" stop-color="#BEF8CE"/></linearGradient><linearGradient id="e" x1="145.554" y1=".104" x2="152.031" y2=".508" gradientUnits="userSpaceOnUse"><stop stop-color="#81BD92"/><stop offset="1" stop-color="#BEF8CE"/></linearGradient><linearGradient id="f" x1="180.716" y1=".104" x2="187.192" y2=".508" gradientUnits="userSpaceOnUse"><stop stop-color="#81BD92"/><stop offset="1" stop-color="#BEF8CE"/></linearGradient><linearGradient id="g" x1="215.852" y1=".104" x2="222.329" y2=".508" gradientUnits="userSpaceOnUse"><stop stop-color="#81BD92"/><stop offset="1" stop-color="#BEF8CE"/></linearGradient><linearGradient id="h" x1="250.988" y1=".104" x2="257.465" y2=".508" gradientUnits="userSpaceOnUse"><stop stop-color="#81BD92"/><stop offset="1" stop-color="#BEF8CE"/></linearGradient><linearGradient id="i" x1="286.124" y1=".104" x2="292.601" y2=".508" gradientUnits="userSpaceOnUse"><stop stop-color="#81BD92"/><stop offset="1" stop-color="#BEF8CE"/></linearGradient><linearGradient id="j" x1="321.261" y1=".104" x2="327.737" y2=".508" gradientUnits="userSpaceOnUse"><stop stop-color="#81BD92"/><stop offset="1" stop-color="#BEF8CE"/></linearGradient><linearGradient id="k" x1="356.397" y1=".104" x2="362.874" y2=".508" gradientUnits="userSpaceOnUse"><stop stop-color="#81BD92"/><stop offset="1" stop-color="#BEF8CE"/></linearGradient><linearGradient id="l" x1="391.533" y1=".104" x2="398.01" y2=".508" gradientUnits="userSpaceOnUse"><stop stop-color="#81BD92"/><stop offset="1" stop-color="#BEF8CE"/></linearGradient><linearGradient id="m" x1="426.695" y1=".104" x2="433.172" y2=".508" gradientUnits="userSpaceOnUse"><stop stop-color="#81BD92"/><stop offset="1" stop-color="#BEF8CE"/></linearGradient><linearGradient id="n" x1="461.831" y1=".104" x2="468.308" y2=".508" gradientUnits="userSpaceOnUse"><stop stop-color="#81BD92"/><stop offset="1" stop-color="#BEF8CE"/></linearGradient><linearGradient id="o" x1="5.009" y1="34.521" x2="11.486" y2="34.925" gradientUnits="userSpaceOnUse"><stop stop-color="#81BD92"/><stop offset="1" stop-color="#BEF8CE"/></linearGradient><linearGradient id="p" x1="40.145" y1="34.521" x2="46.622" y2="34.925" gradientUnits="userSpaceOnUse"><stop stop-color="#81BD92"/><stop offset="1" stop-color="#BEF8CE"/></linearGradient><linearGradient id="q" x1="75.281" y1="34.521" x2="81.758" y2="34.925" gradientUnits="userSpaceOnUse"><stop stop-color="#81BD92"/><stop offset="1" stop-color="#BEF8CE"/></linearGradient><linearGradient id="r" x1="110.418" y1="34.521" x2="116.894" y2="34.925" gradientUnits="userSpaceOnUse"><stop stop-color="#81BD92"/><stop offset="1" stop-color="#BEF8CE"/></linearGradient><linearGradient id="s" x1="145.554" y1="34.521" x2="152.031" y2="34.925" gradientUnits="userSpaceOnUse"><stop stop-color="#81BD92"/><stop offset="1" stop-color="#BEF8CE"/></linearGradient><linearGradient id="t" x1="180.716" y1="34.521" x2="187.192" y2="34.925" gradientUnits="userSpaceOnUse"><stop stop-color="#81BD92"/><stop offset="1" stop-color="#BEF8CE"/></linearGradient><linearGradient id="u" x1="215.852" y1="34.521" x2="222.329" y2="34.925" gradientUnits="userSpaceOnUse"><stop stop-color="#81BD92"/><stop offset="1" stop-color="#BEF8CE"/></linearGradient><linearGradient id="v" x1="250.988" y1="34.521" x2="257.465" y2="34.925" gradientUnits="userSpaceOnUse"><stop stop-color="#81BD92"/><stop offset="1" stop-color="#BEF8CE"/></linearGradient><linearGradient id="w" x1="286.124" y1="34.521" x2="292.601" y2="34.925" gradientUnits="userSpaceOnUse"><stop stop-color="#81BD92"/><stop offset="1" stop-color="#BEF8CE"/></linearGradient><linearGradient id="x" x1="321.261" y1="34.521" x2="327.737" y2="34.925" gradientUnits="userSpaceOnUse"><stop stop-color="#81BD92"/><stop offset="1" stop-color="#BEF8CE"/></linearGradient><linearGradient id="y" x1="356.397" y1="34.521" x2="362.874" y2="34.925" gradientUnits="userSpaceOnUse"><stop stop-color="#81BD92"/><stop offset="1" stop-color="#BEF8CE"/></linearGradient><linearGradient id="z" x1="391.533" y1="34.521" x2="398.01" y2="34.925" gradientUnits="userSpaceOnUse"><stop stop-color="#81BD92"/><stop offset="1" stop-color="#BEF8CE"/></linearGradient><linearGradient id="A" x1="426.695" y1="34.521" x2="433.172" y2="34.925" gradientUnits="userSpaceOnUse"><stop stop-color="#81BD92"/><stop offset="1" stop-color="#BEF8CE"/></linearGradient><linearGradient id="B" x1="461.831" y1="34.521" x2="468.308" y2="34.925" gradientUnits="userSpaceOnUse"><stop stop-color="#81BD92"/><stop offset="1" stop-color="#BEF8CE"/></linearGradient><linearGradient id="C" x1="5.009" y1="68.964" x2="11.486" y2="69.368" gradientUnits="userSpaceOnUse"><stop stop-color="#81BD92"/><stop offset="1" stop-color="#BEF8CE"/></linearGradient><linearGradient id="D" x1="40.145" y1="68.964" x2="46.622" y2="69.368" gradientUnits="userSpaceOnUse"><stop stop-color="#81BD92"/><stop offset="1" stop-color="#BEF8CE"/></linearGradient><linearGradient id="E" x1="75.281" y1="68.964" x2="81.758" y2="69.368" gradientUnits="userSpaceOnUse"><stop stop-color="#81BD92"/><stop offset="1" stop-color="#BEF8CE"/></linearGradient><linearGradient id="F" x1="110.418" y1="68.964" x2="116.894" y2="69.368" gradientUnits="userSpaceOnUse"><stop stop-color="#81BD92"/><stop offset="1" stop-color="#BEF8CE"/></linearGradient><linearGradient id="G" x1="145.554" y1="68.964" x2="152.031" y2="69.368" gradientUnits="userSpaceOnUse"><stop stop-color="#81BD92"/><stop offset="1" stop-color="#BEF8CE"/></linearGradient><linearGradient id="H" x1="180.716" y1="68.964" x2="187.192" y2="69.368" gradientUnits="userSpaceOnUse"><stop stop-color="#81BD92"/><stop offset="1" stop-color="#BEF8CE"/></linearGradient><linearGradient id="I" x1="215.852" y1="68.964" x2="222.329" y2="69.368" gradientUnits="userSpaceOnUse"><stop stop-color="#81BD92"/><stop offset="1" stop-color="#BEF8CE"/></linearGradient><linearGradient id="J" x1="250.988" y1="68.964" x2="257.465" y2="69.368" gradientUnits="userSpaceOnUse"><stop stop-color="#81BD92"/><stop offset="1" stop-color="#BEF8CE"/></linearGradient><linearGradient id="K" x1="286.124" y1="68.964" x2="292.601" y2="69.368" gradientUnits="userSpaceOnUse"><stop stop-color="#81BD92"/><stop offset="1" stop-color="#BEF8CE"/></linearGradient><linearGradient id="L" x1="321.261" y1="68.964" x2="327.737" y2="69.368" gradientUnits="userSpaceOnUse"><stop stop-color="#81BD92"/><stop offset="1" stop-color="#BEF8CE"/></linearGradient><linearGradient id="M" x1="356.397" y1="68.964" x2="362.874" y2="69.368" gradientUnits="userSpaceOnUse"><stop stop-color="#81BD92"/><stop offset="1" stop-color="#BEF8CE"/></linearGradient><linearGradient id="N" x1="391.533" y1="68.964" x2="398.01" y2="69.368" gradientUnits="userSpaceOnUse"><stop stop-color="#81BD92"/><stop offset="1" stop-color="#BEF8CE"/></linearGradient><linearGradient id="O" x1="426.695" y1="68.964" x2="433.172" y2="69.368" gradientUnits="userSpaceOnUse"><stop stop-color="#81BD92"/><stop offset="1" stop-color="#BEF8CE"/></linearGradient><linearGradient id="P" x1="461.831" y1="68.964" x2="468.308" y2="69.368" gradientUnits="userSpaceOnUse"><stop stop-color="#81BD92"/><stop offset="1" stop-color="#BEF8CE"/></linearGradient><linearGradient id="Q" x1="5.009" y1="103.381" x2="11.486" y2="103.785" gradientUnits="userSpaceOnUse"><stop stop-color="#81BD92"/><stop offset="1" stop-color="#BEF8CE"/></linearGradient><linearGradient id="R" x1="40.145" y1="103.381" x2="46.622" y2="103.785" gradientUnits="userSpaceOnUse"><stop stop-color="#81BD92"/><stop offset="1" stop-color="#BEF8CE"/></linearGradient><linearGradient id="S" x1="75.281" y1="103.381" x2="81.758" y2="103.785" gradientUnits="userSpaceOnUse"><stop stop-color="#81BD92"/><stop offset="1" stop-color="#BEF8CE"/></linearGradient><linearGradient id="T" x1="110.418" y1="103.381" x2="116.894" y2="103.785" gradientUnits="userSpaceOnUse"><stop stop-color="#81BD92"/><stop offset="1" stop-color="#BEF8CE"/></linearGradient><linearGradient id="U" x1="145.554" y1="103.381" x2="152.031" y2="103.785" gradientUnits="userSpaceOnUse"><stop stop-color="#81BD92"/><stop offset="1" stop-color="#BEF8CE"/></linearGradient><linearGradient id="V" x1="180.716" y1="103.381" x2="187.192" y2="103.785" gradientUnits="userSpaceOnUse"><stop stop-color="#81BD92"/><stop offset="1" stop-color="#BEF8CE"/></linearGradient><linearGradient id="W" x1="215.852" y1="103.381" x2="222.329" y2="103.785" gradientUnits="userSpaceOnUse"><stop stop-color="#81BD92"/><stop offset="1" stop-color="#BEF8CE"/></linearGradient><linearGradient id="X" x1="250.988" y1="103.381" x2="257.465" y2="103.785" gradientUnits="userSpaceOnUse"><stop stop-color="#81BD92"/><stop offset="1" stop-color="#BEF8CE"/></linearGradient><linearGradient id="Y" x1="286.124" y1="103.381" x2="292.601" y2="103.785" gradientUnits="userSpaceOnUse"><stop stop-color="#81BD92"/><stop offset="1" stop-color="#BEF8CE"/></linearGradient><linearGradient id="Z" x1="321.261" y1="103.381" x2="327.737" y2="103.785" gradientUnits="userSpaceOnUse"><stop stop-color="#81BD92"/><stop offset="1" stop-color="#BEF8CE"/></linearGradient><linearGradient id="aa" x1="356.397" y1="103.381" x2="362.874" y2="103.785" gradientUnits="userSpaceOnUse"><stop stop-color="#81BD92"/><stop offset="1" stop-color="#BEF8CE"/></linearGradient><linearGradient id="ab" x1="391.533" y1="103.381" x2="398.01" y2="103.785" gradientUnits="userSpaceOnUse"><stop stop-color="#81BD92"/><stop offset="1" stop-color="#BEF8CE"/></linearGradient><linearGradient id="ac" x1="426.695" y1="103.381" x2="433.172" y2="103.785" gradientUnits="userSpaceOnUse"><stop stop-color="#81BD92"/><stop offset="1" stop-color="#BEF8CE"/></linearGradient><linearGradient id="ad" x1="461.831" y1="103.381" x2="468.308" y2="103.785" gradientUnits="userSpaceOnUse"><stop stop-color="#81BD92"/><stop offset="1" stop-color="#BEF8CE"/></linearGradient><linearGradient id="ae" x1="5.009" y1="137.798" x2="11.486" y2="138.203" gradientUnits="userSpaceOnUse"><stop stop-color="#81BD92"/><stop offset="1" stop-color="#BEF8CE"/></linearGradient><linearGradient id="af" x1="40.145" y1="137.798" x2="46.622" y2="138.203" gradientUnits="userSpaceOnUse"><stop stop-color="#81BD92"/><stop offset="1" stop-color="#BEF8CE"/></linearGradient><linearGradient id="ag" x1="75.281" y1="137.798" x2="81.758" y2="138.203" gradientUnits="userSpaceOnUse"><stop stop-color="#81BD92"/><stop offset="1" stop-color="#BEF8CE"/></linearGradient><linearGradient id="ah" x1="110.418" y1="137.798" x2="116.894" y2="138.203" gradientUnits="userSpaceOnUse"><stop stop-color="#81BD92"/><stop offset="1" stop-color="#BEF8CE"/></linearGradient><linearGradient id="ai" x1="145.554" y1="137.798" x2="152.031" y2="138.203" gradientUnits="userSpaceOnUse"><stop stop-color="#81BD92"/><stop offset="1" stop-color="#BEF8CE"/></linearGradient><linearGradient id="aj" x1="180.716" y1="137.798" x2="187.192" y2="138.203" gradientUnits="userSpaceOnUse"><stop stop-color="#81BD92"/><stop offset="1" stop-color="#BEF8CE"/></linearGradient><linearGradient id="ak" x1="215.852" y1="137.798" x2="222.329" y2="138.203" gradientUnits="userSpaceOnUse"><stop stop-color="#81BD92"/><stop offset="1" stop-color="#BEF8CE"/></linearGradient><linearGradient id="al" x1="250.988" y1="137.798" x2="257.465" y2="138.203" gradientUnits="userSpaceOnUse"><stop stop-color="#81BD92"/><stop offset="1" stop-color="#BEF8CE"/></linearGradient><linearGradient id="am" x1="286.124" y1="137.798" x2="292.601" y2="138.203" gradientUnits="userSpaceOnUse"><stop stop-color="#81BD92"/><stop offset="1" stop-color="#BEF8CE"/></linearGradient><linearGradient id="an" x1="321.261" y1="137.798" x2="327.737" y2="138.203" gradientUnits="userSpaceOnUse"><stop stop-color="#81BD92"/><stop offset="1" stop-color="#BEF8CE"/></linearGradient><linearGradient id="ao" x1="356.397" y1="137.798" x2="362.874" y2="138.203" gradientUnits="userSpaceOnUse"><stop stop-color="#81BD92"/><stop offset="1" stop-color="#BEF8CE"/></linearGradient><linearGradient id="ap" x1="391.533" y1="137.798" x2="398.01" y2="138.203" gradientUnits="userSpaceOnUse"><stop stop-color="#81BD92"/><stop offset="1" stop-color="#BEF8CE"/></linearGradient><linearGradient id="aq" x1="426.695" y1="137.798" x2="433.172" y2="138.203" gradientUnits="userSpaceOnUse"><stop stop-color="#81BD92"/><stop offset="1" stop-color="#BEF8CE"/></linearGradient><linearGradient id="ar" x1="461.831" y1="137.798" x2="468.308" y2="138.203" gradientUnits="userSpaceOnUse"><stop stop-color="#81BD92"/><stop offset="1" stop-color="#BEF8CE"/></linearGradient><linearGradient id="as" x1="5.009" y1="172.216" x2="11.486" y2="172.62" gradientUnits="userSpaceOnUse"><stop stop-color="#81BD92"/><stop offset="1" stop-color="#BEF8CE"/></linearGradient><linearGradient id="at" x1="40.145" y1="172.216" x2="46.622" y2="172.62" gradientUnits="userSpaceOnUse"><stop stop-color="#81BD92"/><stop offset="1" stop-color="#BEF8CE"/></linearGradient><linearGradient id="au" x1="75.281" y1="172.216" x2="81.758" y2="172.62" gradientUnits="userSpaceOnUse"><stop stop-color="#81BD92"/><stop offset="1" stop-color="#BEF8CE"/></linearGradient><linearGradient id="av" x1="110.418" y1="172.216" x2="116.894" y2="172.62" gradientUnits="userSpaceOnUse"><stop stop-color="#81BD92"/><stop offset="1" stop-color="#BEF8CE"/></linearGradient><linearGradient id="aw" x1="145.554" y1="172.216" x2="152.031" y2="172.62" gradientUnits="userSpaceOnUse"><stop stop-color="#81BD92"/><stop offset="1" stop-color="#BEF8CE"/></linearGradient><linearGradient id="ax" x1="180.716" y1="172.216" x2="187.192" y2="172.62" gradientUnits="userSpaceOnUse"><stop stop-color="#81BD92"/><stop offset="1" stop-color="#BEF8CE"/></linearGradient><linearGradient id="ay" x1="215.852" y1="172.216" x2="222.329" y2="172.62" gradientUnits="userSpaceOnUse"><stop stop-color="#81BD92"/><stop offset="1" stop-color="#BEF8CE"/></linearGradient><linearGradient id="az" x1="250.988" y1="172.216" x2="257.465" y2="172.62" gradientUnits="userSpaceOnUse"><stop stop-color="#81BD92"/><stop offset="1" stop-color="#BEF8CE"/></linearGradient><linearGradient id="aA" x1="286.124" y1="172.216" x2="292.601" y2="172.62" gradientUnits="userSpaceOnUse"><stop stop-color="#81BD92"/><stop offset="1" stop-color="#BEF8CE"/></linearGradient><linearGradient id="aB" x1="321.261" y1="172.216" x2="327.737" y2="172.62" gradientUnits="userSpaceOnUse"><stop stop-color="#81BD92"/><stop offset="1" stop-color="#BEF8CE"/></linearGradient><linearGradient id="aC" x1="356.397" y1="172.216" x2="362.874" y2="172.62" gradientUnits="userSpaceOnUse"><stop stop-color="#81BD92"/><stop offset="1" stop-color="#BEF8CE"/></linearGradient><linearGradient id="aD" x1="391.533" y1="172.216" x2="398.01" y2="172.62" gradientUnits="userSpaceOnUse"><stop stop-color="#81BD92"/><stop offset="1" stop-color="#BEF8CE"/></linearGradient><linearGradient id="aE" x1="426.695" y1="172.216" x2="433.172" y2="172.62" gradientUnits="userSpaceOnUse"><stop stop-color="#81BD92"/><stop offset="1" stop-color="#BEF8CE"/></linearGradient><linearGradient id="aF" x1="461.831" y1="172.216" x2="468.308" y2="172.62" gradientUnits="userSpaceOnUse"><stop stop-color="#81BD92"/><stop offset="1" stop-color="#BEF8CE"/></linearGradient><linearGradient id="aG" x1="5.009" y1="206.633" x2="11.486" y2="207.037" gradientUnits="userSpaceOnUse"><stop stop-color="#81BD92"/><stop offset="1" stop-color="#BEF8CE"/></linearGradient><linearGradient id="aH" x1="40.145" y1="206.633" x2="46.622" y2="207.037" gradientUnits="userSpaceOnUse"><stop stop-color="#81BD92"/><stop offset="1" stop-color="#BEF8CE"/></linearGradient><linearGradient id="aI" x1="75.281" y1="206.633" x2="81.758" y2="207.037" gradientUnits="userSpaceOnUse"><stop stop-color="#81BD92"/><stop offset="1" stop-color="#BEF8CE"/></linearGradient><linearGradient id="aJ" x1="110.418" y1="206.633" x2="116.894" y2="207.037" gradientUnits="userSpaceOnUse"><stop stop-color="#81BD92"/><stop offset="1" stop-color="#BEF8CE"/></linearGradient><linearGradient id="aK" x1="145.554" y1="206.633" x2="152.031" y2="207.037" gradientUnits="userSpaceOnUse"><stop stop-color="#81BD92"/><stop offset="1" stop-color="#BEF8CE"/></linearGradient><linearGradient id="aL" x1="180.716" y1="206.633" x2="187.192" y2="207.037" gradientUnits="userSpaceOnUse"><stop stop-color="#81BD92"/><stop offset="1" stop-color="#BEF8CE"/></linearGradient><linearGradient id="aM" x1="215.852" y1="206.633" x2="222.329" y2="207.037" gradientUnits="userSpaceOnUse"><stop stop-color="#81BD92"/><stop offset="1" stop-color="#BEF8CE"/></linearGradient><linearGradient id="aN" x1="250.988" y1="206.633" x2="257.465" y2="207.037" gradientUnits="userSpaceOnUse"><stop stop-color="#81BD92"/><stop offset="1" stop-color="#BEF8CE"/></linearGradient><linearGradient id="aO" x1="286.124" y1="206.633" x2="292.601" y2="207.037" gradientUnits="userSpaceOnUse"><stop stop-color="#81BD92"/><stop offset="1" stop-color="#BEF8CE"/></linearGradient><linearGradient id="aP" x1="321.261" y1="206.633" x2="327.737" y2="207.037" gradientUnits="userSpaceOnUse"><stop stop-color="#81BD92"/><stop offset="1" stop-color="#BEF8CE"/></linearGradient><linearGradient id="aQ" x1="356.397" y1="206.633" x2="362.874" y2="207.037" gradientUnits="userSpaceOnUse"><stop stop-color="#81BD92"/><stop offset="1" stop-color="#BEF8CE"/></linearGradient><linearGradient id="aR" x1="391.533" y1="206.633" x2="398.01" y2="207.037" gradientUnits="userSpaceOnUse"><stop stop-color="#81BD92"/><stop offset="1" stop-color="#BEF8CE"/></linearGradient><linearGradient id="aS" x1="426.695" y1="206.633" x2="433.172" y2="207.037" gradientUnits="userSpaceOnUse"><stop stop-color="#81BD92"/><stop offset="1" stop-color="#BEF8CE"/></linearGradient><linearGradient id="aT" x1="461.831" y1="206.633" x2="468.308" y2="207.037" gradientUnits="userSpaceOnUse"><stop stop-color="#81BD92"/><stop offset="1" stop-color="#BEF8CE"/></linearGradient><linearGradient id="aU" x1="5.009" y1="241.075" x2="11.486" y2="241.48" gradientUnits="userSpaceOnUse"><stop stop-color="#81BD92"/><stop offset="1" stop-color="#BEF8CE"/></linearGradient><linearGradient id="aV" x1="40.145" y1="241.075" x2="46.622" y2="241.48" gradientUnits="userSpaceOnUse"><stop stop-color="#81BD92"/><stop offset="1" stop-color="#BEF8CE"/></linearGradient><linearGradient id="aW" x1="75.281" y1="241.075" x2="81.758" y2="241.48" gradientUnits="userSpaceOnUse"><stop stop-color="#81BD92"/><stop offset="1" stop-color="#BEF8CE"/></linearGradient><linearGradient id="aX" x1="110.418" y1="241.075" x2="116.894" y2="241.48" gradientUnits="userSpaceOnUse"><stop stop-color="#81BD92"/><stop offset="1" stop-color="#BEF8CE"/></linearGradient><linearGradient id="aY" x1="145.554" y1="241.075" x2="152.031" y2="241.48" gradientUnits="userSpaceOnUse"><stop stop-color="#81BD92"/><stop offset="1" stop-color="#BEF8CE"/></linearGradient><linearGradient id="aZ" x1="180.69" y1="241.075" x2="187.167" y2="241.48" gradientUnits="userSpaceOnUse"><stop stop-color="#81BD92"/><stop offset="1" stop-color="#BEF8CE"/></linearGradient><linearGradient id="ba" x1="215.852" y1="241.075" x2="222.329" y2="241.48" gradientUnits="userSpaceOnUse"><stop stop-color="#81BD92"/><stop offset="1" stop-color="#BEF8CE"/></linearGradient><linearGradient id="bb" x1="250.988" y1="241.075" x2="257.465" y2="241.48" gradientUnits="userSpaceOnUse"><stop stop-color="#81BD92"/><stop offset="1" stop-color="#BEF8CE"/></linearGradient><linearGradient id="bc" x1="286.124" y1="241.075" x2="292.601" y2="241.48" gradientUnits="userSpaceOnUse"><stop stop-color="#81BD92"/><stop offset="1" stop-color="#BEF8CE"/></linearGradient><linearGradient id="bd" x1="321.261" y1="241.075" x2="327.737" y2="241.48" gradientUnits="userSpaceOnUse"><stop stop-color="#81BD92"/><stop offset="1" stop-color="#BEF8CE"/></linearGradient><linearGradient id="be" x1="356.397" y1="241.075" x2="362.874" y2="241.48" gradientUnits="userSpaceOnUse"><stop stop-color="#81BD92"/><stop offset="1" stop-color="#BEF8CE"/></linearGradient><linearGradient id="bf" x1="391.533" y1="241.075" x2="398.01" y2="241.48" gradientUnits="userSpaceOnUse"><stop stop-color="#81BD92"/><stop offset="1" stop-color="#BEF8CE"/></linearGradient><linearGradient id="bg" x1="426.695" y1="241.075" x2="433.172" y2="241.48" gradientUnits="userSpaceOnUse"><stop stop-color="#81BD92"/><stop offset="1" stop-color="#BEF8CE"/></linearGradient><linearGradient id="bh" x1="461.831" y1="241.075" x2="468.308" y2="241.48" gradientUnits="userSpaceOnUse"><stop stop-color="#81BD92"/><stop offset="1" stop-color="#BEF8CE"/></linearGradient><linearGradient id="bi" x1="5.009" y1="275.493" x2="11.486" y2="275.897" gradientUnits="userSpaceOnUse"><stop stop-color="#81BD92"/><stop offset="1" stop-color="#BEF8CE"/></linearGradient><linearGradient id="bj" x1="40.145" y1="275.493" x2="46.622" y2="275.897" gradientUnits="userSpaceOnUse"><stop stop-color="#81BD92"/><stop offset="1" stop-color="#BEF8CE"/></linearGradient><linearGradient id="bk" x1="75.281" y1="275.493" x2="81.758" y2="275.897" gradientUnits="userSpaceOnUse"><stop stop-color="#81BD92"/><stop offset="1" stop-color="#BEF8CE"/></linearGradient><linearGradient id="bl" x1="110.418" y1="275.493" x2="116.894" y2="275.897" gradientUnits="userSpaceOnUse"><stop stop-color="#81BD92"/><stop offset="1" stop-color="#BEF8CE"/></linearGradient><linearGradient id="bm" x1="145.554" y1="275.493" x2="152.031" y2="275.897" gradientUnits="userSpaceOnUse"><stop stop-color="#81BD92"/><stop offset="1" stop-color="#BEF8CE"/></linearGradient><linearGradient id="bn" x1="180.716" y1="275.493" x2="187.192" y2="275.897" gradientUnits="userSpaceOnUse"><stop stop-color="#81BD92"/><stop offset="1" stop-color="#BEF8CE"/></linearGradient><linearGradient id="bo" x1="215.852" y1="275.493" x2="222.329" y2="275.897" gradientUnits="userSpaceOnUse"><stop stop-color="#81BD92"/><stop offset="1" stop-color="#BEF8CE"/></linearGradient><linearGradient id="bp" x1="250.988" y1="275.493" x2="257.465" y2="275.897" gradientUnits="userSpaceOnUse"><stop stop-color="#81BD92"/><stop offset="1" stop-color="#BEF8CE"/></linearGradient><linearGradient id="bq" x1="286.124" y1="275.493" x2="292.601" y2="275.897" gradientUnits="userSpaceOnUse"><stop stop-color="#81BD92"/><stop offset="1" stop-color="#BEF8CE"/></linearGradient><linearGradient id="br" x1="321.261" y1="275.493" x2="327.737" y2="275.897" gradientUnits="userSpaceOnUse"><stop stop-color="#81BD92"/><stop offset="1" stop-color="#BEF8CE"/></linearGradient><linearGradient id="bs" x1="356.397" y1="275.493" x2="362.874" y2="275.897" gradientUnits="userSpaceOnUse"><stop stop-color="#81BD92"/><stop offset="1" stop-color="#BEF8CE"/></linearGradient><linearGradient id="bt" x1="391.533" y1="275.493" x2="398.01" y2="275.897" gradientUnits="userSpaceOnUse"><stop stop-color="#81BD92"/><stop offset="1" stop-color="#BEF8CE"/></linearGradient><linearGradient id="bu" x1="426.695" y1="275.493" x2="433.172" y2="275.897" gradientUnits="userSpaceOnUse"><stop stop-color="#81BD92"/><stop offset="1" stop-color="#BEF8CE"/></linearGradient><linearGradient id="bv" x1="461.831" y1="275.493" x2="468.308" y2="275.897" gradientUnits="userSpaceOnUse"><stop stop-color="#81BD92"/><stop offset="1" stop-color="#BEF8CE"/></linearGradient></defs></svg>