<svg width="478" height="162" fill="none" xmlns="http://www.w3.org/2000/svg"><path d="M4.686 20.007a2.058 2.058 0 0 1-2.065 2.068 2.058 2.058 0 0 1-2.066-2.068c0-1.149.918-2.068 2.066-2.068 1.147 0 2.065.92 2.065 2.068Z" fill="url(#a)" fill-opacity=".3"/><path d="M28.348 20.007a2.058 2.058 0 0 1-2.065 2.068 2.058 2.058 0 0 1-2.065-2.068c0-1.149.918-2.068 2.065-2.068 1.147 0 2.065.92 2.065 2.068Z" fill="url(#b)" fill-opacity=".3"/><path d="M51.985 20.007a2.058 2.058 0 0 1-2.066 2.068 2.058 2.058 0 0 1-2.065-2.068c0-1.149.918-2.068 2.066-2.068 1.147 0 2.065.92 2.065 2.068Z" fill="url(#c)" fill-opacity=".3"/><path d="M75.621 20.007a2.058 2.058 0 0 1-2.065 2.068 2.058 2.058 0 0 1-2.065-2.068c0-1.149.918-2.068 2.065-2.068 1.148 0 2.066.92 2.066 2.068Z" fill="url(#d)" fill-opacity=".3"/><path d="M99.284 20.007a2.058 2.058 0 0 1-2.066 2.068 2.058 2.058 0 0 1-2.065-2.068c0-1.149.918-2.068 2.065-2.068 1.122 0 2.066.92 2.066 2.068Z" fill="url(#e)" fill-opacity=".3"/><path d="M122.92 20.007a2.058 2.058 0 0 1-2.065 2.068 2.058 2.058 0 0 1-2.065-2.068c0-1.149.918-2.068 2.065-2.068 1.147 0 2.065.92 2.065 2.068Z" fill="url(#f)" fill-opacity=".3"/><path d="M146.557 20.007a2.058 2.058 0 0 1-2.065 2.068 2.058 2.058 0 0 1-2.066-2.068c0-1.149.918-2.068 2.066-2.068 1.147 0 2.065.92 2.065 2.068Z" fill="url(#g)" fill-opacity=".3"/><path d="M170.194 20.007a2.058 2.058 0 0 1-2.066 2.068 2.058 2.058 0 0 1-2.065-2.068c0-1.149.918-2.068 2.065-2.068 1.148 0 2.066.92 2.066 2.068Z" fill="url(#h)" fill-opacity=".3"/><path d="M193.856 20.007a2.058 2.058 0 0 1-2.066 2.068 2.058 2.058 0 0 1-2.065-2.068c0-1.149.918-2.068 2.065-2.068 1.148 0 2.066.92 2.066 2.068Z" fill="url(#i)" fill-opacity=".3"/><path d="M217.492 20.007a2.058 2.058 0 0 1-2.065 2.068 2.058 2.058 0 0 1-2.065-2.068c0-1.149.918-2.068 2.065-2.068 1.147 0 2.065.92 2.065 2.068Z" fill="url(#j)" fill-opacity=".3"/><path d="M241.129 20.007a2.058 2.058 0 0 1-2.065 2.068 2.058 2.058 0 0 1-2.066-2.068c0-1.149.918-2.068 2.066-2.068 1.147 0 2.065.92 2.065 2.068Z" fill="url(#k)" fill-opacity=".3"/><path d="M264.791 20.007a2.058 2.058 0 0 1-2.065 2.068 2.057 2.057 0 0 1-2.065-2.068c0-1.149.917-2.068 2.065-2.068 1.122 0 2.065.92 2.065 2.068Z" fill="url(#l)" fill-opacity=".3"/><path d="M288.428 20.007a2.058 2.058 0 0 1-2.065 2.068 2.058 2.058 0 0 1-2.066-2.068c0-1.149.918-2.068 2.066-2.068 1.147 0 2.065.92 2.065 2.068Z" fill="url(#m)" fill-opacity=".3"/><path d="M312.065 20.007a2.058 2.058 0 0 1-2.066 2.068 2.058 2.058 0 0 1-2.065-2.068c0-1.149.918-2.068 2.065-2.068 1.148 0 2.066.92 2.066 2.068Z" fill="url(#n)" fill-opacity=".3"/><path d="M335.701 20.007a2.058 2.058 0 0 1-2.065 2.068 2.058 2.058 0 0 1-2.066-2.068c0-1.149.918-2.068 2.066-2.068 1.147 0 2.065.92 2.065 2.068Z" fill="url(#o)" fill-opacity=".3"/><path d="M359.363 20.007a2.058 2.058 0 0 1-2.065 2.068 2.058 2.058 0 0 1-2.065-2.068c0-1.149.918-2.068 2.065-2.068 1.147 0 2.065.92 2.065 2.068Z" fill="url(#p)" fill-opacity=".3"/><path d="M383 20.007a2.058 2.058 0 0 1-2.065 2.068 2.058 2.058 0 0 1-2.066-2.068c0-1.149.918-2.068 2.066-2.068 1.147 0 2.065.92 2.065 2.068Z" fill="url(#q)" fill-opacity=".3"/><path d="M406.637 20.007a2.058 2.058 0 0 1-2.066 2.068 2.058 2.058 0 0 1-2.065-2.068c0-1.149.918-2.068 2.065-2.068 1.148 0 2.066.92 2.066 2.068Z" fill="url(#r)" fill-opacity=".3"/><path d="M430.299 20.007a2.058 2.058 0 0 1-2.066 2.068 2.058 2.058 0 0 1-2.065-2.068c0-1.149.918-2.068 2.065-2.068 1.122 0 2.066.92 2.066 2.068Z" fill="url(#s)" fill-opacity=".3"/><path d="M453.935 20.007a2.057 2.057 0 0 1-2.065 2.068 2.058 2.058 0 0 1-2.065-2.068c0-1.149.918-2.068 2.065-2.068 1.148 0 2.065.92 2.065 2.068Z" fill="url(#t)" fill-opacity=".3"/><path d="M477.572 20.007a2.058 2.058 0 0 1-2.065 2.068 2.058 2.058 0 0 1-2.066-2.068c0-1.149.918-2.068 2.066-2.068 1.147 0 2.065.92 2.065 2.068Z" fill="url(#u)" fill-opacity=".3"/><path d="M4.686 43.165a2.058 2.058 0 0 1-2.065 2.068 2.058 2.058 0 0 1-2.066-2.068c0-1.15.918-2.068 2.066-2.068 1.147 0 2.065.919 2.065 2.068Z" fill="url(#v)" fill-opacity=".3"/><path d="M28.348 43.165a2.058 2.058 0 0 1-2.065 2.068 2.058 2.058 0 0 1-2.065-2.068c0-1.15.918-2.068 2.065-2.068 1.147 0 2.065.919 2.065 2.068Z" fill="url(#w)" fill-opacity=".3"/><path d="M51.985 43.165a2.058 2.058 0 0 1-2.066 2.068 2.058 2.058 0 0 1-2.065-2.068c0-1.15.918-2.068 2.066-2.068 1.147 0 2.065.919 2.065 2.068Z" fill="url(#x)" fill-opacity=".3"/><path d="M75.621 43.165a2.058 2.058 0 0 1-2.065 2.068 2.058 2.058 0 0 1-2.065-2.068c0-1.15.918-2.068 2.065-2.068 1.148 0 2.066.919 2.066 2.068Z" fill="url(#y)" fill-opacity=".3"/><path d="M99.284 43.165a2.058 2.058 0 0 1-2.066 2.068 2.058 2.058 0 0 1-2.065-2.068c0-1.15.918-2.068 2.065-2.068 1.122 0 2.066.919 2.066 2.068Z" fill="url(#z)" fill-opacity=".3"/><path d="M122.92 43.165a2.058 2.058 0 0 1-2.065 2.068 2.058 2.058 0 0 1-2.065-2.068c0-1.15.918-2.068 2.065-2.068 1.147 0 2.065.919 2.065 2.068Z" fill="url(#A)" fill-opacity=".3"/><path d="M144.492 45.233c1.14 0 2.065-.926 2.065-2.068a2.067 2.067 0 0 0-2.065-2.068 2.067 2.067 0 0 0-2.066 2.068c0 1.142.925 2.068 2.066 2.068Z" fill="url(#B)" fill-opacity=".3"/><path d="M170.194 43.165a2.058 2.058 0 0 1-2.066 2.068 2.058 2.058 0 0 1-2.065-2.068c0-1.15.918-2.068 2.065-2.068 1.148 0 2.066.919 2.066 2.068Z" fill="url(#C)" fill-opacity=".3"/><path d="M193.856 43.165a2.058 2.058 0 0 1-2.066 2.068 2.058 2.058 0 0 1-2.065-2.068c0-1.15.918-2.068 2.065-2.068 1.148 0 2.066.919 2.066 2.068Z" fill="url(#D)" fill-opacity=".3"/><path d="M215.427 45.233a2.066 2.066 0 0 0 2.065-2.068 2.066 2.066 0 1 0-4.13 0c0 1.142.924 2.068 2.065 2.068Z" fill="url(#E)" fill-opacity=".3"/><path d="M241.129 43.165a2.058 2.058 0 0 1-2.065 2.068 2.058 2.058 0 0 1-2.066-2.068c0-1.15.918-2.068 2.066-2.068 1.147 0 2.065.919 2.065 2.068Z" fill="url(#F)" fill-opacity=".3"/><path d="M264.791 43.165a2.058 2.058 0 0 1-2.065 2.068 2.057 2.057 0 0 1-2.065-2.068c0-1.15.917-2.068 2.065-2.068 1.122 0 2.065.919 2.065 2.068Z" fill="url(#G)" fill-opacity=".3"/><path d="M286.363 45.233c1.14 0 2.065-.926 2.065-2.068a2.067 2.067 0 0 0-2.065-2.068 2.067 2.067 0 0 0-2.066 2.068c0 1.142.925 2.068 2.066 2.068Z" fill="url(#H)" fill-opacity=".3"/><path d="M312.065 43.165a2.058 2.058 0 0 1-2.066 2.068 2.058 2.058 0 0 1-2.065-2.068c0-1.15.918-2.068 2.065-2.068 1.148 0 2.066.919 2.066 2.068Z" fill="url(#I)" fill-opacity=".3"/><path d="M335.701 43.165a2.058 2.058 0 0 1-2.065 2.068 2.058 2.058 0 0 1-2.066-2.068c0-1.15.918-2.068 2.066-2.068 1.147 0 2.065.919 2.065 2.068Z" fill="url(#J)" fill-opacity=".3"/><path d="M357.298 45.233a2.066 2.066 0 0 0 2.065-2.068 2.066 2.066 0 1 0-4.13 0c0 1.142.924 2.068 2.065 2.068Z" fill="url(#K)" fill-opacity=".3"/><path d="M383 43.165a2.058 2.058 0 0 1-2.065 2.068 2.058 2.058 0 0 1-2.066-2.068c0-1.15.918-2.068 2.066-2.068 1.147 0 2.065.919 2.065 2.068Z" fill="url(#L)" fill-opacity=".3"/><path d="M406.637 43.165a2.058 2.058 0 0 1-2.066 2.068 2.058 2.058 0 0 1-2.065-2.068c0-1.15.918-2.068 2.065-2.068 1.148 0 2.066.919 2.066 2.068Z" fill="url(#M)" fill-opacity=".3"/><path d="M428.233 45.233a2.067 2.067 0 0 0 2.066-2.068 2.067 2.067 0 0 0-2.066-2.068c-1.14 0-2.065.926-2.065 2.068s.925 2.068 2.065 2.068Z" fill="url(#N)" fill-opacity=".3"/><path d="M453.935 43.165a2.057 2.057 0 0 1-2.065 2.068 2.058 2.058 0 0 1-2.065-2.068c0-1.15.918-2.068 2.065-2.068 1.148 0 2.065.919 2.065 2.068Z" fill="url(#O)" fill-opacity=".3"/><path d="M477.572 43.165a2.058 2.058 0 0 1-2.065 2.068 2.058 2.058 0 0 1-2.066-2.068c0-1.15.918-2.068 2.066-2.068 1.147 0 2.065.919 2.065 2.068Z" fill="url(#P)" fill-opacity=".3"/><path d="M4.686 66.322a2.058 2.058 0 0 1-2.065 2.069 2.058 2.058 0 0 1-2.066-2.069c0-1.148.918-2.068 2.066-2.068 1.147 0 2.065.945 2.065 2.068Z" fill="url(#Q)" fill-opacity=".3"/><path d="M28.348 66.322a2.058 2.058 0 0 1-2.065 2.069 2.058 2.058 0 0 1-2.065-2.069c0-1.148.918-2.068 2.065-2.068 1.147 0 2.065.945 2.065 2.068Z" fill="url(#R)" fill-opacity=".3"/><path d="M51.985 66.322a2.058 2.058 0 0 1-2.066 2.069 2.058 2.058 0 0 1-2.065-2.069c0-1.148.918-2.068 2.066-2.068 1.147 0 2.065.945 2.065 2.068Z" fill="url(#S)" fill-opacity=".3"/><path d="M75.621 66.322a2.058 2.058 0 0 1-2.065 2.069 2.058 2.058 0 0 1-2.065-2.069c0-1.148.918-2.068 2.065-2.068 1.148 0 2.066.945 2.066 2.068Z" fill="url(#T)" fill-opacity=".3"/><path d="M99.284 66.322a2.058 2.058 0 0 1-2.066 2.069 2.058 2.058 0 0 1-2.065-2.069c0-1.148.918-2.068 2.065-2.068 1.122 0 2.066.945 2.066 2.068Z" fill="url(#U)" fill-opacity=".3"/><path d="M122.92 66.322a2.058 2.058 0 0 1-2.065 2.069 2.058 2.058 0 0 1-2.065-2.069c0-1.148.918-2.068 2.065-2.068 1.147 0 2.065.945 2.065 2.068Z" fill="url(#V)" fill-opacity=".3"/><path d="M146.557 66.322a2.058 2.058 0 0 1-2.065 2.069 2.058 2.058 0 0 1-2.066-2.069c0-1.148.918-2.068 2.066-2.068 1.147 0 2.065.945 2.065 2.068Z" fill="url(#W)" fill-opacity=".3"/><path d="M170.194 66.322a2.058 2.058 0 0 1-2.066 2.069 2.058 2.058 0 0 1-2.065-2.069c0-1.148.918-2.068 2.065-2.068 1.148 0 2.066.945 2.066 2.068Z" fill="url(#X)" fill-opacity=".3"/><path d="M193.856 66.322a2.058 2.058 0 0 1-2.066 2.069 2.058 2.058 0 0 1-2.065-2.069c0-1.148.918-2.068 2.065-2.068 1.148 0 2.066.945 2.066 2.068Z" fill="url(#Y)" fill-opacity=".3"/><path d="M217.492 66.322a2.058 2.058 0 0 1-2.065 2.069 2.058 2.058 0 0 1-2.065-2.069c0-1.148.918-2.068 2.065-2.068 1.147 0 2.065.945 2.065 2.068Z" fill="url(#Z)" fill-opacity=".3"/><path d="M241.129 66.322a2.058 2.058 0 0 1-2.065 2.069 2.058 2.058 0 0 1-2.066-2.069c0-1.148.918-2.068 2.066-2.068 1.147 0 2.065.945 2.065 2.068Z" fill="url(#aa)" fill-opacity=".3"/><path d="M264.791 66.322a2.058 2.058 0 0 1-2.065 2.069 2.057 2.057 0 0 1-2.065-2.069c0-1.148.917-2.068 2.065-2.068 1.122 0 2.065.945 2.065 2.068Z" fill="url(#ab)" fill-opacity=".3"/><path d="M288.428 66.322a2.058 2.058 0 0 1-2.065 2.069 2.058 2.058 0 0 1-2.066-2.069c0-1.148.918-2.068 2.066-2.068 1.147 0 2.065.945 2.065 2.068Z" fill="url(#ac)" fill-opacity=".3"/><path d="M312.065 66.322a2.058 2.058 0 0 1-2.066 2.069 2.058 2.058 0 0 1-2.065-2.069c0-1.148.918-2.068 2.065-2.068 1.148 0 2.066.945 2.066 2.068Z" fill="url(#ad)" fill-opacity=".3"/><path d="M335.701 66.322a2.058 2.058 0 0 1-2.065 2.069 2.058 2.058 0 0 1-2.066-2.069c0-1.148.918-2.068 2.066-2.068 1.147 0 2.065.945 2.065 2.068Z" fill="url(#ae)" fill-opacity=".3"/><path d="M359.363 66.322a2.058 2.058 0 0 1-2.065 2.069 2.058 2.058 0 0 1-2.065-2.069c0-1.148.918-2.068 2.065-2.068 1.147 0 2.065.945 2.065 2.068Z" fill="url(#af)" fill-opacity=".3"/><path d="M383 66.322a2.058 2.058 0 0 1-2.065 2.069 2.058 2.058 0 0 1-2.066-2.069c0-1.148.918-2.068 2.066-2.068 1.147 0 2.065.945 2.065 2.068Z" fill="url(#ag)" fill-opacity=".3"/><path d="M406.637 66.322a2.058 2.058 0 0 1-2.066 2.069 2.058 2.058 0 0 1-2.065-2.069c0-1.148.918-2.068 2.065-2.068 1.148 0 2.066.945 2.066 2.068Z" fill="url(#ah)" fill-opacity=".3"/><path d="M430.299 66.322a2.058 2.058 0 0 1-2.066 2.069 2.058 2.058 0 0 1-2.065-2.069c0-1.148.918-2.068 2.065-2.068 1.122 0 2.066.945 2.066 2.068Z" fill="url(#ai)" fill-opacity=".3"/><path d="M453.935 66.322a2.057 2.057 0 0 1-2.065 2.069 2.058 2.058 0 0 1-2.065-2.069c0-1.148.918-2.068 2.065-2.068 1.148 0 2.065.945 2.065 2.068Z" fill="url(#aj)" fill-opacity=".3"/><path d="M477.572 66.322a2.058 2.058 0 0 1-2.065 2.069 2.058 2.058 0 0 1-2.066-2.069c0-1.148.918-2.068 2.066-2.068 1.147 0 2.065.945 2.065 2.068Z" fill="url(#ak)" fill-opacity=".3"/><path d="M4.686 89.48a2.058 2.058 0 0 1-2.065 2.068A2.058 2.058 0 0 1 .555 89.48c0-1.149.918-2.068 2.066-2.068 1.147.025 2.065.945 2.065 2.068Z" fill="url(#al)" fill-opacity=".3"/><path d="M28.348 89.48a2.058 2.058 0 0 1-2.065 2.068 2.058 2.058 0 0 1-2.065-2.068c0-1.149.918-2.068 2.065-2.068 1.147.025 2.065.945 2.065 2.068Z" fill="url(#am)" fill-opacity=".3"/><path d="M51.985 89.48a2.058 2.058 0 0 1-2.066 2.068 2.058 2.058 0 0 1-2.065-2.068c0-1.149.918-2.068 2.066-2.068 1.147.025 2.065.945 2.065 2.068Z" fill="url(#an)" fill-opacity=".3"/><path d="M75.621 89.48a2.058 2.058 0 0 1-2.065 2.068 2.058 2.058 0 0 1-2.065-2.068c0-1.149.918-2.068 2.065-2.068 1.148.025 2.066.945 2.066 2.068Z" fill="url(#ao)" fill-opacity=".3"/><path d="M99.284 89.48a2.058 2.058 0 0 1-2.066 2.068 2.058 2.058 0 0 1-2.065-2.068c0-1.149.918-2.068 2.065-2.068 1.122.025 2.066.945 2.066 2.068Z" fill="url(#ap)" fill-opacity=".3"/><path d="M122.92 89.48a2.058 2.058 0 0 1-2.065 2.068 2.058 2.058 0 0 1-2.065-2.068c0-1.149.918-2.068 2.065-2.068 1.147.025 2.065.945 2.065 2.068Z" fill="url(#aq)" fill-opacity=".3"/><path d="M146.557 89.48a2.058 2.058 0 0 1-2.065 2.068 2.058 2.058 0 0 1-2.066-2.068c0-1.149.918-2.068 2.066-2.068 1.147 0 2.065.945 2.065 2.068Z" fill="url(#ar)" fill-opacity=".3"/><path d="M170.194 89.48a2.058 2.058 0 0 1-2.066 2.068 2.058 2.058 0 0 1-2.065-2.068c0-1.149.918-2.068 2.065-2.068 1.148.025 2.066.945 2.066 2.068Z" fill="url(#as)" fill-opacity=".3"/><path d="M193.856 89.48a2.058 2.058 0 0 1-2.066 2.068 2.058 2.058 0 0 1-2.065-2.068c0-1.149.918-2.068 2.065-2.068 1.148.025 2.066.945 2.066 2.068Z" fill="url(#at)" fill-opacity=".3"/><path d="M217.492 89.48a2.058 2.058 0 0 1-2.065 2.068 2.058 2.058 0 0 1-2.065-2.068c0-1.149.918-2.068 2.065-2.068 1.147.025 2.065.945 2.065 2.068Z" fill="url(#au)" fill-opacity=".3"/><path d="M241.129 89.48a2.058 2.058 0 0 1-2.065 2.068 2.058 2.058 0 0 1-2.066-2.068c0-1.149.918-2.068 2.066-2.068 1.147.025 2.065.945 2.065 2.068Z" fill="url(#av)" fill-opacity=".3"/><path d="M264.791 89.48a2.058 2.058 0 0 1-2.065 2.068 2.057 2.057 0 0 1-2.065-2.068c0-1.149.917-2.068 2.065-2.068 1.122.025 2.065.945 2.065 2.068Z" fill="url(#aw)" fill-opacity=".3"/><path d="M288.428 89.48a2.058 2.058 0 0 1-2.065 2.068 2.058 2.058 0 0 1-2.066-2.068c0-1.149.918-2.068 2.066-2.068 1.147.025 2.065.945 2.065 2.068Z" fill="url(#ax)" fill-opacity=".3"/><path d="M312.065 89.48a2.058 2.058 0 0 1-2.066 2.068 2.058 2.058 0 0 1-2.065-2.068c0-1.149.918-2.068 2.065-2.068 1.148.025 2.066.945 2.066 2.068Z" fill="url(#ay)" fill-opacity=".3"/><path d="M335.701 89.48a2.058 2.058 0 0 1-2.065 2.068 2.058 2.058 0 0 1-2.066-2.068c0-1.149.918-2.068 2.066-2.068 1.147.025 2.065.945 2.065 2.068Z" fill="url(#az)" fill-opacity=".3"/><path d="M359.363 89.48a2.058 2.058 0 0 1-2.065 2.068 2.058 2.058 0 0 1-2.065-2.068c0-1.149.918-2.068 2.065-2.068 1.147.025 2.065.945 2.065 2.068Z" fill="url(#aA)" fill-opacity=".3"/><path d="M383 89.48a2.058 2.058 0 0 1-2.065 2.068 2.058 2.058 0 0 1-2.066-2.068c0-1.149.918-2.068 2.066-2.068 1.147.025 2.065.945 2.065 2.068Z" fill="url(#aB)" fill-opacity=".3"/><path d="M406.637 89.48a2.058 2.058 0 0 1-2.066 2.068 2.058 2.058 0 0 1-2.065-2.068c0-1.149.918-2.068 2.065-2.068 1.148.025 2.066.945 2.066 2.068Z" fill="url(#aC)" fill-opacity=".3"/><path d="M430.299 89.48a2.058 2.058 0 0 1-2.066 2.068 2.058 2.058 0 0 1-2.065-2.068c0-1.149.918-2.068 2.065-2.068 1.122.025 2.066.945 2.066 2.068Z" fill="url(#aD)" fill-opacity=".3"/><path d="M453.935 89.48a2.057 2.057 0 0 1-2.065 2.068 2.058 2.058 0 0 1-2.065-2.068c0-1.149.918-2.068 2.065-2.068 1.148.025 2.065.945 2.065 2.068Z" fill="url(#aE)" fill-opacity=".3"/><path d="M477.572 89.48a2.058 2.058 0 0 1-2.065 2.068 2.058 2.058 0 0 1-2.066-2.068c0-1.149.918-2.068 2.066-2.068 1.147.025 2.065.945 2.065 2.068Z" fill="url(#aF)" fill-opacity=".3"/><path d="M4.686 112.637a2.059 2.059 0 0 1-2.065 2.069 2.059 2.059 0 0 1-2.066-2.069c0-1.148.918-2.068 2.066-2.068 1.147.026 2.065.945 2.065 2.068Z" fill="url(#aG)" fill-opacity=".3"/><path d="M28.348 112.637a2.059 2.059 0 0 1-2.065 2.069 2.059 2.059 0 0 1-2.065-2.069c0-1.148.918-2.068 2.065-2.068 1.147.026 2.065.945 2.065 2.068Z" fill="url(#aH)" fill-opacity=".3"/><path d="M51.985 112.637a2.059 2.059 0 0 1-2.066 2.069 2.059 2.059 0 0 1-2.065-2.069c0-1.148.918-2.068 2.066-2.068 1.147.026 2.065.945 2.065 2.068Z" fill="url(#aI)" fill-opacity=".3"/><path d="M75.621 112.637a2.059 2.059 0 0 1-2.065 2.069 2.059 2.059 0 0 1-2.065-2.069c0-1.148.918-2.068 2.065-2.068 1.148.026 2.066.945 2.066 2.068Z" fill="url(#aJ)" fill-opacity=".3"/><path d="M99.284 112.637a2.059 2.059 0 0 1-2.066 2.069 2.059 2.059 0 0 1-2.065-2.069c0-1.148.918-2.068 2.065-2.068 1.122.026 2.066.945 2.066 2.068Z" fill="url(#aK)" fill-opacity=".3"/><path d="M122.92 112.637a2.059 2.059 0 0 1-2.065 2.069 2.059 2.059 0 0 1-2.065-2.069c0-1.148.918-2.068 2.065-2.068 1.147.026 2.065.945 2.065 2.068Z" fill="url(#aL)" fill-opacity=".3"/><path d="M146.557 112.637a2.059 2.059 0 0 1-2.065 2.069 2.059 2.059 0 0 1-2.066-2.069c0-1.148.918-2.068 2.066-2.068 1.147 0 2.065.945 2.065 2.068Z" fill="url(#aM)" fill-opacity=".3"/><path d="M170.194 112.637a2.059 2.059 0 0 1-2.066 2.069 2.059 2.059 0 0 1-2.065-2.069c0-1.148.918-2.068 2.065-2.068 1.148.026 2.066.945 2.066 2.068Z" fill="url(#aN)" fill-opacity=".3"/><path d="M193.856 112.637a2.059 2.059 0 0 1-2.066 2.069 2.059 2.059 0 0 1-2.065-2.069c0-1.148.918-2.068 2.065-2.068 1.148.026 2.066.945 2.066 2.068Z" fill="url(#aO)" fill-opacity=".3"/><path d="M217.492 112.637a2.059 2.059 0 0 1-2.065 2.069 2.059 2.059 0 0 1-2.065-2.069c0-1.148.918-2.068 2.065-2.068 1.147.026 2.065.945 2.065 2.068Z" fill="url(#aP)" fill-opacity=".3"/><path d="M241.129 112.637a2.059 2.059 0 0 1-2.065 2.069 2.059 2.059 0 0 1-2.066-2.069c0-1.148.918-2.068 2.066-2.068 1.147.026 2.065.945 2.065 2.068Z" fill="url(#aQ)" fill-opacity=".3"/><path d="M264.791 112.637a2.059 2.059 0 0 1-2.065 2.069 2.058 2.058 0 0 1-2.065-2.069c0-1.148.917-2.068 2.065-2.068 1.122.026 2.065.945 2.065 2.068Z" fill="url(#aR)" fill-opacity=".3"/><path d="M288.428 112.637a2.059 2.059 0 0 1-2.065 2.069 2.059 2.059 0 0 1-2.066-2.069c0-1.148.918-2.068 2.066-2.068 1.147.026 2.065.945 2.065 2.068Z" fill="url(#aS)" fill-opacity=".3"/><path d="M312.065 112.637a2.059 2.059 0 0 1-2.066 2.069 2.059 2.059 0 0 1-2.065-2.069c0-1.148.918-2.068 2.065-2.068 1.148.026 2.066.945 2.066 2.068Z" fill="url(#aT)" fill-opacity=".3"/><path d="M335.701 112.637a2.059 2.059 0 0 1-2.065 2.069 2.059 2.059 0 0 1-2.066-2.069c0-1.148.918-2.068 2.066-2.068 1.147.026 2.065.945 2.065 2.068Z" fill="url(#aU)" fill-opacity=".3"/><path d="M359.363 112.637a2.059 2.059 0 0 1-2.065 2.069 2.059 2.059 0 0 1-2.065-2.069c0-1.148.918-2.068 2.065-2.068 1.147.026 2.065.945 2.065 2.068Z" fill="url(#aV)" fill-opacity=".3"/><path d="M383 112.637a2.059 2.059 0 0 1-2.065 2.069 2.059 2.059 0 0 1-2.066-2.069c0-1.148.918-2.068 2.066-2.068 1.147.026 2.065.945 2.065 2.068Z" fill="url(#aW)" fill-opacity=".3"/><path d="M406.637 112.637a2.059 2.059 0 0 1-2.066 2.069 2.059 2.059 0 0 1-2.065-2.069c0-1.148.918-2.068 2.065-2.068 1.148.026 2.066.945 2.066 2.068Z" fill="url(#aX)" fill-opacity=".3"/><path d="M430.299 112.637a2.059 2.059 0 0 1-2.066 2.069 2.059 2.059 0 0 1-2.065-2.069c0-1.148.918-2.068 2.065-2.068 1.122.026 2.066.945 2.066 2.068Z" fill="url(#aY)" fill-opacity=".3"/><path d="M453.935 112.637a2.058 2.058 0 0 1-2.065 2.069 2.059 2.059 0 0 1-2.065-2.069c0-1.148.918-2.068 2.065-2.068 1.148.026 2.065.945 2.065 2.068Z" fill="url(#aZ)" fill-opacity=".3"/><path d="M477.572 112.637a2.059 2.059 0 0 1-2.065 2.069 2.059 2.059 0 0 1-2.066-2.069c0-1.148.918-2.068 2.066-2.068 1.147.026 2.065.945 2.065 2.068Z" fill="url(#ba)" fill-opacity=".3"/><path d="M4.686 135.821a2.058 2.058 0 0 1-2.065 2.068 2.058 2.058 0 0 1-2.066-2.068c0-1.149.918-2.068 2.066-2.068 1.147 0 2.065.919 2.065 2.068Z" fill="url(#bb)" fill-opacity=".3"/><path d="M28.348 135.821a2.058 2.058 0 0 1-2.065 2.068 2.058 2.058 0 0 1-2.065-2.068c0-1.149.918-2.068 2.065-2.068 1.147 0 2.065.919 2.065 2.068Z" fill="url(#bc)" fill-opacity=".3"/><path d="M51.985 135.821a2.058 2.058 0 0 1-2.066 2.068 2.058 2.058 0 0 1-2.065-2.068c0-1.149.918-2.068 2.066-2.068 1.147 0 2.065.919 2.065 2.068Z" fill="url(#bd)" fill-opacity=".3"/><path d="M75.621 135.821a2.058 2.058 0 0 1-2.065 2.068 2.058 2.058 0 0 1-2.065-2.068c0-1.149.918-2.068 2.065-2.068 1.148 0 2.066.919 2.066 2.068Z" fill="url(#be)" fill-opacity=".3"/><path d="M99.284 135.821a2.058 2.058 0 0 1-2.066 2.068 2.058 2.058 0 0 1-2.065-2.068c0-1.149.918-2.068 2.065-2.068 1.122 0 2.066.919 2.066 2.068Z" fill="url(#bf)" fill-opacity=".3"/><path d="M122.92 135.821a2.058 2.058 0 0 1-2.065 2.068 2.058 2.058 0 0 1-2.065-2.068c0-1.149.918-2.068 2.065-2.068 1.147 0 2.065.919 2.065 2.068Z" fill="url(#bg)" fill-opacity=".3"/><path d="M146.557 135.821a2.058 2.058 0 0 1-2.065 2.068 2.058 2.058 0 0 1-2.066-2.068c0-1.149.918-2.068 2.066-2.068 1.147 0 2.065.919 2.065 2.068Z" fill="url(#bh)" fill-opacity=".3"/><path d="M170.194 135.821a2.058 2.058 0 0 1-2.066 2.068 2.058 2.058 0 0 1-2.065-2.068c0-1.149.918-2.068 2.065-2.068 1.148 0 2.066.919 2.066 2.068Z" fill="url(#bi)" fill-opacity=".3"/><path d="M193.856 135.821a2.058 2.058 0 0 1-2.066 2.068 2.058 2.058 0 0 1-2.065-2.068c0-1.149.918-2.068 2.065-2.068 1.148 0 2.066.919 2.066 2.068Z" fill="url(#bj)" fill-opacity=".3"/><path d="M217.492 135.821a2.058 2.058 0 0 1-2.065 2.068 2.058 2.058 0 0 1-2.065-2.068c0-1.149.918-2.068 2.065-2.068 1.147 0 2.065.919 2.065 2.068Z" fill="url(#bk)" fill-opacity=".3"/><path d="M241.129 135.821a2.058 2.058 0 0 1-2.065 2.068 2.058 2.058 0 0 1-2.066-2.068c0-1.149.918-2.068 2.066-2.068 1.147 0 2.065.919 2.065 2.068Z" fill="url(#bl)" fill-opacity=".3"/><path d="M264.791 135.821a2.058 2.058 0 0 1-2.065 2.068 2.057 2.057 0 0 1-2.065-2.068c0-1.149.917-2.068 2.065-2.068 1.122 0 2.065.919 2.065 2.068Z" fill="url(#bm)" fill-opacity=".3"/><path d="M288.428 135.821a2.058 2.058 0 0 1-2.065 2.068 2.058 2.058 0 0 1-2.066-2.068c0-1.149.918-2.068 2.066-2.068 1.147 0 2.065.919 2.065 2.068Z" fill="url(#bn)" fill-opacity=".3"/><path d="M312.065 135.821a2.058 2.058 0 0 1-2.066 2.068 2.058 2.058 0 0 1-2.065-2.068c0-1.149.918-2.068 2.065-2.068 1.148 0 2.066.919 2.066 2.068Z" fill="url(#bo)" fill-opacity=".3"/><path d="M335.701 135.821a2.058 2.058 0 0 1-2.065 2.068 2.058 2.058 0 0 1-2.066-2.068c0-1.149.918-2.068 2.066-2.068 1.147 0 2.065.919 2.065 2.068Z" fill="url(#bp)" fill-opacity=".3"/><path d="M359.363 135.821a2.058 2.058 0 0 1-2.065 2.068 2.058 2.058 0 0 1-2.065-2.068c0-1.149.918-2.068 2.065-2.068 1.147 0 2.065.919 2.065 2.068Z" fill="url(#bq)" fill-opacity=".3"/><path d="M383 135.821a2.058 2.058 0 0 1-2.065 2.068 2.058 2.058 0 0 1-2.066-2.068c0-1.149.918-2.068 2.066-2.068 1.147 0 2.065.919 2.065 2.068Z" fill="url(#br)" fill-opacity=".3"/><path d="M406.637 135.821a2.058 2.058 0 0 1-2.066 2.068 2.058 2.058 0 0 1-2.065-2.068c0-1.149.918-2.068 2.065-2.068 1.148 0 2.066.919 2.066 2.068Z" fill="url(#bs)" fill-opacity=".3"/><path d="M430.299 135.821a2.058 2.058 0 0 1-2.066 2.068 2.058 2.058 0 0 1-2.065-2.068c0-1.149.918-2.068 2.065-2.068 1.122 0 2.066.919 2.066 2.068Z" fill="url(#bt)" fill-opacity=".3"/><path d="M453.935 135.821a2.057 2.057 0 0 1-2.065 2.068 2.058 2.058 0 0 1-2.065-2.068c0-1.149.918-2.068 2.065-2.068 1.148 0 2.065.919 2.065 2.068Z" fill="url(#bu)" fill-opacity=".3"/><path d="M477.572 135.821a2.058 2.058 0 0 1-2.065 2.068 2.058 2.058 0 0 1-2.066-2.068c0-1.149.918-2.068 2.066-2.068 1.147 0 2.065.919 2.065 2.068Z" fill="url(#bv)" fill-opacity=".3"/><path d="M4.686 158.978a2.058 2.058 0 0 1-2.065 2.068 2.058 2.058 0 0 1-2.066-2.068c0-1.149.918-2.068 2.066-2.068 1.147 0 2.065.919 2.065 2.068Z" fill="url(#bw)" fill-opacity=".3"/><path d="M28.348 158.978a2.058 2.058 0 0 1-2.065 2.068 2.058 2.058 0 0 1-2.065-2.068c0-1.149.918-2.068 2.065-2.068 1.147 0 2.065.919 2.065 2.068Z" fill="url(#bx)" fill-opacity=".3"/><path d="M51.985 158.978a2.058 2.058 0 0 1-2.066 2.068 2.058 2.058 0 0 1-2.065-2.068c0-1.149.918-2.068 2.066-2.068 1.147 0 2.065.919 2.065 2.068Z" fill="url(#by)" fill-opacity=".3"/><path d="M75.621 158.978a2.058 2.058 0 0 1-2.065 2.068 2.058 2.058 0 0 1-2.065-2.068c0-1.149.918-2.068 2.065-2.068 1.148 0 2.066.919 2.066 2.068Z" fill="url(#bz)" fill-opacity=".3"/><path d="M99.284 158.978a2.058 2.058 0 0 1-2.066 2.068 2.058 2.058 0 0 1-2.065-2.068c0-1.149.918-2.068 2.065-2.068 1.122 0 2.066.919 2.066 2.068Z" fill="url(#bA)" fill-opacity=".3"/><path d="M122.92 158.978a2.058 2.058 0 0 1-2.065 2.068 2.058 2.058 0 0 1-2.065-2.068c0-1.149.918-2.068 2.065-2.068 1.147 0 2.065.919 2.065 2.068Z" fill="url(#bB)" fill-opacity=".3"/><path d="M144.492 161.046c1.14 0 2.065-.926 2.065-2.068a2.067 2.067 0 0 0-2.065-2.068 2.067 2.067 0 0 0 0 4.136Z" fill="url(#bC)" fill-opacity=".3"/><path d="M170.194 158.978a2.058 2.058 0 0 1-2.066 2.068 2.058 2.058 0 0 1-2.065-2.068c0-1.149.918-2.068 2.065-2.068 1.148 0 2.066.919 2.066 2.068Z" fill="url(#bD)" fill-opacity=".3"/><path d="M193.856 158.978a2.058 2.058 0 0 1-2.066 2.068 2.058 2.058 0 0 1-2.065-2.068c0-1.149.918-2.068 2.065-2.068 1.148 0 2.066.919 2.066 2.068Z" fill="url(#bE)" fill-opacity=".3"/><path d="M215.427 161.046a2.066 2.066 0 0 0 2.065-2.068 2.066 2.066 0 1 0-4.13 0c0 1.142.924 2.068 2.065 2.068Z" fill="url(#bF)" fill-opacity=".3"/><path d="M241.129 158.978a2.058 2.058 0 0 1-2.065 2.068 2.058 2.058 0 0 1-2.066-2.068c0-1.149.918-2.068 2.066-2.068 1.147 0 2.065.919 2.065 2.068Z" fill="url(#bG)" fill-opacity=".3"/><path d="M264.791 158.978a2.058 2.058 0 0 1-2.065 2.068 2.057 2.057 0 0 1-2.065-2.068c0-1.149.917-2.068 2.065-2.068 1.122 0 2.065.919 2.065 2.068Z" fill="url(#bH)" fill-opacity=".3"/><path d="M286.363 161.046c1.14 0 2.065-.926 2.065-2.068a2.067 2.067 0 0 0-2.065-2.068 2.067 2.067 0 0 0 0 4.136Z" fill="url(#bI)" fill-opacity=".3"/><path d="M312.065 158.978a2.058 2.058 0 0 1-2.066 2.068 2.058 2.058 0 0 1-2.065-2.068c0-1.149.918-2.068 2.065-2.068 1.148 0 2.066.919 2.066 2.068Z" fill="url(#bJ)" fill-opacity=".3"/><path d="M335.701 158.978a2.058 2.058 0 0 1-2.065 2.068 2.058 2.058 0 0 1-2.066-2.068c0-1.149.918-2.068 2.066-2.068 1.147 0 2.065.919 2.065 2.068Z" fill="url(#bK)" fill-opacity=".3"/><path d="M357.298 161.046a2.066 2.066 0 0 0 2.065-2.068 2.066 2.066 0 1 0-4.13 0c0 1.142.924 2.068 2.065 2.068Z" fill="url(#bL)" fill-opacity=".3"/><path d="M383 158.978a2.058 2.058 0 0 1-2.065 2.068 2.058 2.058 0 0 1-2.066-2.068c0-1.149.918-2.068 2.066-2.068 1.147 0 2.065.919 2.065 2.068Z" fill="url(#bM)" fill-opacity=".3"/><path d="M406.637 158.978a2.058 2.058 0 0 1-2.066 2.068 2.058 2.058 0 0 1-2.065-2.068c0-1.149.918-2.068 2.065-2.068 1.148 0 2.066.919 2.066 2.068Z" fill="url(#bN)" fill-opacity=".3"/><path d="M428.233 161.046a2.067 2.067 0 0 0 0-4.136c-1.14 0-2.065.926-2.065 2.068s.925 2.068 2.065 2.068Z" fill="url(#bO)" fill-opacity=".3"/><path d="M453.935 158.978a2.057 2.057 0 0 1-2.065 2.068 2.058 2.058 0 0 1-2.065-2.068c0-1.149.918-2.068 2.065-2.068 1.148 0 2.065.919 2.065 2.068Z" fill="url(#bP)" fill-opacity=".3"/><path d="M477.572 158.978a2.058 2.058 0 0 1-2.065 2.068 2.058 2.058 0 0 1-2.066-2.068c0-1.149.918-2.068 2.066-2.068 1.147 0 2.065.919 2.065 2.068Z" fill="url(#bQ)" fill-opacity=".3"/><defs><linearGradient id="a" x1=".555" y1="17.939" x2="4.927" y2="18.212" gradientUnits="userSpaceOnUse"><stop stop-color="#81BD92"/><stop offset="1" stop-color="#BEF8CE"/></linearGradient><linearGradient id="b" x1="24.218" y1="17.939" x2="28.589" y2="18.212" gradientUnits="userSpaceOnUse"><stop stop-color="#81BD92"/><stop offset="1" stop-color="#BEF8CE"/></linearGradient><linearGradient id="c" x1="47.854" y1="17.939" x2="52.226" y2="18.212" gradientUnits="userSpaceOnUse"><stop stop-color="#81BD92"/><stop offset="1" stop-color="#BEF8CE"/></linearGradient><linearGradient id="d" x1="71.491" y1="17.939" x2="75.863" y2="18.212" gradientUnits="userSpaceOnUse"><stop stop-color="#81BD92"/><stop offset="1" stop-color="#BEF8CE"/></linearGradient><linearGradient id="e" x1="95.153" y1="17.939" x2="99.525" y2="18.212" gradientUnits="userSpaceOnUse"><stop stop-color="#81BD92"/><stop offset="1" stop-color="#BEF8CE"/></linearGradient><linearGradient id="f" x1="118.79" y1="17.939" x2="123.161" y2="18.212" gradientUnits="userSpaceOnUse"><stop stop-color="#81BD92"/><stop offset="1" stop-color="#BEF8CE"/></linearGradient><linearGradient id="g" x1="142.426" y1="17.939" x2="146.798" y2="18.212" gradientUnits="userSpaceOnUse"><stop stop-color="#81BD92"/><stop offset="1" stop-color="#BEF8CE"/></linearGradient><linearGradient id="h" x1="166.063" y1="17.939" x2="170.435" y2="18.212" gradientUnits="userSpaceOnUse"><stop stop-color="#81BD92"/><stop offset="1" stop-color="#BEF8CE"/></linearGradient><linearGradient id="i" x1="189.725" y1="17.939" x2="194.097" y2="18.212" gradientUnits="userSpaceOnUse"><stop stop-color="#81BD92"/><stop offset="1" stop-color="#BEF8CE"/></linearGradient><linearGradient id="j" x1="213.362" y1="17.939" x2="217.734" y2="18.212" gradientUnits="userSpaceOnUse"><stop stop-color="#81BD92"/><stop offset="1" stop-color="#BEF8CE"/></linearGradient><linearGradient id="k" x1="236.998" y1="17.939" x2="241.37" y2="18.212" gradientUnits="userSpaceOnUse"><stop stop-color="#81BD92"/><stop offset="1" stop-color="#BEF8CE"/></linearGradient><linearGradient id="l" x1="260.661" y1="17.939" x2="265.032" y2="18.212" gradientUnits="userSpaceOnUse"><stop stop-color="#81BD92"/><stop offset="1" stop-color="#BEF8CE"/></linearGradient><linearGradient id="m" x1="284.297" y1="17.939" x2="288.669" y2="18.212" gradientUnits="userSpaceOnUse"><stop stop-color="#81BD92"/><stop offset="1" stop-color="#BEF8CE"/></linearGradient><linearGradient id="n" x1="307.934" y1="17.939" x2="312.306" y2="18.212" gradientUnits="userSpaceOnUse"><stop stop-color="#81BD92"/><stop offset="1" stop-color="#BEF8CE"/></linearGradient><linearGradient id="o" x1="331.57" y1="17.939" x2="335.942" y2="18.212" gradientUnits="userSpaceOnUse"><stop stop-color="#81BD92"/><stop offset="1" stop-color="#BEF8CE"/></linearGradient><linearGradient id="p" x1="355.233" y1="17.939" x2="359.605" y2="18.212" gradientUnits="userSpaceOnUse"><stop stop-color="#81BD92"/><stop offset="1" stop-color="#BEF8CE"/></linearGradient><linearGradient id="q" x1="378.869" y1="17.939" x2="383.241" y2="18.212" gradientUnits="userSpaceOnUse"><stop stop-color="#81BD92"/><stop offset="1" stop-color="#BEF8CE"/></linearGradient><linearGradient id="r" x1="402.506" y1="17.939" x2="406.878" y2="18.212" gradientUnits="userSpaceOnUse"><stop stop-color="#81BD92"/><stop offset="1" stop-color="#BEF8CE"/></linearGradient><linearGradient id="s" x1="426.168" y1="17.939" x2="430.54" y2="18.212" gradientUnits="userSpaceOnUse"><stop stop-color="#81BD92"/><stop offset="1" stop-color="#BEF8CE"/></linearGradient><linearGradient id="t" x1="449.805" y1="17.939" x2="454.177" y2="18.212" gradientUnits="userSpaceOnUse"><stop stop-color="#81BD92"/><stop offset="1" stop-color="#BEF8CE"/></linearGradient><linearGradient id="u" x1="473.441" y1="17.939" x2="477.813" y2="18.212" gradientUnits="userSpaceOnUse"><stop stop-color="#81BD92"/><stop offset="1" stop-color="#BEF8CE"/></linearGradient><linearGradient id="v" x1=".555" y1="41.097" x2="4.927" y2="41.37" gradientUnits="userSpaceOnUse"><stop stop-color="#81BD92"/><stop offset="1" stop-color="#BEF8CE"/></linearGradient><linearGradient id="w" x1="24.218" y1="41.097" x2="28.589" y2="41.37" gradientUnits="userSpaceOnUse"><stop stop-color="#81BD92"/><stop offset="1" stop-color="#BEF8CE"/></linearGradient><linearGradient id="x" x1="47.854" y1="41.097" x2="52.226" y2="41.37" gradientUnits="userSpaceOnUse"><stop stop-color="#81BD92"/><stop offset="1" stop-color="#BEF8CE"/></linearGradient><linearGradient id="y" x1="71.491" y1="41.097" x2="75.863" y2="41.37" gradientUnits="userSpaceOnUse"><stop stop-color="#81BD92"/><stop offset="1" stop-color="#BEF8CE"/></linearGradient><linearGradient id="z" x1="95.153" y1="41.097" x2="99.525" y2="41.37" gradientUnits="userSpaceOnUse"><stop stop-color="#81BD92"/><stop offset="1" stop-color="#BEF8CE"/></linearGradient><linearGradient id="A" x1="118.79" y1="41.097" x2="123.161" y2="41.37" gradientUnits="userSpaceOnUse"><stop stop-color="#81BD92"/><stop offset="1" stop-color="#BEF8CE"/></linearGradient><linearGradient id="B" x1="142.426" y1="41.097" x2="146.798" y2="41.37" gradientUnits="userSpaceOnUse"><stop stop-color="#81BD92"/><stop offset="1" stop-color="#BEF8CE"/></linearGradient><linearGradient id="C" x1="166.063" y1="41.097" x2="170.435" y2="41.37" gradientUnits="userSpaceOnUse"><stop stop-color="#81BD92"/><stop offset="1" stop-color="#BEF8CE"/></linearGradient><linearGradient id="D" x1="189.725" y1="41.097" x2="194.097" y2="41.37" gradientUnits="userSpaceOnUse"><stop stop-color="#81BD92"/><stop offset="1" stop-color="#BEF8CE"/></linearGradient><linearGradient id="E" x1="213.362" y1="41.097" x2="217.734" y2="41.37" gradientUnits="userSpaceOnUse"><stop stop-color="#81BD92"/><stop offset="1" stop-color="#BEF8CE"/></linearGradient><linearGradient id="F" x1="236.998" y1="41.097" x2="241.37" y2="41.37" gradientUnits="userSpaceOnUse"><stop stop-color="#81BD92"/><stop offset="1" stop-color="#BEF8CE"/></linearGradient><linearGradient id="G" x1="260.661" y1="41.097" x2="265.032" y2="41.37" gradientUnits="userSpaceOnUse"><stop stop-color="#81BD92"/><stop offset="1" stop-color="#BEF8CE"/></linearGradient><linearGradient id="H" x1="284.297" y1="41.097" x2="288.669" y2="41.37" gradientUnits="userSpaceOnUse"><stop stop-color="#81BD92"/><stop offset="1" stop-color="#BEF8CE"/></linearGradient><linearGradient id="I" x1="307.934" y1="41.097" x2="312.306" y2="41.37" gradientUnits="userSpaceOnUse"><stop stop-color="#81BD92"/><stop offset="1" stop-color="#BEF8CE"/></linearGradient><linearGradient id="J" x1="331.57" y1="41.097" x2="335.942" y2="41.37" gradientUnits="userSpaceOnUse"><stop stop-color="#81BD92"/><stop offset="1" stop-color="#BEF8CE"/></linearGradient><linearGradient id="K" x1="355.233" y1="41.097" x2="359.605" y2="41.37" gradientUnits="userSpaceOnUse"><stop stop-color="#81BD92"/><stop offset="1" stop-color="#BEF8CE"/></linearGradient><linearGradient id="L" x1="378.869" y1="41.097" x2="383.241" y2="41.37" gradientUnits="userSpaceOnUse"><stop stop-color="#81BD92"/><stop offset="1" stop-color="#BEF8CE"/></linearGradient><linearGradient id="M" x1="402.506" y1="41.097" x2="406.878" y2="41.37" gradientUnits="userSpaceOnUse"><stop stop-color="#81BD92"/><stop offset="1" stop-color="#BEF8CE"/></linearGradient><linearGradient id="N" x1="426.168" y1="41.097" x2="430.54" y2="41.37" gradientUnits="userSpaceOnUse"><stop stop-color="#81BD92"/><stop offset="1" stop-color="#BEF8CE"/></linearGradient><linearGradient id="O" x1="449.805" y1="41.097" x2="454.177" y2="41.37" gradientUnits="userSpaceOnUse"><stop stop-color="#81BD92"/><stop offset="1" stop-color="#BEF8CE"/></linearGradient><linearGradient id="P" x1="473.441" y1="41.097" x2="477.813" y2="41.37" gradientUnits="userSpaceOnUse"><stop stop-color="#81BD92"/><stop offset="1" stop-color="#BEF8CE"/></linearGradient><linearGradient id="Q" x1=".555" y1="64.254" x2="4.927" y2="64.527" gradientUnits="userSpaceOnUse"><stop stop-color="#81BD92"/><stop offset="1" stop-color="#BEF8CE"/></linearGradient><linearGradient id="R" x1="24.218" y1="64.254" x2="28.589" y2="64.527" gradientUnits="userSpaceOnUse"><stop stop-color="#81BD92"/><stop offset="1" stop-color="#BEF8CE"/></linearGradient><linearGradient id="S" x1="47.854" y1="64.254" x2="52.226" y2="64.527" gradientUnits="userSpaceOnUse"><stop stop-color="#81BD92"/><stop offset="1" stop-color="#BEF8CE"/></linearGradient><linearGradient id="T" x1="71.491" y1="64.254" x2="75.863" y2="64.527" gradientUnits="userSpaceOnUse"><stop stop-color="#81BD92"/><stop offset="1" stop-color="#BEF8CE"/></linearGradient><linearGradient id="U" x1="95.153" y1="64.254" x2="99.525" y2="64.527" gradientUnits="userSpaceOnUse"><stop stop-color="#81BD92"/><stop offset="1" stop-color="#BEF8CE"/></linearGradient><linearGradient id="V" x1="118.79" y1="64.254" x2="123.161" y2="64.527" gradientUnits="userSpaceOnUse"><stop stop-color="#81BD92"/><stop offset="1" stop-color="#BEF8CE"/></linearGradient><linearGradient id="W" x1="142.426" y1="64.254" x2="146.798" y2="64.527" gradientUnits="userSpaceOnUse"><stop stop-color="#81BD92"/><stop offset="1" stop-color="#BEF8CE"/></linearGradient><linearGradient id="X" x1="166.063" y1="64.254" x2="170.435" y2="64.527" gradientUnits="userSpaceOnUse"><stop stop-color="#81BD92"/><stop offset="1" stop-color="#BEF8CE"/></linearGradient><linearGradient id="Y" x1="189.725" y1="64.254" x2="194.097" y2="64.527" gradientUnits="userSpaceOnUse"><stop stop-color="#81BD92"/><stop offset="1" stop-color="#BEF8CE"/></linearGradient><linearGradient id="Z" x1="213.362" y1="64.254" x2="217.734" y2="64.527" gradientUnits="userSpaceOnUse"><stop stop-color="#81BD92"/><stop offset="1" stop-color="#BEF8CE"/></linearGradient><linearGradient id="aa" x1="236.998" y1="64.254" x2="241.37" y2="64.527" gradientUnits="userSpaceOnUse"><stop stop-color="#81BD92"/><stop offset="1" stop-color="#BEF8CE"/></linearGradient><linearGradient id="ab" x1="260.661" y1="64.254" x2="265.032" y2="64.527" gradientUnits="userSpaceOnUse"><stop stop-color="#81BD92"/><stop offset="1" stop-color="#BEF8CE"/></linearGradient><linearGradient id="ac" x1="284.297" y1="64.254" x2="288.669" y2="64.527" gradientUnits="userSpaceOnUse"><stop stop-color="#81BD92"/><stop offset="1" stop-color="#BEF8CE"/></linearGradient><linearGradient id="ad" x1="307.934" y1="64.254" x2="312.306" y2="64.527" gradientUnits="userSpaceOnUse"><stop stop-color="#81BD92"/><stop offset="1" stop-color="#BEF8CE"/></linearGradient><linearGradient id="ae" x1="331.57" y1="64.254" x2="335.942" y2="64.527" gradientUnits="userSpaceOnUse"><stop stop-color="#81BD92"/><stop offset="1" stop-color="#BEF8CE"/></linearGradient><linearGradient id="af" x1="355.233" y1="64.254" x2="359.605" y2="64.527" gradientUnits="userSpaceOnUse"><stop stop-color="#81BD92"/><stop offset="1" stop-color="#BEF8CE"/></linearGradient><linearGradient id="ag" x1="378.869" y1="64.254" x2="383.241" y2="64.527" gradientUnits="userSpaceOnUse"><stop stop-color="#81BD92"/><stop offset="1" stop-color="#BEF8CE"/></linearGradient><linearGradient id="ah" x1="402.506" y1="64.254" x2="406.878" y2="64.527" gradientUnits="userSpaceOnUse"><stop stop-color="#81BD92"/><stop offset="1" stop-color="#BEF8CE"/></linearGradient><linearGradient id="ai" x1="426.168" y1="64.254" x2="430.54" y2="64.527" gradientUnits="userSpaceOnUse"><stop stop-color="#81BD92"/><stop offset="1" stop-color="#BEF8CE"/></linearGradient><linearGradient id="aj" x1="449.805" y1="64.254" x2="454.177" y2="64.527" gradientUnits="userSpaceOnUse"><stop stop-color="#81BD92"/><stop offset="1" stop-color="#BEF8CE"/></linearGradient><linearGradient id="ak" x1="473.441" y1="64.254" x2="477.813" y2="64.527" gradientUnits="userSpaceOnUse"><stop stop-color="#81BD92"/><stop offset="1" stop-color="#BEF8CE"/></linearGradient><linearGradient id="al" x1=".555" y1="87.412" x2="4.927" y2="87.685" gradientUnits="userSpaceOnUse"><stop stop-color="#81BD92"/><stop offset="1" stop-color="#BEF8CE"/></linearGradient><linearGradient id="am" x1="24.218" y1="87.412" x2="28.589" y2="87.685" gradientUnits="userSpaceOnUse"><stop stop-color="#81BD92"/><stop offset="1" stop-color="#BEF8CE"/></linearGradient><linearGradient id="an" x1="47.854" y1="87.412" x2="52.226" y2="87.685" gradientUnits="userSpaceOnUse"><stop stop-color="#81BD92"/><stop offset="1" stop-color="#BEF8CE"/></linearGradient><linearGradient id="ao" x1="71.491" y1="87.412" x2="75.863" y2="87.685" gradientUnits="userSpaceOnUse"><stop stop-color="#81BD92"/><stop offset="1" stop-color="#BEF8CE"/></linearGradient><linearGradient id="ap" x1="95.153" y1="87.412" x2="99.525" y2="87.685" gradientUnits="userSpaceOnUse"><stop stop-color="#81BD92"/><stop offset="1" stop-color="#BEF8CE"/></linearGradient><linearGradient id="aq" x1="118.79" y1="87.412" x2="123.161" y2="87.685" gradientUnits="userSpaceOnUse"><stop stop-color="#81BD92"/><stop offset="1" stop-color="#BEF8CE"/></linearGradient><linearGradient id="ar" x1="142.426" y1="87.412" x2="146.798" y2="87.685" gradientUnits="userSpaceOnUse"><stop stop-color="#81BD92"/><stop offset="1" stop-color="#BEF8CE"/></linearGradient><linearGradient id="as" x1="166.063" y1="87.412" x2="170.435" y2="87.685" gradientUnits="userSpaceOnUse"><stop stop-color="#81BD92"/><stop offset="1" stop-color="#BEF8CE"/></linearGradient><linearGradient id="at" x1="189.725" y1="87.412" x2="194.097" y2="87.685" gradientUnits="userSpaceOnUse"><stop stop-color="#81BD92"/><stop offset="1" stop-color="#BEF8CE"/></linearGradient><linearGradient id="au" x1="213.362" y1="87.412" x2="217.734" y2="87.685" gradientUnits="userSpaceOnUse"><stop stop-color="#81BD92"/><stop offset="1" stop-color="#BEF8CE"/></linearGradient><linearGradient id="av" x1="236.998" y1="87.412" x2="241.37" y2="87.685" gradientUnits="userSpaceOnUse"><stop stop-color="#81BD92"/><stop offset="1" stop-color="#BEF8CE"/></linearGradient><linearGradient id="aw" x1="260.661" y1="87.412" x2="265.032" y2="87.685" gradientUnits="userSpaceOnUse"><stop stop-color="#81BD92"/><stop offset="1" stop-color="#BEF8CE"/></linearGradient><linearGradient id="ax" x1="284.297" y1="87.412" x2="288.669" y2="87.685" gradientUnits="userSpaceOnUse"><stop stop-color="#81BD92"/><stop offset="1" stop-color="#BEF8CE"/></linearGradient><linearGradient id="ay" x1="307.934" y1="87.412" x2="312.306" y2="87.685" gradientUnits="userSpaceOnUse"><stop stop-color="#81BD92"/><stop offset="1" stop-color="#BEF8CE"/></linearGradient><linearGradient id="az" x1="331.57" y1="87.412" x2="335.942" y2="87.685" gradientUnits="userSpaceOnUse"><stop stop-color="#81BD92"/><stop offset="1" stop-color="#BEF8CE"/></linearGradient><linearGradient id="aA" x1="355.233" y1="87.412" x2="359.605" y2="87.685" gradientUnits="userSpaceOnUse"><stop stop-color="#81BD92"/><stop offset="1" stop-color="#BEF8CE"/></linearGradient><linearGradient id="aB" x1="378.869" y1="87.412" x2="383.241" y2="87.685" gradientUnits="userSpaceOnUse"><stop stop-color="#81BD92"/><stop offset="1" stop-color="#BEF8CE"/></linearGradient><linearGradient id="aC" x1="402.506" y1="87.412" x2="406.878" y2="87.685" gradientUnits="userSpaceOnUse"><stop stop-color="#81BD92"/><stop offset="1" stop-color="#BEF8CE"/></linearGradient><linearGradient id="aD" x1="426.168" y1="87.412" x2="430.54" y2="87.685" gradientUnits="userSpaceOnUse"><stop stop-color="#81BD92"/><stop offset="1" stop-color="#BEF8CE"/></linearGradient><linearGradient id="aE" x1="449.805" y1="87.412" x2="454.177" y2="87.685" gradientUnits="userSpaceOnUse"><stop stop-color="#81BD92"/><stop offset="1" stop-color="#BEF8CE"/></linearGradient><linearGradient id="aF" x1="473.441" y1="87.412" x2="477.813" y2="87.685" gradientUnits="userSpaceOnUse"><stop stop-color="#81BD92"/><stop offset="1" stop-color="#BEF8CE"/></linearGradient><linearGradient id="aG" x1=".555" y1="110.569" x2="4.927" y2="110.842" gradientUnits="userSpaceOnUse"><stop stop-color="#81BD92"/><stop offset="1" stop-color="#BEF8CE"/></linearGradient><linearGradient id="aH" x1="24.218" y1="110.569" x2="28.589" y2="110.842" gradientUnits="userSpaceOnUse"><stop stop-color="#81BD92"/><stop offset="1" stop-color="#BEF8CE"/></linearGradient><linearGradient id="aI" x1="47.854" y1="110.569" x2="52.226" y2="110.842" gradientUnits="userSpaceOnUse"><stop stop-color="#81BD92"/><stop offset="1" stop-color="#BEF8CE"/></linearGradient><linearGradient id="aJ" x1="71.491" y1="110.569" x2="75.863" y2="110.842" gradientUnits="userSpaceOnUse"><stop stop-color="#81BD92"/><stop offset="1" stop-color="#BEF8CE"/></linearGradient><linearGradient id="aK" x1="95.153" y1="110.569" x2="99.525" y2="110.842" gradientUnits="userSpaceOnUse"><stop stop-color="#81BD92"/><stop offset="1" stop-color="#BEF8CE"/></linearGradient><linearGradient id="aL" x1="118.79" y1="110.569" x2="123.161" y2="110.842" gradientUnits="userSpaceOnUse"><stop stop-color="#81BD92"/><stop offset="1" stop-color="#BEF8CE"/></linearGradient><linearGradient id="aM" x1="142.426" y1="110.569" x2="146.798" y2="110.842" gradientUnits="userSpaceOnUse"><stop stop-color="#81BD92"/><stop offset="1" stop-color="#BEF8CE"/></linearGradient><linearGradient id="aN" x1="166.063" y1="110.569" x2="170.435" y2="110.842" gradientUnits="userSpaceOnUse"><stop stop-color="#81BD92"/><stop offset="1" stop-color="#BEF8CE"/></linearGradient><linearGradient id="aO" x1="189.725" y1="110.569" x2="194.097" y2="110.842" gradientUnits="userSpaceOnUse"><stop stop-color="#81BD92"/><stop offset="1" stop-color="#BEF8CE"/></linearGradient><linearGradient id="aP" x1="213.362" y1="110.569" x2="217.734" y2="110.842" gradientUnits="userSpaceOnUse"><stop stop-color="#81BD92"/><stop offset="1" stop-color="#BEF8CE"/></linearGradient><linearGradient id="aQ" x1="236.998" y1="110.569" x2="241.37" y2="110.842" gradientUnits="userSpaceOnUse"><stop stop-color="#81BD92"/><stop offset="1" stop-color="#BEF8CE"/></linearGradient><linearGradient id="aR" x1="260.661" y1="110.569" x2="265.032" y2="110.842" gradientUnits="userSpaceOnUse"><stop stop-color="#81BD92"/><stop offset="1" stop-color="#BEF8CE"/></linearGradient><linearGradient id="aS" x1="284.297" y1="110.569" x2="288.669" y2="110.842" gradientUnits="userSpaceOnUse"><stop stop-color="#81BD92"/><stop offset="1" stop-color="#BEF8CE"/></linearGradient><linearGradient id="aT" x1="307.934" y1="110.569" x2="312.306" y2="110.842" gradientUnits="userSpaceOnUse"><stop stop-color="#81BD92"/><stop offset="1" stop-color="#BEF8CE"/></linearGradient><linearGradient id="aU" x1="331.57" y1="110.569" x2="335.942" y2="110.842" gradientUnits="userSpaceOnUse"><stop stop-color="#81BD92"/><stop offset="1" stop-color="#BEF8CE"/></linearGradient><linearGradient id="aV" x1="355.233" y1="110.569" x2="359.605" y2="110.842" gradientUnits="userSpaceOnUse"><stop stop-color="#81BD92"/><stop offset="1" stop-color="#BEF8CE"/></linearGradient><linearGradient id="aW" x1="378.869" y1="110.569" x2="383.241" y2="110.842" gradientUnits="userSpaceOnUse"><stop stop-color="#81BD92"/><stop offset="1" stop-color="#BEF8CE"/></linearGradient><linearGradient id="aX" x1="402.506" y1="110.569" x2="406.878" y2="110.842" gradientUnits="userSpaceOnUse"><stop stop-color="#81BD92"/><stop offset="1" stop-color="#BEF8CE"/></linearGradient><linearGradient id="aY" x1="426.168" y1="110.569" x2="430.54" y2="110.842" gradientUnits="userSpaceOnUse"><stop stop-color="#81BD92"/><stop offset="1" stop-color="#BEF8CE"/></linearGradient><linearGradient id="aZ" x1="449.805" y1="110.569" x2="454.177" y2="110.842" gradientUnits="userSpaceOnUse"><stop stop-color="#81BD92"/><stop offset="1" stop-color="#BEF8CE"/></linearGradient><linearGradient id="ba" x1="473.441" y1="110.569" x2="477.813" y2="110.842" gradientUnits="userSpaceOnUse"><stop stop-color="#81BD92"/><stop offset="1" stop-color="#BEF8CE"/></linearGradient><linearGradient id="bb" x1=".555" y1="133.753" x2="4.927" y2="134.025" gradientUnits="userSpaceOnUse"><stop stop-color="#81BD92"/><stop offset="1" stop-color="#BEF8CE"/></linearGradient><linearGradient id="bc" x1="24.218" y1="133.753" x2="28.589" y2="134.025" gradientUnits="userSpaceOnUse"><stop stop-color="#81BD92"/><stop offset="1" stop-color="#BEF8CE"/></linearGradient><linearGradient id="bd" x1="47.854" y1="133.753" x2="52.226" y2="134.025" gradientUnits="userSpaceOnUse"><stop stop-color="#81BD92"/><stop offset="1" stop-color="#BEF8CE"/></linearGradient><linearGradient id="be" x1="71.491" y1="133.753" x2="75.863" y2="134.025" gradientUnits="userSpaceOnUse"><stop stop-color="#81BD92"/><stop offset="1" stop-color="#BEF8CE"/></linearGradient><linearGradient id="bf" x1="95.153" y1="133.753" x2="99.525" y2="134.025" gradientUnits="userSpaceOnUse"><stop stop-color="#81BD92"/><stop offset="1" stop-color="#BEF8CE"/></linearGradient><linearGradient id="bg" x1="118.79" y1="133.753" x2="123.161" y2="134.025" gradientUnits="userSpaceOnUse"><stop stop-color="#81BD92"/><stop offset="1" stop-color="#BEF8CE"/></linearGradient><linearGradient id="bh" x1="142.426" y1="133.753" x2="146.798" y2="134.025" gradientUnits="userSpaceOnUse"><stop stop-color="#81BD92"/><stop offset="1" stop-color="#BEF8CE"/></linearGradient><linearGradient id="bi" x1="166.063" y1="133.753" x2="170.435" y2="134.025" gradientUnits="userSpaceOnUse"><stop stop-color="#81BD92"/><stop offset="1" stop-color="#BEF8CE"/></linearGradient><linearGradient id="bj" x1="189.725" y1="133.753" x2="194.097" y2="134.025" gradientUnits="userSpaceOnUse"><stop stop-color="#81BD92"/><stop offset="1" stop-color="#BEF8CE"/></linearGradient><linearGradient id="bk" x1="213.362" y1="133.753" x2="217.734" y2="134.025" gradientUnits="userSpaceOnUse"><stop stop-color="#81BD92"/><stop offset="1" stop-color="#BEF8CE"/></linearGradient><linearGradient id="bl" x1="236.998" y1="133.753" x2="241.37" y2="134.025" gradientUnits="userSpaceOnUse"><stop stop-color="#81BD92"/><stop offset="1" stop-color="#BEF8CE"/></linearGradient><linearGradient id="bm" x1="260.661" y1="133.753" x2="265.032" y2="134.025" gradientUnits="userSpaceOnUse"><stop stop-color="#81BD92"/><stop offset="1" stop-color="#BEF8CE"/></linearGradient><linearGradient id="bn" x1="284.297" y1="133.753" x2="288.669" y2="134.025" gradientUnits="userSpaceOnUse"><stop stop-color="#81BD92"/><stop offset="1" stop-color="#BEF8CE"/></linearGradient><linearGradient id="bo" x1="307.934" y1="133.753" x2="312.306" y2="134.025" gradientUnits="userSpaceOnUse"><stop stop-color="#81BD92"/><stop offset="1" stop-color="#BEF8CE"/></linearGradient><linearGradient id="bp" x1="331.57" y1="133.753" x2="335.942" y2="134.025" gradientUnits="userSpaceOnUse"><stop stop-color="#81BD92"/><stop offset="1" stop-color="#BEF8CE"/></linearGradient><linearGradient id="bq" x1="355.233" y1="133.753" x2="359.605" y2="134.025" gradientUnits="userSpaceOnUse"><stop stop-color="#81BD92"/><stop offset="1" stop-color="#BEF8CE"/></linearGradient><linearGradient id="br" x1="378.869" y1="133.753" x2="383.241" y2="134.025" gradientUnits="userSpaceOnUse"><stop stop-color="#81BD92"/><stop offset="1" stop-color="#BEF8CE"/></linearGradient><linearGradient id="bs" x1="402.506" y1="133.753" x2="406.878" y2="134.025" gradientUnits="userSpaceOnUse"><stop stop-color="#81BD92"/><stop offset="1" stop-color="#BEF8CE"/></linearGradient><linearGradient id="bt" x1="426.168" y1="133.753" x2="430.54" y2="134.025" gradientUnits="userSpaceOnUse"><stop stop-color="#81BD92"/><stop offset="1" stop-color="#BEF8CE"/></linearGradient><linearGradient id="bu" x1="449.805" y1="133.753" x2="454.177" y2="134.025" gradientUnits="userSpaceOnUse"><stop stop-color="#81BD92"/><stop offset="1" stop-color="#BEF8CE"/></linearGradient><linearGradient id="bv" x1="473.441" y1="133.753" x2="477.813" y2="134.025" gradientUnits="userSpaceOnUse"><stop stop-color="#81BD92"/><stop offset="1" stop-color="#BEF8CE"/></linearGradient><linearGradient id="bw" x1=".555" y1="156.91" x2="4.927" y2="157.183" gradientUnits="userSpaceOnUse"><stop stop-color="#81BD92"/><stop offset="1" stop-color="#BEF8CE"/></linearGradient><linearGradient id="bx" x1="24.218" y1="156.91" x2="28.589" y2="157.183" gradientUnits="userSpaceOnUse"><stop stop-color="#81BD92"/><stop offset="1" stop-color="#BEF8CE"/></linearGradient><linearGradient id="by" x1="47.854" y1="156.91" x2="52.226" y2="157.183" gradientUnits="userSpaceOnUse"><stop stop-color="#81BD92"/><stop offset="1" stop-color="#BEF8CE"/></linearGradient><linearGradient id="bz" x1="71.491" y1="156.91" x2="75.863" y2="157.183" gradientUnits="userSpaceOnUse"><stop stop-color="#81BD92"/><stop offset="1" stop-color="#BEF8CE"/></linearGradient><linearGradient id="bA" x1="95.153" y1="156.91" x2="99.525" y2="157.183" gradientUnits="userSpaceOnUse"><stop stop-color="#81BD92"/><stop offset="1" stop-color="#BEF8CE"/></linearGradient><linearGradient id="bB" x1="118.79" y1="156.91" x2="123.161" y2="157.183" gradientUnits="userSpaceOnUse"><stop stop-color="#81BD92"/><stop offset="1" stop-color="#BEF8CE"/></linearGradient><linearGradient id="bC" x1="142.426" y1="156.91" x2="146.798" y2="157.183" gradientUnits="userSpaceOnUse"><stop stop-color="#81BD92"/><stop offset="1" stop-color="#BEF8CE"/></linearGradient><linearGradient id="bD" x1="166.063" y1="156.91" x2="170.435" y2="157.183" gradientUnits="userSpaceOnUse"><stop stop-color="#81BD92"/><stop offset="1" stop-color="#BEF8CE"/></linearGradient><linearGradient id="bE" x1="189.725" y1="156.91" x2="194.097" y2="157.183" gradientUnits="userSpaceOnUse"><stop stop-color="#81BD92"/><stop offset="1" stop-color="#BEF8CE"/></linearGradient><linearGradient id="bF" x1="213.362" y1="156.91" x2="217.734" y2="157.183" gradientUnits="userSpaceOnUse"><stop stop-color="#81BD92"/><stop offset="1" stop-color="#BEF8CE"/></linearGradient><linearGradient id="bG" x1="236.998" y1="156.91" x2="241.37" y2="157.183" gradientUnits="userSpaceOnUse"><stop stop-color="#81BD92"/><stop offset="1" stop-color="#BEF8CE"/></linearGradient><linearGradient id="bH" x1="260.661" y1="156.91" x2="265.032" y2="157.183" gradientUnits="userSpaceOnUse"><stop stop-color="#81BD92"/><stop offset="1" stop-color="#BEF8CE"/></linearGradient><linearGradient id="bI" x1="284.297" y1="156.91" x2="288.669" y2="157.183" gradientUnits="userSpaceOnUse"><stop stop-color="#81BD92"/><stop offset="1" stop-color="#BEF8CE"/></linearGradient><linearGradient id="bJ" x1="307.934" y1="156.91" x2="312.306" y2="157.183" gradientUnits="userSpaceOnUse"><stop stop-color="#81BD92"/><stop offset="1" stop-color="#BEF8CE"/></linearGradient><linearGradient id="bK" x1="331.57" y1="156.91" x2="335.942" y2="157.183" gradientUnits="userSpaceOnUse"><stop stop-color="#81BD92"/><stop offset="1" stop-color="#BEF8CE"/></linearGradient><linearGradient id="bL" x1="355.233" y1="156.91" x2="359.605" y2="157.183" gradientUnits="userSpaceOnUse"><stop stop-color="#81BD92"/><stop offset="1" stop-color="#BEF8CE"/></linearGradient><linearGradient id="bM" x1="378.869" y1="156.91" x2="383.241" y2="157.183" gradientUnits="userSpaceOnUse"><stop stop-color="#81BD92"/><stop offset="1" stop-color="#BEF8CE"/></linearGradient><linearGradient id="bN" x1="402.506" y1="156.91" x2="406.878" y2="157.183" gradientUnits="userSpaceOnUse"><stop stop-color="#81BD92"/><stop offset="1" stop-color="#BEF8CE"/></linearGradient><linearGradient id="bO" x1="426.168" y1="156.91" x2="430.54" y2="157.183" gradientUnits="userSpaceOnUse"><stop stop-color="#81BD92"/><stop offset="1" stop-color="#BEF8CE"/></linearGradient><linearGradient id="bP" x1="449.805" y1="156.91" x2="454.177" y2="157.183" gradientUnits="userSpaceOnUse"><stop stop-color="#81BD92"/><stop offset="1" stop-color="#BEF8CE"/></linearGradient><linearGradient id="bQ" x1="473.441" y1="156.91" x2="477.813" y2="157.183" gradientUnits="userSpaceOnUse"><stop stop-color="#81BD92"/><stop offset="1" stop-color="#BEF8CE"/></linearGradient></defs></svg>