<svg width="72" height="80" fill="none" xmlns="http://www.w3.org/2000/svg"><g filter="url(#a)"><path d="M44.772 14.731a.876.876 0 0 0-1.267.283l-.02.03a.893.893 0 0 1-1.241.22.879.879 0 0 0-1.224.215l-1.281 1.83a.88.88 0 0 0 1.44 1.008l.862-1.233c.81.226 1.691.052 2.355-.471l1.296.908a.88.88 0 1 0 1.008-1.44l-1.928-1.35Zm9.72 11.071-.863 1.233a.88.88 0 1 0 1.44 1.007l1.28-1.829a.879.879 0 0 0-.215-1.224.893.893 0 0 1-.219-1.242c.007-.01.014-.02.022-.028a.879.879 0 0 0-.168-1.288l-1.928-1.35a.879.879 0 0 0-1.008 1.44l1.296.908a2.66 2.66 0 0 0 .363 2.373Zm-4.664 19.746c.417 0 .805.167 1.091.471a.88.88 0 0 0 1.278-1.207 3.272 3.272 0 0 0-2.37-1.022 3.263 3.263 0 0 0-3.258 3.26 3.263 3.263 0 0 0 3.259 3.258c.87 0 1.689-.339 2.304-.954a.878.878 0 1 0-1.243-1.243 1.492 1.492 0 0 1-1.061.44 1.503 1.503 0 0 1-1.502-1.502c0-.828.674-1.501 1.502-1.501Z" fill="url(#b)"/><path d="M57.653 40.858v-7.04a4.34 4.34 0 0 0-4.334-4.334h-4.665c.273-2.357-.496-4.43-2.12-5.566-1.375-.963-3.157-1.135-5.017-.486-1.758.614-3.394 1.904-4.604 3.632a10.552 10.552 0 0 0-1.272 2.42h-5.722l12.3-17.565 17.066 11.95-2.6 3.714a.88.88 0 1 0 1.44 1.008l2.834-4.048a1.35 1.35 0 0 0-.33-1.879L42.892 10.245a1.34 1.34 0 0 0-1.008-.224 1.345 1.345 0 0 0-.87.554l-4.069 5.81v-3.503a1.35 1.35 0 0 0-1.349-1.35h-21.08a1.35 1.35 0 0 0-1.35 1.35v4.811a.879.879 0 1 0 1.758 0v-4.402h2.547v16.193h-2.34c-.069 0-.138.001-.207.005v-8.28a.879.879 0 1 0-1.758 0v8.747a4.34 4.34 0 0 0-2.37 3.863v26.46a4.34 4.34 0 0 0 4.335 4.335h6.563a.879.879 0 1 0 0-1.758H15.13a2.58 2.58 0 0 1-2.576-2.577V33.82a2.581 2.581 0 0 1 2.577-2.578h38.187a2.58 2.58 0 0 1 2.577 2.578v6.917h-6.293a6.32 6.32 0 0 0-6.313 6.313 6.32 6.32 0 0 0 6.313 6.313h6.293v6.917a2.58 2.58 0 0 1-2.577 2.577h-6.716a.879.879 0 1 0 0 1.758h6.716a4.34 4.34 0 0 0 4.335-4.335v-7.04a4.523 4.523 0 0 0 3.472-4.393v-3.595a4.524 4.524 0 0 0-3.473-4.394Zm-19.3-12.785c2.004-2.863 5.222-4.08 7.173-2.715 1.124.787 1.62 2.331 1.356 4.126H37.54c.227-.494.5-.966.812-1.41Zm-3.166-9.177-7.414 10.588h-4.33V13.291h11.744v5.605ZM19.228 13.29h2.457v16.193h-2.456V13.29Zm40.14 35.556a2.76 2.76 0 0 1-2.758 2.757h-7.007a4.56 4.56 0 0 1-4.555-4.555 4.56 4.56 0 0 1 4.555-4.555h7.007a2.76 2.76 0 0 1 2.757 2.758v3.594Z" fill="url(#c)"/><path d="M34.225 48.763c-5.855 0-10.619 4.764-10.619 10.619C23.606 65.237 28.37 70 34.225 70c5.855 0 10.618-4.763 10.618-10.618S40.08 48.763 34.225 48.763Zm0 19.48c-4.886 0-8.86-3.975-8.86-8.861 0-4.886 3.974-8.861 8.86-8.861 4.886 0 8.86 3.975 8.86 8.86 0 4.887-3.974 8.861-8.86 8.861Z" fill="url(#d)"/><path d="M34.974 58.503h-1.499a.802.802 0 0 1 0-1.602h2.869a.88.88 0 0 0 0-1.758h-1.079V54.4a.88.88 0 0 0-1.758 0v.743h-.032a2.562 2.562 0 0 0-2.559 2.559 2.562 2.562 0 0 0 2.56 2.559h1.498a.8.8 0 0 1 0 1.601h-2.868a.879.879 0 1 0 0 1.758h1.401v.743a.88.88 0 0 0 1.758 0v-.76a2.563 2.563 0 0 0 2.268-2.542 2.562 2.562 0 0 0-2.559-2.558Z" fill="url(#e)"/></g><defs><linearGradient id="b" x1="39.58" y1="14.572" x2="57.551" y2="15.104" gradientUnits="userSpaceOnUse"><stop stop-color="#00AA30"/><stop offset="1" stop-color="#00D03A"/></linearGradient><linearGradient id="c" x1="10.797" y1="10" x2="64.176" y2="13.079" gradientUnits="userSpaceOnUse"><stop stop-color="#00AA30"/><stop offset="1" stop-color="#00D03A"/></linearGradient><linearGradient id="d" x1="23.606" y1="48.763" x2="46.083" y2="50.168" gradientUnits="userSpaceOnUse"><stop stop-color="#00AA30"/><stop offset="1" stop-color="#00D03A"/></linearGradient><linearGradient id="e" x1="30.916" y1="53.521" x2="37.938" y2="53.769" gradientUnits="userSpaceOnUse"><stop stop-color="#00AA30"/><stop offset="1" stop-color="#00D03A"/></linearGradient><filter id="a" x=".797" y="0" width="70.406" height="80" filterUnits="userSpaceOnUse" color-interpolation-filters="sRGB"><feFlood flood-opacity="0" result="BackgroundImageFix"/><feColorMatrix in="SourceAlpha" values="0 0 0 0 0 0 0 0 0 0 0 0 0 0 0 0 0 0 127 0" result="hardAlpha"/><feOffset/><feGaussianBlur stdDeviation="5"/><feComposite in2="hardAlpha" operator="out"/><feColorMatrix values="0 0 0 0 0.00392157 0 0 0 0 0.760784 0 0 0 0 0.170431 0 0 0 0.5 0"/><feBlend in2="BackgroundImageFix" result="effect1_dropShadow_22_12"/><feBlend in="SourceGraphic" in2="effect1_dropShadow_22_12" result="shape"/></filter></defs></svg>