<svg width="71" height="80" fill="none" xmlns="http://www.w3.org/2000/svg"><g filter="url(#a)"><path d="M43.975 14.731a.88.88 0 0 0-1.267.283c-.005.01-.013.02-.02.03a.893.893 0 0 1-1.241.22.879.879 0 0 0-1.224.215l-1.281 1.83a.879.879 0 1 0 1.44 1.008l.863-1.233a2.66 2.66 0 0 0 2.354-.471l1.296.908a.878.878 0 0 0 1.252-1.193.88.88 0 0 0-.244-.247l-1.928-1.35Zm9.72 11.071-.863 1.233a.879.879 0 1 0 1.44 1.007l1.281-1.829a.88.88 0 0 0-.216-1.224.893.893 0 0 1-.219-1.242c.007-.01.014-.02.022-.028a.878.878 0 0 0-.168-1.288l-1.928-1.35a.88.88 0 0 0-1.008 1.44l1.296.908a2.661 2.661 0 0 0 .363 2.373ZM49.03 45.548c.417 0 .805.167 1.092.471a.879.879 0 0 0 1.278-1.207 3.274 3.274 0 0 0-2.37-1.022 3.263 3.263 0 0 0-3.26 3.26 3.263 3.263 0 0 0 3.26 3.258c.87 0 1.689-.339 2.304-.954a.878.878 0 1 0-1.243-1.243 1.491 1.491 0 0 1-1.061.44 1.503 1.503 0 0 1-1.501-1.502c0-.828.673-1.501 1.5-1.501Z" fill="url(#b)"/><path d="M56.856 40.858v-7.04a4.34 4.34 0 0 0-4.334-4.334h-4.665c.273-2.357-.496-4.43-2.12-5.566-1.375-.963-3.156-1.135-5.017-.486-1.758.614-3.393 1.904-4.604 3.632a10.552 10.552 0 0 0-1.272 2.42h-5.722l12.3-17.565 17.066 11.95-2.6 3.714a.88.88 0 1 0 1.44 1.008l2.834-4.048a1.35 1.35 0 0 0-.33-1.879L42.095 10.245a1.34 1.34 0 0 0-1.008-.224 1.344 1.344 0 0 0-.87.554l-4.069 5.81v-3.503a1.35 1.35 0 0 0-1.349-1.35H13.72a1.35 1.35 0 0 0-1.35 1.35v4.811a.879.879 0 1 0 1.758 0v-4.402h2.547v16.193h-2.34c-.068 0-.137.001-.207.005v-8.28a.879.879 0 1 0-1.758 0v8.747A4.34 4.34 0 0 0 10 33.819v26.46a4.34 4.34 0 0 0 4.335 4.335h6.562a.879.879 0 1 0 0-1.758h-6.562a2.58 2.58 0 0 1-2.577-2.577V33.82a2.581 2.581 0 0 1 2.577-2.578h38.187a2.58 2.58 0 0 1 2.577 2.578v6.917h-6.293a6.32 6.32 0 0 0-6.313 6.313 6.32 6.32 0 0 0 6.313 6.313H55.1v6.917a2.58 2.58 0 0 1-2.577 2.577h-6.716a.88.88 0 0 0 0 1.758h6.716a4.34 4.34 0 0 0 4.335-4.335v-7.04a4.523 4.523 0 0 0 3.472-4.393v-3.595a4.524 4.524 0 0 0-3.473-4.394Zm-19.3-12.785c2.005-2.863 5.223-4.08 7.174-2.715 1.123.787 1.618 2.331 1.355 4.126h-9.341c.227-.494.5-.966.812-1.41Zm-3.165-9.177-7.414 10.588h-4.331V13.291H34.39v5.605ZM18.43 13.29h2.457v16.193h-2.456V13.29Zm40.14 35.556a2.76 2.76 0 0 1-2.758 2.757h-7.007a4.56 4.56 0 0 1-4.555-4.555 4.56 4.56 0 0 1 4.555-4.555h7.007a2.76 2.76 0 0 1 2.758 2.758v3.594Z" fill="url(#c)"/><path d="M33.428 48.763c-5.855 0-10.618 4.764-10.618 10.619C22.81 65.237 27.572 70 33.428 70s10.619-4.763 10.619-10.618-4.764-10.619-10.62-10.619Zm0 19.48c-4.886 0-8.86-3.975-8.86-8.861 0-4.886 3.974-8.861 8.86-8.861 4.886 0 8.86 3.975 8.86 8.86 0 4.887-3.974 8.861-8.86 8.861Z" fill="url(#d)"/><path d="M34.178 58.503h-1.5a.802.802 0 0 1 0-1.602h2.87a.879.879 0 0 0 0-1.758h-1.08V54.4a.88.88 0 0 0-1.757 0v.743h-.033a2.562 2.562 0 0 0-2.558 2.559 2.562 2.562 0 0 0 2.558 2.559h1.5a.802.802 0 0 1 0 1.601h-2.87a.879.879 0 1 0 0 1.758h1.402v.743a.879.879 0 1 0 1.758 0v-.76a2.563 2.563 0 0 0 2.268-2.542 2.562 2.562 0 0 0-2.558-2.558Z" fill="url(#e)"/></g><defs><linearGradient id="b" x1="38.783" y1="14.572" x2="56.754" y2="15.104" gradientUnits="userSpaceOnUse"><stop stop-color="#00AA30"/><stop offset="1" stop-color="#00D03A"/></linearGradient><linearGradient id="c" x1="10" y1="10" x2="63.379" y2="13.079" gradientUnits="userSpaceOnUse"><stop stop-color="#00AA30"/><stop offset="1" stop-color="#00D03A"/></linearGradient><linearGradient id="d" x1="22.809" y1="48.763" x2="45.286" y2="50.168" gradientUnits="userSpaceOnUse"><stop stop-color="#00AA30"/><stop offset="1" stop-color="#00D03A"/></linearGradient><linearGradient id="e" x1="30.12" y1="53.521" x2="37.141" y2="53.769" gradientUnits="userSpaceOnUse"><stop stop-color="#00AA30"/><stop offset="1" stop-color="#00D03A"/></linearGradient><filter id="a" x="0" y="0" width="70.406" height="80" filterUnits="userSpaceOnUse" color-interpolation-filters="sRGB"><feFlood flood-opacity="0" result="BackgroundImageFix"/><feColorMatrix in="SourceAlpha" values="0 0 0 0 0 0 0 0 0 0 0 0 0 0 0 0 0 0 127 0" result="hardAlpha"/><feOffset/><feGaussianBlur stdDeviation="5"/><feComposite in2="hardAlpha" operator="out"/><feColorMatrix values="0 0 0 0 0.00392157 0 0 0 0 0.760784 0 0 0 0 0.170431 0 0 0 0.5 0"/><feBlend in2="BackgroundImageFix" result="effect1_dropShadow_265_121"/><feBlend in="SourceGraphic" in2="effect1_dropShadow_265_121" result="shape"/></filter></defs></svg>