<svg width="282" height="709" fill="none" xmlns="http://www.w3.org/2000/svg"><path d="M6.128 705.861a3.062 3.062 0 0 0-3.064-3.059A3.062 3.062 0 0 0 0 705.861c0 1.69 1.372 3.06 3.064 3.06a3.062 3.062 0 0 0 3.064-3.06Z" fill="url(#a)" fill-opacity=".3"/><path d="M6.128 670.725c0-1.69-1.372-3.06-3.064-3.06A3.062 3.062 0 0 0 0 670.725c0 1.69 1.372 3.06 3.064 3.06a3.062 3.062 0 0 0 3.064-3.06Z" fill="url(#b)" fill-opacity=".3"/><path d="M6.128 635.589c0-1.69-1.372-3.06-3.064-3.06A3.062 3.062 0 0 0 0 635.589c0 1.69 1.372 3.06 3.064 3.06a3.062 3.062 0 0 0 3.064-3.06Z" fill="url(#c)" fill-opacity=".3"/><path d="M6.128 600.453c0-1.69-1.372-3.06-3.064-3.06A3.062 3.062 0 0 0 0 600.453a3.062 3.062 0 0 0 3.064 3.059 3.062 3.062 0 0 0 3.064-3.059Z" fill="url(#d)" fill-opacity=".3"/><path d="M6.128 565.316a3.061 3.061 0 0 0-3.064-3.059A3.061 3.061 0 0 0 0 565.316c0 1.69 1.372 3.06 3.064 3.06a3.062 3.062 0 0 0 3.064-3.06Z" fill="url(#e)" fill-opacity=".3"/><path d="M6.128 530.18c0-1.69-1.372-3.06-3.064-3.06A3.062 3.062 0 0 0 0 530.18c0 1.69 1.372 3.06 3.064 3.06a3.062 3.062 0 0 0 3.064-3.06Z" fill="url(#f)" fill-opacity=".3"/><path d="M6.128 495.018a3.062 3.062 0 0 0-3.064-3.059A3.062 3.062 0 0 0 0 495.018c0 1.69 1.372 3.06 3.064 3.06a3.062 3.062 0 0 0 3.064-3.06Z" fill="url(#g)" fill-opacity=".3"/><path d="M6.128 459.882c0-1.69-1.372-3.06-3.064-3.06A3.062 3.062 0 0 0 0 459.882c0 1.69 1.372 3.06 3.064 3.06a3.062 3.062 0 0 0 3.064-3.06Z" fill="url(#h)" fill-opacity=".3"/><path d="M3.064 421.686a3.071 3.071 0 0 1 3.064 3.06 3.071 3.071 0 0 1-3.064 3.06A3.071 3.071 0 0 1 0 424.746a3.071 3.071 0 0 1 3.064-3.06Z" fill="url(#i)" fill-opacity=".3"/><path d="M6.128 389.61c0-1.69-1.372-3.06-3.064-3.06A3.062 3.062 0 0 0 0 389.61a3.061 3.061 0 0 0 3.064 3.059 3.061 3.061 0 0 0 3.064-3.059Z" fill="url(#j)" fill-opacity=".3"/><path d="M6.128 354.473a3.061 3.061 0 0 0-3.064-3.059A3.061 3.061 0 0 0 0 354.473c0 1.69 1.372 3.06 3.064 3.06a3.062 3.062 0 0 0 3.064-3.06Z" fill="url(#k)" fill-opacity=".3"/><path d="M6.128 319.337c0-1.69-1.372-3.06-3.064-3.06A3.062 3.062 0 0 0 0 319.337c0 1.69 1.372 3.06 3.064 3.06a3.062 3.062 0 0 0 3.064-3.06Z" fill="url(#l)" fill-opacity=".3"/><path d="M6.128 284.175a3.061 3.061 0 0 0-3.064-3.059A3.061 3.061 0 0 0 0 284.175c0 1.69 1.372 3.06 3.064 3.06a3.062 3.062 0 0 0 3.064-3.06Z" fill="url(#m)" fill-opacity=".3"/><path d="M6.128 249.039c0-1.69-1.372-3.06-3.064-3.06A3.062 3.062 0 0 0 0 249.039c0 1.69 1.372 3.06 3.064 3.06a3.062 3.062 0 0 0 3.064-3.06Z" fill="url(#n)" fill-opacity=".3"/><path d="M6.128 213.903c0-1.69-1.372-3.06-3.064-3.06A3.062 3.062 0 0 0 0 213.903c0 1.69 1.372 3.06 3.064 3.06a3.062 3.062 0 0 0 3.064-3.06Z" fill="url(#o)" fill-opacity=".3"/><path d="M6.128 178.767c0-1.69-1.372-3.06-3.064-3.06A3.062 3.062 0 0 0 0 178.767a3.062 3.062 0 0 0 3.064 3.059 3.062 3.062 0 0 0 3.064-3.059Z" fill="url(#p)" fill-opacity=".3"/><path d="M6.128 143.63a3.061 3.061 0 0 0-3.064-3.059A3.061 3.061 0 0 0 0 143.63c0 1.69 1.372 3.06 3.064 3.06a3.062 3.062 0 0 0 3.064-3.06Z" fill="url(#q)" fill-opacity=".3"/><path d="M6.128 108.494c0-1.69-1.372-3.06-3.064-3.06A3.062 3.062 0 0 0 0 108.494c0 1.69 1.372 3.06 3.064 3.06a3.062 3.062 0 0 0 3.064-3.06Z" fill="url(#r)" fill-opacity=".3"/><path d="M3.064 70.298a3.07 3.07 0 0 1 3.064 3.06 3.07 3.07 0 0 1-3.064 3.06A3.07 3.07 0 0 1 0 73.358a3.055 3.055 0 0 1 3.064-3.06Z" fill="url(#s)" fill-opacity=".3"/><path d="M6.128 38.196c0-1.69-1.372-3.06-3.064-3.06A3.062 3.062 0 0 0 0 38.196c0 1.69 1.372 3.06 3.064 3.06a3.062 3.062 0 0 0 3.064-3.06Z" fill="url(#t)" fill-opacity=".3"/><path d="M6.128 3.06C6.128 1.37 4.756 0 3.064 0A3.062 3.062 0 0 0 0 3.06c0 1.69 1.372 3.06 3.064 3.06a3.062 3.062 0 0 0 3.064-3.06Z" fill="url(#u)" fill-opacity=".3"/><path d="M40.545 705.861a3.062 3.062 0 0 0-3.064-3.059 3.062 3.062 0 0 0-3.064 3.059c0 1.69 1.372 3.06 3.064 3.06a3.062 3.062 0 0 0 3.064-3.06Z" fill="url(#v)" fill-opacity=".3"/><path d="M40.545 670.725c0-1.69-1.372-3.06-3.064-3.06a3.062 3.062 0 0 0-3.064 3.06c0 1.69 1.372 3.06 3.064 3.06a3.062 3.062 0 0 0 3.064-3.06Z" fill="url(#w)" fill-opacity=".3"/><path d="M40.545 635.589c0-1.69-1.372-3.06-3.064-3.06a3.062 3.062 0 0 0-3.064 3.06c0 1.69 1.372 3.06 3.064 3.06a3.062 3.062 0 0 0 3.064-3.06Z" fill="url(#x)" fill-opacity=".3"/><path d="M40.545 600.453c0-1.69-1.372-3.06-3.064-3.06a3.062 3.062 0 0 0-3.064 3.06 3.062 3.062 0 0 0 3.064 3.059 3.062 3.062 0 0 0 3.064-3.059Z" fill="url(#y)" fill-opacity=".3"/><path d="M40.545 565.316a3.061 3.061 0 0 0-3.064-3.059 3.061 3.061 0 0 0-3.064 3.059c0 1.69 1.372 3.06 3.064 3.06a3.062 3.062 0 0 0 3.064-3.06Z" fill="url(#z)" fill-opacity=".3"/><path d="M40.545 530.18c0-1.69-1.372-3.06-3.064-3.06a3.062 3.062 0 0 0-3.064 3.06c0 1.69 1.372 3.06 3.064 3.06a3.062 3.062 0 0 0 3.064-3.06Z" fill="url(#A)" fill-opacity=".3"/><path d="M40.545 495.018a3.062 3.062 0 0 0-3.064-3.059 3.062 3.062 0 0 0-3.064 3.059c0 1.69 1.372 3.06 3.064 3.06a3.062 3.062 0 0 0 3.064-3.06Z" fill="url(#B)" fill-opacity=".3"/><path d="M40.545 459.882c0-1.69-1.372-3.06-3.064-3.06a3.062 3.062 0 0 0-3.064 3.06c0 1.69 1.372 3.06 3.064 3.06a3.062 3.062 0 0 0 3.064-3.06Z" fill="url(#C)" fill-opacity=".3"/><path d="M37.481 421.686a3.07 3.07 0 0 1 3.064 3.06 3.07 3.07 0 0 1-3.064 3.06 3.071 3.071 0 0 1-3.064-3.06c.026-1.683 1.379-3.06 3.064-3.06Z" fill="url(#D)" fill-opacity=".3"/><path d="M40.545 389.61c0-1.69-1.372-3.06-3.064-3.06a3.062 3.062 0 0 0-3.064 3.06 3.061 3.061 0 0 0 3.064 3.059 3.061 3.061 0 0 0 3.064-3.059Z" fill="url(#E)" fill-opacity=".3"/><path d="M40.545 354.473a3.061 3.061 0 0 0-3.064-3.059 3.061 3.061 0 0 0-3.064 3.059c0 1.69 1.372 3.06 3.064 3.06a3.062 3.062 0 0 0 3.064-3.06Z" fill="url(#F)" fill-opacity=".3"/><path d="M40.545 319.337c0-1.69-1.372-3.06-3.064-3.06a3.062 3.062 0 0 0-3.064 3.06c0 1.69 1.372 3.06 3.064 3.06a3.062 3.062 0 0 0 3.064-3.06Z" fill="url(#G)" fill-opacity=".3"/><path d="M40.545 284.175a3.061 3.061 0 0 0-3.064-3.059 3.061 3.061 0 0 0-3.064 3.059c0 1.69 1.372 3.06 3.064 3.06a3.062 3.062 0 0 0 3.064-3.06Z" fill="url(#H)" fill-opacity=".3"/><path d="M40.545 249.039c0-1.69-1.372-3.06-3.064-3.06a3.062 3.062 0 0 0-3.064 3.06c0 1.69 1.372 3.06 3.064 3.06a3.062 3.062 0 0 0 3.064-3.06Z" fill="url(#I)" fill-opacity=".3"/><path d="M40.545 213.903c0-1.69-1.372-3.06-3.064-3.06a3.062 3.062 0 0 0-3.064 3.06c0 1.69 1.372 3.06 3.064 3.06a3.062 3.062 0 0 0 3.064-3.06Z" fill="url(#J)" fill-opacity=".3"/><path d="M40.545 178.767c0-1.69-1.372-3.06-3.064-3.06a3.062 3.062 0 0 0-3.064 3.06 3.062 3.062 0 0 0 3.064 3.059 3.062 3.062 0 0 0 3.064-3.059Z" fill="url(#K)" fill-opacity=".3"/><path d="M40.545 143.63a3.061 3.061 0 0 0-3.064-3.059 3.061 3.061 0 0 0-3.064 3.059c0 1.69 1.372 3.06 3.064 3.06a3.062 3.062 0 0 0 3.064-3.06Z" fill="url(#L)" fill-opacity=".3"/><path d="M40.545 108.494c0-1.69-1.372-3.06-3.064-3.06a3.062 3.062 0 0 0-3.064 3.06c0 1.69 1.372 3.06 3.064 3.06a3.062 3.062 0 0 0 3.064-3.06Z" fill="url(#M)" fill-opacity=".3"/><path d="M37.481 70.298a3.07 3.07 0 0 1 3.064 3.06 3.07 3.07 0 0 1-3.064 3.06 3.07 3.07 0 0 1-3.064-3.06c.026-1.709 1.379-3.06 3.064-3.06Z" fill="url(#N)" fill-opacity=".3"/><path d="M40.545 38.196c0-1.69-1.372-3.06-3.064-3.06a3.062 3.062 0 0 0-3.064 3.06c0 1.69 1.372 3.06 3.064 3.06a3.062 3.062 0 0 0 3.064-3.06Z" fill="url(#O)" fill-opacity=".3"/><path d="M40.545 3.06c0-1.69-1.372-3.06-3.064-3.06a3.062 3.062 0 0 0-3.064 3.06c0 1.69 1.372 3.06 3.064 3.06a3.062 3.062 0 0 0 3.064-3.06Z" fill="url(#P)" fill-opacity=".3"/><path d="M74.988 705.861a3.062 3.062 0 0 0-3.064-3.059 3.062 3.062 0 0 0-3.064 3.059c0 1.69 1.372 3.06 3.064 3.06a3.062 3.062 0 0 0 3.064-3.06Z" fill="url(#Q)" fill-opacity=".3"/><path d="M74.988 670.725c0-1.69-1.372-3.06-3.064-3.06a3.062 3.062 0 0 0-3.064 3.06c0 1.69 1.372 3.06 3.064 3.06a3.062 3.062 0 0 0 3.064-3.06Z" fill="url(#R)" fill-opacity=".3"/><path d="M74.988 635.589c0-1.69-1.372-3.06-3.064-3.06a3.062 3.062 0 0 0-3.064 3.06c0 1.69 1.372 3.06 3.064 3.06a3.062 3.062 0 0 0 3.064-3.06Z" fill="url(#S)" fill-opacity=".3"/><path d="M74.988 600.453c0-1.69-1.372-3.06-3.064-3.06a3.062 3.062 0 0 0-3.064 3.06 3.062 3.062 0 0 0 3.064 3.059 3.062 3.062 0 0 0 3.064-3.059Z" fill="url(#T)" fill-opacity=".3"/><path d="M74.988 565.316a3.061 3.061 0 0 0-3.064-3.059 3.061 3.061 0 0 0-3.064 3.059c0 1.69 1.372 3.06 3.064 3.06a3.062 3.062 0 0 0 3.064-3.06Z" fill="url(#U)" fill-opacity=".3"/><path d="M74.988 530.18c0-1.69-1.372-3.06-3.064-3.06a3.062 3.062 0 0 0-3.064 3.06c0 1.69 1.372 3.06 3.064 3.06a3.062 3.062 0 0 0 3.064-3.06Z" fill="url(#V)" fill-opacity=".3"/><path d="M74.988 495.018a3.062 3.062 0 0 0-3.064-3.059 3.062 3.062 0 0 0-3.064 3.059c0 1.69 1.372 3.06 3.064 3.06a3.062 3.062 0 0 0 3.064-3.06Z" fill="url(#W)" fill-opacity=".3"/><path d="M74.988 459.882c0-1.69-1.372-3.06-3.064-3.06a3.062 3.062 0 0 0-3.064 3.06c0 1.69 1.372 3.06 3.064 3.06a3.062 3.062 0 0 0 3.064-3.06Z" fill="url(#X)" fill-opacity=".3"/><path d="M71.924 421.686a3.07 3.07 0 0 1 3.064 3.06 3.07 3.07 0 0 1-3.064 3.06 3.07 3.07 0 0 1-3.064-3.06 3.055 3.055 0 0 1 3.064-3.06Z" fill="url(#Y)" fill-opacity=".3"/><path d="M74.988 389.61c0-1.69-1.372-3.06-3.064-3.06a3.062 3.062 0 0 0-3.064 3.06 3.061 3.061 0 0 0 3.064 3.059 3.061 3.061 0 0 0 3.064-3.059Z" fill="url(#Z)" fill-opacity=".3"/><path d="M74.988 354.473a3.061 3.061 0 0 0-3.064-3.059 3.061 3.061 0 0 0-3.064 3.059c0 1.69 1.372 3.06 3.064 3.06a3.062 3.062 0 0 0 3.064-3.06Z" fill="url(#aa)" fill-opacity=".3"/><path d="M74.988 319.337c0-1.69-1.372-3.06-3.064-3.06a3.062 3.062 0 0 0-3.064 3.06c0 1.69 1.372 3.06 3.064 3.06a3.062 3.062 0 0 0 3.064-3.06Z" fill="url(#ab)" fill-opacity=".3"/><path d="M74.988 284.175a3.061 3.061 0 0 0-3.064-3.059 3.061 3.061 0 0 0-3.064 3.059c0 1.69 1.372 3.06 3.064 3.06a3.062 3.062 0 0 0 3.064-3.06Z" fill="url(#ac)" fill-opacity=".3"/><path d="M74.988 249.039c0-1.69-1.372-3.06-3.064-3.06a3.062 3.062 0 0 0-3.064 3.06c0 1.69 1.372 3.06 3.064 3.06a3.062 3.062 0 0 0 3.064-3.06Z" fill="url(#ad)" fill-opacity=".3"/><path d="M74.988 213.903c0-1.69-1.372-3.06-3.064-3.06a3.062 3.062 0 0 0-3.064 3.06c0 1.69 1.372 3.06 3.064 3.06a3.062 3.062 0 0 0 3.064-3.06Z" fill="url(#ae)" fill-opacity=".3"/><path d="M74.988 178.767c0-1.69-1.372-3.06-3.064-3.06a3.062 3.062 0 0 0-3.064 3.06 3.062 3.062 0 0 0 3.064 3.059 3.062 3.062 0 0 0 3.064-3.059Z" fill="url(#af)" fill-opacity=".3"/><path d="M74.988 143.63a3.061 3.061 0 0 0-3.064-3.059 3.061 3.061 0 0 0-3.064 3.059c0 1.69 1.372 3.06 3.064 3.06a3.062 3.062 0 0 0 3.064-3.06Z" fill="url(#ag)" fill-opacity=".3"/><path d="M74.988 108.494c0-1.69-1.372-3.06-3.064-3.06a3.062 3.062 0 0 0-3.064 3.06c0 1.69 1.372 3.06 3.064 3.06a3.062 3.062 0 0 0 3.064-3.06Z" fill="url(#ah)" fill-opacity=".3"/><path d="M71.924 70.298a3.07 3.07 0 0 1 3.064 3.06 3.07 3.07 0 0 1-3.064 3.06 3.07 3.07 0 0 1-3.064-3.06 3.038 3.038 0 0 1 3.064-3.06Z" fill="url(#ai)" fill-opacity=".3"/><path d="M74.988 38.196c0-1.69-1.372-3.06-3.064-3.06a3.062 3.062 0 0 0-3.064 3.06c0 1.69 1.372 3.06 3.064 3.06a3.062 3.062 0 0 0 3.064-3.06Z" fill="url(#aj)" fill-opacity=".3"/><path d="M74.988 3.06c0-1.69-1.372-3.06-3.064-3.06a3.062 3.062 0 0 0-3.064 3.06c0 1.69 1.372 3.06 3.064 3.06a3.062 3.062 0 0 0 3.064-3.06Z" fill="url(#ak)" fill-opacity=".3"/><path d="M109.405 705.861a3.062 3.062 0 0 0-3.064-3.059 3.062 3.062 0 0 0-3.064 3.059c0 1.69 1.372 3.06 3.064 3.06a3.062 3.062 0 0 0 3.064-3.06Z" fill="url(#al)" fill-opacity=".3"/><path d="M109.405 670.725c0-1.69-1.372-3.06-3.064-3.06a3.062 3.062 0 0 0-3.064 3.06c0 1.69 1.372 3.06 3.064 3.06a3.062 3.062 0 0 0 3.064-3.06Z" fill="url(#am)" fill-opacity=".3"/><path d="M109.405 635.589c0-1.69-1.372-3.06-3.064-3.06a3.062 3.062 0 0 0-3.064 3.06c0 1.69 1.372 3.06 3.064 3.06a3.062 3.062 0 0 0 3.064-3.06Z" fill="url(#an)" fill-opacity=".3"/><path d="M109.405 600.453c0-1.69-1.372-3.06-3.064-3.06a3.062 3.062 0 0 0-3.064 3.06 3.062 3.062 0 0 0 3.064 3.059 3.062 3.062 0 0 0 3.064-3.059Z" fill="url(#ao)" fill-opacity=".3"/><path d="M109.405 565.316a3.061 3.061 0 0 0-3.064-3.059 3.061 3.061 0 0 0-3.064 3.059c0 1.69 1.372 3.06 3.064 3.06a3.062 3.062 0 0 0 3.064-3.06Z" fill="url(#ap)" fill-opacity=".3"/><path d="M109.405 530.18c0-1.69-1.372-3.06-3.064-3.06a3.062 3.062 0 0 0-3.064 3.06c0 1.69 1.372 3.06 3.064 3.06a3.062 3.062 0 0 0 3.064-3.06Z" fill="url(#aq)" fill-opacity=".3"/><path d="M109.405 495.018a3.062 3.062 0 0 0-3.064-3.059 3.062 3.062 0 0 0-3.064 3.059c0 1.69 1.372 3.06 3.064 3.06a3.062 3.062 0 0 0 3.064-3.06Z" fill="url(#ar)" fill-opacity=".3"/><path d="M109.405 459.882c0-1.69-1.372-3.06-3.064-3.06a3.062 3.062 0 0 0-3.064 3.06c0 1.69 1.372 3.06 3.064 3.06a3.062 3.062 0 0 0 3.064-3.06Z" fill="url(#as)" fill-opacity=".3"/><path d="M106.341 421.686a3.071 3.071 0 0 1 3.064 3.06 3.071 3.071 0 0 1-3.064 3.06 3.071 3.071 0 0 1-3.064-3.06 3.071 3.071 0 0 1 3.064-3.06Z" fill="url(#at)" fill-opacity=".3"/><path d="M109.405 389.61c0-1.69-1.372-3.06-3.064-3.06a3.062 3.062 0 0 0-3.064 3.06 3.061 3.061 0 0 0 3.064 3.059 3.061 3.061 0 0 0 3.064-3.059Z" fill="url(#au)" fill-opacity=".3"/><path d="M109.405 354.473a3.061 3.061 0 0 0-3.064-3.059 3.061 3.061 0 0 0-3.064 3.059c0 1.69 1.372 3.06 3.064 3.06a3.062 3.062 0 0 0 3.064-3.06Z" fill="url(#av)" fill-opacity=".3"/><path d="M109.405 319.337c0-1.69-1.372-3.06-3.064-3.06a3.062 3.062 0 0 0-3.064 3.06c0 1.69 1.372 3.06 3.064 3.06a3.062 3.062 0 0 0 3.064-3.06Z" fill="url(#aw)" fill-opacity=".3"/><path d="M109.405 284.175a3.061 3.061 0 0 0-3.064-3.059 3.061 3.061 0 0 0-3.064 3.059c0 1.69 1.372 3.06 3.064 3.06a3.062 3.062 0 0 0 3.064-3.06Z" fill="url(#ax)" fill-opacity=".3"/><path d="M109.405 249.039c0-1.69-1.372-3.06-3.064-3.06a3.062 3.062 0 0 0-3.064 3.06c0 1.69 1.372 3.06 3.064 3.06a3.062 3.062 0 0 0 3.064-3.06Z" fill="url(#ay)" fill-opacity=".3"/><path d="M109.405 213.903c0-1.69-1.372-3.06-3.064-3.06a3.062 3.062 0 0 0-3.064 3.06c0 1.69 1.372 3.06 3.064 3.06a3.062 3.062 0 0 0 3.064-3.06Z" fill="url(#az)" fill-opacity=".3"/><path d="M109.405 178.767c0-1.69-1.372-3.06-3.064-3.06a3.062 3.062 0 0 0-3.064 3.06 3.062 3.062 0 0 0 3.064 3.059 3.062 3.062 0 0 0 3.064-3.059Z" fill="url(#aA)" fill-opacity=".3"/><path d="M109.405 143.63a3.061 3.061 0 0 0-3.064-3.059 3.061 3.061 0 0 0-3.064 3.059c0 1.69 1.372 3.06 3.064 3.06a3.062 3.062 0 0 0 3.064-3.06Z" fill="url(#aB)" fill-opacity=".3"/><path d="M109.405 108.494c0-1.69-1.372-3.06-3.064-3.06a3.062 3.062 0 0 0-3.064 3.06c0 1.69 1.372 3.06 3.064 3.06a3.062 3.062 0 0 0 3.064-3.06Z" fill="url(#aC)" fill-opacity=".3"/><path d="M106.341 70.298a3.071 3.071 0 0 1 3.064 3.06 3.07 3.07 0 0 1-3.064 3.06 3.07 3.07 0 0 1-3.064-3.06 3.055 3.055 0 0 1 3.064-3.06Z" fill="url(#aD)" fill-opacity=".3"/><path d="M109.405 38.196c0-1.69-1.372-3.06-3.064-3.06a3.062 3.062 0 0 0-3.064 3.06c0 1.69 1.372 3.06 3.064 3.06a3.062 3.062 0 0 0 3.064-3.06Z" fill="url(#aE)" fill-opacity=".3"/><path d="M109.405 3.06c0-1.69-1.372-3.06-3.064-3.06a3.062 3.062 0 0 0-3.064 3.06c0 1.69 1.372 3.06 3.064 3.06a3.062 3.062 0 0 0 3.064-3.06Z" fill="url(#aF)" fill-opacity=".3"/><path d="M143.822 705.861a3.062 3.062 0 0 0-3.064-3.059 3.062 3.062 0 0 0-3.064 3.059c0 1.69 1.372 3.06 3.064 3.06a3.062 3.062 0 0 0 3.064-3.06Z" fill="url(#aG)" fill-opacity=".3"/><path d="M143.822 670.725c0-1.69-1.372-3.06-3.064-3.06a3.062 3.062 0 0 0-3.064 3.06c0 1.69 1.372 3.06 3.064 3.06a3.062 3.062 0 0 0 3.064-3.06Z" fill="url(#aH)" fill-opacity=".3"/><path d="M143.822 635.589c0-1.69-1.372-3.06-3.064-3.06a3.062 3.062 0 0 0-3.064 3.06c0 1.69 1.372 3.06 3.064 3.06a3.062 3.062 0 0 0 3.064-3.06Z" fill="url(#aI)" fill-opacity=".3"/><path d="M143.822 600.453c0-1.69-1.372-3.06-3.064-3.06a3.062 3.062 0 0 0-3.064 3.06 3.062 3.062 0 0 0 3.064 3.059 3.062 3.062 0 0 0 3.064-3.059Z" fill="url(#aJ)" fill-opacity=".3"/><path d="M143.822 565.316a3.061 3.061 0 0 0-3.064-3.059 3.061 3.061 0 0 0-3.064 3.059c0 1.69 1.372 3.06 3.064 3.06a3.062 3.062 0 0 0 3.064-3.06Z" fill="url(#aK)" fill-opacity=".3"/><path d="M143.822 530.18c0-1.69-1.372-3.06-3.064-3.06a3.062 3.062 0 0 0-3.064 3.06c0 1.69 1.372 3.06 3.064 3.06a3.062 3.062 0 0 0 3.064-3.06Z" fill="url(#aL)" fill-opacity=".3"/><path d="M143.822 495.018a3.062 3.062 0 0 0-3.064-3.059 3.062 3.062 0 0 0-3.064 3.059c0 1.69 1.372 3.06 3.064 3.06a3.062 3.062 0 0 0 3.064-3.06Z" fill="url(#aM)" fill-opacity=".3"/><path d="M143.822 459.882c0-1.69-1.372-3.06-3.064-3.06a3.062 3.062 0 0 0-3.064 3.06c0 1.69 1.372 3.06 3.064 3.06a3.062 3.062 0 0 0 3.064-3.06Z" fill="url(#aN)" fill-opacity=".3"/><path d="M140.758 421.686a3.071 3.071 0 0 1 3.064 3.06 3.071 3.071 0 0 1-3.064 3.06 3.071 3.071 0 0 1-3.064-3.06 3.071 3.071 0 0 1 3.064-3.06Z" fill="url(#aO)" fill-opacity=".3"/><path d="M143.822 389.61c0-1.69-1.372-3.06-3.064-3.06a3.062 3.062 0 0 0-3.064 3.06 3.061 3.061 0 0 0 3.064 3.059 3.061 3.061 0 0 0 3.064-3.059Z" fill="url(#aP)" fill-opacity=".3"/><path d="M143.822 354.473a3.061 3.061 0 0 0-3.064-3.059 3.061 3.061 0 0 0-3.064 3.059c0 1.69 1.372 3.06 3.064 3.06a3.062 3.062 0 0 0 3.064-3.06Z" fill="url(#aQ)" fill-opacity=".3"/><path d="M143.822 319.337c0-1.69-1.372-3.06-3.064-3.06a3.062 3.062 0 0 0-3.064 3.06c0 1.69 1.372 3.06 3.064 3.06a3.062 3.062 0 0 0 3.064-3.06Z" fill="url(#aR)" fill-opacity=".3"/><path d="M143.822 284.175a3.061 3.061 0 0 0-3.064-3.059 3.061 3.061 0 0 0-3.064 3.059c0 1.69 1.372 3.06 3.064 3.06a3.062 3.062 0 0 0 3.064-3.06Z" fill="url(#aS)" fill-opacity=".3"/><path d="M143.822 249.039c0-1.69-1.372-3.06-3.064-3.06a3.062 3.062 0 0 0-3.064 3.06c0 1.69 1.372 3.06 3.064 3.06a3.062 3.062 0 0 0 3.064-3.06Z" fill="url(#aT)" fill-opacity=".3"/><path d="M143.822 213.903c0-1.69-1.372-3.06-3.064-3.06a3.062 3.062 0 0 0-3.064 3.06c0 1.69 1.372 3.06 3.064 3.06a3.062 3.062 0 0 0 3.064-3.06Z" fill="url(#aU)" fill-opacity=".3"/><path d="M143.822 178.767c0-1.69-1.372-3.06-3.064-3.06a3.062 3.062 0 0 0-3.064 3.06 3.062 3.062 0 0 0 3.064 3.059 3.062 3.062 0 0 0 3.064-3.059Z" fill="url(#aV)" fill-opacity=".3"/><path d="M143.822 143.63a3.061 3.061 0 0 0-3.064-3.059 3.061 3.061 0 0 0-3.064 3.059c0 1.69 1.372 3.06 3.064 3.06a3.062 3.062 0 0 0 3.064-3.06Z" fill="url(#aW)" fill-opacity=".3"/><path d="M143.822 108.494c0-1.69-1.372-3.06-3.064-3.06a3.062 3.062 0 0 0-3.064 3.06c0 1.69 1.372 3.06 3.064 3.06a3.062 3.062 0 0 0 3.064-3.06Z" fill="url(#aX)" fill-opacity=".3"/><path d="M140.758 70.298a3.071 3.071 0 0 1 3.064 3.06 3.07 3.07 0 0 1-3.064 3.06 3.07 3.07 0 0 1-3.064-3.06 3.055 3.055 0 0 1 3.064-3.06Z" fill="url(#aY)" fill-opacity=".3"/><path d="M143.822 38.196c0-1.69-1.372-3.06-3.064-3.06a3.062 3.062 0 0 0-3.064 3.06c0 1.69 1.372 3.06 3.064 3.06a3.062 3.062 0 0 0 3.064-3.06Z" fill="url(#aZ)" fill-opacity=".3"/><path d="M143.822 3.06c0-1.69-1.372-3.06-3.064-3.06a3.062 3.062 0 0 0-3.064 3.06c0 1.69 1.372 3.06 3.064 3.06a3.062 3.062 0 0 0 3.064-3.06Z" fill="url(#ba)" fill-opacity=".3"/><path d="M178.239 705.861a3.062 3.062 0 0 0-3.064-3.059 3.061 3.061 0 0 0-3.063 3.059c0 1.69 1.371 3.06 3.063 3.06a3.062 3.062 0 0 0 3.064-3.06Z" fill="url(#bb)" fill-opacity=".3"/><path d="M178.239 670.725c0-1.69-1.372-3.06-3.064-3.06a3.061 3.061 0 0 0-3.063 3.06c0 1.69 1.371 3.06 3.063 3.06a3.062 3.062 0 0 0 3.064-3.06Z" fill="url(#bc)" fill-opacity=".3"/><path d="M178.239 635.589c0-1.69-1.372-3.06-3.064-3.06a3.061 3.061 0 0 0-3.063 3.06c0 1.69 1.371 3.06 3.063 3.06a3.062 3.062 0 0 0 3.064-3.06Z" fill="url(#bd)" fill-opacity=".3"/><path d="M178.239 600.453c0-1.69-1.372-3.06-3.064-3.06a3.061 3.061 0 0 0-3.063 3.06 3.061 3.061 0 0 0 3.063 3.059 3.062 3.062 0 0 0 3.064-3.059Z" fill="url(#be)" fill-opacity=".3"/><path d="M178.239 565.316a3.061 3.061 0 0 0-3.064-3.059 3.06 3.06 0 1 0 0 6.119 3.062 3.062 0 0 0 3.064-3.06Z" fill="url(#bf)" fill-opacity=".3"/><path d="M178.239 530.18c0-1.69-1.372-3.06-3.064-3.06a3.061 3.061 0 0 0-3.063 3.06c0 1.69 1.371 3.06 3.063 3.06a3.062 3.062 0 0 0 3.064-3.06Z" fill="url(#bg)" fill-opacity=".3"/><path d="M178.239 495.018a3.062 3.062 0 0 0-3.064-3.059 3.061 3.061 0 0 0-3.063 3.059c0 1.69 1.371 3.06 3.063 3.06a3.062 3.062 0 0 0 3.064-3.06Z" fill="url(#bh)" fill-opacity=".3"/><path d="M178.239 459.882c0-1.69-1.372-3.06-3.064-3.06a3.061 3.061 0 0 0-3.063 3.06c0 1.69 1.371 3.06 3.063 3.06a3.062 3.062 0 0 0 3.064-3.06Z" fill="url(#bi)" fill-opacity=".3"/><path d="M175.175 421.686a3.071 3.071 0 0 1 3.064 3.06 3.071 3.071 0 0 1-3.064 3.06 3.07 3.07 0 0 1-3.063-3.06 3.07 3.07 0 0 1 3.063-3.06Z" fill="url(#bj)" fill-opacity=".3"/><path d="M178.239 389.61c0-1.69-1.372-3.06-3.064-3.06a3.06 3.06 0 1 0 0 6.119 3.061 3.061 0 0 0 3.064-3.059Z" fill="url(#bk)" fill-opacity=".3"/><path d="M178.239 354.473a3.061 3.061 0 0 0-3.064-3.059 3.06 3.06 0 1 0 0 6.119 3.062 3.062 0 0 0 3.064-3.06Z" fill="url(#bl)" fill-opacity=".3"/><path d="M178.239 319.337c0-1.69-1.372-3.06-3.064-3.06a3.061 3.061 0 0 0-3.063 3.06c0 1.69 1.371 3.06 3.063 3.06a3.062 3.062 0 0 0 3.064-3.06Z" fill="url(#bm)" fill-opacity=".3"/><path d="M178.239 284.175a3.061 3.061 0 0 0-3.064-3.059 3.06 3.06 0 1 0 0 6.119 3.062 3.062 0 0 0 3.064-3.06Z" fill="url(#bn)" fill-opacity=".3"/><path d="M178.239 249.039c0-1.69-1.372-3.06-3.064-3.06a3.061 3.061 0 0 0-3.063 3.06c0 1.69 1.371 3.06 3.063 3.06a3.062 3.062 0 0 0 3.064-3.06Z" fill="url(#bo)" fill-opacity=".3"/><path d="M178.239 213.903c0-1.69-1.372-3.06-3.064-3.06a3.061 3.061 0 0 0-3.063 3.06c0 1.69 1.371 3.06 3.063 3.06a3.062 3.062 0 0 0 3.064-3.06Z" fill="url(#bp)" fill-opacity=".3"/><path d="M178.239 178.767c0-1.69-1.372-3.06-3.064-3.06a3.061 3.061 0 0 0-3.063 3.06 3.061 3.061 0 0 0 3.063 3.059 3.062 3.062 0 0 0 3.064-3.059Z" fill="url(#bq)" fill-opacity=".3"/><path d="M178.239 143.63a3.061 3.061 0 0 0-3.064-3.059 3.06 3.06 0 1 0 0 6.119 3.062 3.062 0 0 0 3.064-3.06Z" fill="url(#br)" fill-opacity=".3"/><path d="M178.239 108.494c0-1.69-1.372-3.06-3.064-3.06a3.061 3.061 0 0 0-3.063 3.06c0 1.69 1.371 3.06 3.063 3.06a3.062 3.062 0 0 0 3.064-3.06Z" fill="url(#bs)" fill-opacity=".3"/><path d="M175.175 70.298a3.071 3.071 0 0 1 3.064 3.06 3.07 3.07 0 0 1-3.064 3.06 3.07 3.07 0 0 1-3.063-3.06 3.054 3.054 0 0 1 3.063-3.06Z" fill="url(#bt)" fill-opacity=".3"/><path d="M178.239 38.196c0-1.69-1.372-3.06-3.064-3.06a3.061 3.061 0 0 0-3.063 3.06c0 1.69 1.371 3.06 3.063 3.06a3.062 3.062 0 0 0 3.064-3.06Z" fill="url(#bu)" fill-opacity=".3"/><path d="M178.239 3.06c0-1.69-1.372-3.06-3.064-3.06a3.061 3.061 0 0 0-3.063 3.06c0 1.69 1.371 3.06 3.063 3.06a3.062 3.062 0 0 0 3.064-3.06Z" fill="url(#bv)" fill-opacity=".3"/><path d="M212.657 705.861a3.062 3.062 0 0 0-3.064-3.059 3.062 3.062 0 0 0-3.064 3.059c0 1.69 1.372 3.06 3.064 3.06a3.062 3.062 0 0 0 3.064-3.06Z" fill="url(#bw)" fill-opacity=".3"/><path d="M212.657 670.725c0-1.69-1.372-3.06-3.064-3.06a3.062 3.062 0 0 0-3.064 3.06c0 1.69 1.372 3.06 3.064 3.06a3.062 3.062 0 0 0 3.064-3.06Z" fill="url(#bx)" fill-opacity=".3"/><path d="M212.657 635.589c0-1.69-1.372-3.06-3.064-3.06a3.062 3.062 0 0 0-3.064 3.06c0 1.69 1.372 3.06 3.064 3.06a3.062 3.062 0 0 0 3.064-3.06Z" fill="url(#by)" fill-opacity=".3"/><path d="M212.657 600.453c0-1.69-1.372-3.06-3.064-3.06a3.062 3.062 0 0 0-3.064 3.06 3.062 3.062 0 0 0 3.064 3.059 3.062 3.062 0 0 0 3.064-3.059Z" fill="url(#bz)" fill-opacity=".3"/><path d="M212.657 565.316a3.061 3.061 0 0 0-3.064-3.059 3.061 3.061 0 0 0-3.064 3.059c0 1.69 1.372 3.06 3.064 3.06a3.062 3.062 0 0 0 3.064-3.06Z" fill="url(#bA)" fill-opacity=".3"/><path d="M212.657 530.18c0-1.69-1.372-3.06-3.064-3.06a3.062 3.062 0 0 0-3.064 3.06c0 1.69 1.372 3.06 3.064 3.06a3.062 3.062 0 0 0 3.064-3.06Z" fill="url(#bB)" fill-opacity=".3"/><path d="M212.657 495.018a3.062 3.062 0 0 0-3.064-3.059 3.062 3.062 0 0 0-3.064 3.059c0 1.69 1.372 3.06 3.064 3.06a3.062 3.062 0 0 0 3.064-3.06Z" fill="url(#bC)" fill-opacity=".3"/><path d="M212.657 459.882c0-1.69-1.372-3.06-3.064-3.06a3.062 3.062 0 0 0-3.064 3.06c0 1.69 1.372 3.06 3.064 3.06a3.062 3.062 0 0 0 3.064-3.06Z" fill="url(#bD)" fill-opacity=".3"/><path d="M209.593 421.686a3.071 3.071 0 0 1 3.064 3.06 3.071 3.071 0 0 1-3.064 3.06 3.071 3.071 0 0 1-3.064-3.06c.025-1.683 1.379-3.06 3.064-3.06Z" fill="url(#bE)" fill-opacity=".3"/><path d="M212.657 389.61c0-1.69-1.372-3.06-3.064-3.06a3.062 3.062 0 0 0-3.064 3.06 3.061 3.061 0 0 0 3.064 3.059 3.061 3.061 0 0 0 3.064-3.059Z" fill="url(#bF)" fill-opacity=".3"/><path d="M212.657 354.473a3.061 3.061 0 0 0-3.064-3.059 3.061 3.061 0 0 0-3.064 3.059c0 1.69 1.372 3.06 3.064 3.06a3.062 3.062 0 0 0 3.064-3.06Z" fill="url(#bG)" fill-opacity=".3"/><path d="M212.657 319.337c0-1.69-1.372-3.06-3.064-3.06a3.062 3.062 0 0 0-3.064 3.06c0 1.69 1.372 3.06 3.064 3.06a3.062 3.062 0 0 0 3.064-3.06Z" fill="url(#bH)" fill-opacity=".3"/><path d="M212.657 284.175a3.061 3.061 0 0 0-3.064-3.059 3.061 3.061 0 0 0-3.064 3.059c0 1.69 1.372 3.06 3.064 3.06a3.062 3.062 0 0 0 3.064-3.06Z" fill="url(#bI)" fill-opacity=".3"/><path d="M212.657 249.039c0-1.69-1.372-3.06-3.064-3.06a3.062 3.062 0 0 0-3.064 3.06c0 1.69 1.372 3.06 3.064 3.06a3.062 3.062 0 0 0 3.064-3.06Z" fill="url(#bJ)" fill-opacity=".3"/><path d="M212.657 213.903c0-1.69-1.372-3.06-3.064-3.06a3.062 3.062 0 0 0-3.064 3.06c0 1.69 1.372 3.06 3.064 3.06a3.062 3.062 0 0 0 3.064-3.06Z" fill="url(#bK)" fill-opacity=".3"/><path d="M212.657 178.767c0-1.69-1.372-3.06-3.064-3.06a3.062 3.062 0 0 0-3.064 3.06 3.062 3.062 0 0 0 3.064 3.059 3.062 3.062 0 0 0 3.064-3.059Z" fill="url(#bL)" fill-opacity=".3"/><path d="M212.657 143.63a3.061 3.061 0 0 0-3.064-3.059 3.061 3.061 0 0 0-3.064 3.059c0 1.69 1.372 3.06 3.064 3.06a3.062 3.062 0 0 0 3.064-3.06Z" fill="url(#bM)" fill-opacity=".3"/><path d="M212.657 108.494c0-1.69-1.372-3.06-3.064-3.06a3.062 3.062 0 0 0-3.064 3.06c0 1.69 1.372 3.06 3.064 3.06a3.062 3.062 0 0 0 3.064-3.06Z" fill="url(#bN)" fill-opacity=".3"/><path d="M209.593 70.298a3.071 3.071 0 0 1 3.064 3.06 3.07 3.07 0 0 1-3.064 3.06 3.07 3.07 0 0 1-3.064-3.06c.025-1.709 1.379-3.06 3.064-3.06Z" fill="url(#bO)" fill-opacity=".3"/><path d="M212.657 38.196c0-1.69-1.372-3.06-3.064-3.06a3.062 3.062 0 0 0-3.064 3.06c0 1.69 1.372 3.06 3.064 3.06a3.062 3.062 0 0 0 3.064-3.06Z" fill="url(#bP)" fill-opacity=".3"/><path d="M212.657 3.06c0-1.69-1.372-3.06-3.064-3.06a3.062 3.062 0 0 0-3.064 3.06c0 1.69 1.372 3.06 3.064 3.06a3.062 3.062 0 0 0 3.064-3.06Z" fill="url(#bQ)" fill-opacity=".3"/><path d="M244.035 702.802a3.07 3.07 0 0 1 3.064 3.059 3.071 3.071 0 0 1-3.064 3.06 3.071 3.071 0 0 1-3.064-3.06 3.055 3.055 0 0 1 3.064-3.059Z" fill="url(#bR)" fill-opacity=".3"/><path d="M244.035 667.665a3.071 3.071 0 0 1 3.064 3.06 3.071 3.071 0 0 1-3.064 3.06 3.071 3.071 0 0 1-3.064-3.06 3.055 3.055 0 0 1 3.064-3.06Z" fill="url(#bS)" fill-opacity=".3"/><path d="M244.035 632.529a3.071 3.071 0 0 1 3.064 3.06 3.071 3.071 0 0 1-3.064 3.06 3.071 3.071 0 0 1-3.064-3.06 3.055 3.055 0 0 1 3.064-3.06Z" fill="url(#bT)" fill-opacity=".3"/><path d="M244.035 597.393a3.071 3.071 0 0 1 3.064 3.06 3.07 3.07 0 0 1-3.064 3.059 3.07 3.07 0 0 1-3.064-3.059 3.055 3.055 0 0 1 3.064-3.06Z" fill="url(#bU)" fill-opacity=".3"/><path d="M244.035 562.257a3.07 3.07 0 0 1 3.064 3.059 3.071 3.071 0 0 1-3.064 3.06 3.071 3.071 0 0 1-3.064-3.06 3.054 3.054 0 0 1 3.064-3.059Z" fill="url(#bV)" fill-opacity=".3"/><path d="M244.035 527.12a3.071 3.071 0 0 1 3.064 3.06 3.071 3.071 0 0 1-3.064 3.06 3.071 3.071 0 0 1-3.064-3.06 3.04 3.04 0 0 1 3.064-3.06Z" fill="url(#bW)" fill-opacity=".3"/><path d="M244.035 491.984a3.071 3.071 0 0 1 3.064 3.06 3.071 3.071 0 0 1-3.064 3.06 3.071 3.071 0 0 1-3.064-3.06 3.04 3.04 0 0 1 3.064-3.06Z" fill="url(#bX)" fill-opacity=".3"/><path d="M244.035 456.822a3.071 3.071 0 0 1 3.064 3.06 3.071 3.071 0 0 1-3.064 3.06 3.071 3.071 0 0 1-3.064-3.06 3.055 3.055 0 0 1 3.064-3.06Z" fill="url(#bY)" fill-opacity=".3"/><path d="M244.035 421.686a3.071 3.071 0 0 1 3.064 3.06 3.071 3.071 0 0 1-3.064 3.06 3.071 3.071 0 0 1-3.064-3.06 3.055 3.055 0 0 1 3.064-3.06Z" fill="url(#bZ)" fill-opacity=".3"/><path d="M244.035 386.55a3.071 3.071 0 0 1 3.064 3.06 3.07 3.07 0 0 1-3.064 3.059 3.07 3.07 0 0 1-3.064-3.059 3.055 3.055 0 0 1 3.064-3.06Z" fill="url(#ca)" fill-opacity=".3"/><path d="M244.035 351.414a3.07 3.07 0 0 1 3.064 3.059 3.071 3.071 0 0 1-3.064 3.06 3.071 3.071 0 0 1-3.064-3.06 3.054 3.054 0 0 1 3.064-3.059Z" fill="url(#cb)" fill-opacity=".3"/><path d="M244.035 316.277a3.071 3.071 0 0 1 3.064 3.06 3.071 3.071 0 0 1-3.064 3.06 3.071 3.071 0 0 1-3.064-3.06 3.04 3.04 0 0 1 3.064-3.06Z" fill="url(#cc)" fill-opacity=".3"/><path d="M244.035 281.141a3.071 3.071 0 0 1 3.064 3.06 3.071 3.071 0 0 1-3.064 3.06 3.071 3.071 0 0 1-3.064-3.06 3.04 3.04 0 0 1 3.064-3.06Z" fill="url(#cd)" fill-opacity=".3"/><path d="M244.035 245.979a3.071 3.071 0 0 1 3.064 3.06 3.071 3.071 0 0 1-3.064 3.06 3.071 3.071 0 0 1-3.064-3.06 3.055 3.055 0 0 1 3.064-3.06Z" fill="url(#ce)" fill-opacity=".3"/><path d="M244.035 210.843a3.071 3.071 0 0 1 3.064 3.06 3.071 3.071 0 0 1-3.064 3.06 3.071 3.071 0 0 1-3.064-3.06 3.055 3.055 0 0 1 3.064-3.06Z" fill="url(#cf)" fill-opacity=".3"/><path d="M244.035 175.707a3.071 3.071 0 0 1 3.064 3.06 3.07 3.07 0 0 1-3.064 3.059 3.07 3.07 0 0 1-3.064-3.059 3.055 3.055 0 0 1 3.064-3.06Z" fill="url(#cg)" fill-opacity=".3"/><path d="M244.035 140.571a3.07 3.07 0 0 1 3.064 3.059 3.071 3.071 0 0 1-3.064 3.06 3.071 3.071 0 0 1-3.064-3.06 3.054 3.054 0 0 1 3.064-3.059Z" fill="url(#ch)" fill-opacity=".3"/><path d="M244.035 105.434a3.071 3.071 0 0 1 3.064 3.06 3.071 3.071 0 0 1-3.064 3.06 3.071 3.071 0 0 1-3.064-3.06 3.04 3.04 0 0 1 3.064-3.06Z" fill="url(#ci)" fill-opacity=".3"/><path d="M244.035 70.298a3.071 3.071 0 0 1 3.064 3.06 3.07 3.07 0 0 1-3.064 3.06 3.07 3.07 0 0 1-3.064-3.06 3.039 3.039 0 0 1 3.064-3.06Z" fill="url(#cj)" fill-opacity=".3"/><path d="M244.035 35.136a3.071 3.071 0 0 1 3.064 3.06 3.071 3.071 0 0 1-3.064 3.06 3.071 3.071 0 0 1-3.064-3.06 3.055 3.055 0 0 1 3.064-3.06Z" fill="url(#ck)" fill-opacity=".3"/><path d="M244.035 0a3.071 3.071 0 0 1 3.064 3.06 3.071 3.071 0 0 1-3.064 3.06 3.071 3.071 0 0 1-3.064-3.06A3.055 3.055 0 0 1 244.035 0Z" fill="url(#cl)" fill-opacity=".3"/><path d="M281.516 705.861a3.061 3.061 0 0 0-3.063-3.059 3.061 3.061 0 0 0-3.064 3.059c0 1.69 1.371 3.06 3.064 3.06a3.061 3.061 0 0 0 3.063-3.06Z" fill="url(#cm)" fill-opacity=".3"/><path d="M281.516 670.725c0-1.69-1.371-3.06-3.063-3.06a3.061 3.061 0 0 0-3.064 3.06c0 1.69 1.371 3.06 3.064 3.06a3.061 3.061 0 0 0 3.063-3.06Z" fill="url(#cn)" fill-opacity=".3"/><path d="M281.516 635.589c0-1.69-1.371-3.06-3.063-3.06a3.061 3.061 0 0 0-3.064 3.06c0 1.69 1.371 3.06 3.064 3.06a3.061 3.061 0 0 0 3.063-3.06Z" fill="url(#co)" fill-opacity=".3"/><path d="M281.516 600.453c0-1.69-1.371-3.06-3.063-3.06a3.061 3.061 0 0 0-3.064 3.06 3.061 3.061 0 0 0 3.064 3.059 3.061 3.061 0 0 0 3.063-3.059Z" fill="url(#cp)" fill-opacity=".3"/><path d="M281.516 565.316a3.06 3.06 0 0 0-3.063-3.059 3.06 3.06 0 1 0 0 6.119 3.061 3.061 0 0 0 3.063-3.06Z" fill="url(#cq)" fill-opacity=".3"/><path d="M281.516 530.18c0-1.69-1.371-3.06-3.063-3.06a3.061 3.061 0 0 0-3.064 3.06c0 1.69 1.371 3.06 3.064 3.06a3.061 3.061 0 0 0 3.063-3.06Z" fill="url(#cr)" fill-opacity=".3"/><path d="M281.516 495.018a3.061 3.061 0 0 0-3.063-3.059 3.061 3.061 0 0 0-3.064 3.059c0 1.69 1.371 3.06 3.064 3.06a3.061 3.061 0 0 0 3.063-3.06Z" fill="url(#cs)" fill-opacity=".3"/><path d="M281.516 459.882c0-1.69-1.371-3.06-3.063-3.06a3.061 3.061 0 0 0-3.064 3.06c0 1.69 1.371 3.06 3.064 3.06a3.061 3.061 0 0 0 3.063-3.06Z" fill="url(#ct)" fill-opacity=".3"/><path d="M278.453 421.686a3.07 3.07 0 0 1 3.063 3.06 3.07 3.07 0 0 1-3.063 3.06 3.07 3.07 0 0 1-3.064-3.06 3.07 3.07 0 0 1 3.064-3.06Z" fill="url(#cu)" fill-opacity=".3"/><path d="M281.516 389.61c0-1.69-1.371-3.06-3.063-3.06a3.06 3.06 0 1 0 0 6.119 3.06 3.06 0 0 0 3.063-3.059Z" fill="url(#cv)" fill-opacity=".3"/><path d="M281.516 354.473a3.06 3.06 0 0 0-3.063-3.059 3.06 3.06 0 1 0 0 6.119 3.061 3.061 0 0 0 3.063-3.06Z" fill="url(#cw)" fill-opacity=".3"/><path d="M281.516 319.337c0-1.69-1.371-3.06-3.063-3.06a3.061 3.061 0 0 0-3.064 3.06c0 1.69 1.371 3.06 3.064 3.06a3.061 3.061 0 0 0 3.063-3.06Z" fill="url(#cx)" fill-opacity=".3"/><path d="M281.516 284.175a3.06 3.06 0 0 0-3.063-3.059 3.06 3.06 0 1 0 0 6.119 3.061 3.061 0 0 0 3.063-3.06Z" fill="url(#cy)" fill-opacity=".3"/><path d="M281.516 249.039c0-1.69-1.371-3.06-3.063-3.06a3.061 3.061 0 0 0-3.064 3.06c0 1.69 1.371 3.06 3.064 3.06a3.061 3.061 0 0 0 3.063-3.06Z" fill="url(#cz)" fill-opacity=".3"/><path d="M281.516 213.903c0-1.69-1.371-3.06-3.063-3.06a3.061 3.061 0 0 0-3.064 3.06c0 1.69 1.371 3.06 3.064 3.06a3.061 3.061 0 0 0 3.063-3.06Z" fill="url(#cA)" fill-opacity=".3"/><path d="M281.516 178.767c0-1.69-1.371-3.06-3.063-3.06a3.061 3.061 0 0 0-3.064 3.06 3.061 3.061 0 0 0 3.064 3.059 3.061 3.061 0 0 0 3.063-3.059Z" fill="url(#cB)" fill-opacity=".3"/><path d="M281.516 143.63a3.06 3.06 0 0 0-3.063-3.059 3.06 3.06 0 1 0 0 6.119 3.061 3.061 0 0 0 3.063-3.06Z" fill="url(#cC)" fill-opacity=".3"/><path d="M281.516 108.494c0-1.69-1.371-3.06-3.063-3.06a3.061 3.061 0 0 0-3.064 3.06c0 1.69 1.371 3.06 3.064 3.06a3.061 3.061 0 0 0 3.063-3.06Z" fill="url(#cD)" fill-opacity=".3"/><path d="M278.453 70.298a3.07 3.07 0 0 1 3.063 3.06 3.07 3.07 0 0 1-3.063 3.06 3.07 3.07 0 0 1-3.064-3.06 3.054 3.054 0 0 1 3.064-3.06Z" fill="url(#cE)" fill-opacity=".3"/><path d="M281.516 38.196c0-1.69-1.371-3.06-3.063-3.06a3.061 3.061 0 0 0-3.064 3.06c0 1.69 1.371 3.06 3.064 3.06a3.061 3.061 0 0 0 3.063-3.06Z" fill="url(#cF)" fill-opacity=".3"/><path d="M281.516 3.06c0-1.69-1.371-3.06-3.063-3.06a3.061 3.061 0 0 0-3.064 3.06c0 1.69 1.371 3.06 3.064 3.06a3.061 3.061 0 0 0 3.063-3.06Z" fill="url(#cG)" fill-opacity=".3"/><defs><linearGradient id="a" x1="0" y1="708.921" x2=".404" y2="702.444" gradientUnits="userSpaceOnUse"><stop stop-color="#81BD92"/><stop offset="1" stop-color="#BEF8CE"/></linearGradient><linearGradient id="b" x1="0" y1="673.785" x2=".404" y2="667.308" gradientUnits="userSpaceOnUse"><stop stop-color="#81BD92"/><stop offset="1" stop-color="#BEF8CE"/></linearGradient><linearGradient id="c" x1="0" y1="638.649" x2=".404" y2="632.172" gradientUnits="userSpaceOnUse"><stop stop-color="#81BD92"/><stop offset="1" stop-color="#BEF8CE"/></linearGradient><linearGradient id="d" x1="0" y1="603.512" x2=".404" y2="597.036" gradientUnits="userSpaceOnUse"><stop stop-color="#81BD92"/><stop offset="1" stop-color="#BEF8CE"/></linearGradient><linearGradient id="e" x1="0" y1="568.376" x2=".404" y2="561.899" gradientUnits="userSpaceOnUse"><stop stop-color="#81BD92"/><stop offset="1" stop-color="#BEF8CE"/></linearGradient><linearGradient id="f" x1="0" y1="533.24" x2=".404" y2="526.763" gradientUnits="userSpaceOnUse"><stop stop-color="#81BD92"/><stop offset="1" stop-color="#BEF8CE"/></linearGradient><linearGradient id="g" x1="0" y1="498.078" x2=".404" y2="491.601" gradientUnits="userSpaceOnUse"><stop stop-color="#81BD92"/><stop offset="1" stop-color="#BEF8CE"/></linearGradient><linearGradient id="h" x1="0" y1="462.942" x2=".404" y2="456.465" gradientUnits="userSpaceOnUse"><stop stop-color="#81BD92"/><stop offset="1" stop-color="#BEF8CE"/></linearGradient><linearGradient id="i" x1="0" y1="427.806" x2=".404" y2="421.329" gradientUnits="userSpaceOnUse"><stop stop-color="#81BD92"/><stop offset="1" stop-color="#BEF8CE"/></linearGradient><linearGradient id="j" x1="0" y1="392.669" x2=".404" y2="386.193" gradientUnits="userSpaceOnUse"><stop stop-color="#81BD92"/><stop offset="1" stop-color="#BEF8CE"/></linearGradient><linearGradient id="k" x1="0" y1="357.533" x2=".404" y2="351.056" gradientUnits="userSpaceOnUse"><stop stop-color="#81BD92"/><stop offset="1" stop-color="#BEF8CE"/></linearGradient><linearGradient id="l" x1="0" y1="322.397" x2=".404" y2="315.92" gradientUnits="userSpaceOnUse"><stop stop-color="#81BD92"/><stop offset="1" stop-color="#BEF8CE"/></linearGradient><linearGradient id="m" x1="0" y1="287.235" x2=".404" y2="280.758" gradientUnits="userSpaceOnUse"><stop stop-color="#81BD92"/><stop offset="1" stop-color="#BEF8CE"/></linearGradient><linearGradient id="n" x1="0" y1="252.099" x2=".404" y2="245.622" gradientUnits="userSpaceOnUse"><stop stop-color="#81BD92"/><stop offset="1" stop-color="#BEF8CE"/></linearGradient><linearGradient id="o" x1="0" y1="216.963" x2=".404" y2="210.486" gradientUnits="userSpaceOnUse"><stop stop-color="#81BD92"/><stop offset="1" stop-color="#BEF8CE"/></linearGradient><linearGradient id="p" x1="0" y1="181.826" x2=".404" y2="175.35" gradientUnits="userSpaceOnUse"><stop stop-color="#81BD92"/><stop offset="1" stop-color="#BEF8CE"/></linearGradient><linearGradient id="q" x1="0" y1="146.69" x2=".404" y2="140.213" gradientUnits="userSpaceOnUse"><stop stop-color="#81BD92"/><stop offset="1" stop-color="#BEF8CE"/></linearGradient><linearGradient id="r" x1="0" y1="111.554" x2=".404" y2="105.077" gradientUnits="userSpaceOnUse"><stop stop-color="#81BD92"/><stop offset="1" stop-color="#BEF8CE"/></linearGradient><linearGradient id="s" x1="0" y1="76.418" x2=".404" y2="69.941" gradientUnits="userSpaceOnUse"><stop stop-color="#81BD92"/><stop offset="1" stop-color="#BEF8CE"/></linearGradient><linearGradient id="t" x1="0" y1="41.256" x2=".404" y2="34.779" gradientUnits="userSpaceOnUse"><stop stop-color="#81BD92"/><stop offset="1" stop-color="#BEF8CE"/></linearGradient><linearGradient id="u" x1="0" y1="6.12" x2=".404" y2="-.357" gradientUnits="userSpaceOnUse"><stop stop-color="#81BD92"/><stop offset="1" stop-color="#BEF8CE"/></linearGradient><linearGradient id="v" x1="34.417" y1="708.921" x2="34.822" y2="702.444" gradientUnits="userSpaceOnUse"><stop stop-color="#81BD92"/><stop offset="1" stop-color="#BEF8CE"/></linearGradient><linearGradient id="w" x1="34.417" y1="673.785" x2="34.822" y2="667.308" gradientUnits="userSpaceOnUse"><stop stop-color="#81BD92"/><stop offset="1" stop-color="#BEF8CE"/></linearGradient><linearGradient id="x" x1="34.417" y1="638.649" x2="34.822" y2="632.172" gradientUnits="userSpaceOnUse"><stop stop-color="#81BD92"/><stop offset="1" stop-color="#BEF8CE"/></linearGradient><linearGradient id="y" x1="34.417" y1="603.512" x2="34.822" y2="597.036" gradientUnits="userSpaceOnUse"><stop stop-color="#81BD92"/><stop offset="1" stop-color="#BEF8CE"/></linearGradient><linearGradient id="z" x1="34.417" y1="568.376" x2="34.822" y2="561.899" gradientUnits="userSpaceOnUse"><stop stop-color="#81BD92"/><stop offset="1" stop-color="#BEF8CE"/></linearGradient><linearGradient id="A" x1="34.417" y1="533.24" x2="34.822" y2="526.763" gradientUnits="userSpaceOnUse"><stop stop-color="#81BD92"/><stop offset="1" stop-color="#BEF8CE"/></linearGradient><linearGradient id="B" x1="34.417" y1="498.078" x2="34.822" y2="491.601" gradientUnits="userSpaceOnUse"><stop stop-color="#81BD92"/><stop offset="1" stop-color="#BEF8CE"/></linearGradient><linearGradient id="C" x1="34.417" y1="462.942" x2="34.822" y2="456.465" gradientUnits="userSpaceOnUse"><stop stop-color="#81BD92"/><stop offset="1" stop-color="#BEF8CE"/></linearGradient><linearGradient id="D" x1="34.417" y1="427.806" x2="34.822" y2="421.329" gradientUnits="userSpaceOnUse"><stop stop-color="#81BD92"/><stop offset="1" stop-color="#BEF8CE"/></linearGradient><linearGradient id="E" x1="34.417" y1="392.669" x2="34.822" y2="386.193" gradientUnits="userSpaceOnUse"><stop stop-color="#81BD92"/><stop offset="1" stop-color="#BEF8CE"/></linearGradient><linearGradient id="F" x1="34.417" y1="357.533" x2="34.822" y2="351.056" gradientUnits="userSpaceOnUse"><stop stop-color="#81BD92"/><stop offset="1" stop-color="#BEF8CE"/></linearGradient><linearGradient id="G" x1="34.417" y1="322.397" x2="34.822" y2="315.92" gradientUnits="userSpaceOnUse"><stop stop-color="#81BD92"/><stop offset="1" stop-color="#BEF8CE"/></linearGradient><linearGradient id="H" x1="34.417" y1="287.235" x2="34.822" y2="280.758" gradientUnits="userSpaceOnUse"><stop stop-color="#81BD92"/><stop offset="1" stop-color="#BEF8CE"/></linearGradient><linearGradient id="I" x1="34.417" y1="252.099" x2="34.822" y2="245.622" gradientUnits="userSpaceOnUse"><stop stop-color="#81BD92"/><stop offset="1" stop-color="#BEF8CE"/></linearGradient><linearGradient id="J" x1="34.417" y1="216.963" x2="34.822" y2="210.486" gradientUnits="userSpaceOnUse"><stop stop-color="#81BD92"/><stop offset="1" stop-color="#BEF8CE"/></linearGradient><linearGradient id="K" x1="34.417" y1="181.826" x2="34.822" y2="175.35" gradientUnits="userSpaceOnUse"><stop stop-color="#81BD92"/><stop offset="1" stop-color="#BEF8CE"/></linearGradient><linearGradient id="L" x1="34.417" y1="146.69" x2="34.822" y2="140.213" gradientUnits="userSpaceOnUse"><stop stop-color="#81BD92"/><stop offset="1" stop-color="#BEF8CE"/></linearGradient><linearGradient id="M" x1="34.417" y1="111.554" x2="34.822" y2="105.077" gradientUnits="userSpaceOnUse"><stop stop-color="#81BD92"/><stop offset="1" stop-color="#BEF8CE"/></linearGradient><linearGradient id="N" x1="34.417" y1="76.418" x2="34.822" y2="69.941" gradientUnits="userSpaceOnUse"><stop stop-color="#81BD92"/><stop offset="1" stop-color="#BEF8CE"/></linearGradient><linearGradient id="O" x1="34.417" y1="41.256" x2="34.822" y2="34.779" gradientUnits="userSpaceOnUse"><stop stop-color="#81BD92"/><stop offset="1" stop-color="#BEF8CE"/></linearGradient><linearGradient id="P" x1="34.417" y1="6.12" x2="34.822" y2="-.357" gradientUnits="userSpaceOnUse"><stop stop-color="#81BD92"/><stop offset="1" stop-color="#BEF8CE"/></linearGradient><linearGradient id="Q" x1="68.86" y1="708.921" x2="69.264" y2="702.444" gradientUnits="userSpaceOnUse"><stop stop-color="#81BD92"/><stop offset="1" stop-color="#BEF8CE"/></linearGradient><linearGradient id="R" x1="68.86" y1="673.785" x2="69.264" y2="667.308" gradientUnits="userSpaceOnUse"><stop stop-color="#81BD92"/><stop offset="1" stop-color="#BEF8CE"/></linearGradient><linearGradient id="S" x1="68.86" y1="638.649" x2="69.264" y2="632.172" gradientUnits="userSpaceOnUse"><stop stop-color="#81BD92"/><stop offset="1" stop-color="#BEF8CE"/></linearGradient><linearGradient id="T" x1="68.86" y1="603.512" x2="69.264" y2="597.036" gradientUnits="userSpaceOnUse"><stop stop-color="#81BD92"/><stop offset="1" stop-color="#BEF8CE"/></linearGradient><linearGradient id="U" x1="68.86" y1="568.376" x2="69.264" y2="561.899" gradientUnits="userSpaceOnUse"><stop stop-color="#81BD92"/><stop offset="1" stop-color="#BEF8CE"/></linearGradient><linearGradient id="V" x1="68.86" y1="533.24" x2="69.264" y2="526.763" gradientUnits="userSpaceOnUse"><stop stop-color="#81BD92"/><stop offset="1" stop-color="#BEF8CE"/></linearGradient><linearGradient id="W" x1="68.86" y1="498.078" x2="69.264" y2="491.601" gradientUnits="userSpaceOnUse"><stop stop-color="#81BD92"/><stop offset="1" stop-color="#BEF8CE"/></linearGradient><linearGradient id="X" x1="68.86" y1="462.942" x2="69.264" y2="456.465" gradientUnits="userSpaceOnUse"><stop stop-color="#81BD92"/><stop offset="1" stop-color="#BEF8CE"/></linearGradient><linearGradient id="Y" x1="68.86" y1="427.806" x2="69.264" y2="421.329" gradientUnits="userSpaceOnUse"><stop stop-color="#81BD92"/><stop offset="1" stop-color="#BEF8CE"/></linearGradient><linearGradient id="Z" x1="68.86" y1="392.669" x2="69.264" y2="386.193" gradientUnits="userSpaceOnUse"><stop stop-color="#81BD92"/><stop offset="1" stop-color="#BEF8CE"/></linearGradient><linearGradient id="aa" x1="68.86" y1="357.533" x2="69.264" y2="351.056" gradientUnits="userSpaceOnUse"><stop stop-color="#81BD92"/><stop offset="1" stop-color="#BEF8CE"/></linearGradient><linearGradient id="ab" x1="68.86" y1="322.397" x2="69.264" y2="315.92" gradientUnits="userSpaceOnUse"><stop stop-color="#81BD92"/><stop offset="1" stop-color="#BEF8CE"/></linearGradient><linearGradient id="ac" x1="68.86" y1="287.235" x2="69.264" y2="280.758" gradientUnits="userSpaceOnUse"><stop stop-color="#81BD92"/><stop offset="1" stop-color="#BEF8CE"/></linearGradient><linearGradient id="ad" x1="68.86" y1="252.099" x2="69.264" y2="245.622" gradientUnits="userSpaceOnUse"><stop stop-color="#81BD92"/><stop offset="1" stop-color="#BEF8CE"/></linearGradient><linearGradient id="ae" x1="68.86" y1="216.963" x2="69.264" y2="210.486" gradientUnits="userSpaceOnUse"><stop stop-color="#81BD92"/><stop offset="1" stop-color="#BEF8CE"/></linearGradient><linearGradient id="af" x1="68.86" y1="181.826" x2="69.264" y2="175.35" gradientUnits="userSpaceOnUse"><stop stop-color="#81BD92"/><stop offset="1" stop-color="#BEF8CE"/></linearGradient><linearGradient id="ag" x1="68.86" y1="146.69" x2="69.264" y2="140.213" gradientUnits="userSpaceOnUse"><stop stop-color="#81BD92"/><stop offset="1" stop-color="#BEF8CE"/></linearGradient><linearGradient id="ah" x1="68.86" y1="111.554" x2="69.264" y2="105.077" gradientUnits="userSpaceOnUse"><stop stop-color="#81BD92"/><stop offset="1" stop-color="#BEF8CE"/></linearGradient><linearGradient id="ai" x1="68.86" y1="76.418" x2="69.264" y2="69.941" gradientUnits="userSpaceOnUse"><stop stop-color="#81BD92"/><stop offset="1" stop-color="#BEF8CE"/></linearGradient><linearGradient id="aj" x1="68.86" y1="41.256" x2="69.264" y2="34.779" gradientUnits="userSpaceOnUse"><stop stop-color="#81BD92"/><stop offset="1" stop-color="#BEF8CE"/></linearGradient><linearGradient id="ak" x1="68.86" y1="6.12" x2="69.264" y2="-.357" gradientUnits="userSpaceOnUse"><stop stop-color="#81BD92"/><stop offset="1" stop-color="#BEF8CE"/></linearGradient><linearGradient id="al" x1="103.277" y1="708.921" x2="103.681" y2="702.444" gradientUnits="userSpaceOnUse"><stop stop-color="#81BD92"/><stop offset="1" stop-color="#BEF8CE"/></linearGradient><linearGradient id="am" x1="103.277" y1="673.785" x2="103.681" y2="667.308" gradientUnits="userSpaceOnUse"><stop stop-color="#81BD92"/><stop offset="1" stop-color="#BEF8CE"/></linearGradient><linearGradient id="an" x1="103.277" y1="638.649" x2="103.681" y2="632.172" gradientUnits="userSpaceOnUse"><stop stop-color="#81BD92"/><stop offset="1" stop-color="#BEF8CE"/></linearGradient><linearGradient id="ao" x1="103.277" y1="603.512" x2="103.681" y2="597.036" gradientUnits="userSpaceOnUse"><stop stop-color="#81BD92"/><stop offset="1" stop-color="#BEF8CE"/></linearGradient><linearGradient id="ap" x1="103.277" y1="568.376" x2="103.681" y2="561.899" gradientUnits="userSpaceOnUse"><stop stop-color="#81BD92"/><stop offset="1" stop-color="#BEF8CE"/></linearGradient><linearGradient id="aq" x1="103.277" y1="533.24" x2="103.681" y2="526.763" gradientUnits="userSpaceOnUse"><stop stop-color="#81BD92"/><stop offset="1" stop-color="#BEF8CE"/></linearGradient><linearGradient id="ar" x1="103.277" y1="498.078" x2="103.681" y2="491.601" gradientUnits="userSpaceOnUse"><stop stop-color="#81BD92"/><stop offset="1" stop-color="#BEF8CE"/></linearGradient><linearGradient id="as" x1="103.277" y1="462.942" x2="103.681" y2="456.465" gradientUnits="userSpaceOnUse"><stop stop-color="#81BD92"/><stop offset="1" stop-color="#BEF8CE"/></linearGradient><linearGradient id="at" x1="103.277" y1="427.806" x2="103.681" y2="421.329" gradientUnits="userSpaceOnUse"><stop stop-color="#81BD92"/><stop offset="1" stop-color="#BEF8CE"/></linearGradient><linearGradient id="au" x1="103.277" y1="392.669" x2="103.681" y2="386.193" gradientUnits="userSpaceOnUse"><stop stop-color="#81BD92"/><stop offset="1" stop-color="#BEF8CE"/></linearGradient><linearGradient id="av" x1="103.277" y1="357.533" x2="103.681" y2="351.056" gradientUnits="userSpaceOnUse"><stop stop-color="#81BD92"/><stop offset="1" stop-color="#BEF8CE"/></linearGradient><linearGradient id="aw" x1="103.277" y1="322.397" x2="103.681" y2="315.92" gradientUnits="userSpaceOnUse"><stop stop-color="#81BD92"/><stop offset="1" stop-color="#BEF8CE"/></linearGradient><linearGradient id="ax" x1="103.277" y1="287.235" x2="103.681" y2="280.758" gradientUnits="userSpaceOnUse"><stop stop-color="#81BD92"/><stop offset="1" stop-color="#BEF8CE"/></linearGradient><linearGradient id="ay" x1="103.277" y1="252.099" x2="103.681" y2="245.622" gradientUnits="userSpaceOnUse"><stop stop-color="#81BD92"/><stop offset="1" stop-color="#BEF8CE"/></linearGradient><linearGradient id="az" x1="103.277" y1="216.963" x2="103.681" y2="210.486" gradientUnits="userSpaceOnUse"><stop stop-color="#81BD92"/><stop offset="1" stop-color="#BEF8CE"/></linearGradient><linearGradient id="aA" x1="103.277" y1="181.826" x2="103.681" y2="175.35" gradientUnits="userSpaceOnUse"><stop stop-color="#81BD92"/><stop offset="1" stop-color="#BEF8CE"/></linearGradient><linearGradient id="aB" x1="103.277" y1="146.69" x2="103.681" y2="140.213" gradientUnits="userSpaceOnUse"><stop stop-color="#81BD92"/><stop offset="1" stop-color="#BEF8CE"/></linearGradient><linearGradient id="aC" x1="103.277" y1="111.554" x2="103.681" y2="105.077" gradientUnits="userSpaceOnUse"><stop stop-color="#81BD92"/><stop offset="1" stop-color="#BEF8CE"/></linearGradient><linearGradient id="aD" x1="103.277" y1="76.418" x2="103.681" y2="69.941" gradientUnits="userSpaceOnUse"><stop stop-color="#81BD92"/><stop offset="1" stop-color="#BEF8CE"/></linearGradient><linearGradient id="aE" x1="103.277" y1="41.256" x2="103.681" y2="34.779" gradientUnits="userSpaceOnUse"><stop stop-color="#81BD92"/><stop offset="1" stop-color="#BEF8CE"/></linearGradient><linearGradient id="aF" x1="103.277" y1="6.12" x2="103.681" y2="-.357" gradientUnits="userSpaceOnUse"><stop stop-color="#81BD92"/><stop offset="1" stop-color="#BEF8CE"/></linearGradient><linearGradient id="aG" x1="137.694" y1="708.921" x2="138.099" y2="702.444" gradientUnits="userSpaceOnUse"><stop stop-color="#81BD92"/><stop offset="1" stop-color="#BEF8CE"/></linearGradient><linearGradient id="aH" x1="137.694" y1="673.785" x2="138.099" y2="667.308" gradientUnits="userSpaceOnUse"><stop stop-color="#81BD92"/><stop offset="1" stop-color="#BEF8CE"/></linearGradient><linearGradient id="aI" x1="137.694" y1="638.649" x2="138.099" y2="632.172" gradientUnits="userSpaceOnUse"><stop stop-color="#81BD92"/><stop offset="1" stop-color="#BEF8CE"/></linearGradient><linearGradient id="aJ" x1="137.694" y1="603.512" x2="138.099" y2="597.036" gradientUnits="userSpaceOnUse"><stop stop-color="#81BD92"/><stop offset="1" stop-color="#BEF8CE"/></linearGradient><linearGradient id="aK" x1="137.694" y1="568.376" x2="138.099" y2="561.899" gradientUnits="userSpaceOnUse"><stop stop-color="#81BD92"/><stop offset="1" stop-color="#BEF8CE"/></linearGradient><linearGradient id="aL" x1="137.694" y1="533.24" x2="138.099" y2="526.763" gradientUnits="userSpaceOnUse"><stop stop-color="#81BD92"/><stop offset="1" stop-color="#BEF8CE"/></linearGradient><linearGradient id="aM" x1="137.694" y1="498.078" x2="138.099" y2="491.601" gradientUnits="userSpaceOnUse"><stop stop-color="#81BD92"/><stop offset="1" stop-color="#BEF8CE"/></linearGradient><linearGradient id="aN" x1="137.694" y1="462.942" x2="138.099" y2="456.465" gradientUnits="userSpaceOnUse"><stop stop-color="#81BD92"/><stop offset="1" stop-color="#BEF8CE"/></linearGradient><linearGradient id="aO" x1="137.694" y1="427.806" x2="138.099" y2="421.329" gradientUnits="userSpaceOnUse"><stop stop-color="#81BD92"/><stop offset="1" stop-color="#BEF8CE"/></linearGradient><linearGradient id="aP" x1="137.694" y1="392.669" x2="138.099" y2="386.193" gradientUnits="userSpaceOnUse"><stop stop-color="#81BD92"/><stop offset="1" stop-color="#BEF8CE"/></linearGradient><linearGradient id="aQ" x1="137.694" y1="357.533" x2="138.099" y2="351.056" gradientUnits="userSpaceOnUse"><stop stop-color="#81BD92"/><stop offset="1" stop-color="#BEF8CE"/></linearGradient><linearGradient id="aR" x1="137.694" y1="322.397" x2="138.099" y2="315.92" gradientUnits="userSpaceOnUse"><stop stop-color="#81BD92"/><stop offset="1" stop-color="#BEF8CE"/></linearGradient><linearGradient id="aS" x1="137.694" y1="287.235" x2="138.099" y2="280.758" gradientUnits="userSpaceOnUse"><stop stop-color="#81BD92"/><stop offset="1" stop-color="#BEF8CE"/></linearGradient><linearGradient id="aT" x1="137.694" y1="252.099" x2="138.099" y2="245.622" gradientUnits="userSpaceOnUse"><stop stop-color="#81BD92"/><stop offset="1" stop-color="#BEF8CE"/></linearGradient><linearGradient id="aU" x1="137.694" y1="216.963" x2="138.099" y2="210.486" gradientUnits="userSpaceOnUse"><stop stop-color="#81BD92"/><stop offset="1" stop-color="#BEF8CE"/></linearGradient><linearGradient id="aV" x1="137.694" y1="181.826" x2="138.099" y2="175.35" gradientUnits="userSpaceOnUse"><stop stop-color="#81BD92"/><stop offset="1" stop-color="#BEF8CE"/></linearGradient><linearGradient id="aW" x1="137.694" y1="146.69" x2="138.099" y2="140.213" gradientUnits="userSpaceOnUse"><stop stop-color="#81BD92"/><stop offset="1" stop-color="#BEF8CE"/></linearGradient><linearGradient id="aX" x1="137.694" y1="111.554" x2="138.099" y2="105.077" gradientUnits="userSpaceOnUse"><stop stop-color="#81BD92"/><stop offset="1" stop-color="#BEF8CE"/></linearGradient><linearGradient id="aY" x1="137.694" y1="76.418" x2="138.099" y2="69.941" gradientUnits="userSpaceOnUse"><stop stop-color="#81BD92"/><stop offset="1" stop-color="#BEF8CE"/></linearGradient><linearGradient id="aZ" x1="137.694" y1="41.256" x2="138.099" y2="34.779" gradientUnits="userSpaceOnUse"><stop stop-color="#81BD92"/><stop offset="1" stop-color="#BEF8CE"/></linearGradient><linearGradient id="ba" x1="137.694" y1="6.12" x2="138.099" y2="-.357" gradientUnits="userSpaceOnUse"><stop stop-color="#81BD92"/><stop offset="1" stop-color="#BEF8CE"/></linearGradient><linearGradient id="bb" x1="172.112" y1="708.921" x2="172.516" y2="702.444" gradientUnits="userSpaceOnUse"><stop stop-color="#81BD92"/><stop offset="1" stop-color="#BEF8CE"/></linearGradient><linearGradient id="bc" x1="172.112" y1="673.785" x2="172.516" y2="667.308" gradientUnits="userSpaceOnUse"><stop stop-color="#81BD92"/><stop offset="1" stop-color="#BEF8CE"/></linearGradient><linearGradient id="bd" x1="172.112" y1="638.649" x2="172.516" y2="632.172" gradientUnits="userSpaceOnUse"><stop stop-color="#81BD92"/><stop offset="1" stop-color="#BEF8CE"/></linearGradient><linearGradient id="be" x1="172.112" y1="603.512" x2="172.516" y2="597.036" gradientUnits="userSpaceOnUse"><stop stop-color="#81BD92"/><stop offset="1" stop-color="#BEF8CE"/></linearGradient><linearGradient id="bf" x1="172.112" y1="568.376" x2="172.516" y2="561.899" gradientUnits="userSpaceOnUse"><stop stop-color="#81BD92"/><stop offset="1" stop-color="#BEF8CE"/></linearGradient><linearGradient id="bg" x1="172.112" y1="533.24" x2="172.516" y2="526.763" gradientUnits="userSpaceOnUse"><stop stop-color="#81BD92"/><stop offset="1" stop-color="#BEF8CE"/></linearGradient><linearGradient id="bh" x1="172.112" y1="498.078" x2="172.516" y2="491.601" gradientUnits="userSpaceOnUse"><stop stop-color="#81BD92"/><stop offset="1" stop-color="#BEF8CE"/></linearGradient><linearGradient id="bi" x1="172.112" y1="462.942" x2="172.516" y2="456.465" gradientUnits="userSpaceOnUse"><stop stop-color="#81BD92"/><stop offset="1" stop-color="#BEF8CE"/></linearGradient><linearGradient id="bj" x1="172.112" y1="427.806" x2="172.516" y2="421.329" gradientUnits="userSpaceOnUse"><stop stop-color="#81BD92"/><stop offset="1" stop-color="#BEF8CE"/></linearGradient><linearGradient id="bk" x1="172.112" y1="392.669" x2="172.516" y2="386.193" gradientUnits="userSpaceOnUse"><stop stop-color="#81BD92"/><stop offset="1" stop-color="#BEF8CE"/></linearGradient><linearGradient id="bl" x1="172.112" y1="357.533" x2="172.516" y2="351.056" gradientUnits="userSpaceOnUse"><stop stop-color="#81BD92"/><stop offset="1" stop-color="#BEF8CE"/></linearGradient><linearGradient id="bm" x1="172.112" y1="322.397" x2="172.516" y2="315.92" gradientUnits="userSpaceOnUse"><stop stop-color="#81BD92"/><stop offset="1" stop-color="#BEF8CE"/></linearGradient><linearGradient id="bn" x1="172.112" y1="287.235" x2="172.516" y2="280.758" gradientUnits="userSpaceOnUse"><stop stop-color="#81BD92"/><stop offset="1" stop-color="#BEF8CE"/></linearGradient><linearGradient id="bo" x1="172.112" y1="252.099" x2="172.516" y2="245.622" gradientUnits="userSpaceOnUse"><stop stop-color="#81BD92"/><stop offset="1" stop-color="#BEF8CE"/></linearGradient><linearGradient id="bp" x1="172.112" y1="216.963" x2="172.516" y2="210.486" gradientUnits="userSpaceOnUse"><stop stop-color="#81BD92"/><stop offset="1" stop-color="#BEF8CE"/></linearGradient><linearGradient id="bq" x1="172.112" y1="181.826" x2="172.516" y2="175.35" gradientUnits="userSpaceOnUse"><stop stop-color="#81BD92"/><stop offset="1" stop-color="#BEF8CE"/></linearGradient><linearGradient id="br" x1="172.112" y1="146.69" x2="172.516" y2="140.213" gradientUnits="userSpaceOnUse"><stop stop-color="#81BD92"/><stop offset="1" stop-color="#BEF8CE"/></linearGradient><linearGradient id="bs" x1="172.112" y1="111.554" x2="172.516" y2="105.077" gradientUnits="userSpaceOnUse"><stop stop-color="#81BD92"/><stop offset="1" stop-color="#BEF8CE"/></linearGradient><linearGradient id="bt" x1="172.112" y1="76.418" x2="172.516" y2="69.941" gradientUnits="userSpaceOnUse"><stop stop-color="#81BD92"/><stop offset="1" stop-color="#BEF8CE"/></linearGradient><linearGradient id="bu" x1="172.112" y1="41.256" x2="172.516" y2="34.779" gradientUnits="userSpaceOnUse"><stop stop-color="#81BD92"/><stop offset="1" stop-color="#BEF8CE"/></linearGradient><linearGradient id="bv" x1="172.112" y1="6.12" x2="172.516" y2="-.357" gradientUnits="userSpaceOnUse"><stop stop-color="#81BD92"/><stop offset="1" stop-color="#BEF8CE"/></linearGradient><linearGradient id="bw" x1="206.529" y1="708.921" x2="206.933" y2="702.444" gradientUnits="userSpaceOnUse"><stop stop-color="#81BD92"/><stop offset="1" stop-color="#BEF8CE"/></linearGradient><linearGradient id="bx" x1="206.529" y1="673.785" x2="206.933" y2="667.308" gradientUnits="userSpaceOnUse"><stop stop-color="#81BD92"/><stop offset="1" stop-color="#BEF8CE"/></linearGradient><linearGradient id="by" x1="206.529" y1="638.649" x2="206.933" y2="632.172" gradientUnits="userSpaceOnUse"><stop stop-color="#81BD92"/><stop offset="1" stop-color="#BEF8CE"/></linearGradient><linearGradient id="bz" x1="206.529" y1="603.512" x2="206.933" y2="597.036" gradientUnits="userSpaceOnUse"><stop stop-color="#81BD92"/><stop offset="1" stop-color="#BEF8CE"/></linearGradient><linearGradient id="bA" x1="206.529" y1="568.376" x2="206.933" y2="561.899" gradientUnits="userSpaceOnUse"><stop stop-color="#81BD92"/><stop offset="1" stop-color="#BEF8CE"/></linearGradient><linearGradient id="bB" x1="206.529" y1="533.24" x2="206.933" y2="526.763" gradientUnits="userSpaceOnUse"><stop stop-color="#81BD92"/><stop offset="1" stop-color="#BEF8CE"/></linearGradient><linearGradient id="bC" x1="206.529" y1="498.078" x2="206.933" y2="491.601" gradientUnits="userSpaceOnUse"><stop stop-color="#81BD92"/><stop offset="1" stop-color="#BEF8CE"/></linearGradient><linearGradient id="bD" x1="206.529" y1="462.942" x2="206.933" y2="456.465" gradientUnits="userSpaceOnUse"><stop stop-color="#81BD92"/><stop offset="1" stop-color="#BEF8CE"/></linearGradient><linearGradient id="bE" x1="206.529" y1="427.806" x2="206.933" y2="421.329" gradientUnits="userSpaceOnUse"><stop stop-color="#81BD92"/><stop offset="1" stop-color="#BEF8CE"/></linearGradient><linearGradient id="bF" x1="206.529" y1="392.669" x2="206.933" y2="386.193" gradientUnits="userSpaceOnUse"><stop stop-color="#81BD92"/><stop offset="1" stop-color="#BEF8CE"/></linearGradient><linearGradient id="bG" x1="206.529" y1="357.533" x2="206.933" y2="351.056" gradientUnits="userSpaceOnUse"><stop stop-color="#81BD92"/><stop offset="1" stop-color="#BEF8CE"/></linearGradient><linearGradient id="bH" x1="206.529" y1="322.397" x2="206.933" y2="315.92" gradientUnits="userSpaceOnUse"><stop stop-color="#81BD92"/><stop offset="1" stop-color="#BEF8CE"/></linearGradient><linearGradient id="bI" x1="206.529" y1="287.235" x2="206.933" y2="280.758" gradientUnits="userSpaceOnUse"><stop stop-color="#81BD92"/><stop offset="1" stop-color="#BEF8CE"/></linearGradient><linearGradient id="bJ" x1="206.529" y1="252.099" x2="206.933" y2="245.622" gradientUnits="userSpaceOnUse"><stop stop-color="#81BD92"/><stop offset="1" stop-color="#BEF8CE"/></linearGradient><linearGradient id="bK" x1="206.529" y1="216.963" x2="206.933" y2="210.486" gradientUnits="userSpaceOnUse"><stop stop-color="#81BD92"/><stop offset="1" stop-color="#BEF8CE"/></linearGradient><linearGradient id="bL" x1="206.529" y1="181.826" x2="206.933" y2="175.35" gradientUnits="userSpaceOnUse"><stop stop-color="#81BD92"/><stop offset="1" stop-color="#BEF8CE"/></linearGradient><linearGradient id="bM" x1="206.529" y1="146.69" x2="206.933" y2="140.213" gradientUnits="userSpaceOnUse"><stop stop-color="#81BD92"/><stop offset="1" stop-color="#BEF8CE"/></linearGradient><linearGradient id="bN" x1="206.529" y1="111.554" x2="206.933" y2="105.077" gradientUnits="userSpaceOnUse"><stop stop-color="#81BD92"/><stop offset="1" stop-color="#BEF8CE"/></linearGradient><linearGradient id="bO" x1="206.529" y1="76.418" x2="206.933" y2="69.941" gradientUnits="userSpaceOnUse"><stop stop-color="#81BD92"/><stop offset="1" stop-color="#BEF8CE"/></linearGradient><linearGradient id="bP" x1="206.529" y1="41.256" x2="206.933" y2="34.779" gradientUnits="userSpaceOnUse"><stop stop-color="#81BD92"/><stop offset="1" stop-color="#BEF8CE"/></linearGradient><linearGradient id="bQ" x1="206.529" y1="6.12" x2="206.933" y2="-.357" gradientUnits="userSpaceOnUse"><stop stop-color="#81BD92"/><stop offset="1" stop-color="#BEF8CE"/></linearGradient><linearGradient id="bR" x1="240.971" y1="708.921" x2="241.376" y2="702.444" gradientUnits="userSpaceOnUse"><stop stop-color="#81BD92"/><stop offset="1" stop-color="#BEF8CE"/></linearGradient><linearGradient id="bS" x1="240.971" y1="673.785" x2="241.376" y2="667.308" gradientUnits="userSpaceOnUse"><stop stop-color="#81BD92"/><stop offset="1" stop-color="#BEF8CE"/></linearGradient><linearGradient id="bT" x1="240.971" y1="638.649" x2="241.376" y2="632.172" gradientUnits="userSpaceOnUse"><stop stop-color="#81BD92"/><stop offset="1" stop-color="#BEF8CE"/></linearGradient><linearGradient id="bU" x1="240.971" y1="603.512" x2="241.376" y2="597.036" gradientUnits="userSpaceOnUse"><stop stop-color="#81BD92"/><stop offset="1" stop-color="#BEF8CE"/></linearGradient><linearGradient id="bV" x1="240.971" y1="568.376" x2="241.376" y2="561.899" gradientUnits="userSpaceOnUse"><stop stop-color="#81BD92"/><stop offset="1" stop-color="#BEF8CE"/></linearGradient><linearGradient id="bW" x1="240.971" y1="533.24" x2="241.376" y2="526.763" gradientUnits="userSpaceOnUse"><stop stop-color="#81BD92"/><stop offset="1" stop-color="#BEF8CE"/></linearGradient><linearGradient id="bX" x1="240.971" y1="498.104" x2="241.376" y2="491.627" gradientUnits="userSpaceOnUse"><stop stop-color="#81BD92"/><stop offset="1" stop-color="#BEF8CE"/></linearGradient><linearGradient id="bY" x1="240.971" y1="462.942" x2="241.376" y2="456.465" gradientUnits="userSpaceOnUse"><stop stop-color="#81BD92"/><stop offset="1" stop-color="#BEF8CE"/></linearGradient><linearGradient id="bZ" x1="240.971" y1="427.806" x2="241.376" y2="421.329" gradientUnits="userSpaceOnUse"><stop stop-color="#81BD92"/><stop offset="1" stop-color="#BEF8CE"/></linearGradient><linearGradient id="ca" x1="240.971" y1="392.669" x2="241.376" y2="386.193" gradientUnits="userSpaceOnUse"><stop stop-color="#81BD92"/><stop offset="1" stop-color="#BEF8CE"/></linearGradient><linearGradient id="cb" x1="240.971" y1="357.533" x2="241.376" y2="351.056" gradientUnits="userSpaceOnUse"><stop stop-color="#81BD92"/><stop offset="1" stop-color="#BEF8CE"/></linearGradient><linearGradient id="cc" x1="240.971" y1="322.397" x2="241.376" y2="315.92" gradientUnits="userSpaceOnUse"><stop stop-color="#81BD92"/><stop offset="1" stop-color="#BEF8CE"/></linearGradient><linearGradient id="cd" x1="240.971" y1="287.261" x2="241.376" y2="280.784" gradientUnits="userSpaceOnUse"><stop stop-color="#81BD92"/><stop offset="1" stop-color="#BEF8CE"/></linearGradient><linearGradient id="ce" x1="240.971" y1="252.099" x2="241.376" y2="245.622" gradientUnits="userSpaceOnUse"><stop stop-color="#81BD92"/><stop offset="1" stop-color="#BEF8CE"/></linearGradient><linearGradient id="cf" x1="240.971" y1="216.963" x2="241.376" y2="210.486" gradientUnits="userSpaceOnUse"><stop stop-color="#81BD92"/><stop offset="1" stop-color="#BEF8CE"/></linearGradient><linearGradient id="cg" x1="240.971" y1="181.826" x2="241.376" y2="175.35" gradientUnits="userSpaceOnUse"><stop stop-color="#81BD92"/><stop offset="1" stop-color="#BEF8CE"/></linearGradient><linearGradient id="ch" x1="240.971" y1="146.69" x2="241.376" y2="140.213" gradientUnits="userSpaceOnUse"><stop stop-color="#81BD92"/><stop offset="1" stop-color="#BEF8CE"/></linearGradient><linearGradient id="ci" x1="240.971" y1="111.554" x2="241.376" y2="105.077" gradientUnits="userSpaceOnUse"><stop stop-color="#81BD92"/><stop offset="1" stop-color="#BEF8CE"/></linearGradient><linearGradient id="cj" x1="240.971" y1="76.418" x2="241.376" y2="69.941" gradientUnits="userSpaceOnUse"><stop stop-color="#81BD92"/><stop offset="1" stop-color="#BEF8CE"/></linearGradient><linearGradient id="ck" x1="240.971" y1="41.256" x2="241.376" y2="34.779" gradientUnits="userSpaceOnUse"><stop stop-color="#81BD92"/><stop offset="1" stop-color="#BEF8CE"/></linearGradient><linearGradient id="cl" x1="240.971" y1="6.12" x2="241.376" y2="-.357" gradientUnits="userSpaceOnUse"><stop stop-color="#81BD92"/><stop offset="1" stop-color="#BEF8CE"/></linearGradient><linearGradient id="cm" x1="275.389" y1="708.921" x2="275.793" y2="702.444" gradientUnits="userSpaceOnUse"><stop stop-color="#81BD92"/><stop offset="1" stop-color="#BEF8CE"/></linearGradient><linearGradient id="cn" x1="275.389" y1="673.785" x2="275.793" y2="667.308" gradientUnits="userSpaceOnUse"><stop stop-color="#81BD92"/><stop offset="1" stop-color="#BEF8CE"/></linearGradient><linearGradient id="co" x1="275.389" y1="638.649" x2="275.793" y2="632.172" gradientUnits="userSpaceOnUse"><stop stop-color="#81BD92"/><stop offset="1" stop-color="#BEF8CE"/></linearGradient><linearGradient id="cp" x1="275.389" y1="603.512" x2="275.793" y2="597.036" gradientUnits="userSpaceOnUse"><stop stop-color="#81BD92"/><stop offset="1" stop-color="#BEF8CE"/></linearGradient><linearGradient id="cq" x1="275.389" y1="568.376" x2="275.793" y2="561.899" gradientUnits="userSpaceOnUse"><stop stop-color="#81BD92"/><stop offset="1" stop-color="#BEF8CE"/></linearGradient><linearGradient id="cr" x1="275.389" y1="533.24" x2="275.793" y2="526.763" gradientUnits="userSpaceOnUse"><stop stop-color="#81BD92"/><stop offset="1" stop-color="#BEF8CE"/></linearGradient><linearGradient id="cs" x1="275.389" y1="498.078" x2="275.793" y2="491.601" gradientUnits="userSpaceOnUse"><stop stop-color="#81BD92"/><stop offset="1" stop-color="#BEF8CE"/></linearGradient><linearGradient id="ct" x1="275.389" y1="462.942" x2="275.793" y2="456.465" gradientUnits="userSpaceOnUse"><stop stop-color="#81BD92"/><stop offset="1" stop-color="#BEF8CE"/></linearGradient><linearGradient id="cu" x1="275.389" y1="427.806" x2="275.793" y2="421.329" gradientUnits="userSpaceOnUse"><stop stop-color="#81BD92"/><stop offset="1" stop-color="#BEF8CE"/></linearGradient><linearGradient id="cv" x1="275.389" y1="392.669" x2="275.793" y2="386.193" gradientUnits="userSpaceOnUse"><stop stop-color="#81BD92"/><stop offset="1" stop-color="#BEF8CE"/></linearGradient><linearGradient id="cw" x1="275.389" y1="357.533" x2="275.793" y2="351.056" gradientUnits="userSpaceOnUse"><stop stop-color="#81BD92"/><stop offset="1" stop-color="#BEF8CE"/></linearGradient><linearGradient id="cx" x1="275.389" y1="322.397" x2="275.793" y2="315.92" gradientUnits="userSpaceOnUse"><stop stop-color="#81BD92"/><stop offset="1" stop-color="#BEF8CE"/></linearGradient><linearGradient id="cy" x1="275.389" y1="287.235" x2="275.793" y2="280.758" gradientUnits="userSpaceOnUse"><stop stop-color="#81BD92"/><stop offset="1" stop-color="#BEF8CE"/></linearGradient><linearGradient id="cz" x1="275.389" y1="252.099" x2="275.793" y2="245.622" gradientUnits="userSpaceOnUse"><stop stop-color="#81BD92"/><stop offset="1" stop-color="#BEF8CE"/></linearGradient><linearGradient id="cA" x1="275.389" y1="216.963" x2="275.793" y2="210.486" gradientUnits="userSpaceOnUse"><stop stop-color="#81BD92"/><stop offset="1" stop-color="#BEF8CE"/></linearGradient><linearGradient id="cB" x1="275.389" y1="181.826" x2="275.793" y2="175.35" gradientUnits="userSpaceOnUse"><stop stop-color="#81BD92"/><stop offset="1" stop-color="#BEF8CE"/></linearGradient><linearGradient id="cC" x1="275.389" y1="146.69" x2="275.793" y2="140.213" gradientUnits="userSpaceOnUse"><stop stop-color="#81BD92"/><stop offset="1" stop-color="#BEF8CE"/></linearGradient><linearGradient id="cD" x1="275.389" y1="111.554" x2="275.793" y2="105.077" gradientUnits="userSpaceOnUse"><stop stop-color="#81BD92"/><stop offset="1" stop-color="#BEF8CE"/></linearGradient><linearGradient id="cE" x1="275.389" y1="76.418" x2="275.793" y2="69.941" gradientUnits="userSpaceOnUse"><stop stop-color="#81BD92"/><stop offset="1" stop-color="#BEF8CE"/></linearGradient><linearGradient id="cF" x1="275.389" y1="41.256" x2="275.793" y2="34.779" gradientUnits="userSpaceOnUse"><stop stop-color="#81BD92"/><stop offset="1" stop-color="#BEF8CE"/></linearGradient><linearGradient id="cG" x1="275.389" y1="6.12" x2="275.793" y2="-.357" gradientUnits="userSpaceOnUse"><stop stop-color="#81BD92"/><stop offset="1" stop-color="#BEF8CE"/></linearGradient></defs></svg>