<svg width="60" height="60" fill="none" xmlns="http://www.w3.org/2000/svg"><path d="M42.246 33.118a.627.627 0 0 1 .18-.554l8.506-8.291c.652-.636.883-1.57.601-2.436a2.362 2.362 0 0 0-1.919-1.618L37.86 18.51a.626.626 0 0 1-.472-.343l-5.256-10.65A2.362 2.362 0 0 0 30 6.192c-.911 0-1.728.508-2.131 1.325l-2.648 5.365a.875.875 0 0 0 1.57.775l2.648-5.365a.61.61 0 0 1 .561-.35.61.61 0 0 1 .562.35l5.256 10.651a2.377 2.377 0 0 0 1.79 1.3l11.755 1.708a.61.61 0 0 1 .505.427.61.61 0 0 1-.158.641l-8.506 8.291a2.376 2.376 0 0 0-.684 2.104l2.008 11.707a.61.61 0 0 1-.249.613.61.61 0 0 1-.66.047l-4.251-2.235a.876.876 0 0 0-.815 1.55l4.252 2.235a2.369 2.369 0 0 0 2.503-.18 2.362 2.362 0 0 0 .946-2.326l-2.008-11.707Zm-8.207 8.678-2.933-1.542a2.376 2.376 0 0 0-2.212 0l-10.513 5.528a.61.61 0 0 1-.66-.048.61.61 0 0 1-.25-.613l2.009-11.707a2.376 2.376 0 0 0-.684-2.104l-8.505-8.29a.61.61 0 0 1-.159-.642.61.61 0 0 1 .506-.427l11.754-1.708a2.376 2.376 0 0 0 1.79-1.3l.947-1.919a.875.875 0 0 0-1.57-.775l-.947 1.92a.626.626 0 0 1-.471.342l-11.755 1.708a2.362 2.362 0 0 0-1.919 1.617c-.281.867-.05 1.8.602 2.437l8.505 8.291a.626.626 0 0 1 .18.554l-2.008 11.707a2.362 2.362 0 0 0 .946 2.325 2.368 2.368 0 0 0 2.503.18l10.514-5.526a.626.626 0 0 1 .582 0l2.933 1.541a.875.875 0 0 0 .815-1.55ZM4.569 7.57l7.112 3.557a1.902 1.902 0 0 0 2.14-.294 1.899 1.899 0 0 0 .499-2.1L11.467 1.31A1.93 1.93 0 0 0 9.06.187c-2.48.85-4.29 2.493-5.377 4.881a1.93 1.93 0 0 0 .885 2.503Zm.708-1.778c.89-1.96 2.314-3.252 4.351-3.95a.135.135 0 0 1 .045-.007c.066 0 .137.043.16.102l2.853 7.423c.01.028.04.103-.042.177a.145.145 0 0 1-.18.025L5.351 6.005c-.07-.035-.107-.14-.074-.212Zm40.903 5.041a1.902 1.902 0 0 0 2.14.294l7.112-3.557a1.93 1.93 0 0 0 .885-2.503c-1.086-2.388-2.895-4.03-5.378-4.88a1.93 1.93 0 0 0-2.405 1.122L45.68 8.733a1.899 1.899 0 0 0 .499 2.101Zm1.135-1.473 2.853-7.423c.023-.06.094-.102.16-.102.015 0 .03.003.044.007 2.037.698 3.46 1.99 4.351 3.95.033.072-.004.177-.074.212l-7.113 3.557a.144.144 0 0 1-.18-.024.145.145 0 0 1-.041-.177ZM13.82 49.166a1.899 1.899 0 0 0-2.14-.294l-7.112 3.557a1.93 1.93 0 0 0-.885 2.503c1.086 2.389 2.896 4.03 5.378 4.88.196.068.4.102.607.102.773 0 1.51-.473 1.799-1.224l2.853-7.423a1.899 1.899 0 0 0-.5-2.101Zm-1.134 1.473-2.853 7.423c-.029.074-.13.12-.205.095-2.037-.698-3.46-1.99-4.351-3.95-.033-.072.004-.177.074-.212l7.113-3.557a.154.154 0 0 1 .075-.02c.03 0 .066.01.105.044a.146.146 0 0 1 .042.177Zm42.746 1.79-1.22-.61a.875.875 0 1 0-.783 1.565l1.22.61c.07.036.107.141.075.213-.891 1.96-2.315 3.252-4.352 3.95-.074.025-.176-.022-.204-.095l-2.853-7.423a.145.145 0 0 1 .042-.177.146.146 0 0 1 .18-.024l2.52 1.26a.877.877 0 0 0 1.221-1.06.874.874 0 0 0-.439-.506l-2.52-1.26a1.9 1.9 0 0 0-2.139.294 1.899 1.899 0 0 0-.5 2.1l2.854 7.424a1.933 1.933 0 0 0 1.798 1.224c.202 0 .407-.033.607-.101 2.483-.85 4.292-2.492 5.378-4.881a1.93 1.93 0 0 0-.885-2.503ZM6.852 30.015a1.569 1.569 0 0 0-.867-1.445l-3.29-1.661a1.597 1.597 0 0 0-1.234-.083 1.55 1.55 0 0 0-.906.814c-.74 1.584-.74 3.118 0 4.56a1.585 1.585 0 0 0 2.063.72l3.306-1.498a1.57 1.57 0 0 0 .929-1.407Zm-4.808 1.243c-.393-.854-.386-1.743.021-2.706l2.815 1.421-2.836 1.285Zm57.401-3.617a1.551 1.551 0 0 0-.906-.815 1.597 1.597 0 0 0-1.234.083l-3.29 1.661a1.57 1.57 0 0 0-.868 1.445 1.57 1.57 0 0 0 .928 1.407l3.307 1.499a1.585 1.585 0 0 0 2.062-.721c.741-1.443.741-2.976.001-4.56Zm-1.489 3.617-2.836-1.285 2.815-1.421c.407.963.414 1.851.021 2.706ZM20.828 6.342a.876.876 0 0 0 1.685-.477l-.942-3.322a.874.874 0 1 0-1.684.478l.941 3.321ZM9.392 15.784a.875.875 0 0 0-.442-1.157L6.34 13.46a.875.875 0 1 0-.715 1.598l2.61 1.167a.872.872 0 0 0 1.157-.442Zm-4.06 24.1a.875.875 0 1 0 .96 1.464l2.391-1.568a.875.875 0 1 0-.96-1.464l-2.391 1.568ZM23.45 52.645a.874.874 0 0 0-1.186.353L20.9 55.512a.874.874 0 0 0 1.321 1.097.875.875 0 0 0 .218-.263l1.363-2.514a.875.875 0 0 0-.353-1.187ZM38.091 6.946a.875.875 0 0 0 1.08-.604l.942-3.321a.876.876 0 1 0-1.684-.478l-.942 3.322a.875.875 0 0 0 .604 1.081Zm16.726 6.956a.875.875 0 0 0-1.156-.442l-2.61 1.167a.875.875 0 1 0 .714 1.598l2.61-1.167a.876.876 0 0 0 .442-1.156Zm-3.752 24.666a.875.875 0 0 0 .252 1.212l2.392 1.568a.875.875 0 1 0 .96-1.464l-2.392-1.568a.875.875 0 0 0-1.212.252Zm-13.328 14.43a.875.875 0 1 0-1.54.834l1.363 2.514a.876.876 0 1 0 1.54-.834l-1.363-2.514Z" fill="url(#a)"/><defs><linearGradient id="a" x1="0" y1=".086" x2="63.501" y2="4.067" gradientUnits="userSpaceOnUse"><stop stop-color="#00AA30"/><stop offset="1" stop-color="#00D03A"/></linearGradient></defs></svg>