<svg width="80" height="80" fill="none" xmlns="http://www.w3.org/2000/svg"><g filter="url(#a)"><path d="M52.246 43.119a.627.627 0 0 1 .18-.554l8.506-8.291c.652-.636.883-1.57.601-2.437a2.362 2.362 0 0 0-1.919-1.617L47.86 28.512a.626.626 0 0 1-.472-.343l-5.256-10.651A2.362 2.362 0 0 0 40 16.193a2.36 2.36 0 0 0-2.131 1.325l-2.648 5.364a.875.875 0 0 0 1.57.775l2.648-5.365a.61.61 0 0 1 .561-.349.61.61 0 0 1 .562.35l5.257 10.65a2.376 2.376 0 0 0 1.79 1.3l11.753 1.709a.61.61 0 0 1 .506.426.61.61 0 0 1-.158.642l-8.506 8.291a2.376 2.376 0 0 0-.684 2.104l2.008 11.707a.61.61 0 0 1-.249.612.61.61 0 0 1-.66.048l-4.251-2.235a.876.876 0 0 0-.815 1.55l4.252 2.235a2.369 2.369 0 0 0 2.503-.18 2.362 2.362 0 0 0 .946-2.326l-2.008-11.707Zm-8.207 8.678-2.933-1.542a2.376 2.376 0 0 0-2.212 0l-10.513 5.527a.61.61 0 0 1-.66-.047.61.61 0 0 1-.25-.613l2.009-11.707a2.376 2.376 0 0 0-.684-2.104l-8.505-8.29a.61.61 0 0 1-.159-.643.61.61 0 0 1 .506-.426l11.754-1.708a2.377 2.377 0 0 0 1.79-1.3l.947-1.92a.875.875 0 0 0-1.57-.774l-.947 1.919a.625.625 0 0 1-.471.343L20.386 30.22a2.362 2.362 0 0 0-1.919 1.617c-.281.867-.05 1.8.602 2.437l8.505 8.29a.627.627 0 0 1 .18.555l-2.008 11.707a2.364 2.364 0 0 0 .946 2.325 2.368 2.368 0 0 0 2.503.18l10.514-5.527a.627.627 0 0 1 .582 0l2.933 1.542a.875.875 0 0 0 .815-1.55Zm-29.47-34.225 7.112 3.557a1.902 1.902 0 0 0 2.14-.294 1.899 1.899 0 0 0 .499-2.101l-2.853-7.423a1.93 1.93 0 0 0-2.406-1.123c-2.483.85-4.292 2.492-5.378 4.881a1.93 1.93 0 0 0 .885 2.503Zm.708-1.778c.89-1.96 2.314-3.252 4.351-3.95a.134.134 0 0 1 .045-.007c.066 0 .137.042.16.102l2.853 7.423c.01.028.04.103-.042.177a.145.145 0 0 1-.18.024l-7.113-3.557c-.07-.035-.107-.14-.074-.212Zm40.903 5.04a1.902 1.902 0 0 0 2.14.295l7.112-3.557a1.93 1.93 0 0 0 .885-2.503c-1.086-2.389-2.895-4.031-5.378-4.881a1.93 1.93 0 0 0-2.405 1.123l-2.853 7.423a1.899 1.899 0 0 0 .499 2.1Zm1.135-1.472 2.853-7.423c.023-.06.094-.102.16-.102a.13.13 0 0 1 .044.007c2.037.698 3.46 1.99 4.351 3.95.033.071-.004.177-.074.212l-7.113 3.557a.145.145 0 0 1-.18-.025.145.145 0 0 1-.041-.176ZM23.82 59.167a1.899 1.899 0 0 0-2.14-.295l-7.112 3.558a1.93 1.93 0 0 0-.885 2.502c1.086 2.39 2.895 4.031 5.378 4.882a1.933 1.933 0 0 0 2.406-1.123l2.853-7.424a1.899 1.899 0 0 0-.5-2.1Zm-1.134 1.472-2.853 7.424a.176.176 0 0 1-.205.094c-2.037-.697-3.46-1.989-4.351-3.949a.176.176 0 0 1 .074-.213l7.113-3.557a.164.164 0 0 1 .075-.02c.03 0 .066.01.105.045a.145.145 0 0 1 .042.176Zm42.746 1.79-1.22-.61a.873.873 0 0 0-1.27.72.876.876 0 0 0 .487.846l1.22.61c.07.036.107.14.075.213-.891 1.96-2.315 3.252-4.352 3.95-.074.025-.176-.022-.204-.096l-2.853-7.423a.145.145 0 0 1 .042-.176.145.145 0 0 1 .18-.025l2.52 1.26a.875.875 0 1 0 .782-1.565l-2.52-1.26a1.899 1.899 0 0 0-2.139.294 1.899 1.899 0 0 0-.5 2.1l2.854 7.424a1.933 1.933 0 0 0 1.798 1.223c.202 0 .407-.032.607-.1 2.483-.85 4.292-2.493 5.378-4.882a1.93 1.93 0 0 0-.885-2.502Zm-48.58-22.413a1.569 1.569 0 0 0-.867-1.445l-3.29-1.661a1.595 1.595 0 0 0-1.234-.084 1.55 1.55 0 0 0-.906.815c-.74 1.584-.74 3.117 0 4.559a1.584 1.584 0 0 0 2.063.721l3.306-1.498a1.57 1.57 0 0 0 .929-1.407Zm-4.808 1.243c-.393-.855-.386-1.744.021-2.707l2.815 1.422-2.836 1.285Zm57.401-3.618a1.55 1.55 0 0 0-.906-.815 1.594 1.594 0 0 0-1.234.084l-3.29 1.66c-.548.278-.88.831-.868 1.446a1.57 1.57 0 0 0 .928 1.407l3.307 1.498a1.585 1.585 0 0 0 2.062-.721c.741-1.442.741-2.976.001-4.559Zm-1.489 3.618-2.836-1.285 2.815-1.422c.407.963.414 1.852.021 2.707ZM30.828 16.343a.876.876 0 0 0 1.685-.477l-.942-3.322a.875.875 0 1 0-1.684.477l.941 3.322Zm-11.436 9.441a.876.876 0 0 0-.442-1.156l-2.61-1.167a.875.875 0 1 0-.715 1.598l2.61 1.167a.874.874 0 0 0 1.157-.442Zm-4.06 24.101a.875.875 0 1 0 .96 1.464l2.391-1.568a.875.875 0 1 0-.96-1.464l-2.391 1.568Zm18.118 12.76a.876.876 0 0 0-1.186.353L30.9 65.513a.874.874 0 0 0 1.321 1.097.875.875 0 0 0 .218-.263l1.363-2.514a.875.875 0 0 0-.353-1.187Zm14.641-45.698a.872.872 0 0 0 1.08-.604l.942-3.322a.876.876 0 1 0-1.684-.477l-.942 3.322a.876.876 0 0 0 .604 1.08Zm16.726 6.956a.875.875 0 0 0-1.156-.442l-2.61 1.167a.875.875 0 1 0 .714 1.598l2.61-1.167a.876.876 0 0 0 .442-1.157Zm-3.752 24.666a.875.875 0 0 0 .252 1.212l2.392 1.568a.877.877 0 0 0 1.212-.252.876.876 0 0 0-.253-1.212l-2.391-1.568a.876.876 0 0 0-1.212.252Zm-13.328 14.43a.875.875 0 1 0-1.54.834l1.363 2.514a.873.873 0 0 0 1.187.352.875.875 0 0 0 .352-1.186l-1.362-2.515Z" fill="url(#b)"/></g><defs><linearGradient id="b" x1="10" y1="10.087" x2="73.501" y2="14.067" gradientUnits="userSpaceOnUse"><stop stop-color="#00AA30"/><stop offset="1" stop-color="#00D03A"/></linearGradient><filter id="a" x="0" y=".087" width="80" height="79.827" filterUnits="userSpaceOnUse" color-interpolation-filters="sRGB"><feFlood flood-opacity="0" result="BackgroundImageFix"/><feColorMatrix in="SourceAlpha" values="0 0 0 0 0 0 0 0 0 0 0 0 0 0 0 0 0 0 127 0" result="hardAlpha"/><feOffset/><feGaussianBlur stdDeviation="5"/><feComposite in2="hardAlpha" operator="out"/><feColorMatrix values="0 0 0 0 0.00392157 0 0 0 0 0.760784 0 0 0 0 0.170431 0 0 0 0.5 0"/><feBlend in2="BackgroundImageFix" result="effect1_dropShadow_22_138"/><feBlend in="SourceGraphic" in2="effect1_dropShadow_22_138" result="shape"/></filter></defs></svg>