<svg width="40" height="24" fill="none" xmlns="http://www.w3.org/2000/svg"><path d="M33.192 13.713c-.647-.816-.462-1.18 0-1.91.008-.008 5.346-7.385 5.896-9.886l.004-.002c.273-.912 0-1.582-1.322-1.582h-4.373c-1.114 0-1.627.575-1.902 1.219 0 0-2.227 5.33-5.377 8.785-1.016.998-1.486 1.318-2.041 1.318-.274 0-.699-.32-.699-1.232V1.915c0-1.093-.311-1.582-1.233-1.582h-6.877c-.698 0-1.113.51-1.113.985 0 1.037 1.575 1.275 1.738 4.192v6.328c0 1.387-.251 1.642-.81 1.642-1.486 0-5.095-5.352-7.233-11.477C7.418.815 6.997.335 5.875.335H1.5C.252.335 0 .91 0 1.553 0 2.69 1.487 8.342 6.913 15.808c3.617 5.097 8.71 7.859 13.344 7.859 2.785 0 3.125-.614 3.125-1.669 0-4.87-.252-5.33 1.143-5.33.647 0 1.76.32 4.36 2.779 2.972 2.915 3.46 4.22 5.123 4.22h4.374c1.246 0 1.878-.614 1.515-1.824-.832-2.545-6.452-7.78-6.705-8.13Z" fill="url(#a)"/><defs><linearGradient id="a" x1="0" y1=".333" x2="42.016" y2="4.835" gradientUnits="userSpaceOnUse"><stop stop-color="#00AA30"/><stop offset="1" stop-color="#00D03A"/></linearGradient></defs></svg>