<svg width="80" height="78" fill="none" xmlns="http://www.w3.org/2000/svg"><g filter="url(#a)"><path d="m63.288 27.328 1.227-1.427 1.196 1.028a.885.885 0 0 0 1.247-.094l1.9-2.21a.885.885 0 0 0-.094-1.247L62.23 17.76a.882.882 0 0 0-1.248.094l-1.9 2.21a.885.885 0 0 0 .094 1.247l1.196 1.028-1.32 1.537a23.48 23.48 0 0 0-9.088-3.428v-2.674h3.047a2.582 2.582 0 0 0 2.58-2.579v-2.058a2.582 2.582 0 0 0-2.58-2.58H39.72a2.582 2.582 0 0 0-2.58 2.58v2.058a2.582 2.582 0 0 0 2.58 2.58h3.047v2.673a23.485 23.485 0 0 0-9.246 3.53l-1.41-1.639 1.196-1.028a.885.885 0 0 0 .094-1.248l-1.9-2.21a.884.884 0 0 0-1.247-.093l-6.533 5.617a.885.885 0 0 0-.094 1.247l1.9 2.21a.884.884 0 0 0 1.247.094l1.195-1.028 1.344 1.562a23.79 23.79 0 0 0-3.082 3.985.892.892 0 0 0-.091-.004h-5.588a.885.885 0 1 0 0 1.77h4.693a23.5 23.5 0 0 0-1.216 2.873H15.09a.885.885 0 1 0 0 1.769h8.402a23.484 23.484 0 0 0-.66 3.786H10.886a.885.885 0 0 0 0 1.77h11.853a23.727 23.727 0 0 0 .239 3.786h-8.713a.885.885 0 0 0 0 1.77h9.037c.218.974.498 1.934.838 2.872h-4.412a.885.885 0 0 0 0 1.77h5.136c3.731 8.154 11.966 13.832 21.503 13.832 4.982 0 9.746-1.531 13.778-4.429a.885.885 0 0 0-1.033-1.437 21.71 21.71 0 0 1-12.745 4.097c-12.056 0-21.864-9.808-21.864-21.864 0-12.056 9.808-21.864 21.864-21.864a21.788 21.788 0 0 1 15.07 6.037l.026.025c4.168 3.983 6.769 9.595 6.769 15.802a21.719 21.719 0 0 1-6.418 15.474.886.886 0 0 0 .624 1.51c.235 0 .46-.092.626-.258A23.477 23.477 0 0 0 70 43.809c0-6.404-2.561-12.22-6.712-16.48Zm-1.54-7.649 5.191 4.464-.746.867-5.191-4.463.746-.868Zm-.033 3.815 1.458 1.253-1.168 1.359a23.83 23.83 0 0 0-1.49-1.217l1.2-1.395Zm-19.261-7.488v-3.678h1.428v3.678h-1.428Zm3.198-3.678h1.429v3.678h-1.43v-3.678Zm3.198 3.678v-3.678h1.429v3.678H48.85Zm4.972-2.868v2.058a.81.81 0 0 1-.81.81h-.963v-3.678h.964a.81.81 0 0 1 .81.81ZM38.91 15.196v-2.058a.81.81 0 0 1 .81-.81h.964v3.678h-.964a.81.81 0 0 1-.81-.81ZM26.291 25.01l-.746-.867 5.191-4.463.747.867-1.196 1.028-2.8 2.407-1.196 1.028Zm3.047-.286 1.431-1.23 1.299 1.51c-.51.389-1.004.798-1.481 1.227l-1.276-1.484.027-.023Zm15.198-4.479v-2.47h3.66v2.47a23.844 23.844 0 0 0-3.66 0Z" fill="url(#b)"/><path d="M38.956 27.69a.885.885 0 0 0-1.193-.374 18.632 18.632 0 0 0-9.841 14.09c-1.326 10.17 5.87 19.522 16.04 20.847.802.105 1.61.157 2.417.157 9.196 0 17.212-6.84 18.432-16.198a18.48 18.48 0 0 0-3.703-13.746 18.48 18.48 0 0 0-12.338-7.102 18.498 18.498 0 0 0-7.126.448.885.885 0 0 0 .45 1.712 16.679 16.679 0 0 1 3.387-.526v2.325a.885.885 0 1 0 1.77 0V27c.43.023.86.062 1.29.118a16.708 16.708 0 0 1 9.115 4.203l-1.602 1.602a.887.887 0 0 0 0 1.251.883.883 0 0 0 1.251 0l1.598-1.598c.28.313.547.636.803.969a16.708 16.708 0 0 1 3.473 9.4h-2.195a.885.885 0 1 0 0 1.77h2.19c-.024.424-.063.847-.118 1.268a16.736 16.736 0 0 1-4.157 9.05l-1.516-1.515a.885.885 0 0 0-1.25 1.25l1.517 1.518a16.838 16.838 0 0 1-10.29 4.324v-2.163a.885.885 0 1 0-1.77 0v2.174a16.735 16.735 0 0 1-10.37-4.207l1.568-1.567a.885.885 0 1 0-1.251-1.251l-1.576 1.576a16.84 16.84 0 0 1-4.397-10.347h2.294a.885.885 0 0 0 0-1.77h-2.307a16.841 16.841 0 0 1 4.258-10.452l1.65 1.65a.882.882 0 0 0 1.25 0 .885.885 0 0 0 0-1.252l-1.653-1.653a16.842 16.842 0 0 1 3.525-2.464.885.885 0 0 0 .374-1.194Z" fill="url(#c)"/><path d="M46.366 35.693a.885.885 0 0 0-.884.885v5.255A2.168 2.168 0 0 0 44.2 43.81c0 1.194.972 2.166 2.166 2.166.328 0 .637-.075.916-.206l5.903 5.903a.88.88 0 0 0 1.117.11.885.885 0 0 0 .134-1.361l-5.994-5.994a2.157 2.157 0 0 0-1.19-2.594v-5.255a.885.885 0 0 0-.886-.885Zm-.397 8.116a.398.398 0 1 1 .795 0 .398.398 0 0 1-.795 0Z" fill="url(#d)"/></g><defs><linearGradient id="b" x1="10" y1="10.558" x2="73.474" y2="14.743" gradientUnits="userSpaceOnUse"><stop stop-color="#00AA30"/><stop offset="1" stop-color="#00D03A"/></linearGradient><linearGradient id="c" x1="27.764" y1="25.205" x2="67.141" y2="27.666" gradientUnits="userSpaceOnUse"><stop stop-color="#00AA30"/><stop offset="1" stop-color="#00D03A"/></linearGradient><linearGradient id="d" x1="44.2" y1="35.693" x2="55.333" y2="36.143" gradientUnits="userSpaceOnUse"><stop stop-color="#00AA30"/><stop offset="1" stop-color="#00D03A"/></linearGradient><filter id="a" x="0" y=".558" width="80" height="76.884" filterUnits="userSpaceOnUse" color-interpolation-filters="sRGB"><feFlood flood-opacity="0" result="BackgroundImageFix"/><feColorMatrix in="SourceAlpha" values="0 0 0 0 0 0 0 0 0 0 0 0 0 0 0 0 0 0 127 0" result="hardAlpha"/><feOffset/><feGaussianBlur stdDeviation="5"/><feComposite in2="hardAlpha" operator="out"/><feColorMatrix values="0 0 0 0 0.00392157 0 0 0 0 0.760784 0 0 0 0 0.170431 0 0 0 0.5 0"/><feBlend in2="BackgroundImageFix" result="effect1_dropShadow_22_124"/><feBlend in="SourceGraphic" in2="effect1_dropShadow_22_124" result="shape"/></filter></defs></svg>