<svg width="60" height="58" fill="none" xmlns="http://www.w3.org/2000/svg"><path d="m53.288 17.328 1.227-1.428 1.196 1.028a.885.885 0 0 0 1.247-.094l1.9-2.21a.885.885 0 0 0-.094-1.247L52.23 7.761a.881.881 0 0 0-1.247.094l-1.9 2.209a.885.885 0 0 0 .094 1.248l1.196 1.028-1.32 1.536a23.481 23.481 0 0 0-9.088-3.428V7.775h3.047a2.582 2.582 0 0 0 2.58-2.58V3.138a2.582 2.582 0 0 0-2.58-2.579H29.72a2.582 2.582 0 0 0-2.58 2.58v2.058a2.582 2.582 0 0 0 2.58 2.579h3.047v2.673a23.487 23.487 0 0 0-9.246 3.531l-1.41-1.64 1.196-1.027a.885.885 0 0 0 .094-1.248l-1.9-2.21a.884.884 0 0 0-1.247-.094l-6.533 5.617a.885.885 0 0 0-.094 1.248l1.9 2.21a.881.881 0 0 0 1.247.093l1.195-1.028 1.344 1.563a23.79 23.79 0 0 0-3.082 3.985.892.892 0 0 0-.091-.005h-5.588a.884.884 0 1 0 0 1.77h4.693c-.468.93-.874 1.89-1.215 2.873H5.09a.884.884 0 1 0 0 1.77h8.402a23.484 23.484 0 0 0-.66 3.786H.886a.885.885 0 1 0 0 1.77h11.853a23.727 23.727 0 0 0 .239 3.786H4.265a.885.885 0 0 0 0 1.769H13.3c.218.975.498 1.934.838 2.873H9.727a.884.884 0 1 0 0 1.77h5.136c3.731 8.153 11.966 13.832 21.503 13.832 4.982 0 9.746-1.532 13.778-4.43a.885.885 0 0 0-1.033-1.436 21.709 21.709 0 0 1-12.745 4.097c-12.056 0-21.864-9.809-21.864-21.865s9.808-21.864 21.864-21.864a21.788 21.788 0 0 1 15.07 6.038l.026.024c4.168 3.984 6.768 9.595 6.768 15.802a21.72 21.72 0 0 1-6.417 15.474.883.883 0 0 0 .624 1.511c.235 0 .46-.093.626-.258A23.477 23.477 0 0 0 60 33.808c0-6.404-2.561-12.22-6.712-16.48Zm-1.54-7.649 5.191 4.463-.746.868-5.191-4.463.746-.868Zm-.033 3.814 1.458 1.254-1.168 1.358c-.48-.424-.976-.83-1.49-1.216l1.2-1.396ZM32.454 6.005V2.327h1.428v3.678h-1.428Zm3.198-3.678h1.429v3.678h-1.43V2.327Zm3.198 3.678V2.327h1.429v3.678H38.85Zm4.972-2.868v2.059a.81.81 0 0 1-.81.81h-.963v-3.68h.964a.81.81 0 0 1 .81.81ZM28.91 5.196V3.137a.81.81 0 0 1 .81-.81h.964v3.678h-.964a.81.81 0 0 1-.81-.81ZM16.291 15.01l-.746-.868 5.191-4.463.747.868-1.196 1.028-2.8 2.407-1.196 1.028Zm3.047-.286 1.431-1.23 1.299 1.51c-.51.388-1.004.798-1.482 1.226l-1.275-1.483.027-.023Zm15.198-4.48v-2.47h3.66v2.47a23.857 23.857 0 0 0-3.66 0Z" fill="url(#a)"/><path d="M28.956 17.69a.885.885 0 0 0-1.193-.375 18.632 18.632 0 0 0-9.841 14.09c-1.326 10.17 5.87 19.523 16.04 20.848.802.105 1.61.157 2.417.157 9.196 0 17.212-6.84 18.432-16.198a18.48 18.48 0 0 0-3.703-13.747 18.48 18.48 0 0 0-12.338-7.102 18.498 18.498 0 0 0-7.126.449.885.885 0 0 0 .45 1.711 16.672 16.672 0 0 1 3.387-.525v2.324a.885.885 0 1 0 1.77 0V17c.43.023.86.062 1.29.118a16.709 16.709 0 0 1 9.115 4.202l-1.602 1.603a.886.886 0 1 0 1.251 1.25l1.598-1.597c.28.313.547.636.803.968a16.708 16.708 0 0 1 3.473 9.4h-2.195a.885.885 0 1 0 0 1.77h2.19c-.024.424-.063.847-.118 1.269a16.735 16.735 0 0 1-4.157 9.05l-1.516-1.516a.885.885 0 0 0-1.25 1.251l1.517 1.518a16.837 16.837 0 0 1-10.29 4.324v-2.163a.885.885 0 1 0-1.77 0v2.174a16.736 16.736 0 0 1-10.37-4.207l1.568-1.568a.885.885 0 1 0-1.251-1.25l-1.576 1.575a16.84 16.84 0 0 1-4.397-10.347h2.294a.885.885 0 0 0 0-1.77h-2.307a16.841 16.841 0 0 1 4.258-10.452l1.65 1.65a.882.882 0 0 0 1.25 0 .885.885 0 0 0 0-1.252l-1.653-1.653a16.839 16.839 0 0 1 3.525-2.464.885.885 0 0 0 .374-1.193Z" fill="url(#b)"/><path d="M36.366 25.693a.884.884 0 0 0-.884.884v5.256a2.168 2.168 0 0 0-1.282 1.975 2.17 2.17 0 0 0 2.166 2.167c.328 0 .637-.075.916-.206l5.903 5.903a.882.882 0 0 0 1.117.11.885.885 0 0 0 .134-1.361l-5.994-5.995a2.157 2.157 0 0 0-1.19-2.593v-5.255a.885.885 0 0 0-.886-.885Zm-.397 8.115a.397.397 0 1 1 .795.001.397.397 0 0 1-.795 0Z" fill="url(#c)"/><defs><linearGradient id="a" x1="0" y1=".558" x2="63.474" y2="4.742" gradientUnits="userSpaceOnUse"><stop stop-color="#00AA30"/><stop offset="1" stop-color="#00D03A"/></linearGradient><linearGradient id="b" x1="17.764" y1="15.205" x2="57.141" y2="17.666" gradientUnits="userSpaceOnUse"><stop stop-color="#00AA30"/><stop offset="1" stop-color="#00D03A"/></linearGradient><linearGradient id="c" x1="34.2" y1="25.693" x2="45.333" y2="26.142" gradientUnits="userSpaceOnUse"><stop stop-color="#00AA30"/><stop offset="1" stop-color="#00D03A"/></linearGradient></defs></svg>