<svg width="40" height="40" fill="none" xmlns="http://www.w3.org/2000/svg"><path d="m29.178 23.845-.015.125c-3.665-1.827-4.048-2.07-4.521-1.36-.329.492-1.285 1.607-1.574 1.937-.291.325-.581.35-1.076.125-.5-.25-2.105-.776-4.005-2.476-1.48-1.325-2.474-2.95-2.767-3.45-.488-.843.533-.963 1.463-2.723.167-.35.082-.625-.041-.873-.125-.25-1.12-2.7-1.537-3.677-.4-.973-.812-.85-1.12-.85-.96-.083-1.662-.07-2.28.574-2.69 2.956-2.012 6.006.29 9.25 4.523 5.92 6.933 7.01 11.34 8.523 1.19.378 2.275.325 3.133.202.957-.152 2.945-1.202 3.36-2.377.425-1.175.425-2.15.3-2.375-.123-.225-.45-.35-.95-.575Z" fill="url(#a)"/><path d="M34.2 5.748C21.385-6.64.177 2.345.168 19.822c0 3.493.915 6.9 2.659 9.908L0 40l10.558-2.753C23.733 44.363 39.993 34.913 40 19.832a19.657 19.657 0 0 0-5.825-14.019l.025-.065Zm2.47 14.029c-.01 12.721-13.975 20.666-25.02 14.173l-.6-.357-6.25 1.625 1.675-6.075-.398-.625C-.797 17.577 7.1 3.277 20.12 3.277a16.441 16.441 0 0 1 11.702 4.85 16.316 16.316 0 0 1 4.848 11.65Z" fill="url(#b)"/><defs><linearGradient id="a" x1="9.961" y1="10.587" x2="31.368" y2="12.037" gradientUnits="userSpaceOnUse"><stop stop-color="#00AA30"/><stop offset="1" stop-color="#00D03A"/></linearGradient><linearGradient id="b" x1="0" y1="-.001" x2="42.335" y2="2.645" gradientUnits="userSpaceOnUse"><stop stop-color="#00AA30"/><stop offset="1" stop-color="#00D03A"/></linearGradient></defs></svg>