<svg width="18" height="16" viewBox="0 0 18 16" fill="none" xmlns="http://www.w3.org/2000/svg">
<path d="M17.745 8.681C17.745 9.231 17.295 9.681 16.745 9.681H1.80298C1.25298 9.681 0.802979 9.231 0.802979 8.681V8.28101C0.802979 7.73101 1.25298 7.28101 1.80298 7.28101H16.744C17.294 7.28101 17.744 7.73101 17.744 8.28101V8.681H17.745Z" fill="white"/>
<path d="M17.745 14.681C17.745 15.231 17.295 15.681 16.745 15.681H1.80298C1.25298 15.681 0.802979 15.231 0.802979 14.681V14.281C0.802979 13.731 1.25298 13.281 1.80298 13.281H16.744C17.294 13.281 17.744 13.731 17.744 14.281V14.681H17.745Z" fill="white"/>
<path d="M17.745 2.08099C17.745 2.63099 17.295 3.08099 16.745 3.08099H1.80298C1.25298 3.08099 0.802979 2.63099 0.802979 2.08099V1.681C0.802979 1.131 1.25298 0.681 1.80298 0.681H16.744C17.294 0.681 17.744 1.131 17.744 1.681V2.08099H17.745Z" fill="white"/>
</svg>
