<svg width="72" height="80" viewBox="0 0 72 80" fill="none" xmlns="http://www.w3.org/2000/svg">
<g filter="url(#filter0_d_22_12)">
<path d="M44.772 14.7312C44.6721 14.6609 44.5585 14.6123 44.4387 14.5885C44.3189 14.5647 44.1954 14.5661 44.0762 14.5927C43.9569 14.6194 43.8446 14.6706 43.7463 14.7432C43.648 14.8157 43.5659 14.908 43.5054 15.0141C43.4995 15.0246 43.4921 15.0342 43.4857 15.0438C43.2037 15.4467 42.6466 15.5446 42.2438 15.2631C41.846 14.9848 41.2981 15.0809 41.0197 15.4787L39.7388 17.3084C39.6466 17.44 39.5923 17.5945 39.5817 17.7549C39.5712 17.9153 39.6048 18.0755 39.6789 18.2181C39.7531 18.3608 39.8649 18.4803 40.0023 18.5638C40.1396 18.6473 40.2973 18.6916 40.458 18.6918C40.5994 18.6919 40.7388 18.6579 40.8643 18.5926C40.9897 18.5273 41.0976 18.4327 41.1786 18.3168L42.0414 17.0841C42.8517 17.3098 43.732 17.1359 44.3957 16.613L45.6921 17.5208C45.7865 17.5897 45.8937 17.639 46.0074 17.666C46.1211 17.6929 46.239 17.6969 46.3543 17.6778C46.4695 17.6586 46.5798 17.6166 46.6787 17.5543C46.7775 17.492 46.863 17.4106 46.93 17.3149C46.997 17.2192 47.0443 17.111 47.069 16.9968C47.0938 16.8826 47.0955 16.7646 47.0741 16.6498C47.0527 16.5349 47.0086 16.4254 46.9444 16.3278C46.8801 16.2302 46.7971 16.1463 46.7001 16.0812L44.772 14.7312ZM54.4917 25.8022L53.6288 27.0345C53.4951 27.2254 53.4428 27.4616 53.4832 27.6912C53.5236 27.9207 53.6536 28.1248 53.8445 28.2586C53.992 28.3621 54.1678 28.4176 54.348 28.4174C54.4894 28.4176 54.6288 28.3836 54.7543 28.3183C54.8797 28.2531 54.9875 28.1584 55.0685 28.0424L56.3498 26.2133C56.4835 26.0224 56.5359 25.7862 56.4954 25.5566C56.455 25.3271 56.3251 25.123 56.1342 24.9892C55.7313 24.7072 55.633 24.1501 55.9154 23.7469C55.9222 23.7373 55.9286 23.7277 55.9365 23.7189C56.0153 23.6255 56.0737 23.5168 56.1081 23.3996C56.1426 23.2824 56.1522 23.1594 56.1364 23.0383C56.1208 22.9171 56.0801 22.8005 56.0169 22.696C55.9537 22.5915 55.8694 22.5013 55.7694 22.4312L53.8412 21.0812C53.6502 20.9476 53.414 20.8952 53.1844 20.9358C52.9549 20.9763 52.7508 21.1063 52.6171 21.2973C52.3384 21.6947 52.4355 22.243 52.8328 22.5215L54.1292 23.4287C53.8646 24.2316 54.0023 25.1179 54.4917 25.8022ZM49.8276 45.5479C50.245 45.5479 50.6327 45.715 50.9193 46.019C51.0795 46.1882 51.3003 46.287 51.5332 46.2936C51.7662 46.3002 51.9922 46.2141 52.1616 46.0541C52.2456 45.9749 52.3131 45.8799 52.3604 45.7746C52.4076 45.6693 52.4336 45.5557 52.437 45.4404C52.4403 45.325 52.4208 45.2101 52.3797 45.1022C52.3386 44.9944 52.2767 44.8957 52.1974 44.8118C51.8923 44.4897 51.5249 44.2331 51.1175 44.0574C50.7101 43.8818 50.2713 43.7908 49.8276 43.7899C48.0304 43.7899 46.5686 45.2521 46.5686 47.0493C46.5686 48.846 48.0304 50.3081 49.8276 50.3081C50.6983 50.3081 51.5168 49.9695 52.132 49.3536C52.2136 49.2721 52.2784 49.1752 52.3226 49.0686C52.3667 48.9619 52.3895 48.8477 52.3895 48.7323C52.3895 48.6168 52.3667 48.5026 52.3226 48.3959C52.2784 48.2893 52.2136 48.1925 52.132 48.1109C52.0504 48.0292 51.9535 47.9645 51.8469 47.9203C51.7403 47.8761 51.626 47.8533 51.5105 47.8533C51.3951 47.8533 51.2808 47.8761 51.1742 47.9203C51.0676 47.9645 50.9707 48.0292 50.8891 48.1109C50.75 48.2506 50.5846 48.3615 50.4024 48.4369C50.2202 48.5123 50.0248 48.5509 49.8276 48.5503C48.9999 48.5503 48.3264 47.877 48.3264 47.0493C48.3264 46.2212 48.9999 45.5479 49.8276 45.5479Z" fill="url(#paint0_linear_22_12)"/>
<path d="M57.6531 40.858V33.8186C57.6531 31.4285 55.7085 29.484 53.3186 29.484H48.6543C48.9271 27.1274 48.1576 25.0547 46.5343 23.9181C45.1593 22.9554 43.3775 22.7828 41.5172 23.4319C39.759 24.0457 38.1234 25.3357 36.913 27.0642C36.377 27.8292 35.9504 28.6404 35.6409 29.484H29.9189L42.2182 11.9192L59.285 23.8691L56.6849 27.5829C56.616 27.6773 56.5667 27.7845 56.5397 27.8982C56.5128 28.0119 56.5088 28.1298 56.528 28.2451C56.5471 28.3604 56.5891 28.4707 56.6514 28.5695C56.7137 28.6684 56.7951 28.7538 56.8908 28.8208C56.9866 28.8879 57.0947 28.9351 57.2089 28.9599C57.3231 28.9846 57.4411 28.9863 57.556 28.9649C57.6708 28.9435 57.7803 28.8994 57.8779 28.8352C57.9755 28.771 58.0594 28.688 58.1245 28.591L60.9591 24.5429C61.3861 23.9345 61.2383 23.0918 60.629 22.6642L42.8922 10.2451C42.7474 10.1429 42.5837 10.0705 42.4107 10.032C42.2377 9.99349 42.0588 9.9897 41.8843 10.0208C41.7098 10.0512 41.5429 10.1158 41.3934 10.2109C41.2439 10.306 41.1147 10.4298 41.0133 10.5751L36.9451 16.3855V12.8819C36.9451 12.1379 36.34 11.5328 35.5961 11.5328H14.5153C13.7714 11.5328 13.1663 12.1379 13.1663 12.8819V17.6933C13.1663 17.9264 13.2589 18.15 13.4237 18.3148C13.5885 18.4796 13.8121 18.5722 14.0452 18.5722C14.5308 18.5722 14.9241 18.1791 14.9241 17.6933V13.2911H17.4706V29.4836H15.1316C15.0625 29.4836 14.9933 29.4853 14.9242 29.4886V21.209C14.9242 20.9759 14.8316 20.7523 14.6668 20.5875C14.5019 20.4227 14.2784 20.3301 14.0453 20.3301C13.8122 20.3301 13.5886 20.4227 13.4238 20.5875C13.259 20.7523 13.1664 20.9759 13.1664 21.209V29.9555C11.7613 30.6733 10.7968 32.1354 10.7968 33.8186V60.2795C10.7968 62.6695 12.7415 64.6143 15.1314 64.6143H21.6939C22.1796 64.6143 22.5728 64.221 22.5728 63.7354C22.5728 63.5023 22.4802 63.2787 22.3154 63.1139C22.1505 62.9491 21.927 62.8565 21.6939 62.8565H15.1314C13.7105 62.8565 12.5547 61.7004 12.5547 60.2795V33.8186C12.5547 32.6924 13.2806 31.733 14.2887 31.3833C14.3111 31.3769 14.3336 31.3696 14.355 31.3613C14.6063 31.2816 14.8684 31.2412 15.132 31.2414H53.3186C54.7395 31.2414 55.8958 32.3977 55.8958 33.8186V40.7363H49.6033C46.1224 40.7363 43.2904 43.568 43.2904 47.0493C43.2904 50.5301 46.1224 53.3619 49.6033 53.3619H55.8958V60.2795C55.8958 61.7005 54.7395 62.8565 53.3186 62.8565H46.6027C46.3696 62.8565 46.146 62.9491 45.9812 63.1139C45.8164 63.2787 45.7238 63.5023 45.7238 63.7354C45.7238 64.221 46.1169 64.6143 46.6027 64.6143H53.3186C55.7085 64.6143 57.6536 62.6695 57.6536 60.2795V53.2401C59.642 52.7681 61.1257 50.9774 61.1257 48.8469V45.2516C61.1252 43.1208 59.6416 41.3301 57.6531 40.858ZM38.3529 28.0732C40.3574 25.2103 43.5755 23.9928 45.5264 25.3582C46.6502 26.1451 47.1451 27.6891 46.8819 29.4836H37.5408C37.7682 28.9898 38.0401 28.5178 38.3529 28.0732ZM35.1874 18.8959L27.7734 29.484H23.4425V13.2906H35.1874V18.8959ZM19.2284 13.2906H21.6847V29.4836H19.2285L19.2284 13.2906ZM59.3674 48.8465C59.3674 50.3672 58.1305 51.6041 56.6099 51.6041H49.6033C47.0916 51.6041 45.0482 49.5606 45.0482 47.0488C45.0482 44.5375 47.0916 42.4941 49.6033 42.4941H56.6099C58.1305 42.4941 59.3673 43.731 59.3673 45.2516L59.3674 48.8465Z" fill="url(#paint1_linear_22_12)"/>
<path d="M34.2247 48.7631C28.3699 48.7631 23.6064 53.5266 23.6064 59.3819C23.6064 65.2366 28.3699 70.0001 34.2247 70.0001C40.08 70.0001 44.8434 65.2367 44.8434 59.3818C44.8434 53.5266 40.08 48.7631 34.2247 48.7631ZM34.2247 68.2423C29.339 68.2423 25.3642 64.2676 25.3642 59.3818C25.3642 54.4956 29.339 50.5209 34.2247 50.5209C39.1108 50.5209 43.0856 54.4956 43.0856 59.3819C43.0856 64.2676 39.1108 68.2423 34.2247 68.2423Z" fill="url(#paint2_linear_22_12)"/>
<path d="M34.9745 58.5029H33.4753C33.2629 58.5026 33.0593 58.4181 32.9092 58.268C32.759 58.1178 32.6746 57.9142 32.6743 57.7019C32.6745 57.4895 32.759 57.2859 32.9091 57.1357C33.0593 56.9855 33.2629 56.901 33.4753 56.9008H36.344C36.8294 56.9008 37.2229 56.507 37.2229 56.0219C37.2229 55.5367 36.8294 55.143 36.344 55.143H35.2652V54.4C35.2652 53.9149 34.8715 53.5211 34.3863 53.5211C33.9012 53.5211 33.5074 53.9149 33.5074 54.4V55.143H33.4753C32.0645 55.143 30.9165 56.2911 30.9165 57.7019C30.9165 59.1127 32.0645 60.2608 33.4753 60.2608H34.9745C35.1868 60.2609 35.3903 60.3453 35.5404 60.4955C35.6905 60.6456 35.7749 60.8491 35.7751 61.0614C35.7751 61.5032 35.4163 61.8625 34.9745 61.8625H32.1057C31.62 61.8625 31.2268 62.2561 31.2268 62.7414C31.2268 63.2267 31.62 63.6203 32.1057 63.6203H33.5073V64.3633C33.5073 64.5964 33.5999 64.8199 33.7647 64.9848C33.9295 65.1496 34.1531 65.2422 34.3862 65.2422C34.6193 65.2422 34.8428 65.1496 35.0077 64.9848C35.1725 64.8199 35.2651 64.5964 35.2651 64.3633V63.6038C36.5396 63.4587 37.5334 62.3743 37.5334 61.0614C37.5329 59.6505 36.3853 58.5029 34.9745 58.5029Z" fill="url(#paint3_linear_22_12)"/>
</g>
<defs>
<filter id="filter0_d_22_12" x="0.796844" y="0" width="70.4063" height="80.0001" filterUnits="userSpaceOnUse" color-interpolation-filters="sRGB">
<feFlood flood-opacity="0" result="BackgroundImageFix"/>
<feColorMatrix in="SourceAlpha" type="matrix" values="0 0 0 0 0 0 0 0 0 0 0 0 0 0 0 0 0 0 127 0" result="hardAlpha"/>
<feOffset/>
<feGaussianBlur stdDeviation="5"/>
<feComposite in2="hardAlpha" operator="out"/>
<feColorMatrix type="matrix" values="0 0 0 0 0.00392157 0 0 0 0 0.760784 0 0 0 0 0.170431 0 0 0 0.5 0"/>
<feBlend mode="normal" in2="BackgroundImageFix" result="effect1_dropShadow_22_12"/>
<feBlend mode="normal" in="SourceGraphic" in2="effect1_dropShadow_22_12" result="shape"/>
</filter>
<linearGradient id="paint0_linear_22_12" x1="39.5798" y1="14.5716" x2="57.5511" y2="15.1037" gradientUnits="userSpaceOnUse">
<stop stop-color="#00AA30"/>
<stop offset="1" stop-color="#00D03A"/>
</linearGradient>
<linearGradient id="paint1_linear_22_12" x1="10.7968" y1="10" x2="64.1759" y2="13.0791" gradientUnits="userSpaceOnUse">
<stop stop-color="#00AA30"/>
<stop offset="1" stop-color="#00D03A"/>
</linearGradient>
<linearGradient id="paint2_linear_22_12" x1="23.6064" y1="48.7631" x2="46.0829" y2="50.1678" gradientUnits="userSpaceOnUse">
<stop stop-color="#00AA30"/>
<stop offset="1" stop-color="#00D03A"/>
</linearGradient>
<linearGradient id="paint3_linear_22_12" x1="30.9165" y1="53.5211" x2="37.9382" y2="53.7688" gradientUnits="userSpaceOnUse">
<stop stop-color="#00AA30"/>
<stop offset="1" stop-color="#00D03A"/>
</linearGradient>
</defs>
</svg>
