<svg width="22" height="22" viewBox="0 0 22 22" fill="none" xmlns="http://www.w3.org/2000/svg">
<mask id="mask0_1_250" style="mask-type:luminance" maskUnits="userSpaceOnUse" x="0" y="0" width="22" height="22">
<path d="M21.233 0.231995H0.237V21.232H21.233V0.231995Z" fill="white"/>
</mask>
<g mask="url(#mask0_1_250)">
<path d="M15.973 8.09899C15.973 3.75399 12.451 0.231995 8.10698 0.231995C3.76098 0.231995 0.237976 3.75399 0.237976 8.09899C0.237976 12.443 3.76098 15.965 8.10698 15.965C12.45 15.965 15.973 12.443 15.973 8.09899ZM8.10598 14C4.85198 14 2.20398 11.354 2.20398 8.09999C2.20398 4.84599 4.85198 2.19899 8.10598 2.19899C11.359 2.19899 14.006 4.84599 14.006 8.09999C14.006 11.354 11.359 14 8.10598 14Z" fill="#989898"/>
</g>
<mask id="mask1_1_250" style="mask-type:luminance" maskUnits="userSpaceOnUse" x="0" y="0" width="22" height="22">
<path d="M21.233 0.231995H0.237V21.232H21.233V0.231995Z" fill="white"/>
</mask>
<g mask="url(#mask1_1_250)">
<path d="M20.642 17.854L15.829 13.041C15.112 14.156 14.164 15.105 13.049 15.821L17.862 20.635C18.63 21.403 19.877 21.403 20.643 20.635C21.409 19.868 21.409 18.623 20.642 17.854Z" fill="#989898"/>
</g>
</svg>
