<svg width="80" height="80" viewBox="0 0 80 80" fill="none" xmlns="http://www.w3.org/2000/svg">
<g filter="url(#filter0_d_22_138)">
<path d="M52.2457 43.1189C52.2286 43.0188 52.236 42.9161 52.2674 42.8195C52.2988 42.7229 52.3532 42.6355 52.4259 42.5646L60.9316 34.2736C61.5842 33.6376 61.8146 32.7039 61.533 31.8372C61.2514 30.9705 60.5161 30.3506 59.6142 30.2196L47.8597 28.5116C47.7592 28.497 47.6638 28.4582 47.5817 28.3985C47.4995 28.3388 47.4331 28.2601 47.3882 28.169L42.1315 17.5176C41.7282 16.7004 40.9114 16.1927 40 16.1927C39.0887 16.1927 38.272 16.7004 37.8687 17.5176L35.2209 22.8825C35.1182 23.0906 35.1023 23.3311 35.1769 23.551C35.2514 23.7708 35.4103 23.9521 35.6184 24.0548C35.8266 24.1576 36.0671 24.1734 36.2869 24.0989C36.5068 24.0243 36.688 23.8655 36.7908 23.6573L39.4386 18.2923C39.594 17.9773 39.8831 17.9432 40 17.9432C40.1171 17.9432 40.4062 17.9773 40.5616 18.2923L45.8185 28.9439C45.989 29.2894 46.2411 29.5883 46.5528 29.8147C46.8646 30.0412 47.2267 30.1885 47.6081 30.2439L59.3625 31.9519C59.7102 32.0025 59.8318 32.2668 59.868 32.3781C59.9043 32.4895 59.9611 32.7748 59.7096 33.02L51.204 41.3111C50.928 41.58 50.7216 41.9121 50.6025 42.2786C50.4835 42.6451 50.4553 43.035 50.5205 43.4149L52.5284 55.1219C52.5878 55.4682 52.374 55.6657 52.2792 55.7344C52.1845 55.8032 51.9311 55.9458 51.6198 55.782L47.3677 53.5466C47.2659 53.4931 47.1546 53.4602 47.0401 53.4497C46.9257 53.4392 46.8103 53.4514 46.7005 53.4855C46.5907 53.5196 46.4887 53.575 46.4004 53.6485C46.312 53.722 46.239 53.8123 46.1855 53.914C46.132 54.0157 46.0991 54.127 46.0886 54.2415C46.0781 54.356 46.0903 54.4714 46.1244 54.5812C46.1585 54.6909 46.2139 54.7929 46.2874 54.8813C46.361 54.9696 46.4512 55.0426 46.5529 55.0961L50.8051 57.3316C51.1467 57.5121 51.527 57.6066 51.9134 57.6071C52.4041 57.6071 52.8916 57.4533 53.3081 57.1507C54.0454 56.615 54.4078 55.7242 54.2537 54.826L52.2457 43.1189ZM44.039 51.7965L41.1061 50.2548C40.765 50.0754 40.3854 49.9816 40 49.9816C39.6147 49.9816 39.2351 50.0754 38.894 50.2548L28.3805 55.7822C28.0697 55.9458 27.8157 55.8034 27.721 55.7345C27.6263 55.6657 27.4125 55.4683 27.4719 55.1219L29.4798 43.415C29.545 43.0352 29.5168 42.6452 29.3977 42.2787C29.2786 41.9122 29.0722 41.5801 28.7962 41.3112L20.2906 33.0202C20.0391 32.775 20.096 32.4896 20.1322 32.3783C20.1684 32.2669 20.2901 32.0026 20.6378 31.952L32.3922 30.244C32.7736 30.1886 33.1358 30.0414 33.4476 29.8149C33.7593 29.5884 34.0113 29.2894 34.1819 28.9439L35.129 27.0248C35.2317 26.8166 35.2476 26.5762 35.173 26.3563C35.0985 26.1365 34.9396 25.9552 34.7314 25.8525C34.5233 25.7497 34.2828 25.7339 34.063 25.8084C33.8431 25.883 33.6619 26.0418 33.5591 26.25L32.612 28.169C32.5671 28.2601 32.5007 28.3388 32.4185 28.3985C32.3364 28.4582 32.241 28.497 32.1405 28.5116L20.3859 30.2196C19.484 30.3507 18.7488 30.9705 18.4672 31.8372C18.1856 32.7039 18.4161 33.6376 19.0686 34.2736L27.5743 42.5646C27.647 42.6355 27.7014 42.723 27.7328 42.8196C27.7641 42.9162 27.7715 43.0189 27.7543 43.119L25.7465 54.8258C25.5924 55.7242 25.9547 56.6149 26.6921 57.1506C27.1087 57.4533 27.5961 57.6071 28.087 57.607C28.4646 57.607 28.8444 57.5159 29.1952 57.3315L39.7087 51.8041C39.7986 51.7569 39.8986 51.7322 40.0001 51.7322C40.1016 51.7322 40.2016 51.7569 40.2915 51.8041L43.2244 53.346C43.4295 53.451 43.6678 53.4708 43.8875 53.4012C44.1073 53.3316 44.2906 53.1781 44.3979 52.9741C44.5051 52.7701 44.5276 52.532 44.4604 52.3116C44.3932 52.0911 44.2418 51.906 44.039 51.7965ZM14.5682 17.5719L21.6809 21.129C21.9472 21.2629 22.2411 21.3329 22.5392 21.3333C23.0023 21.3333 23.4586 21.1631 23.8203 20.8348C24.4089 20.3005 24.605 19.4758 24.3197 18.7339L21.4668 11.3108C21.1022 10.3623 20.0231 9.85844 19.0612 10.1879C16.5785 11.0379 14.7691 12.6801 13.6831 15.069C13.2624 15.9946 13.6594 17.1174 14.5682 17.5719ZM15.2769 15.7936C16.1678 13.8334 17.5912 12.5416 19.6284 11.8442C19.6425 11.8393 19.6574 11.8371 19.6727 11.8371C19.7387 11.8371 19.8097 11.8793 19.8327 11.9389L22.6858 19.3621C22.6965 19.3901 22.7252 19.4646 22.6438 19.5385C22.5625 19.6125 22.491 19.5768 22.464 19.5633L15.3512 16.0061C15.281 15.971 15.2441 15.8657 15.2769 15.7936ZM56.1798 20.8348C56.5415 21.163 56.9978 21.3333 57.461 21.3333C57.7516 21.3333 58.0451 21.2662 58.3193 21.129L65.432 17.5719C66.3407 17.1175 66.7377 15.9948 66.3172 15.0691C65.2313 12.6802 63.4218 11.0379 60.9392 10.1879C59.9772 9.85867 58.8982 10.3624 58.5336 11.3108L55.6805 18.7339C55.3952 19.4758 55.5912 20.3005 56.1798 20.8348ZM57.3145 19.3621L60.1676 11.9388C60.1905 11.8791 60.2616 11.837 60.3275 11.837C60.3429 11.837 60.358 11.8393 60.372 11.8441C62.409 12.5416 63.8324 13.8334 64.7233 15.7933C64.7561 15.8654 64.7192 15.9708 64.6489 16.006L57.5362 19.5631C57.5094 19.5766 57.4379 19.6124 57.3564 19.5384C57.2751 19.4646 57.3037 19.3901 57.3145 19.3621ZM23.8203 59.1666C23.2316 58.6323 22.3919 58.5168 21.6809 58.8724L14.5682 62.4296C13.6594 62.884 13.2624 64.0068 13.6831 64.9323C14.7691 67.3212 16.5785 68.9635 19.0612 69.8135C19.2566 69.8804 19.4618 69.9145 19.6684 69.9143C20.4405 69.9143 21.178 69.442 21.4668 68.6906L24.3198 61.2675C24.605 60.5256 24.409 59.7009 23.8203 59.1666ZM22.6858 60.6395L19.8326 68.0627C19.8044 68.1362 19.7031 68.183 19.6282 68.1574C17.5912 67.4599 16.1678 66.1682 15.2769 64.208C15.2441 64.1358 15.281 64.0306 15.3513 63.9954L22.464 60.4383C22.4783 60.4311 22.5051 60.4177 22.5392 60.4177C22.5694 60.4177 22.6055 60.4282 22.6438 60.463C22.7251 60.5368 22.6965 60.6113 22.6858 60.6395ZM65.432 62.4296L64.2119 61.8193C64.109 61.7668 63.9967 61.7352 63.8815 61.7264C63.7663 61.7175 63.6505 61.7315 63.5408 61.7676C63.4311 61.8037 63.3296 61.8612 63.2422 61.9367C63.1547 62.0123 63.0831 62.1043 63.0315 62.2077C62.9798 62.311 62.9491 62.4235 62.9411 62.5388C62.9332 62.654 62.9481 62.7697 62.9851 62.8792C63.022 62.9886 63.0803 63.0897 63.1565 63.1765C63.2327 63.2633 63.3253 63.3342 63.429 63.3851L64.6491 63.9953C64.7195 64.0305 64.7562 64.1357 64.7235 64.2079C63.8326 66.168 62.4093 67.4598 60.3723 68.1572C60.2976 68.1828 60.196 68.1359 60.1678 68.0625L57.3148 60.6394C57.3039 60.6113 57.2753 60.5368 57.3567 60.4629C57.4379 60.3891 57.5096 60.4248 57.5364 60.4383L60.0561 61.6984C60.1589 61.7498 60.2709 61.7805 60.3855 61.7886C60.5002 61.7968 60.6153 61.7823 60.7244 61.7459C60.8335 61.7096 60.9343 61.6521 61.0211 61.5768C61.1079 61.5015 61.1791 61.4098 61.2305 61.3069C61.2819 61.2041 61.3126 61.0922 61.3207 60.9775C61.3289 60.8629 61.3144 60.7477 61.278 60.6387C61.2417 60.5296 61.1842 60.4288 61.1089 60.342C61.0336 60.2551 60.9419 60.184 60.839 60.1326L58.3193 58.8725C57.6084 58.5169 56.7686 58.6324 56.18 59.1666C55.5913 59.7009 55.3952 60.5256 55.6805 61.2675L58.5336 68.6906C58.8224 69.442 59.5598 69.9143 60.332 69.9143C60.5344 69.9143 60.7394 69.8819 60.9392 69.8135C63.4218 68.9635 65.2313 67.3212 66.317 64.9323C66.7377 64.0069 66.3408 62.884 65.432 62.4296ZM16.8529 40.0156C16.8659 39.4013 16.5332 38.8477 15.9848 38.5707L12.6955 36.9095C12.5056 36.8141 12.2987 36.7577 12.0867 36.7434C11.8747 36.7291 11.662 36.7573 11.4611 36.8263C11.0568 36.9661 10.7348 37.2554 10.5547 37.641C9.81488 39.2245 9.81512 40.7583 10.5553 42.1999C10.6881 42.4596 10.8901 42.6776 11.1389 42.8298C11.3877 42.9821 11.6737 43.0627 11.9654 43.0629C12.184 43.0629 12.4059 43.0172 12.6175 42.9213L15.9245 41.4226C16.4843 41.1689 16.8401 40.6298 16.8529 40.0156ZM12.0441 41.2591C11.6511 40.4042 11.658 39.5154 12.0652 38.5523L14.8802 39.974L12.0441 41.2591ZM69.4453 37.6411C69.2652 37.2555 68.9433 36.9662 68.539 36.8263C68.3381 36.7572 68.1254 36.729 67.9134 36.7433C67.7014 36.7576 67.4944 36.8141 67.3046 36.9095L64.0153 38.5707C63.4668 38.8478 63.1341 39.4013 63.1472 40.0156C63.1601 40.6298 63.5158 41.1689 64.0754 41.4225L67.3824 42.9213C67.5873 43.0145 67.8097 43.0627 68.0347 43.0627C68.611 43.0627 69.1643 42.746 69.4447 42.1999C70.185 40.7581 70.1852 39.2243 69.4453 37.6411ZM67.9561 41.2591L65.1201 39.9739L67.9351 38.5523C68.3423 39.5154 68.3491 40.4041 67.9561 41.2591ZM30.8283 16.3431C30.8803 16.5264 30.9906 16.6877 31.1425 16.8027C31.2944 16.9176 31.4796 16.9799 31.6701 16.98C31.8054 16.9801 31.939 16.9488 32.0602 16.8885C32.1815 16.8282 32.2871 16.7407 32.3688 16.6327C32.4504 16.5247 32.5059 16.3992 32.5309 16.2662C32.5559 16.1331 32.5496 15.9961 32.5127 15.8658L31.5713 12.5439C31.54 12.4333 31.4872 12.3299 31.4159 12.2397C31.3447 12.1495 31.2563 12.0743 31.1559 12.0182C31.0556 11.9622 30.9451 11.9265 30.8309 11.9131C30.7168 11.8998 30.6011 11.909 30.4905 11.9404C30.3799 11.9717 30.2765 12.0246 30.1864 12.0958C30.0962 12.1671 30.0209 12.2555 29.9649 12.3558C29.9088 12.4562 29.8731 12.5666 29.8597 12.6808C29.8464 12.795 29.8556 12.9107 29.887 13.0213L30.8283 16.3431ZM19.392 25.7842C19.4389 25.6793 19.4647 25.5661 19.4679 25.4512C19.4711 25.3363 19.4516 25.2219 19.4106 25.1145C19.3696 25.0071 19.3078 24.9089 19.2288 24.8254C19.1498 24.7419 19.0551 24.6748 18.9502 24.6278L16.3394 23.4608C16.1275 23.366 15.8866 23.3593 15.6697 23.4422C15.4528 23.5251 15.2778 23.6907 15.183 23.9026C15.0883 24.1146 15.0816 24.3554 15.1645 24.5723C15.2473 24.7892 15.413 24.9642 15.6249 25.059L18.2357 26.2261C18.3479 26.2764 18.4695 26.3024 18.5925 26.3025C18.7615 26.3025 18.927 26.2536 19.0689 26.1616C19.2108 26.0697 19.323 25.9386 19.392 25.7842ZM15.3316 49.885C15.1739 49.9883 15.0538 50.1398 14.9891 50.3169C14.9245 50.494 14.9187 50.6873 14.9728 50.8679C15.0268 51.0485 15.1377 51.2069 15.289 51.3194C15.4402 51.4319 15.6238 51.4926 15.8123 51.4924C15.9826 51.4925 16.1492 51.4426 16.2914 51.349L18.683 49.781C19.0873 49.5159 19.2002 48.9734 18.9351 48.5691C18.6701 48.1648 18.1274 48.0518 17.7232 48.317L15.3316 49.885ZM33.4502 62.6459C33.3492 62.5911 33.2383 62.5568 33.124 62.5448C33.0097 62.5329 32.8941 62.5436 32.7839 62.5763C32.6737 62.6091 32.5711 62.6632 32.4818 62.7356C32.3925 62.808 32.3184 62.8973 32.2636 62.9984L30.9011 65.5127C30.8463 65.6137 30.8119 65.7246 30.8 65.8389C30.7881 65.9532 30.7988 66.0688 30.8315 66.179C30.8642 66.2891 30.9184 66.3918 30.9908 66.4811C31.0632 66.5703 31.1525 66.6445 31.2535 66.6992C31.3546 66.7541 31.4654 66.7884 31.5798 66.8004C31.6941 66.8123 31.8097 66.8016 31.9199 66.7689C32.0301 66.7362 32.1328 66.682 32.2221 66.6096C32.3113 66.5372 32.3855 66.4479 32.4402 66.3468L33.8028 63.8325C33.9134 63.6284 33.9384 63.3887 33.8722 63.1662C33.8061 62.9437 33.6543 62.7565 33.4502 62.6459ZM48.091 16.9466C48.1688 16.9688 48.2493 16.98 48.3302 16.98C48.5206 16.9798 48.7058 16.9176 48.8577 16.8026C49.0096 16.6877 49.1199 16.5264 49.1719 16.3431L50.1132 13.0213C50.1446 12.9107 50.1538 12.795 50.1405 12.6808C50.1271 12.5666 50.0914 12.4562 50.0353 12.3558C49.9793 12.2555 49.904 12.1671 49.8139 12.0959C49.7237 12.0246 49.6203 11.9718 49.5097 11.9404C49.3991 11.9091 49.2835 11.8998 49.1693 11.9132C49.0551 11.9265 48.9447 11.9623 48.8443 12.0183C48.744 12.0744 48.6556 12.1496 48.5843 12.2398C48.5131 12.33 48.4602 12.4333 48.4289 12.5439L47.4875 15.8658C47.4562 15.9764 47.4469 16.0921 47.4603 16.2063C47.4736 16.3204 47.5094 16.4308 47.5654 16.5312C47.6214 16.6316 47.6967 16.7199 47.7869 16.7912C47.8771 16.8625 47.9804 16.9153 48.091 16.9466ZM64.8172 23.9025C64.7224 23.6906 64.5474 23.525 64.3305 23.4422C64.1137 23.3593 63.8729 23.366 63.6609 23.4606L61.0502 24.6277C60.9452 24.6746 60.8505 24.7418 60.7715 24.8253C60.6925 24.9088 60.6308 25.007 60.5897 25.1144C60.5487 25.2218 60.5292 25.3362 60.5324 25.4511C60.5356 25.566 60.5614 25.6791 60.6083 25.7841C60.6773 25.9385 60.7895 26.0696 60.9314 26.1616C61.0733 26.2535 61.2388 26.3024 61.4079 26.3024C61.5273 26.3024 61.6485 26.2779 61.7646 26.2259L64.3754 25.0589C64.5873 24.9641 64.7529 24.789 64.8358 24.5722C64.9186 24.3553 64.9119 24.1144 64.8172 23.9025ZM61.065 48.569C60.9377 48.7631 60.8928 48.9998 60.94 49.2271C60.9873 49.4544 61.1229 49.6536 61.3171 49.7809L63.7087 51.3489C63.8048 51.4119 63.9124 51.4555 64.0253 51.477C64.1383 51.4984 64.2543 51.4974 64.3669 51.474C64.4794 51.4506 64.5863 51.4052 64.6813 51.3405C64.7763 51.2758 64.8576 51.1929 64.9206 51.0968C65.0478 50.9026 65.0928 50.6659 65.0455 50.4386C64.9982 50.2113 64.8626 50.0121 64.6685 49.8848L62.2769 48.3169C62.0827 48.1896 61.846 48.1447 61.6187 48.1919C61.3914 48.2392 61.1923 48.3748 61.065 48.569ZM47.7367 62.9985C47.682 62.8974 47.6078 62.8081 47.5186 62.7357C47.4293 62.6632 47.3267 62.6091 47.2165 62.5763C47.1063 62.5436 46.9907 62.5329 46.8764 62.5448C46.762 62.5568 46.6512 62.5911 46.5501 62.6459C46.346 62.7565 46.1942 62.9437 46.1281 63.1662C46.062 63.3887 46.0869 63.6284 46.1975 63.8325L47.5601 66.3468C47.6148 66.4479 47.6889 66.5372 47.7782 66.6096C47.8675 66.6821 47.9701 66.7362 48.0803 66.7689C48.1905 66.8017 48.3061 66.8124 48.4204 66.8005C48.5348 66.7885 48.6456 66.7542 48.7467 66.6994C48.9508 66.5888 49.1026 66.4016 49.1687 66.1791C49.2348 65.9566 49.2099 65.7169 49.0993 65.5128L47.7367 62.9985Z" fill="url(#paint0_linear_22_138)"/>
</g>
<defs>
<filter id="filter0_d_22_138" x="0" y="0.0869751" width="80.0001" height="79.8274" filterUnits="userSpaceOnUse" color-interpolation-filters="sRGB">
<feFlood flood-opacity="0" result="BackgroundImageFix"/>
<feColorMatrix in="SourceAlpha" type="matrix" values="0 0 0 0 0 0 0 0 0 0 0 0 0 0 0 0 0 0 127 0" result="hardAlpha"/>
<feOffset/>
<feGaussianBlur stdDeviation="5"/>
<feComposite in2="hardAlpha" operator="out"/>
<feColorMatrix type="matrix" values="0 0 0 0 0.00392157 0 0 0 0 0.760784 0 0 0 0 0.170431 0 0 0 0.5 0"/>
<feBlend mode="normal" in2="BackgroundImageFix" result="effect1_dropShadow_22_138"/>
<feBlend mode="normal" in="SourceGraphic" in2="effect1_dropShadow_22_138" result="shape"/>
</filter>
<linearGradient id="paint0_linear_22_138" x1="10" y1="10.087" x2="73.5006" y2="14.0672" gradientUnits="userSpaceOnUse">
<stop stop-color="#00AA30"/>
<stop offset="1" stop-color="#00D03A"/>
</linearGradient>
</defs>
</svg>
