<svg width="16" height="17" viewBox="0 0 16 17" fill="none" xmlns="http://www.w3.org/2000/svg">
<path d="M4.22198 5.62801C4.22198 5.19601 4.39498 4.79599 4.73898 4.42799C5.08398 4.05999 5.47499 3.87601 5.91399 3.87601C6.31099 3.87601 6.67299 4.04301 6.99699 4.37601C7.32099 4.71001 7.48199 5.087 7.48199 5.506C7.48199 5.965 7.33399 6.368 7.03799 6.72C6.74099 7.071 6.36599 7.24699 5.91299 7.24699C5.47399 7.24699 5.08298 7.094 4.73798 6.787C4.39598 6.48 4.22198 6.09401 4.22198 5.62801ZM5.90398 4.54401C5.64098 4.54401 5.39799 4.65 5.17499 4.864C4.95099 5.076 4.84099 5.318 4.84099 5.588C4.84099 5.859 4.94598 6.09001 5.15898 6.28101C5.37198 6.47301 5.61898 6.57001 5.90398 6.57001C6.17398 6.57001 6.40498 6.46699 6.59898 6.26199C6.78998 6.05599 6.88799 5.807 6.88799 5.517C6.88799 5.273 6.78798 5.052 6.58798 4.849C6.38898 4.646 6.16098 4.54401 5.90398 4.54401ZM9.74198 4.118L10.279 4.48399C10.144 4.78699 9.41398 6.00099 8.08698 8.12399C6.75898 10.248 6.01199 11.514 5.84399 11.927C5.74999 12.042 5.63198 12.098 5.48998 12.098C5.35398 12.098 5.23698 12.046 5.13998 11.942C5.04198 11.838 4.99298 11.713 4.99298 11.571C4.99298 11.497 5.01399 11.42 5.05399 11.34C5.37799 10.935 6.12898 9.83399 7.30698 8.03799C8.48298 6.24199 9.29598 4.937 9.74198 4.118ZM7.79698 10.579C7.79698 10.147 7.96899 9.748 8.31399 9.38C8.65799 9.012 9.04898 8.828 9.48798 8.828C9.88598 8.828 10.248 8.99499 10.571 9.32899C10.897 9.66299 11.058 10.039 11.058 10.458C11.058 10.916 10.908 11.322 10.613 11.673C10.315 12.024 9.93998 12.2 9.48798 12.2C9.04898 12.2 8.65799 12.046 8.31399 11.739C7.96899 11.433 7.79698 11.045 7.79698 10.579ZM9.47398 9.485C9.20898 9.485 8.96699 9.594 8.74699 9.811C8.52399 10.026 8.41499 10.269 8.41499 10.539C8.41499 10.81 8.51999 11.039 8.73099 11.228C8.93999 11.418 9.18798 11.512 9.47398 11.512C9.74498 11.512 9.97598 11.41 10.171 11.207C10.364 11.005 10.462 10.759 10.462 10.468C10.462 10.218 10.361 9.99199 10.162 9.78999C9.95999 9.58699 9.73198 9.485 9.47398 9.485Z" fill="#FAAC3E"/>
<path d="M14.516 8.24499C14.453 8.11399 14.453 7.96199 14.516 7.83099L15.108 6.61C15.437 5.93 15.175 5.121 14.514 4.765L13.324 4.129C13.195 4.06 13.107 3.93801 13.082 3.79401L12.85 2.45599C12.719 1.71099 12.037 1.21 11.294 1.315L9.961 1.505C9.818 1.526 9.673 1.479 9.57 1.377L8.602 0.432998C8.062 -0.0930021 7.218 -0.0930021 6.679 0.432998L5.711 1.37801C5.608 1.47901 5.463 1.525 5.32 1.506L3.987 1.315C3.245 1.21 2.561 1.71099 2.432 2.45599L2.199 3.79401C2.174 3.93801 2.086 4.061 1.957 4.129L0.767 4.765C0.105 5.121 -0.155002 5.93 0.172998 6.61L0.765001 7.83099C0.828001 7.96199 0.828001 8.11399 0.765001 8.24499L0.172998 9.466C-0.156002 10.145 0.105 10.957 0.767 11.31L1.957 11.947C2.086 12.015 2.174 12.138 2.199 12.281L2.432 13.62C2.549 14.299 3.126 14.775 3.788 14.775C3.853 14.775 3.92 14.77 3.986 14.761L5.319 14.571C5.462 14.55 5.607 14.597 5.71 14.699L6.678 15.643C6.947 15.906 7.294 16.038 7.64 16.038C7.985 16.038 8.332 15.907 8.601 15.643L9.569 14.699C9.672 14.597 9.817 14.551 9.96 14.571L11.293 14.761C12.036 14.867 12.718 14.365 12.849 13.62L13.081 12.281C13.107 12.138 13.194 12.015 13.323 11.947L14.513 11.31C15.174 10.957 15.435 10.145 15.107 9.466L14.516 8.24499ZM14.084 10.495L12.894 11.133C12.515 11.335 12.255 11.696 12.18 12.123L11.948 13.462C11.905 13.714 11.673 13.884 11.422 13.849L10.088 13.658C9.663 13.597 9.242 13.736 8.934 14.038L7.965 14.982C7.782 15.16 7.497 15.16 7.315 14.982L6.346 14.037C6.086 13.783 5.744 13.645 5.388 13.645C5.322 13.645 5.257 13.649 5.192 13.658L3.857 13.849C3.607 13.884 3.375 13.715 3.332 13.462L3.099 12.123C3.024 11.696 2.766 11.335 2.386 11.133L1.195 10.495C0.970001 10.375 0.883005 10.101 0.994005 9.871L1.586 8.649C1.774 8.26 1.774 7.815 1.586 7.425L0.994005 6.203C0.883005 5.973 0.971001 5.69999 1.195 5.57899L2.386 4.942C2.765 4.738 3.024 4.378 3.099 3.95L3.332 2.61301C3.374 2.36101 3.607 2.191 3.857 2.227L5.192 2.418C5.617 2.479 6.038 2.33999 6.346 2.03799L7.315 1.093C7.498 0.916002 7.783 0.916002 7.965 1.093L8.934 2.03799C9.242 2.33999 9.663 2.478 10.088 2.418L11.422 2.227C11.673 2.191 11.904 2.36101 11.948 2.61301L12.18 3.95C12.255 4.378 12.514 4.738 12.894 4.942L14.084 5.57899C14.308 5.69899 14.397 5.973 14.286 6.203L13.694 7.425C13.506 7.814 13.506 8.259 13.694 8.649L14.286 9.871C14.397 10.101 14.308 10.375 14.084 10.495Z" fill="#FAAC3E"/>
</svg>
