<svg width="21" height="26" viewBox="0 0 21 26" fill="none" xmlns="http://www.w3.org/2000/svg">
<mask id="mask0_1_372" style="mask-type:luminance" maskUnits="userSpaceOnUse" x="0" y="0" width="21" height="26">
<path d="M20.638 0.714005H0.641998V25.714H20.638V0.714005Z" fill="white"/>
</mask>
<g mask="url(#mask0_1_372)">
<path d="M10.642 14.02C14.339 14.019 15.669 10.318 16.019 7.278C16.447 3.531 14.674 0.714005 10.642 0.714005C6.61001 0.714005 4.839 3.531 5.269 7.278C5.617 10.318 6.94701 14.02 10.642 14.02Z" fill="white"/>
</g>
<mask id="mask1_1_372" style="mask-type:luminance" maskUnits="userSpaceOnUse" x="0" y="0" width="21" height="26">
<path d="M20.638 0.714005H0.641998V25.714H20.638V0.714005Z" fill="white"/>
</mask>
<g mask="url(#mask1_1_372)">
<path d="M20.642 22.833C20.601 21.652 20.464 20.468 20.255 19.305C20.009 17.899 19.691 15.837 18.462 14.919C17.751 14.389 16.831 14.215 16.019 13.896C15.623 13.74 15.27 13.586 14.936 13.41C13.812 14.641 12.349 15.286 10.642 15.286C8.93701 15.286 7.47401 14.641 6.34901 13.41C6.01701 13.586 5.66201 13.74 5.26701 13.896C4.45401 14.216 3.53401 14.389 2.82401 14.919C1.59501 15.836 1.27701 17.899 1.02901 19.305C0.823009 20.468 0.685007 21.652 0.643007 22.833C0.613007 23.747 1.06501 23.875 1.82801 24.151C2.78601 24.496 3.77501 24.752 4.76701 24.962C6.69001 25.368 8.66901 25.679 10.642 25.694C12.615 25.679 14.595 25.368 16.518 24.962C17.513 24.752 18.502 24.496 19.458 24.151C20.222 23.875 20.673 23.747 20.642 22.833Z" fill="white"/>
</g>
</svg>
