<svg width="80" height="78" viewBox="0 0 80 78" fill="none" xmlns="http://www.w3.org/2000/svg">
<g filter="url(#filter0_d_22_124)">
<path d="M63.288 27.3281L64.5149 25.9009L65.7106 26.9289C65.7987 27.0047 65.9009 27.0623 66.0112 27.0986C66.1216 27.1349 66.2381 27.149 66.3539 27.1403C66.4698 27.1315 66.5828 27.1001 66.6865 27.0476C66.7902 26.9952 66.8826 26.9229 66.9583 26.8348L68.8579 24.6253C69.0108 24.4474 69.0868 24.216 69.0692 23.982C69.0515 23.7481 68.9417 23.5307 68.7637 23.3777L62.2305 17.761C62.1425 17.6851 62.0404 17.6273 61.93 17.591C61.8195 17.5547 61.703 17.5406 61.5872 17.5496C61.3532 17.5672 61.1358 17.6771 60.9828 17.855L59.0832 20.0645C58.9303 20.2424 58.8543 20.4738 58.8719 20.7078C58.8896 20.9417 58.9995 21.1591 59.1774 21.3121L60.3731 22.3401L59.0522 23.8765C56.3466 22.1483 53.2676 20.9552 49.9654 20.4486V17.7753H53.0125C54.4346 17.7753 55.5915 16.6183 55.5915 15.1961V13.1376C55.5915 11.7154 54.4345 10.5584 53.0125 10.5584H39.7199C38.2977 10.5584 37.1407 11.7154 37.1407 13.1376V15.1961C37.1407 16.6183 38.2977 17.7753 39.7199 17.7753H42.767V20.4486C39.3997 20.9652 36.265 22.1963 33.521 23.9799L32.1112 22.3401L33.307 21.3121C33.4848 21.159 33.5946 20.9416 33.6122 20.7077C33.6299 20.4737 33.5539 20.2423 33.401 20.0643L31.5014 17.8549C31.4257 17.7668 31.3333 17.6945 31.2296 17.6421C31.1259 17.5896 31.0129 17.5582 30.8971 17.5494C30.7812 17.5407 30.6648 17.5549 30.5544 17.5912C30.444 17.6274 30.3418 17.6851 30.2537 17.7609L23.7206 23.3776C23.5428 23.5307 23.433 23.748 23.4154 23.982C23.3978 24.216 23.4738 24.4473 23.6266 24.6253L25.5262 26.8348C25.6092 26.9315 25.7122 27.0091 25.8281 27.0623C25.9439 27.1154 26.0699 27.1429 26.1974 27.1427C26.409 27.1429 26.6136 27.067 26.7738 26.9288L27.9695 25.9009L29.3127 27.4632C28.1472 28.6788 27.114 30.0147 26.2306 31.4485C26.2004 31.4454 26.17 31.4439 26.1396 31.4439H20.5525C20.3178 31.4439 20.0928 31.5371 19.9269 31.703C19.761 31.8689 19.6678 32.094 19.6678 32.3286C19.6678 32.5633 19.761 32.7883 19.9269 32.9542C20.0928 33.1201 20.3178 33.2133 20.5525 33.2133H25.245C24.7766 34.1431 24.3706 35.1029 24.0295 36.0865H15.0903C14.8556 36.0865 14.6306 36.1797 14.4647 36.3456C14.2988 36.5115 14.2055 36.7366 14.2055 36.9712C14.2055 37.2059 14.2988 37.4309 14.4647 37.5968C14.6306 37.7627 14.8556 37.8559 15.0903 37.8559H23.4924C23.1695 39.0979 22.9489 40.3642 22.8329 41.6422H10.8847C10.6501 41.6422 10.4251 41.7355 10.2591 41.9014C10.0932 42.0673 10 42.2923 10 42.527C10 42.7616 10.0932 42.9866 10.2591 43.1526C10.4251 43.3185 10.6501 43.4117 10.8847 43.4117H22.7377C22.7354 43.5439 22.7326 43.6759 22.7326 43.8088C22.7326 44.9595 22.8169 46.0908 22.9766 47.198H14.2645C14.0299 47.198 13.8048 47.2912 13.6389 47.4571C13.473 47.623 13.3798 47.8481 13.3798 48.0827C13.3798 48.3174 13.473 48.5424 13.6389 48.7083C13.8048 48.8742 14.0299 48.9675 14.2645 48.9675H23.3013C23.5188 49.942 23.7986 50.9016 24.1387 51.8405H19.7267C19.4921 51.8405 19.2671 51.9337 19.1011 52.0996C18.9352 52.2655 18.842 52.4906 18.842 52.7252C18.842 52.9599 18.9352 53.1849 19.1011 53.3508C19.2671 53.5167 19.4921 53.6099 19.7267 53.6099H24.8629C28.5941 61.7635 36.8291 67.4424 46.3663 67.4424C51.3476 67.4424 56.1118 65.9108 60.1441 63.0131C60.3325 62.8753 60.4588 62.6687 60.4956 62.4382C60.5323 62.2078 60.4765 61.9721 60.3403 61.7826C60.2041 61.5931 59.9985 61.465 59.7683 61.4264C59.5382 61.3878 59.3021 61.4416 59.1114 61.5763C55.382 64.2564 50.9747 65.6731 46.3663 65.6731C34.3103 65.6731 24.502 55.8648 24.502 43.8089C24.502 31.7528 34.3103 21.9446 46.3663 21.9446C52.2024 21.9446 57.5117 24.2431 61.4367 27.9823C61.4448 27.9908 61.4537 27.9986 61.4621 28.0069C65.6304 31.9905 68.2305 37.6017 68.2305 43.8089C68.2305 49.6561 65.9515 55.1516 61.813 59.2827C61.7308 59.3648 61.6656 59.4623 61.621 59.5696C61.5765 59.6769 61.5535 59.7919 61.5534 59.9081C61.5533 60.0243 61.5761 60.1394 61.6204 60.2468C61.6648 60.3541 61.7299 60.4517 61.812 60.534C61.9778 60.7 62.2027 60.7934 62.4373 60.7936C62.672 60.7938 62.8971 60.7008 63.0631 60.535C67.5364 56.0695 70 50.1294 70 43.8088C70 37.4047 67.4386 31.5887 63.288 27.3281ZM61.7479 19.6794L66.9394 24.1426L66.1934 25.0102L61.0019 20.5471L61.7479 19.6794ZM61.715 23.4937L63.1732 24.7473L62.0053 26.1058C61.5252 25.6811 61.0286 25.2746 60.515 24.8894L61.715 23.4937ZM42.4536 16.0058V12.3279H43.8824V16.0058H42.4536ZM45.6518 12.3279H47.0806V16.0058H45.6518V12.3279ZM48.8501 16.0058V12.3279H50.279V16.0058H48.8501ZM53.8223 13.1376V15.1961C53.8221 15.4107 53.7367 15.6166 53.5849 15.7684C53.4331 15.9201 53.2273 16.0055 53.0127 16.0058H52.0486V12.3279H53.0127C53.2273 12.3282 53.4331 12.4135 53.5849 12.5653C53.7367 12.7171 53.8221 12.9229 53.8223 13.1376ZM38.9103 15.1961V13.1376C38.9106 12.9229 38.9959 12.7171 39.1477 12.5653C39.2995 12.4135 39.5053 12.3282 39.72 12.3279H40.6841V16.0058H39.72C39.5053 16.0055 39.2995 15.9202 39.1477 15.7684C38.9959 15.6166 38.9106 15.4108 38.9103 15.1961ZM26.2911 25.0104L25.5451 24.1427L30.7365 19.6795L31.4825 20.5472L30.2869 21.5751L30.2867 21.5752L27.4868 23.9824L27.4865 23.9826L26.2911 25.0104ZM29.3377 24.7245L30.7694 23.4937L32.068 25.0042C31.5579 25.3929 31.0636 25.8021 30.5865 26.2307L29.3112 24.7474L29.3377 24.7245ZM44.5365 20.2452V17.7753H48.1961V20.2453C46.978 20.1515 45.7546 20.1515 44.5365 20.2452Z" fill="url(#paint0_linear_22_124)"/>
<path d="M38.9565 27.69C38.8478 27.4821 38.661 27.3258 38.4371 27.2556C38.2132 27.1854 37.9706 27.2071 37.7626 27.3157C32.3837 30.1273 28.7049 35.3944 27.9216 41.4051C26.5963 51.5755 33.7923 60.9281 43.9627 62.2533C44.764 62.358 45.5712 62.4105 46.3793 62.4105C55.5745 62.4097 63.5914 55.57 64.8109 46.2122C65.4528 41.2854 64.1379 36.4036 61.108 32.4658C58.0782 28.5281 53.6964 26.006 48.7695 25.3639C46.3659 25.0506 43.9687 25.2017 41.6441 25.8125C41.4202 25.8748 41.2297 26.0227 41.1139 26.2243C40.9982 26.4259 40.9664 26.665 41.0255 26.8898C41.0846 27.1147 41.2297 27.3072 41.4297 27.4259C41.6296 27.5445 41.8681 27.5798 42.0938 27.5239C43.2019 27.2327 44.3371 27.0565 45.4814 26.998V29.3225C45.4814 29.8111 45.8774 30.2073 46.3661 30.2073C46.8548 30.2073 47.2508 29.8111 47.2508 29.3225V27.0002C47.6804 27.0234 48.1105 27.0623 48.541 27.1184C51.9865 27.5673 55.137 29.0334 57.6563 31.3208L56.054 32.923C55.9719 33.0052 55.9067 33.1027 55.8622 33.21C55.8177 33.3173 55.7948 33.4324 55.7948 33.5486C55.7948 33.6647 55.8177 33.7798 55.8621 33.8871C55.9066 33.9945 55.9718 34.092 56.0539 34.1741C56.136 34.2564 56.2335 34.3217 56.3409 34.3662C56.4483 34.4107 56.5634 34.4335 56.6796 34.4333C56.7958 34.4335 56.9109 34.4107 57.0183 34.3662C57.1256 34.3217 57.2231 34.2564 57.3052 34.1741L58.9029 32.5764C59.1822 32.8893 59.45 33.2122 59.7057 33.5446C61.8212 36.294 63.0117 39.5521 63.1787 42.945H60.9841C60.4954 42.945 60.0994 43.3411 60.0994 43.8298C60.0994 44.3184 60.4954 44.7145 60.9841 44.7145H63.1739C63.1504 45.1387 63.1112 45.5619 63.0563 45.9832C62.6005 49.4807 61.0949 52.5888 58.8991 55.0333L57.3834 53.5176C57.2172 53.3528 56.9926 53.2606 56.7586 53.2611C56.5246 53.2616 56.3004 53.3548 56.1349 53.5202C55.9695 53.6857 55.8763 53.9099 55.8758 54.1439C55.8752 54.3779 55.9674 54.6025 56.1321 54.7687L57.6495 56.2861C54.8628 58.8022 51.2544 60.3813 47.3614 60.6104V58.4475C47.3614 57.9589 46.9654 57.5628 46.4766 57.5628C45.9879 57.5628 45.5919 57.9589 45.5919 58.4475V60.6212C45.1236 60.5997 44.6564 60.5587 44.1914 60.4983C40.7324 60.0476 37.6538 58.5704 35.2217 56.4138L36.7887 54.8468C37.1342 54.5013 37.1342 53.9412 36.7887 53.5957C36.4432 53.2501 35.883 53.2501 35.5376 53.5957L33.9616 55.1715C31.4077 52.3791 29.8012 48.7469 29.5654 44.8248H31.8588C32.0934 44.8248 32.3184 44.7316 32.4844 44.5657C32.6503 44.3997 32.7435 44.1747 32.7435 43.9401C32.7435 43.7054 32.6503 43.4804 32.4844 43.3145C32.3184 43.1485 32.0934 43.0553 31.8588 43.0553H29.5524C29.5739 42.5839 29.6141 42.1097 29.6762 41.6335C30.1191 38.2348 31.5853 35.0988 33.8106 32.6033L35.4595 34.2521C35.6322 34.4249 35.8587 34.5113 36.0851 34.5113C36.3114 34.5113 36.5379 34.4249 36.7106 34.2521C36.8765 34.0862 36.9697 33.8612 36.9697 33.6266C36.9697 33.3919 36.8765 33.1669 36.7106 33.001L35.0572 31.3476C36.1221 30.379 37.3068 29.5509 38.5823 28.8836C38.6852 28.8298 38.7766 28.7563 38.8511 28.6672C38.9257 28.5781 38.9819 28.4752 39.0167 28.3643C39.0515 28.2535 39.064 28.1369 39.0537 28.0212C39.0434 27.9055 39.0104 27.793 38.9565 27.69Z" fill="url(#paint1_linear_22_124)"/>
<path d="M46.3664 35.6931C46.1317 35.6931 45.9067 35.7863 45.7408 35.9522C45.5748 36.1181 45.4816 36.3431 45.4816 36.5778V41.8331C44.7272 42.1724 44.1998 42.9293 44.1998 43.8088C44.1998 45.0034 45.1717 45.9753 46.3664 45.9753C46.6938 45.9753 47.0034 45.9001 47.282 45.7694L53.1846 51.672C53.2666 51.7543 53.3642 51.8196 53.4715 51.864C53.5789 51.9085 53.694 51.9313 53.8103 51.9312C53.9852 51.9312 54.1563 51.8793 54.3018 51.7821C54.4473 51.6849 54.5607 51.5467 54.6277 51.3851C54.6946 51.2234 54.7122 51.0455 54.678 50.8739C54.6439 50.7023 54.5597 50.5446 54.4359 50.4209L48.4419 44.4268C48.5004 44.2307 48.5329 44.0236 48.5329 43.8088C48.5329 42.9294 48.0055 42.1724 47.2512 41.8332V36.5779C47.2512 36.3432 47.1579 36.1182 46.992 35.9523C46.8261 35.7863 46.601 35.6931 46.3664 35.6931ZM45.9693 43.8086C45.9694 43.7034 46.0113 43.6024 46.0857 43.528C46.1602 43.4536 46.2611 43.4117 46.3664 43.4116C46.5852 43.4116 46.7633 43.5897 46.7633 43.8086C46.7633 44.0276 46.5852 44.2057 46.3664 44.2057C46.2611 44.2056 46.1602 44.1637 46.0857 44.0893C46.0113 44.0148 45.9694 43.9139 45.9693 43.8086Z" fill="url(#paint2_linear_22_124)"/>
</g>
<defs>
<filter id="filter0_d_22_124" x="0" y="0.558441" width="80" height="76.884" filterUnits="userSpaceOnUse" color-interpolation-filters="sRGB">
<feFlood flood-opacity="0" result="BackgroundImageFix"/>
<feColorMatrix in="SourceAlpha" type="matrix" values="0 0 0 0 0 0 0 0 0 0 0 0 0 0 0 0 0 0 127 0" result="hardAlpha"/>
<feOffset/>
<feGaussianBlur stdDeviation="5"/>
<feComposite in2="hardAlpha" operator="out"/>
<feColorMatrix type="matrix" values="0 0 0 0 0.00392157 0 0 0 0 0.760784 0 0 0 0 0.170431 0 0 0 0.5 0"/>
<feBlend mode="normal" in2="BackgroundImageFix" result="effect1_dropShadow_22_124"/>
<feBlend mode="normal" in="SourceGraphic" in2="effect1_dropShadow_22_124" result="shape"/>
</filter>
<linearGradient id="paint0_linear_22_124" x1="10" y1="10.5584" x2="73.4741" y2="14.7429" gradientUnits="userSpaceOnUse">
<stop stop-color="#00AA30"/>
<stop offset="1" stop-color="#00D03A"/>
</linearGradient>
<linearGradient id="paint1_linear_22_124" x1="27.7643" y1="25.2052" x2="67.1414" y2="27.6663" gradientUnits="userSpaceOnUse">
<stop stop-color="#00AA30"/>
<stop offset="1" stop-color="#00D03A"/>
</linearGradient>
<linearGradient id="paint2_linear_22_124" x1="44.1998" y1="35.6931" x2="55.3328" y2="36.1428" gradientUnits="userSpaceOnUse">
<stop stop-color="#00AA30"/>
<stop offset="1" stop-color="#00D03A"/>
</linearGradient>
</defs>
</svg>
